M48
; DRILL file {KiCad 8.0.8} date 2025-02-20T20:43:04-0600
; FORMAT={-:-/ absolute / metric / decimal}
; #@! TF.CreationDate,2025-02-20T20:43:04-06:00
; #@! TF.GenerationSoftware,Kicad,Pcbnew,8.0.8
; #@! TF.FileFunction,Plated,1,2,PTH
FMAT,2
METRIC
; #@! TA.AperFunction,Plated,PTH,ViaDrill
T1C0.300
; #@! TA.AperFunction,Plated,PTH,ComponentDrill
T2C0.800
; #@! TA.AperFunction,Plated,PTH,ComponentDrill
T3C1.000
%
G90
G05
T1
X79.0Y-118.0
X79.0Y-134.5
X85.0Y-103.0
X97.25Y-117.25
X97.7Y-110.397
X98.5Y-122.5
X98.5Y-123.85
X101.75Y-103.5
X103.25Y-131.75
X107.0Y-135.0
X107.25Y-117.5
X115.0Y-131.0
X116.25Y-117.5
X120.0Y-103.5
X122.25Y-117.5
X122.26Y-122.25
X122.34Y-123.67
X129.75Y-119.25
X130.0Y-131.0
X130.0Y-135.0
X137.0Y-103.0
X142.5Y-123.38
X142.5Y-134.0
T2
X87.97Y-139.125
X90.51Y-141.665
X93.05Y-139.125
X98.22Y-139.125
X100.76Y-141.665
X103.3Y-139.125
X119.47Y-139.125
X122.01Y-141.665
X124.55Y-139.125
X130.0Y-139.125
X132.54Y-141.665
X135.08Y-139.125
T3
X85.875Y-111.235
X85.875Y-113.775
X85.875Y-121.68
X85.875Y-124.22
X85.875Y-126.76
X85.875Y-129.3
X116.132Y-112.0
X121.132Y-112.0
X135.625Y-109.7
X135.625Y-112.24
X135.625Y-114.78
X135.625Y-117.32
M30
