%TF.GenerationSoftware,KiCad,Pcbnew,8.0.8*%
%TF.CreationDate,2025-02-20T20:43:13-06:00*%
%TF.ProjectId,peak-read-amp,7065616b-2d72-4656-9164-2d616d702e6b,rev?*%
%TF.SameCoordinates,Original*%
%TF.FileFunction,Legend,Top*%
%TF.FilePolarity,Positive*%
%FSLAX46Y46*%
G04 Gerber Fmt 4.6, Leading zero omitted, Abs format (unit mm)*
G04 Created by KiCad (PCBNEW 8.0.8) date 2025-02-20 20:43:13*
%MOMM*%
%LPD*%
G01*
G04 APERTURE LIST*
%ADD10C,0.150000*%
%ADD11C,0.300000*%
%ADD12C,0.120000*%
G04 APERTURE END LIST*
D10*
X88380180Y-123586779D02*
X89380180Y-123586779D01*
X89046847Y-124062969D02*
X88380180Y-124062969D01*
X88951609Y-124062969D02*
X88999228Y-124110588D01*
X88999228Y-124110588D02*
X89046847Y-124205826D01*
X89046847Y-124205826D02*
X89046847Y-124348683D01*
X89046847Y-124348683D02*
X88999228Y-124443921D01*
X88999228Y-124443921D02*
X88903990Y-124491540D01*
X88903990Y-124491540D02*
X88380180Y-124491540D01*
X89046847Y-124967731D02*
X88046847Y-124967731D01*
X88999228Y-124967731D02*
X89046847Y-125062969D01*
X89046847Y-125062969D02*
X89046847Y-125253445D01*
X89046847Y-125253445D02*
X88999228Y-125348683D01*
X88999228Y-125348683D02*
X88951609Y-125396302D01*
X88951609Y-125396302D02*
X88856371Y-125443921D01*
X88856371Y-125443921D02*
X88570657Y-125443921D01*
X88570657Y-125443921D02*
X88475419Y-125396302D01*
X88475419Y-125396302D02*
X88427800Y-125348683D01*
X88427800Y-125348683D02*
X88380180Y-125253445D01*
X88380180Y-125253445D02*
X88380180Y-125062969D01*
X88380180Y-125062969D02*
X88427800Y-124967731D01*
X89046847Y-126301064D02*
X88380180Y-126301064D01*
X89046847Y-125872493D02*
X88523038Y-125872493D01*
X88523038Y-125872493D02*
X88427800Y-125920112D01*
X88427800Y-125920112D02*
X88380180Y-126015350D01*
X88380180Y-126015350D02*
X88380180Y-126158207D01*
X88380180Y-126158207D02*
X88427800Y-126253445D01*
X88427800Y-126253445D02*
X88475419Y-126301064D01*
X89046847Y-126634398D02*
X89046847Y-127015350D01*
X89380180Y-126777255D02*
X88523038Y-126777255D01*
X88523038Y-126777255D02*
X88427800Y-126824874D01*
X88427800Y-126824874D02*
X88380180Y-126920112D01*
X88380180Y-126920112D02*
X88380180Y-127015350D01*
X97428572Y-101352905D02*
X97600000Y-101410048D01*
X97600000Y-101410048D02*
X97657143Y-101467191D01*
X97657143Y-101467191D02*
X97714286Y-101581476D01*
X97714286Y-101581476D02*
X97714286Y-101752905D01*
X97714286Y-101752905D02*
X97657143Y-101867191D01*
X97657143Y-101867191D02*
X97600000Y-101924334D01*
X97600000Y-101924334D02*
X97485715Y-101981476D01*
X97485715Y-101981476D02*
X97028572Y-101981476D01*
X97028572Y-101981476D02*
X97028572Y-100781476D01*
X97028572Y-100781476D02*
X97428572Y-100781476D01*
X97428572Y-100781476D02*
X97542858Y-100838619D01*
X97542858Y-100838619D02*
X97600000Y-100895762D01*
X97600000Y-100895762D02*
X97657143Y-101010048D01*
X97657143Y-101010048D02*
X97657143Y-101124334D01*
X97657143Y-101124334D02*
X97600000Y-101238619D01*
X97600000Y-101238619D02*
X97542858Y-101295762D01*
X97542858Y-101295762D02*
X97428572Y-101352905D01*
X97428572Y-101352905D02*
X97028572Y-101352905D01*
X98400000Y-101981476D02*
X98285715Y-101924334D01*
X98285715Y-101924334D02*
X98228572Y-101867191D01*
X98228572Y-101867191D02*
X98171429Y-101752905D01*
X98171429Y-101752905D02*
X98171429Y-101410048D01*
X98171429Y-101410048D02*
X98228572Y-101295762D01*
X98228572Y-101295762D02*
X98285715Y-101238619D01*
X98285715Y-101238619D02*
X98400000Y-101181476D01*
X98400000Y-101181476D02*
X98571429Y-101181476D01*
X98571429Y-101181476D02*
X98685715Y-101238619D01*
X98685715Y-101238619D02*
X98742858Y-101295762D01*
X98742858Y-101295762D02*
X98800000Y-101410048D01*
X98800000Y-101410048D02*
X98800000Y-101752905D01*
X98800000Y-101752905D02*
X98742858Y-101867191D01*
X98742858Y-101867191D02*
X98685715Y-101924334D01*
X98685715Y-101924334D02*
X98571429Y-101981476D01*
X98571429Y-101981476D02*
X98400000Y-101981476D01*
X99828572Y-101981476D02*
X99828572Y-101352905D01*
X99828572Y-101352905D02*
X99771429Y-101238619D01*
X99771429Y-101238619D02*
X99657143Y-101181476D01*
X99657143Y-101181476D02*
X99428572Y-101181476D01*
X99428572Y-101181476D02*
X99314286Y-101238619D01*
X99828572Y-101924334D02*
X99714286Y-101981476D01*
X99714286Y-101981476D02*
X99428572Y-101981476D01*
X99428572Y-101981476D02*
X99314286Y-101924334D01*
X99314286Y-101924334D02*
X99257143Y-101810048D01*
X99257143Y-101810048D02*
X99257143Y-101695762D01*
X99257143Y-101695762D02*
X99314286Y-101581476D01*
X99314286Y-101581476D02*
X99428572Y-101524334D01*
X99428572Y-101524334D02*
X99714286Y-101524334D01*
X99714286Y-101524334D02*
X99828572Y-101467191D01*
X100400000Y-101981476D02*
X100400000Y-101181476D01*
X100400000Y-101410048D02*
X100457143Y-101295762D01*
X100457143Y-101295762D02*
X100514286Y-101238619D01*
X100514286Y-101238619D02*
X100628571Y-101181476D01*
X100628571Y-101181476D02*
X100742857Y-101181476D01*
X101657143Y-101981476D02*
X101657143Y-100781476D01*
X101657143Y-101924334D02*
X101542857Y-101981476D01*
X101542857Y-101981476D02*
X101314285Y-101981476D01*
X101314285Y-101981476D02*
X101200000Y-101924334D01*
X101200000Y-101924334D02*
X101142857Y-101867191D01*
X101142857Y-101867191D02*
X101085714Y-101752905D01*
X101085714Y-101752905D02*
X101085714Y-101410048D01*
X101085714Y-101410048D02*
X101142857Y-101295762D01*
X101142857Y-101295762D02*
X101200000Y-101238619D01*
X101200000Y-101238619D02*
X101314285Y-101181476D01*
X101314285Y-101181476D02*
X101542857Y-101181476D01*
X101542857Y-101181476D02*
X101657143Y-101238619D01*
X103142857Y-101981476D02*
X103142857Y-100781476D01*
X103142857Y-101238619D02*
X103257143Y-101181476D01*
X103257143Y-101181476D02*
X103485714Y-101181476D01*
X103485714Y-101181476D02*
X103600000Y-101238619D01*
X103600000Y-101238619D02*
X103657143Y-101295762D01*
X103657143Y-101295762D02*
X103714285Y-101410048D01*
X103714285Y-101410048D02*
X103714285Y-101752905D01*
X103714285Y-101752905D02*
X103657143Y-101867191D01*
X103657143Y-101867191D02*
X103600000Y-101924334D01*
X103600000Y-101924334D02*
X103485714Y-101981476D01*
X103485714Y-101981476D02*
X103257143Y-101981476D01*
X103257143Y-101981476D02*
X103142857Y-101924334D01*
X104114285Y-101181476D02*
X104399999Y-101981476D01*
X104685714Y-101181476D02*
X104399999Y-101981476D01*
X104399999Y-101981476D02*
X104285714Y-102267191D01*
X104285714Y-102267191D02*
X104228571Y-102324334D01*
X104228571Y-102324334D02*
X104114285Y-102381476D01*
X105942857Y-100781476D02*
X106742857Y-100781476D01*
X106742857Y-100781476D02*
X105942857Y-101981476D01*
X105942857Y-101981476D02*
X106742857Y-101981476D01*
X107714286Y-101981476D02*
X107714286Y-101352905D01*
X107714286Y-101352905D02*
X107657143Y-101238619D01*
X107657143Y-101238619D02*
X107542857Y-101181476D01*
X107542857Y-101181476D02*
X107314286Y-101181476D01*
X107314286Y-101181476D02*
X107200000Y-101238619D01*
X107714286Y-101924334D02*
X107600000Y-101981476D01*
X107600000Y-101981476D02*
X107314286Y-101981476D01*
X107314286Y-101981476D02*
X107200000Y-101924334D01*
X107200000Y-101924334D02*
X107142857Y-101810048D01*
X107142857Y-101810048D02*
X107142857Y-101695762D01*
X107142857Y-101695762D02*
X107200000Y-101581476D01*
X107200000Y-101581476D02*
X107314286Y-101524334D01*
X107314286Y-101524334D02*
X107600000Y-101524334D01*
X107600000Y-101524334D02*
X107714286Y-101467191D01*
X108800000Y-101924334D02*
X108685714Y-101981476D01*
X108685714Y-101981476D02*
X108457142Y-101981476D01*
X108457142Y-101981476D02*
X108342857Y-101924334D01*
X108342857Y-101924334D02*
X108285714Y-101867191D01*
X108285714Y-101867191D02*
X108228571Y-101752905D01*
X108228571Y-101752905D02*
X108228571Y-101410048D01*
X108228571Y-101410048D02*
X108285714Y-101295762D01*
X108285714Y-101295762D02*
X108342857Y-101238619D01*
X108342857Y-101238619D02*
X108457142Y-101181476D01*
X108457142Y-101181476D02*
X108685714Y-101181476D01*
X108685714Y-101181476D02*
X108800000Y-101238619D01*
X109314285Y-101981476D02*
X109314285Y-100781476D01*
X109428571Y-101524334D02*
X109771428Y-101981476D01*
X109771428Y-101181476D02*
X109314285Y-101638619D01*
X111885714Y-101867191D02*
X111828571Y-101924334D01*
X111828571Y-101924334D02*
X111657143Y-101981476D01*
X111657143Y-101981476D02*
X111542857Y-101981476D01*
X111542857Y-101981476D02*
X111371428Y-101924334D01*
X111371428Y-101924334D02*
X111257143Y-101810048D01*
X111257143Y-101810048D02*
X111200000Y-101695762D01*
X111200000Y-101695762D02*
X111142857Y-101467191D01*
X111142857Y-101467191D02*
X111142857Y-101295762D01*
X111142857Y-101295762D02*
X111200000Y-101067191D01*
X111200000Y-101067191D02*
X111257143Y-100952905D01*
X111257143Y-100952905D02*
X111371428Y-100838619D01*
X111371428Y-100838619D02*
X111542857Y-100781476D01*
X111542857Y-100781476D02*
X111657143Y-100781476D01*
X111657143Y-100781476D02*
X111828571Y-100838619D01*
X111828571Y-100838619D02*
X111885714Y-100895762D01*
X112571428Y-101981476D02*
X112457143Y-101924334D01*
X112457143Y-101924334D02*
X112400000Y-101810048D01*
X112400000Y-101810048D02*
X112400000Y-100781476D01*
X113199999Y-101981476D02*
X113085714Y-101924334D01*
X113085714Y-101924334D02*
X113028571Y-101867191D01*
X113028571Y-101867191D02*
X112971428Y-101752905D01*
X112971428Y-101752905D02*
X112971428Y-101410048D01*
X112971428Y-101410048D02*
X113028571Y-101295762D01*
X113028571Y-101295762D02*
X113085714Y-101238619D01*
X113085714Y-101238619D02*
X113199999Y-101181476D01*
X113199999Y-101181476D02*
X113371428Y-101181476D01*
X113371428Y-101181476D02*
X113485714Y-101238619D01*
X113485714Y-101238619D02*
X113542857Y-101295762D01*
X113542857Y-101295762D02*
X113599999Y-101410048D01*
X113599999Y-101410048D02*
X113599999Y-101752905D01*
X113599999Y-101752905D02*
X113542857Y-101867191D01*
X113542857Y-101867191D02*
X113485714Y-101924334D01*
X113485714Y-101924334D02*
X113371428Y-101981476D01*
X113371428Y-101981476D02*
X113199999Y-101981476D01*
X114114285Y-101981476D02*
X114114285Y-100781476D01*
X114114285Y-101238619D02*
X114228571Y-101181476D01*
X114228571Y-101181476D02*
X114457142Y-101181476D01*
X114457142Y-101181476D02*
X114571428Y-101238619D01*
X114571428Y-101238619D02*
X114628571Y-101295762D01*
X114628571Y-101295762D02*
X114685713Y-101410048D01*
X114685713Y-101410048D02*
X114685713Y-101752905D01*
X114685713Y-101752905D02*
X114628571Y-101867191D01*
X114628571Y-101867191D02*
X114571428Y-101924334D01*
X114571428Y-101924334D02*
X114457142Y-101981476D01*
X114457142Y-101981476D02*
X114228571Y-101981476D01*
X114228571Y-101981476D02*
X114114285Y-101924334D01*
X115657142Y-101924334D02*
X115542856Y-101981476D01*
X115542856Y-101981476D02*
X115314285Y-101981476D01*
X115314285Y-101981476D02*
X115199999Y-101924334D01*
X115199999Y-101924334D02*
X115142856Y-101810048D01*
X115142856Y-101810048D02*
X115142856Y-101352905D01*
X115142856Y-101352905D02*
X115199999Y-101238619D01*
X115199999Y-101238619D02*
X115314285Y-101181476D01*
X115314285Y-101181476D02*
X115542856Y-101181476D01*
X115542856Y-101181476D02*
X115657142Y-101238619D01*
X115657142Y-101238619D02*
X115714285Y-101352905D01*
X115714285Y-101352905D02*
X115714285Y-101467191D01*
X115714285Y-101467191D02*
X115142856Y-101581476D01*
X116171427Y-101924334D02*
X116285713Y-101981476D01*
X116285713Y-101981476D02*
X116514284Y-101981476D01*
X116514284Y-101981476D02*
X116628570Y-101924334D01*
X116628570Y-101924334D02*
X116685713Y-101810048D01*
X116685713Y-101810048D02*
X116685713Y-101752905D01*
X116685713Y-101752905D02*
X116628570Y-101638619D01*
X116628570Y-101638619D02*
X116514284Y-101581476D01*
X116514284Y-101581476D02*
X116342856Y-101581476D01*
X116342856Y-101581476D02*
X116228570Y-101524334D01*
X116228570Y-101524334D02*
X116171427Y-101410048D01*
X116171427Y-101410048D02*
X116171427Y-101352905D01*
X116171427Y-101352905D02*
X116228570Y-101238619D01*
X116228570Y-101238619D02*
X116342856Y-101181476D01*
X116342856Y-101181476D02*
X116514284Y-101181476D01*
X116514284Y-101181476D02*
X116628570Y-101238619D01*
X117257142Y-101924334D02*
X117257142Y-101981476D01*
X117257142Y-101981476D02*
X117199999Y-102095762D01*
X117199999Y-102095762D02*
X117142856Y-102152905D01*
X118571428Y-100781476D02*
X118857142Y-101981476D01*
X118857142Y-101981476D02*
X119085714Y-101124334D01*
X119085714Y-101124334D02*
X119314285Y-101981476D01*
X119314285Y-101981476D02*
X119600000Y-100781476D01*
X120285714Y-100781476D02*
X120400000Y-100781476D01*
X120400000Y-100781476D02*
X120514286Y-100838619D01*
X120514286Y-100838619D02*
X120571429Y-100895762D01*
X120571429Y-100895762D02*
X120628571Y-101010048D01*
X120628571Y-101010048D02*
X120685714Y-101238619D01*
X120685714Y-101238619D02*
X120685714Y-101524334D01*
X120685714Y-101524334D02*
X120628571Y-101752905D01*
X120628571Y-101752905D02*
X120571429Y-101867191D01*
X120571429Y-101867191D02*
X120514286Y-101924334D01*
X120514286Y-101924334D02*
X120400000Y-101981476D01*
X120400000Y-101981476D02*
X120285714Y-101981476D01*
X120285714Y-101981476D02*
X120171429Y-101924334D01*
X120171429Y-101924334D02*
X120114286Y-101867191D01*
X120114286Y-101867191D02*
X120057143Y-101752905D01*
X120057143Y-101752905D02*
X120000000Y-101524334D01*
X120000000Y-101524334D02*
X120000000Y-101238619D01*
X120000000Y-101238619D02*
X120057143Y-101010048D01*
X120057143Y-101010048D02*
X120114286Y-100895762D01*
X120114286Y-100895762D02*
X120171429Y-100838619D01*
X120171429Y-100838619D02*
X120285714Y-100781476D01*
X121085714Y-100781476D02*
X121885714Y-100781476D01*
X121885714Y-100781476D02*
X121085714Y-101981476D01*
X121085714Y-101981476D02*
X121885714Y-101981476D01*
X123028571Y-101867191D02*
X122971428Y-101924334D01*
X122971428Y-101924334D02*
X122800000Y-101981476D01*
X122800000Y-101981476D02*
X122685714Y-101981476D01*
X122685714Y-101981476D02*
X122514285Y-101924334D01*
X122514285Y-101924334D02*
X122400000Y-101810048D01*
X122400000Y-101810048D02*
X122342857Y-101695762D01*
X122342857Y-101695762D02*
X122285714Y-101467191D01*
X122285714Y-101467191D02*
X122285714Y-101295762D01*
X122285714Y-101295762D02*
X122342857Y-101067191D01*
X122342857Y-101067191D02*
X122400000Y-100952905D01*
X122400000Y-100952905D02*
X122514285Y-100838619D01*
X122514285Y-100838619D02*
X122685714Y-100781476D01*
X122685714Y-100781476D02*
X122800000Y-100781476D01*
X122800000Y-100781476D02*
X122971428Y-100838619D01*
X122971428Y-100838619D02*
X123028571Y-100895762D01*
X104114285Y-102713409D02*
X104514285Y-103913409D01*
X104514285Y-103913409D02*
X104914285Y-102713409D01*
X105771428Y-103856267D02*
X105657142Y-103913409D01*
X105657142Y-103913409D02*
X105428571Y-103913409D01*
X105428571Y-103913409D02*
X105314285Y-103856267D01*
X105314285Y-103856267D02*
X105257142Y-103741981D01*
X105257142Y-103741981D02*
X105257142Y-103284838D01*
X105257142Y-103284838D02*
X105314285Y-103170552D01*
X105314285Y-103170552D02*
X105428571Y-103113409D01*
X105428571Y-103113409D02*
X105657142Y-103113409D01*
X105657142Y-103113409D02*
X105771428Y-103170552D01*
X105771428Y-103170552D02*
X105828571Y-103284838D01*
X105828571Y-103284838D02*
X105828571Y-103399124D01*
X105828571Y-103399124D02*
X105257142Y-103513409D01*
X106342856Y-103913409D02*
X106342856Y-103113409D01*
X106342856Y-103341981D02*
X106399999Y-103227695D01*
X106399999Y-103227695D02*
X106457142Y-103170552D01*
X106457142Y-103170552D02*
X106571427Y-103113409D01*
X106571427Y-103113409D02*
X106685713Y-103113409D01*
X107028570Y-103856267D02*
X107142856Y-103913409D01*
X107142856Y-103913409D02*
X107371427Y-103913409D01*
X107371427Y-103913409D02*
X107485713Y-103856267D01*
X107485713Y-103856267D02*
X107542856Y-103741981D01*
X107542856Y-103741981D02*
X107542856Y-103684838D01*
X107542856Y-103684838D02*
X107485713Y-103570552D01*
X107485713Y-103570552D02*
X107371427Y-103513409D01*
X107371427Y-103513409D02*
X107199999Y-103513409D01*
X107199999Y-103513409D02*
X107085713Y-103456267D01*
X107085713Y-103456267D02*
X107028570Y-103341981D01*
X107028570Y-103341981D02*
X107028570Y-103284838D01*
X107028570Y-103284838D02*
X107085713Y-103170552D01*
X107085713Y-103170552D02*
X107199999Y-103113409D01*
X107199999Y-103113409D02*
X107371427Y-103113409D01*
X107371427Y-103113409D02*
X107485713Y-103170552D01*
X108057142Y-103913409D02*
X108057142Y-103113409D01*
X108057142Y-102713409D02*
X107999999Y-102770552D01*
X107999999Y-102770552D02*
X108057142Y-102827695D01*
X108057142Y-102827695D02*
X108114285Y-102770552D01*
X108114285Y-102770552D02*
X108057142Y-102713409D01*
X108057142Y-102713409D02*
X108057142Y-102827695D01*
X108799999Y-103913409D02*
X108685714Y-103856267D01*
X108685714Y-103856267D02*
X108628571Y-103799124D01*
X108628571Y-103799124D02*
X108571428Y-103684838D01*
X108571428Y-103684838D02*
X108571428Y-103341981D01*
X108571428Y-103341981D02*
X108628571Y-103227695D01*
X108628571Y-103227695D02*
X108685714Y-103170552D01*
X108685714Y-103170552D02*
X108799999Y-103113409D01*
X108799999Y-103113409D02*
X108971428Y-103113409D01*
X108971428Y-103113409D02*
X109085714Y-103170552D01*
X109085714Y-103170552D02*
X109142857Y-103227695D01*
X109142857Y-103227695D02*
X109199999Y-103341981D01*
X109199999Y-103341981D02*
X109199999Y-103684838D01*
X109199999Y-103684838D02*
X109142857Y-103799124D01*
X109142857Y-103799124D02*
X109085714Y-103856267D01*
X109085714Y-103856267D02*
X108971428Y-103913409D01*
X108971428Y-103913409D02*
X108799999Y-103913409D01*
X109714285Y-103113409D02*
X109714285Y-103913409D01*
X109714285Y-103227695D02*
X109771428Y-103170552D01*
X109771428Y-103170552D02*
X109885713Y-103113409D01*
X109885713Y-103113409D02*
X110057142Y-103113409D01*
X110057142Y-103113409D02*
X110171428Y-103170552D01*
X110171428Y-103170552D02*
X110228571Y-103284838D01*
X110228571Y-103284838D02*
X110228571Y-103913409D01*
X112342856Y-103913409D02*
X111657142Y-103913409D01*
X111999999Y-103913409D02*
X111999999Y-102713409D01*
X111999999Y-102713409D02*
X111885713Y-102884838D01*
X111885713Y-102884838D02*
X111771428Y-102999124D01*
X111771428Y-102999124D02*
X111657142Y-103056267D01*
X112857142Y-103799124D02*
X112914285Y-103856267D01*
X112914285Y-103856267D02*
X112857142Y-103913409D01*
X112857142Y-103913409D02*
X112799999Y-103856267D01*
X112799999Y-103856267D02*
X112857142Y-103799124D01*
X112857142Y-103799124D02*
X112857142Y-103913409D01*
X113657142Y-102713409D02*
X113771428Y-102713409D01*
X113771428Y-102713409D02*
X113885714Y-102770552D01*
X113885714Y-102770552D02*
X113942857Y-102827695D01*
X113942857Y-102827695D02*
X113999999Y-102941981D01*
X113999999Y-102941981D02*
X114057142Y-103170552D01*
X114057142Y-103170552D02*
X114057142Y-103456267D01*
X114057142Y-103456267D02*
X113999999Y-103684838D01*
X113999999Y-103684838D02*
X113942857Y-103799124D01*
X113942857Y-103799124D02*
X113885714Y-103856267D01*
X113885714Y-103856267D02*
X113771428Y-103913409D01*
X113771428Y-103913409D02*
X113657142Y-103913409D01*
X113657142Y-103913409D02*
X113542857Y-103856267D01*
X113542857Y-103856267D02*
X113485714Y-103799124D01*
X113485714Y-103799124D02*
X113428571Y-103684838D01*
X113428571Y-103684838D02*
X113371428Y-103456267D01*
X113371428Y-103456267D02*
X113371428Y-103170552D01*
X113371428Y-103170552D02*
X113428571Y-102941981D01*
X113428571Y-102941981D02*
X113485714Y-102827695D01*
X113485714Y-102827695D02*
X113542857Y-102770552D01*
X113542857Y-102770552D02*
X113657142Y-102713409D01*
X114571428Y-103799124D02*
X114628571Y-103856267D01*
X114628571Y-103856267D02*
X114571428Y-103913409D01*
X114571428Y-103913409D02*
X114514285Y-103856267D01*
X114514285Y-103856267D02*
X114571428Y-103799124D01*
X114571428Y-103799124D02*
X114571428Y-103913409D01*
X115771428Y-103913409D02*
X115085714Y-103913409D01*
X115428571Y-103913409D02*
X115428571Y-102713409D01*
X115428571Y-102713409D02*
X115314285Y-102884838D01*
X115314285Y-102884838D02*
X115200000Y-102999124D01*
X115200000Y-102999124D02*
X115085714Y-103056267D01*
X94028572Y-105731057D02*
X93971429Y-105788200D01*
X93971429Y-105788200D02*
X93800001Y-105845342D01*
X93800001Y-105845342D02*
X93685715Y-105845342D01*
X93685715Y-105845342D02*
X93514286Y-105788200D01*
X93514286Y-105788200D02*
X93400001Y-105673914D01*
X93400001Y-105673914D02*
X93342858Y-105559628D01*
X93342858Y-105559628D02*
X93285715Y-105331057D01*
X93285715Y-105331057D02*
X93285715Y-105159628D01*
X93285715Y-105159628D02*
X93342858Y-104931057D01*
X93342858Y-104931057D02*
X93400001Y-104816771D01*
X93400001Y-104816771D02*
X93514286Y-104702485D01*
X93514286Y-104702485D02*
X93685715Y-104645342D01*
X93685715Y-104645342D02*
X93800001Y-104645342D01*
X93800001Y-104645342D02*
X93971429Y-104702485D01*
X93971429Y-104702485D02*
X94028572Y-104759628D01*
X94542858Y-105845342D02*
X94542858Y-105045342D01*
X94542858Y-104645342D02*
X94485715Y-104702485D01*
X94485715Y-104702485D02*
X94542858Y-104759628D01*
X94542858Y-104759628D02*
X94600001Y-104702485D01*
X94600001Y-104702485D02*
X94542858Y-104645342D01*
X94542858Y-104645342D02*
X94542858Y-104759628D01*
X95114287Y-105845342D02*
X95114287Y-105045342D01*
X95114287Y-105273914D02*
X95171430Y-105159628D01*
X95171430Y-105159628D02*
X95228573Y-105102485D01*
X95228573Y-105102485D02*
X95342858Y-105045342D01*
X95342858Y-105045342D02*
X95457144Y-105045342D01*
X96371430Y-105788200D02*
X96257144Y-105845342D01*
X96257144Y-105845342D02*
X96028572Y-105845342D01*
X96028572Y-105845342D02*
X95914287Y-105788200D01*
X95914287Y-105788200D02*
X95857144Y-105731057D01*
X95857144Y-105731057D02*
X95800001Y-105616771D01*
X95800001Y-105616771D02*
X95800001Y-105273914D01*
X95800001Y-105273914D02*
X95857144Y-105159628D01*
X95857144Y-105159628D02*
X95914287Y-105102485D01*
X95914287Y-105102485D02*
X96028572Y-105045342D01*
X96028572Y-105045342D02*
X96257144Y-105045342D01*
X96257144Y-105045342D02*
X96371430Y-105102485D01*
X97400001Y-105045342D02*
X97400001Y-105845342D01*
X96885715Y-105045342D02*
X96885715Y-105673914D01*
X96885715Y-105673914D02*
X96942858Y-105788200D01*
X96942858Y-105788200D02*
X97057143Y-105845342D01*
X97057143Y-105845342D02*
X97228572Y-105845342D01*
X97228572Y-105845342D02*
X97342858Y-105788200D01*
X97342858Y-105788200D02*
X97400001Y-105731057D01*
X97971429Y-105845342D02*
X97971429Y-105045342D01*
X97971429Y-104645342D02*
X97914286Y-104702485D01*
X97914286Y-104702485D02*
X97971429Y-104759628D01*
X97971429Y-104759628D02*
X98028572Y-104702485D01*
X98028572Y-104702485D02*
X97971429Y-104645342D01*
X97971429Y-104645342D02*
X97971429Y-104759628D01*
X98371429Y-105045342D02*
X98828572Y-105045342D01*
X98542858Y-104645342D02*
X98542858Y-105673914D01*
X98542858Y-105673914D02*
X98600001Y-105788200D01*
X98600001Y-105788200D02*
X98714286Y-105845342D01*
X98714286Y-105845342D02*
X98828572Y-105845342D01*
X100657144Y-105845342D02*
X100657144Y-104645342D01*
X100657144Y-105788200D02*
X100542858Y-105845342D01*
X100542858Y-105845342D02*
X100314286Y-105845342D01*
X100314286Y-105845342D02*
X100200001Y-105788200D01*
X100200001Y-105788200D02*
X100142858Y-105731057D01*
X100142858Y-105731057D02*
X100085715Y-105616771D01*
X100085715Y-105616771D02*
X100085715Y-105273914D01*
X100085715Y-105273914D02*
X100142858Y-105159628D01*
X100142858Y-105159628D02*
X100200001Y-105102485D01*
X100200001Y-105102485D02*
X100314286Y-105045342D01*
X100314286Y-105045342D02*
X100542858Y-105045342D01*
X100542858Y-105045342D02*
X100657144Y-105102485D01*
X101685715Y-105788200D02*
X101571429Y-105845342D01*
X101571429Y-105845342D02*
X101342858Y-105845342D01*
X101342858Y-105845342D02*
X101228572Y-105788200D01*
X101228572Y-105788200D02*
X101171429Y-105673914D01*
X101171429Y-105673914D02*
X101171429Y-105216771D01*
X101171429Y-105216771D02*
X101228572Y-105102485D01*
X101228572Y-105102485D02*
X101342858Y-105045342D01*
X101342858Y-105045342D02*
X101571429Y-105045342D01*
X101571429Y-105045342D02*
X101685715Y-105102485D01*
X101685715Y-105102485D02*
X101742858Y-105216771D01*
X101742858Y-105216771D02*
X101742858Y-105331057D01*
X101742858Y-105331057D02*
X101171429Y-105445342D01*
X102200000Y-105788200D02*
X102314286Y-105845342D01*
X102314286Y-105845342D02*
X102542857Y-105845342D01*
X102542857Y-105845342D02*
X102657143Y-105788200D01*
X102657143Y-105788200D02*
X102714286Y-105673914D01*
X102714286Y-105673914D02*
X102714286Y-105616771D01*
X102714286Y-105616771D02*
X102657143Y-105502485D01*
X102657143Y-105502485D02*
X102542857Y-105445342D01*
X102542857Y-105445342D02*
X102371429Y-105445342D01*
X102371429Y-105445342D02*
X102257143Y-105388200D01*
X102257143Y-105388200D02*
X102200000Y-105273914D01*
X102200000Y-105273914D02*
X102200000Y-105216771D01*
X102200000Y-105216771D02*
X102257143Y-105102485D01*
X102257143Y-105102485D02*
X102371429Y-105045342D01*
X102371429Y-105045342D02*
X102542857Y-105045342D01*
X102542857Y-105045342D02*
X102657143Y-105102485D01*
X103228572Y-105845342D02*
X103228572Y-105045342D01*
X103228572Y-104645342D02*
X103171429Y-104702485D01*
X103171429Y-104702485D02*
X103228572Y-104759628D01*
X103228572Y-104759628D02*
X103285715Y-104702485D01*
X103285715Y-104702485D02*
X103228572Y-104645342D01*
X103228572Y-104645342D02*
X103228572Y-104759628D01*
X104314287Y-105045342D02*
X104314287Y-106016771D01*
X104314287Y-106016771D02*
X104257144Y-106131057D01*
X104257144Y-106131057D02*
X104200001Y-106188200D01*
X104200001Y-106188200D02*
X104085715Y-106245342D01*
X104085715Y-106245342D02*
X103914287Y-106245342D01*
X103914287Y-106245342D02*
X103800001Y-106188200D01*
X104314287Y-105788200D02*
X104200001Y-105845342D01*
X104200001Y-105845342D02*
X103971429Y-105845342D01*
X103971429Y-105845342D02*
X103857144Y-105788200D01*
X103857144Y-105788200D02*
X103800001Y-105731057D01*
X103800001Y-105731057D02*
X103742858Y-105616771D01*
X103742858Y-105616771D02*
X103742858Y-105273914D01*
X103742858Y-105273914D02*
X103800001Y-105159628D01*
X103800001Y-105159628D02*
X103857144Y-105102485D01*
X103857144Y-105102485D02*
X103971429Y-105045342D01*
X103971429Y-105045342D02*
X104200001Y-105045342D01*
X104200001Y-105045342D02*
X104314287Y-105102485D01*
X104885715Y-105045342D02*
X104885715Y-105845342D01*
X104885715Y-105159628D02*
X104942858Y-105102485D01*
X104942858Y-105102485D02*
X105057143Y-105045342D01*
X105057143Y-105045342D02*
X105228572Y-105045342D01*
X105228572Y-105045342D02*
X105342858Y-105102485D01*
X105342858Y-105102485D02*
X105400001Y-105216771D01*
X105400001Y-105216771D02*
X105400001Y-105845342D01*
X106885715Y-105845342D02*
X106885715Y-104645342D01*
X106885715Y-105102485D02*
X107000001Y-105045342D01*
X107000001Y-105045342D02*
X107228572Y-105045342D01*
X107228572Y-105045342D02*
X107342858Y-105102485D01*
X107342858Y-105102485D02*
X107400001Y-105159628D01*
X107400001Y-105159628D02*
X107457143Y-105273914D01*
X107457143Y-105273914D02*
X107457143Y-105616771D01*
X107457143Y-105616771D02*
X107400001Y-105731057D01*
X107400001Y-105731057D02*
X107342858Y-105788200D01*
X107342858Y-105788200D02*
X107228572Y-105845342D01*
X107228572Y-105845342D02*
X107000001Y-105845342D01*
X107000001Y-105845342D02*
X106885715Y-105788200D01*
X107857143Y-105045342D02*
X108142857Y-105845342D01*
X108428572Y-105045342D02*
X108142857Y-105845342D01*
X108142857Y-105845342D02*
X108028572Y-106131057D01*
X108028572Y-106131057D02*
X107971429Y-106188200D01*
X107971429Y-106188200D02*
X107857143Y-106245342D01*
X110142858Y-104645342D02*
X110142858Y-105502485D01*
X110142858Y-105502485D02*
X110085715Y-105673914D01*
X110085715Y-105673914D02*
X109971429Y-105788200D01*
X109971429Y-105788200D02*
X109800001Y-105845342D01*
X109800001Y-105845342D02*
X109685715Y-105845342D01*
X111171430Y-105788200D02*
X111057144Y-105845342D01*
X111057144Y-105845342D02*
X110828573Y-105845342D01*
X110828573Y-105845342D02*
X110714287Y-105788200D01*
X110714287Y-105788200D02*
X110657144Y-105673914D01*
X110657144Y-105673914D02*
X110657144Y-105216771D01*
X110657144Y-105216771D02*
X110714287Y-105102485D01*
X110714287Y-105102485D02*
X110828573Y-105045342D01*
X110828573Y-105045342D02*
X111057144Y-105045342D01*
X111057144Y-105045342D02*
X111171430Y-105102485D01*
X111171430Y-105102485D02*
X111228573Y-105216771D01*
X111228573Y-105216771D02*
X111228573Y-105331057D01*
X111228573Y-105331057D02*
X110657144Y-105445342D01*
X111571429Y-105045342D02*
X112028572Y-105045342D01*
X111742858Y-105845342D02*
X111742858Y-104816771D01*
X111742858Y-104816771D02*
X111800001Y-104702485D01*
X111800001Y-104702485D02*
X111914286Y-104645342D01*
X111914286Y-104645342D02*
X112028572Y-104645342D01*
X112257143Y-105045342D02*
X112714286Y-105045342D01*
X112428572Y-105845342D02*
X112428572Y-104816771D01*
X112428572Y-104816771D02*
X112485715Y-104702485D01*
X112485715Y-104702485D02*
X112600000Y-104645342D01*
X112600000Y-104645342D02*
X112714286Y-104645342D01*
X113971429Y-105788200D02*
X114142858Y-105845342D01*
X114142858Y-105845342D02*
X114428572Y-105845342D01*
X114428572Y-105845342D02*
X114542858Y-105788200D01*
X114542858Y-105788200D02*
X114600000Y-105731057D01*
X114600000Y-105731057D02*
X114657143Y-105616771D01*
X114657143Y-105616771D02*
X114657143Y-105502485D01*
X114657143Y-105502485D02*
X114600000Y-105388200D01*
X114600000Y-105388200D02*
X114542858Y-105331057D01*
X114542858Y-105331057D02*
X114428572Y-105273914D01*
X114428572Y-105273914D02*
X114200000Y-105216771D01*
X114200000Y-105216771D02*
X114085715Y-105159628D01*
X114085715Y-105159628D02*
X114028572Y-105102485D01*
X114028572Y-105102485D02*
X113971429Y-104988200D01*
X113971429Y-104988200D02*
X113971429Y-104873914D01*
X113971429Y-104873914D02*
X114028572Y-104759628D01*
X114028572Y-104759628D02*
X114085715Y-104702485D01*
X114085715Y-104702485D02*
X114200000Y-104645342D01*
X114200000Y-104645342D02*
X114485715Y-104645342D01*
X114485715Y-104645342D02*
X114657143Y-104702485D01*
X115171429Y-105845342D02*
X115171429Y-105045342D01*
X115171429Y-105159628D02*
X115228572Y-105102485D01*
X115228572Y-105102485D02*
X115342857Y-105045342D01*
X115342857Y-105045342D02*
X115514286Y-105045342D01*
X115514286Y-105045342D02*
X115628572Y-105102485D01*
X115628572Y-105102485D02*
X115685715Y-105216771D01*
X115685715Y-105216771D02*
X115685715Y-105845342D01*
X115685715Y-105216771D02*
X115742857Y-105102485D01*
X115742857Y-105102485D02*
X115857143Y-105045342D01*
X115857143Y-105045342D02*
X116028572Y-105045342D01*
X116028572Y-105045342D02*
X116142857Y-105102485D01*
X116142857Y-105102485D02*
X116200000Y-105216771D01*
X116200000Y-105216771D02*
X116200000Y-105845342D01*
X116771429Y-105845342D02*
X116771429Y-105045342D01*
X116771429Y-104645342D02*
X116714286Y-104702485D01*
X116714286Y-104702485D02*
X116771429Y-104759628D01*
X116771429Y-104759628D02*
X116828572Y-104702485D01*
X116828572Y-104702485D02*
X116771429Y-104645342D01*
X116771429Y-104645342D02*
X116771429Y-104759628D01*
X117171429Y-105045342D02*
X117628572Y-105045342D01*
X117342858Y-104645342D02*
X117342858Y-105673914D01*
X117342858Y-105673914D02*
X117400001Y-105788200D01*
X117400001Y-105788200D02*
X117514286Y-105845342D01*
X117514286Y-105845342D02*
X117628572Y-105845342D01*
X118028572Y-105845342D02*
X118028572Y-104645342D01*
X118542858Y-105845342D02*
X118542858Y-105216771D01*
X118542858Y-105216771D02*
X118485715Y-105102485D01*
X118485715Y-105102485D02*
X118371429Y-105045342D01*
X118371429Y-105045342D02*
X118200000Y-105045342D01*
X118200000Y-105045342D02*
X118085715Y-105102485D01*
X118085715Y-105102485D02*
X118028572Y-105159628D01*
X119171429Y-105788200D02*
X119171429Y-105845342D01*
X119171429Y-105845342D02*
X119114286Y-105959628D01*
X119114286Y-105959628D02*
X119057143Y-106016771D01*
X120428572Y-104645342D02*
X120828572Y-105845342D01*
X120828572Y-105845342D02*
X121228572Y-104645342D01*
X121628572Y-105216771D02*
X122028572Y-105216771D01*
X122200000Y-105845342D02*
X121628572Y-105845342D01*
X121628572Y-105845342D02*
X121628572Y-104645342D01*
X121628572Y-104645342D02*
X122200000Y-104645342D01*
X123342857Y-105845342D02*
X122657143Y-105845342D01*
X123000000Y-105845342D02*
X123000000Y-104645342D01*
X123000000Y-104645342D02*
X122885714Y-104816771D01*
X122885714Y-104816771D02*
X122771429Y-104931057D01*
X122771429Y-104931057D02*
X122657143Y-104988200D01*
X123742857Y-104645342D02*
X124542857Y-104645342D01*
X124542857Y-104645342D02*
X123742857Y-105845342D01*
X123742857Y-105845342D02*
X124542857Y-105845342D01*
X124942857Y-105502485D02*
X125514286Y-105502485D01*
X124828571Y-105845342D02*
X125228571Y-104645342D01*
X125228571Y-104645342D02*
X125628571Y-105845342D01*
X126714285Y-105731057D02*
X126657142Y-105788200D01*
X126657142Y-105788200D02*
X126485714Y-105845342D01*
X126485714Y-105845342D02*
X126371428Y-105845342D01*
X126371428Y-105845342D02*
X126199999Y-105788200D01*
X126199999Y-105788200D02*
X126085714Y-105673914D01*
X126085714Y-105673914D02*
X126028571Y-105559628D01*
X126028571Y-105559628D02*
X125971428Y-105331057D01*
X125971428Y-105331057D02*
X125971428Y-105159628D01*
X125971428Y-105159628D02*
X126028571Y-104931057D01*
X126028571Y-104931057D02*
X126085714Y-104816771D01*
X126085714Y-104816771D02*
X126199999Y-104702485D01*
X126199999Y-104702485D02*
X126371428Y-104645342D01*
X126371428Y-104645342D02*
X126485714Y-104645342D01*
X126485714Y-104645342D02*
X126657142Y-104702485D01*
X126657142Y-104702485D02*
X126714285Y-104759628D01*
X76670112Y-131846009D02*
X76336779Y-131846009D01*
X76336779Y-132369819D02*
X76336779Y-131369819D01*
X76336779Y-131369819D02*
X76812969Y-131369819D01*
X77098684Y-131369819D02*
X77336779Y-132369819D01*
X77336779Y-132369819D02*
X77527255Y-131655533D01*
X77527255Y-131655533D02*
X77717731Y-132369819D01*
X77717731Y-132369819D02*
X77955827Y-131369819D01*
X78336779Y-132369819D02*
X78336779Y-131369819D01*
X78336779Y-131369819D02*
X78574874Y-131369819D01*
X78574874Y-131369819D02*
X78717731Y-131417438D01*
X78717731Y-131417438D02*
X78812969Y-131512676D01*
X78812969Y-131512676D02*
X78860588Y-131607914D01*
X78860588Y-131607914D02*
X78908207Y-131798390D01*
X78908207Y-131798390D02*
X78908207Y-131941247D01*
X78908207Y-131941247D02*
X78860588Y-132131723D01*
X78860588Y-132131723D02*
X78812969Y-132226961D01*
X78812969Y-132226961D02*
X78717731Y-132322200D01*
X78717731Y-132322200D02*
X78574874Y-132369819D01*
X78574874Y-132369819D02*
X78336779Y-132369819D01*
X80098684Y-132369819D02*
X80098684Y-131369819D01*
X80098684Y-131369819D02*
X80479636Y-131369819D01*
X80479636Y-131369819D02*
X80574874Y-131417438D01*
X80574874Y-131417438D02*
X80622493Y-131465057D01*
X80622493Y-131465057D02*
X80670112Y-131560295D01*
X80670112Y-131560295D02*
X80670112Y-131703152D01*
X80670112Y-131703152D02*
X80622493Y-131798390D01*
X80622493Y-131798390D02*
X80574874Y-131846009D01*
X80574874Y-131846009D02*
X80479636Y-131893628D01*
X80479636Y-131893628D02*
X80098684Y-131893628D01*
X81241541Y-132369819D02*
X81146303Y-132322200D01*
X81146303Y-132322200D02*
X81098684Y-132274580D01*
X81098684Y-132274580D02*
X81051065Y-132179342D01*
X81051065Y-132179342D02*
X81051065Y-131893628D01*
X81051065Y-131893628D02*
X81098684Y-131798390D01*
X81098684Y-131798390D02*
X81146303Y-131750771D01*
X81146303Y-131750771D02*
X81241541Y-131703152D01*
X81241541Y-131703152D02*
X81384398Y-131703152D01*
X81384398Y-131703152D02*
X81479636Y-131750771D01*
X81479636Y-131750771D02*
X81527255Y-131798390D01*
X81527255Y-131798390D02*
X81574874Y-131893628D01*
X81574874Y-131893628D02*
X81574874Y-132179342D01*
X81574874Y-132179342D02*
X81527255Y-132274580D01*
X81527255Y-132274580D02*
X81479636Y-132322200D01*
X81479636Y-132322200D02*
X81384398Y-132369819D01*
X81384398Y-132369819D02*
X81241541Y-132369819D01*
X81908208Y-131703152D02*
X82098684Y-132369819D01*
X82098684Y-132369819D02*
X82289160Y-131893628D01*
X82289160Y-131893628D02*
X82479636Y-132369819D01*
X82479636Y-132369819D02*
X82670112Y-131703152D01*
X83432017Y-132322200D02*
X83336779Y-132369819D01*
X83336779Y-132369819D02*
X83146303Y-132369819D01*
X83146303Y-132369819D02*
X83051065Y-132322200D01*
X83051065Y-132322200D02*
X83003446Y-132226961D01*
X83003446Y-132226961D02*
X83003446Y-131846009D01*
X83003446Y-131846009D02*
X83051065Y-131750771D01*
X83051065Y-131750771D02*
X83146303Y-131703152D01*
X83146303Y-131703152D02*
X83336779Y-131703152D01*
X83336779Y-131703152D02*
X83432017Y-131750771D01*
X83432017Y-131750771D02*
X83479636Y-131846009D01*
X83479636Y-131846009D02*
X83479636Y-131941247D01*
X83479636Y-131941247D02*
X83003446Y-132036485D01*
X83908208Y-132369819D02*
X83908208Y-131703152D01*
X83908208Y-131893628D02*
X83955827Y-131798390D01*
X83955827Y-131798390D02*
X84003446Y-131750771D01*
X84003446Y-131750771D02*
X84098684Y-131703152D01*
X84098684Y-131703152D02*
X84193922Y-131703152D01*
D11*
X97107142Y-99800828D02*
X97107142Y-98300828D01*
X97107142Y-98300828D02*
X97607142Y-99372257D01*
X97607142Y-99372257D02*
X98107142Y-98300828D01*
X98107142Y-98300828D02*
X98107142Y-99800828D01*
X99321428Y-99015114D02*
X98821428Y-99015114D01*
X98821428Y-99800828D02*
X98821428Y-98300828D01*
X98821428Y-98300828D02*
X99535714Y-98300828D01*
X100535714Y-98300828D02*
X100535714Y-99372257D01*
X100535714Y-99372257D02*
X100464285Y-99586542D01*
X100464285Y-99586542D02*
X100321428Y-99729400D01*
X100321428Y-99729400D02*
X100107142Y-99800828D01*
X100107142Y-99800828D02*
X99964285Y-99800828D01*
X102392856Y-99800828D02*
X102392856Y-98300828D01*
X102392856Y-98300828D02*
X102964285Y-98300828D01*
X102964285Y-98300828D02*
X103107142Y-98372257D01*
X103107142Y-98372257D02*
X103178571Y-98443685D01*
X103178571Y-98443685D02*
X103249999Y-98586542D01*
X103249999Y-98586542D02*
X103249999Y-98800828D01*
X103249999Y-98800828D02*
X103178571Y-98943685D01*
X103178571Y-98943685D02*
X103107142Y-99015114D01*
X103107142Y-99015114D02*
X102964285Y-99086542D01*
X102964285Y-99086542D02*
X102392856Y-99086542D01*
X104464285Y-99729400D02*
X104321428Y-99800828D01*
X104321428Y-99800828D02*
X104035714Y-99800828D01*
X104035714Y-99800828D02*
X103892856Y-99729400D01*
X103892856Y-99729400D02*
X103821428Y-99586542D01*
X103821428Y-99586542D02*
X103821428Y-99015114D01*
X103821428Y-99015114D02*
X103892856Y-98872257D01*
X103892856Y-98872257D02*
X104035714Y-98800828D01*
X104035714Y-98800828D02*
X104321428Y-98800828D01*
X104321428Y-98800828D02*
X104464285Y-98872257D01*
X104464285Y-98872257D02*
X104535714Y-99015114D01*
X104535714Y-99015114D02*
X104535714Y-99157971D01*
X104535714Y-99157971D02*
X103821428Y-99300828D01*
X105821428Y-99800828D02*
X105821428Y-99015114D01*
X105821428Y-99015114D02*
X105749999Y-98872257D01*
X105749999Y-98872257D02*
X105607142Y-98800828D01*
X105607142Y-98800828D02*
X105321428Y-98800828D01*
X105321428Y-98800828D02*
X105178570Y-98872257D01*
X105821428Y-99729400D02*
X105678570Y-99800828D01*
X105678570Y-99800828D02*
X105321428Y-99800828D01*
X105321428Y-99800828D02*
X105178570Y-99729400D01*
X105178570Y-99729400D02*
X105107142Y-99586542D01*
X105107142Y-99586542D02*
X105107142Y-99443685D01*
X105107142Y-99443685D02*
X105178570Y-99300828D01*
X105178570Y-99300828D02*
X105321428Y-99229400D01*
X105321428Y-99229400D02*
X105678570Y-99229400D01*
X105678570Y-99229400D02*
X105821428Y-99157971D01*
X106535713Y-99800828D02*
X106535713Y-98300828D01*
X106678571Y-99229400D02*
X107107142Y-99800828D01*
X107107142Y-98800828D02*
X106535713Y-99372257D01*
X109749999Y-99800828D02*
X109249999Y-99086542D01*
X108892856Y-99800828D02*
X108892856Y-98300828D01*
X108892856Y-98300828D02*
X109464285Y-98300828D01*
X109464285Y-98300828D02*
X109607142Y-98372257D01*
X109607142Y-98372257D02*
X109678571Y-98443685D01*
X109678571Y-98443685D02*
X109749999Y-98586542D01*
X109749999Y-98586542D02*
X109749999Y-98800828D01*
X109749999Y-98800828D02*
X109678571Y-98943685D01*
X109678571Y-98943685D02*
X109607142Y-99015114D01*
X109607142Y-99015114D02*
X109464285Y-99086542D01*
X109464285Y-99086542D02*
X108892856Y-99086542D01*
X110964285Y-99729400D02*
X110821428Y-99800828D01*
X110821428Y-99800828D02*
X110535714Y-99800828D01*
X110535714Y-99800828D02*
X110392856Y-99729400D01*
X110392856Y-99729400D02*
X110321428Y-99586542D01*
X110321428Y-99586542D02*
X110321428Y-99015114D01*
X110321428Y-99015114D02*
X110392856Y-98872257D01*
X110392856Y-98872257D02*
X110535714Y-98800828D01*
X110535714Y-98800828D02*
X110821428Y-98800828D01*
X110821428Y-98800828D02*
X110964285Y-98872257D01*
X110964285Y-98872257D02*
X111035714Y-99015114D01*
X111035714Y-99015114D02*
X111035714Y-99157971D01*
X111035714Y-99157971D02*
X110321428Y-99300828D01*
X112321428Y-99800828D02*
X112321428Y-99015114D01*
X112321428Y-99015114D02*
X112249999Y-98872257D01*
X112249999Y-98872257D02*
X112107142Y-98800828D01*
X112107142Y-98800828D02*
X111821428Y-98800828D01*
X111821428Y-98800828D02*
X111678570Y-98872257D01*
X112321428Y-99729400D02*
X112178570Y-99800828D01*
X112178570Y-99800828D02*
X111821428Y-99800828D01*
X111821428Y-99800828D02*
X111678570Y-99729400D01*
X111678570Y-99729400D02*
X111607142Y-99586542D01*
X111607142Y-99586542D02*
X111607142Y-99443685D01*
X111607142Y-99443685D02*
X111678570Y-99300828D01*
X111678570Y-99300828D02*
X111821428Y-99229400D01*
X111821428Y-99229400D02*
X112178570Y-99229400D01*
X112178570Y-99229400D02*
X112321428Y-99157971D01*
X113678571Y-99800828D02*
X113678571Y-98300828D01*
X113678571Y-99729400D02*
X113535713Y-99800828D01*
X113535713Y-99800828D02*
X113249999Y-99800828D01*
X113249999Y-99800828D02*
X113107142Y-99729400D01*
X113107142Y-99729400D02*
X113035713Y-99657971D01*
X113035713Y-99657971D02*
X112964285Y-99515114D01*
X112964285Y-99515114D02*
X112964285Y-99086542D01*
X112964285Y-99086542D02*
X113035713Y-98943685D01*
X113035713Y-98943685D02*
X113107142Y-98872257D01*
X113107142Y-98872257D02*
X113249999Y-98800828D01*
X113249999Y-98800828D02*
X113535713Y-98800828D01*
X113535713Y-98800828D02*
X113678571Y-98872257D01*
X114392856Y-99800828D02*
X114392856Y-98800828D01*
X114392856Y-98300828D02*
X114321428Y-98372257D01*
X114321428Y-98372257D02*
X114392856Y-98443685D01*
X114392856Y-98443685D02*
X114464285Y-98372257D01*
X114464285Y-98372257D02*
X114392856Y-98300828D01*
X114392856Y-98300828D02*
X114392856Y-98443685D01*
X115107142Y-98800828D02*
X115107142Y-99800828D01*
X115107142Y-98943685D02*
X115178571Y-98872257D01*
X115178571Y-98872257D02*
X115321428Y-98800828D01*
X115321428Y-98800828D02*
X115535714Y-98800828D01*
X115535714Y-98800828D02*
X115678571Y-98872257D01*
X115678571Y-98872257D02*
X115750000Y-99015114D01*
X115750000Y-99015114D02*
X115750000Y-99800828D01*
X117107143Y-98800828D02*
X117107143Y-100015114D01*
X117107143Y-100015114D02*
X117035714Y-100157971D01*
X117035714Y-100157971D02*
X116964285Y-100229400D01*
X116964285Y-100229400D02*
X116821428Y-100300828D01*
X116821428Y-100300828D02*
X116607143Y-100300828D01*
X116607143Y-100300828D02*
X116464285Y-100229400D01*
X117107143Y-99729400D02*
X116964285Y-99800828D01*
X116964285Y-99800828D02*
X116678571Y-99800828D01*
X116678571Y-99800828D02*
X116535714Y-99729400D01*
X116535714Y-99729400D02*
X116464285Y-99657971D01*
X116464285Y-99657971D02*
X116392857Y-99515114D01*
X116392857Y-99515114D02*
X116392857Y-99086542D01*
X116392857Y-99086542D02*
X116464285Y-98943685D01*
X116464285Y-98943685D02*
X116535714Y-98872257D01*
X116535714Y-98872257D02*
X116678571Y-98800828D01*
X116678571Y-98800828D02*
X116964285Y-98800828D01*
X116964285Y-98800828D02*
X117107143Y-98872257D01*
X118892857Y-99372257D02*
X119607143Y-99372257D01*
X118750000Y-99800828D02*
X119250000Y-98300828D01*
X119250000Y-98300828D02*
X119750000Y-99800828D01*
X120249999Y-99800828D02*
X120249999Y-98800828D01*
X120249999Y-98943685D02*
X120321428Y-98872257D01*
X120321428Y-98872257D02*
X120464285Y-98800828D01*
X120464285Y-98800828D02*
X120678571Y-98800828D01*
X120678571Y-98800828D02*
X120821428Y-98872257D01*
X120821428Y-98872257D02*
X120892857Y-99015114D01*
X120892857Y-99015114D02*
X120892857Y-99800828D01*
X120892857Y-99015114D02*
X120964285Y-98872257D01*
X120964285Y-98872257D02*
X121107142Y-98800828D01*
X121107142Y-98800828D02*
X121321428Y-98800828D01*
X121321428Y-98800828D02*
X121464285Y-98872257D01*
X121464285Y-98872257D02*
X121535714Y-99015114D01*
X121535714Y-99015114D02*
X121535714Y-99800828D01*
X122249999Y-98800828D02*
X122249999Y-100300828D01*
X122249999Y-98872257D02*
X122392857Y-98800828D01*
X122392857Y-98800828D02*
X122678571Y-98800828D01*
X122678571Y-98800828D02*
X122821428Y-98872257D01*
X122821428Y-98872257D02*
X122892857Y-98943685D01*
X122892857Y-98943685D02*
X122964285Y-99086542D01*
X122964285Y-99086542D02*
X122964285Y-99515114D01*
X122964285Y-99515114D02*
X122892857Y-99657971D01*
X122892857Y-99657971D02*
X122821428Y-99729400D01*
X122821428Y-99729400D02*
X122678571Y-99800828D01*
X122678571Y-99800828D02*
X122392857Y-99800828D01*
X122392857Y-99800828D02*
X122249999Y-99729400D01*
D10*
X76836779Y-108488866D02*
X77598684Y-108488866D01*
X77217731Y-108869819D02*
X77217731Y-108107914D01*
X78598683Y-108869819D02*
X78027255Y-108869819D01*
X78312969Y-108869819D02*
X78312969Y-107869819D01*
X78312969Y-107869819D02*
X78217731Y-108012676D01*
X78217731Y-108012676D02*
X78122493Y-108107914D01*
X78122493Y-108107914D02*
X78027255Y-108155533D01*
X78979636Y-107965057D02*
X79027255Y-107917438D01*
X79027255Y-107917438D02*
X79122493Y-107869819D01*
X79122493Y-107869819D02*
X79360588Y-107869819D01*
X79360588Y-107869819D02*
X79455826Y-107917438D01*
X79455826Y-107917438D02*
X79503445Y-107965057D01*
X79503445Y-107965057D02*
X79551064Y-108060295D01*
X79551064Y-108060295D02*
X79551064Y-108155533D01*
X79551064Y-108155533D02*
X79503445Y-108298390D01*
X79503445Y-108298390D02*
X78932017Y-108869819D01*
X78932017Y-108869819D02*
X79551064Y-108869819D01*
X79836779Y-107869819D02*
X80170112Y-108869819D01*
X80170112Y-108869819D02*
X80503445Y-107869819D01*
X137420112Y-120226009D02*
X137086779Y-120226009D01*
X137086779Y-120749819D02*
X137086779Y-119749819D01*
X137086779Y-119749819D02*
X137562969Y-119749819D01*
X137848684Y-119749819D02*
X138086779Y-120749819D01*
X138086779Y-120749819D02*
X138277255Y-120035533D01*
X138277255Y-120035533D02*
X138467731Y-120749819D01*
X138467731Y-120749819D02*
X138705827Y-119749819D01*
X139086779Y-120749819D02*
X139086779Y-119749819D01*
X139086779Y-119749819D02*
X139324874Y-119749819D01*
X139324874Y-119749819D02*
X139467731Y-119797438D01*
X139467731Y-119797438D02*
X139562969Y-119892676D01*
X139562969Y-119892676D02*
X139610588Y-119987914D01*
X139610588Y-119987914D02*
X139658207Y-120178390D01*
X139658207Y-120178390D02*
X139658207Y-120321247D01*
X139658207Y-120321247D02*
X139610588Y-120511723D01*
X139610588Y-120511723D02*
X139562969Y-120606961D01*
X139562969Y-120606961D02*
X139467731Y-120702200D01*
X139467731Y-120702200D02*
X139324874Y-120749819D01*
X139324874Y-120749819D02*
X139086779Y-120749819D01*
X140848684Y-120749819D02*
X140848684Y-119749819D01*
X140848684Y-119749819D02*
X141229636Y-119749819D01*
X141229636Y-119749819D02*
X141324874Y-119797438D01*
X141324874Y-119797438D02*
X141372493Y-119845057D01*
X141372493Y-119845057D02*
X141420112Y-119940295D01*
X141420112Y-119940295D02*
X141420112Y-120083152D01*
X141420112Y-120083152D02*
X141372493Y-120178390D01*
X141372493Y-120178390D02*
X141324874Y-120226009D01*
X141324874Y-120226009D02*
X141229636Y-120273628D01*
X141229636Y-120273628D02*
X140848684Y-120273628D01*
X141991541Y-120749819D02*
X141896303Y-120702200D01*
X141896303Y-120702200D02*
X141848684Y-120654580D01*
X141848684Y-120654580D02*
X141801065Y-120559342D01*
X141801065Y-120559342D02*
X141801065Y-120273628D01*
X141801065Y-120273628D02*
X141848684Y-120178390D01*
X141848684Y-120178390D02*
X141896303Y-120130771D01*
X141896303Y-120130771D02*
X141991541Y-120083152D01*
X141991541Y-120083152D02*
X142134398Y-120083152D01*
X142134398Y-120083152D02*
X142229636Y-120130771D01*
X142229636Y-120130771D02*
X142277255Y-120178390D01*
X142277255Y-120178390D02*
X142324874Y-120273628D01*
X142324874Y-120273628D02*
X142324874Y-120559342D01*
X142324874Y-120559342D02*
X142277255Y-120654580D01*
X142277255Y-120654580D02*
X142229636Y-120702200D01*
X142229636Y-120702200D02*
X142134398Y-120749819D01*
X142134398Y-120749819D02*
X141991541Y-120749819D01*
X142658208Y-120083152D02*
X142848684Y-120749819D01*
X142848684Y-120749819D02*
X143039160Y-120273628D01*
X143039160Y-120273628D02*
X143229636Y-120749819D01*
X143229636Y-120749819D02*
X143420112Y-120083152D01*
X144182017Y-120702200D02*
X144086779Y-120749819D01*
X144086779Y-120749819D02*
X143896303Y-120749819D01*
X143896303Y-120749819D02*
X143801065Y-120702200D01*
X143801065Y-120702200D02*
X143753446Y-120606961D01*
X143753446Y-120606961D02*
X143753446Y-120226009D01*
X143753446Y-120226009D02*
X143801065Y-120130771D01*
X143801065Y-120130771D02*
X143896303Y-120083152D01*
X143896303Y-120083152D02*
X144086779Y-120083152D01*
X144086779Y-120083152D02*
X144182017Y-120130771D01*
X144182017Y-120130771D02*
X144229636Y-120226009D01*
X144229636Y-120226009D02*
X144229636Y-120321247D01*
X144229636Y-120321247D02*
X143753446Y-120416485D01*
X144658208Y-120749819D02*
X144658208Y-120083152D01*
X144658208Y-120273628D02*
X144705827Y-120178390D01*
X144705827Y-120178390D02*
X144753446Y-120130771D01*
X144753446Y-120130771D02*
X144848684Y-120083152D01*
X144848684Y-120083152D02*
X144943922Y-120083152D01*
X131869819Y-114972744D02*
X131869819Y-114782268D01*
X131869819Y-114782268D02*
X131917438Y-114687030D01*
X131917438Y-114687030D02*
X132012676Y-114591792D01*
X132012676Y-114591792D02*
X132203152Y-114544173D01*
X132203152Y-114544173D02*
X132536485Y-114544173D01*
X132536485Y-114544173D02*
X132726961Y-114591792D01*
X132726961Y-114591792D02*
X132822200Y-114687030D01*
X132822200Y-114687030D02*
X132869819Y-114782268D01*
X132869819Y-114782268D02*
X132869819Y-114972744D01*
X132869819Y-114972744D02*
X132822200Y-115067982D01*
X132822200Y-115067982D02*
X132726961Y-115163220D01*
X132726961Y-115163220D02*
X132536485Y-115210839D01*
X132536485Y-115210839D02*
X132203152Y-115210839D01*
X132203152Y-115210839D02*
X132012676Y-115163220D01*
X132012676Y-115163220D02*
X131917438Y-115067982D01*
X131917438Y-115067982D02*
X131869819Y-114972744D01*
X132203152Y-113687030D02*
X132869819Y-113687030D01*
X132203152Y-114115601D02*
X132726961Y-114115601D01*
X132726961Y-114115601D02*
X132822200Y-114067982D01*
X132822200Y-114067982D02*
X132869819Y-113972744D01*
X132869819Y-113972744D02*
X132869819Y-113829887D01*
X132869819Y-113829887D02*
X132822200Y-113734649D01*
X132822200Y-113734649D02*
X132774580Y-113687030D01*
X132203152Y-113353696D02*
X132203152Y-112972744D01*
X131869819Y-113210839D02*
X132726961Y-113210839D01*
X132726961Y-113210839D02*
X132822200Y-113163220D01*
X132822200Y-113163220D02*
X132869819Y-113067982D01*
X132869819Y-113067982D02*
X132869819Y-112972744D01*
X132203152Y-112639410D02*
X133203152Y-112639410D01*
X132250771Y-112639410D02*
X132203152Y-112544172D01*
X132203152Y-112544172D02*
X132203152Y-112353696D01*
X132203152Y-112353696D02*
X132250771Y-112258458D01*
X132250771Y-112258458D02*
X132298390Y-112210839D01*
X132298390Y-112210839D02*
X132393628Y-112163220D01*
X132393628Y-112163220D02*
X132679342Y-112163220D01*
X132679342Y-112163220D02*
X132774580Y-112210839D01*
X132774580Y-112210839D02*
X132822200Y-112258458D01*
X132822200Y-112258458D02*
X132869819Y-112353696D01*
X132869819Y-112353696D02*
X132869819Y-112544172D01*
X132869819Y-112544172D02*
X132822200Y-112639410D01*
X132203152Y-111306077D02*
X132869819Y-111306077D01*
X132203152Y-111734648D02*
X132726961Y-111734648D01*
X132726961Y-111734648D02*
X132822200Y-111687029D01*
X132822200Y-111687029D02*
X132869819Y-111591791D01*
X132869819Y-111591791D02*
X132869819Y-111448934D01*
X132869819Y-111448934D02*
X132822200Y-111353696D01*
X132822200Y-111353696D02*
X132774580Y-111306077D01*
X132203152Y-110972743D02*
X132203152Y-110591791D01*
X131869819Y-110829886D02*
X132726961Y-110829886D01*
X132726961Y-110829886D02*
X132822200Y-110782267D01*
X132822200Y-110782267D02*
X132869819Y-110687029D01*
X132869819Y-110687029D02*
X132869819Y-110591791D01*
X77098683Y-119119819D02*
X76765350Y-118643628D01*
X76527255Y-119119819D02*
X76527255Y-118119819D01*
X76527255Y-118119819D02*
X76908207Y-118119819D01*
X76908207Y-118119819D02*
X77003445Y-118167438D01*
X77003445Y-118167438D02*
X77051064Y-118215057D01*
X77051064Y-118215057D02*
X77098683Y-118310295D01*
X77098683Y-118310295D02*
X77098683Y-118453152D01*
X77098683Y-118453152D02*
X77051064Y-118548390D01*
X77051064Y-118548390D02*
X77003445Y-118596009D01*
X77003445Y-118596009D02*
X76908207Y-118643628D01*
X76908207Y-118643628D02*
X76527255Y-118643628D01*
X77527255Y-118596009D02*
X77860588Y-118596009D01*
X78003445Y-119119819D02*
X77527255Y-119119819D01*
X77527255Y-119119819D02*
X77527255Y-118119819D01*
X77527255Y-118119819D02*
X78003445Y-118119819D01*
X78765350Y-118596009D02*
X78432017Y-118596009D01*
X78432017Y-119119819D02*
X78432017Y-118119819D01*
X78432017Y-118119819D02*
X78908207Y-118119819D01*
X80051065Y-119119819D02*
X80051065Y-118119819D01*
X80051065Y-118119819D02*
X80432017Y-118119819D01*
X80432017Y-118119819D02*
X80527255Y-118167438D01*
X80527255Y-118167438D02*
X80574874Y-118215057D01*
X80574874Y-118215057D02*
X80622493Y-118310295D01*
X80622493Y-118310295D02*
X80622493Y-118453152D01*
X80622493Y-118453152D02*
X80574874Y-118548390D01*
X80574874Y-118548390D02*
X80527255Y-118596009D01*
X80527255Y-118596009D02*
X80432017Y-118643628D01*
X80432017Y-118643628D02*
X80051065Y-118643628D01*
X81193922Y-119119819D02*
X81098684Y-119072200D01*
X81098684Y-119072200D02*
X81051065Y-119024580D01*
X81051065Y-119024580D02*
X81003446Y-118929342D01*
X81003446Y-118929342D02*
X81003446Y-118643628D01*
X81003446Y-118643628D02*
X81051065Y-118548390D01*
X81051065Y-118548390D02*
X81098684Y-118500771D01*
X81098684Y-118500771D02*
X81193922Y-118453152D01*
X81193922Y-118453152D02*
X81336779Y-118453152D01*
X81336779Y-118453152D02*
X81432017Y-118500771D01*
X81432017Y-118500771D02*
X81479636Y-118548390D01*
X81479636Y-118548390D02*
X81527255Y-118643628D01*
X81527255Y-118643628D02*
X81527255Y-118929342D01*
X81527255Y-118929342D02*
X81479636Y-119024580D01*
X81479636Y-119024580D02*
X81432017Y-119072200D01*
X81432017Y-119072200D02*
X81336779Y-119119819D01*
X81336779Y-119119819D02*
X81193922Y-119119819D01*
X81860589Y-118453152D02*
X82051065Y-119119819D01*
X82051065Y-119119819D02*
X82241541Y-118643628D01*
X82241541Y-118643628D02*
X82432017Y-119119819D01*
X82432017Y-119119819D02*
X82622493Y-118453152D01*
X83384398Y-119072200D02*
X83289160Y-119119819D01*
X83289160Y-119119819D02*
X83098684Y-119119819D01*
X83098684Y-119119819D02*
X83003446Y-119072200D01*
X83003446Y-119072200D02*
X82955827Y-118976961D01*
X82955827Y-118976961D02*
X82955827Y-118596009D01*
X82955827Y-118596009D02*
X83003446Y-118500771D01*
X83003446Y-118500771D02*
X83098684Y-118453152D01*
X83098684Y-118453152D02*
X83289160Y-118453152D01*
X83289160Y-118453152D02*
X83384398Y-118500771D01*
X83384398Y-118500771D02*
X83432017Y-118596009D01*
X83432017Y-118596009D02*
X83432017Y-118691247D01*
X83432017Y-118691247D02*
X82955827Y-118786485D01*
X83860589Y-119119819D02*
X83860589Y-118453152D01*
X83860589Y-118643628D02*
X83908208Y-118548390D01*
X83908208Y-118548390D02*
X83955827Y-118500771D01*
X83955827Y-118500771D02*
X84051065Y-118453152D01*
X84051065Y-118453152D02*
X84146303Y-118453152D01*
X137908207Y-107369819D02*
X137574874Y-106893628D01*
X137336779Y-107369819D02*
X137336779Y-106369819D01*
X137336779Y-106369819D02*
X137717731Y-106369819D01*
X137717731Y-106369819D02*
X137812969Y-106417438D01*
X137812969Y-106417438D02*
X137860588Y-106465057D01*
X137860588Y-106465057D02*
X137908207Y-106560295D01*
X137908207Y-106560295D02*
X137908207Y-106703152D01*
X137908207Y-106703152D02*
X137860588Y-106798390D01*
X137860588Y-106798390D02*
X137812969Y-106846009D01*
X137812969Y-106846009D02*
X137717731Y-106893628D01*
X137717731Y-106893628D02*
X137336779Y-106893628D01*
X138336779Y-106846009D02*
X138670112Y-106846009D01*
X138812969Y-107369819D02*
X138336779Y-107369819D01*
X138336779Y-107369819D02*
X138336779Y-106369819D01*
X138336779Y-106369819D02*
X138812969Y-106369819D01*
X139574874Y-106846009D02*
X139241541Y-106846009D01*
X139241541Y-107369819D02*
X139241541Y-106369819D01*
X139241541Y-106369819D02*
X139717731Y-106369819D01*
X140860589Y-107369819D02*
X140860589Y-106369819D01*
X140860589Y-106369819D02*
X141241541Y-106369819D01*
X141241541Y-106369819D02*
X141336779Y-106417438D01*
X141336779Y-106417438D02*
X141384398Y-106465057D01*
X141384398Y-106465057D02*
X141432017Y-106560295D01*
X141432017Y-106560295D02*
X141432017Y-106703152D01*
X141432017Y-106703152D02*
X141384398Y-106798390D01*
X141384398Y-106798390D02*
X141336779Y-106846009D01*
X141336779Y-106846009D02*
X141241541Y-106893628D01*
X141241541Y-106893628D02*
X140860589Y-106893628D01*
X142003446Y-107369819D02*
X141908208Y-107322200D01*
X141908208Y-107322200D02*
X141860589Y-107274580D01*
X141860589Y-107274580D02*
X141812970Y-107179342D01*
X141812970Y-107179342D02*
X141812970Y-106893628D01*
X141812970Y-106893628D02*
X141860589Y-106798390D01*
X141860589Y-106798390D02*
X141908208Y-106750771D01*
X141908208Y-106750771D02*
X142003446Y-106703152D01*
X142003446Y-106703152D02*
X142146303Y-106703152D01*
X142146303Y-106703152D02*
X142241541Y-106750771D01*
X142241541Y-106750771D02*
X142289160Y-106798390D01*
X142289160Y-106798390D02*
X142336779Y-106893628D01*
X142336779Y-106893628D02*
X142336779Y-107179342D01*
X142336779Y-107179342D02*
X142289160Y-107274580D01*
X142289160Y-107274580D02*
X142241541Y-107322200D01*
X142241541Y-107322200D02*
X142146303Y-107369819D01*
X142146303Y-107369819D02*
X142003446Y-107369819D01*
X142670113Y-106703152D02*
X142860589Y-107369819D01*
X142860589Y-107369819D02*
X143051065Y-106893628D01*
X143051065Y-106893628D02*
X143241541Y-107369819D01*
X143241541Y-107369819D02*
X143432017Y-106703152D01*
X144193922Y-107322200D02*
X144098684Y-107369819D01*
X144098684Y-107369819D02*
X143908208Y-107369819D01*
X143908208Y-107369819D02*
X143812970Y-107322200D01*
X143812970Y-107322200D02*
X143765351Y-107226961D01*
X143765351Y-107226961D02*
X143765351Y-106846009D01*
X143765351Y-106846009D02*
X143812970Y-106750771D01*
X143812970Y-106750771D02*
X143908208Y-106703152D01*
X143908208Y-106703152D02*
X144098684Y-106703152D01*
X144098684Y-106703152D02*
X144193922Y-106750771D01*
X144193922Y-106750771D02*
X144241541Y-106846009D01*
X144241541Y-106846009D02*
X144241541Y-106941247D01*
X144241541Y-106941247D02*
X143765351Y-107036485D01*
X144670113Y-107369819D02*
X144670113Y-106703152D01*
X144670113Y-106893628D02*
X144717732Y-106798390D01*
X144717732Y-106798390D02*
X144765351Y-106750771D01*
X144765351Y-106750771D02*
X144860589Y-106703152D01*
X144860589Y-106703152D02*
X144955827Y-106703152D01*
X112583333Y-129804819D02*
X112250000Y-129328628D01*
X112011905Y-129804819D02*
X112011905Y-128804819D01*
X112011905Y-128804819D02*
X112392857Y-128804819D01*
X112392857Y-128804819D02*
X112488095Y-128852438D01*
X112488095Y-128852438D02*
X112535714Y-128900057D01*
X112535714Y-128900057D02*
X112583333Y-128995295D01*
X112583333Y-128995295D02*
X112583333Y-129138152D01*
X112583333Y-129138152D02*
X112535714Y-129233390D01*
X112535714Y-129233390D02*
X112488095Y-129281009D01*
X112488095Y-129281009D02*
X112392857Y-129328628D01*
X112392857Y-129328628D02*
X112011905Y-129328628D01*
X113154762Y-129233390D02*
X113059524Y-129185771D01*
X113059524Y-129185771D02*
X113011905Y-129138152D01*
X113011905Y-129138152D02*
X112964286Y-129042914D01*
X112964286Y-129042914D02*
X112964286Y-128995295D01*
X112964286Y-128995295D02*
X113011905Y-128900057D01*
X113011905Y-128900057D02*
X113059524Y-128852438D01*
X113059524Y-128852438D02*
X113154762Y-128804819D01*
X113154762Y-128804819D02*
X113345238Y-128804819D01*
X113345238Y-128804819D02*
X113440476Y-128852438D01*
X113440476Y-128852438D02*
X113488095Y-128900057D01*
X113488095Y-128900057D02*
X113535714Y-128995295D01*
X113535714Y-128995295D02*
X113535714Y-129042914D01*
X113535714Y-129042914D02*
X113488095Y-129138152D01*
X113488095Y-129138152D02*
X113440476Y-129185771D01*
X113440476Y-129185771D02*
X113345238Y-129233390D01*
X113345238Y-129233390D02*
X113154762Y-129233390D01*
X113154762Y-129233390D02*
X113059524Y-129281009D01*
X113059524Y-129281009D02*
X113011905Y-129328628D01*
X113011905Y-129328628D02*
X112964286Y-129423866D01*
X112964286Y-129423866D02*
X112964286Y-129614342D01*
X112964286Y-129614342D02*
X113011905Y-129709580D01*
X113011905Y-129709580D02*
X113059524Y-129757200D01*
X113059524Y-129757200D02*
X113154762Y-129804819D01*
X113154762Y-129804819D02*
X113345238Y-129804819D01*
X113345238Y-129804819D02*
X113440476Y-129757200D01*
X113440476Y-129757200D02*
X113488095Y-129709580D01*
X113488095Y-129709580D02*
X113535714Y-129614342D01*
X113535714Y-129614342D02*
X113535714Y-129423866D01*
X113535714Y-129423866D02*
X113488095Y-129328628D01*
X113488095Y-129328628D02*
X113440476Y-129281009D01*
X113440476Y-129281009D02*
X113345238Y-129233390D01*
X136833333Y-123204819D02*
X136500000Y-122728628D01*
X136261905Y-123204819D02*
X136261905Y-122204819D01*
X136261905Y-122204819D02*
X136642857Y-122204819D01*
X136642857Y-122204819D02*
X136738095Y-122252438D01*
X136738095Y-122252438D02*
X136785714Y-122300057D01*
X136785714Y-122300057D02*
X136833333Y-122395295D01*
X136833333Y-122395295D02*
X136833333Y-122538152D01*
X136833333Y-122538152D02*
X136785714Y-122633390D01*
X136785714Y-122633390D02*
X136738095Y-122681009D01*
X136738095Y-122681009D02*
X136642857Y-122728628D01*
X136642857Y-122728628D02*
X136261905Y-122728628D01*
X137738095Y-122204819D02*
X137261905Y-122204819D01*
X137261905Y-122204819D02*
X137214286Y-122681009D01*
X137214286Y-122681009D02*
X137261905Y-122633390D01*
X137261905Y-122633390D02*
X137357143Y-122585771D01*
X137357143Y-122585771D02*
X137595238Y-122585771D01*
X137595238Y-122585771D02*
X137690476Y-122633390D01*
X137690476Y-122633390D02*
X137738095Y-122681009D01*
X137738095Y-122681009D02*
X137785714Y-122776247D01*
X137785714Y-122776247D02*
X137785714Y-123014342D01*
X137785714Y-123014342D02*
X137738095Y-123109580D01*
X137738095Y-123109580D02*
X137690476Y-123157200D01*
X137690476Y-123157200D02*
X137595238Y-123204819D01*
X137595238Y-123204819D02*
X137357143Y-123204819D01*
X137357143Y-123204819D02*
X137261905Y-123157200D01*
X137261905Y-123157200D02*
X137214286Y-123109580D01*
X112333333Y-114359580D02*
X112285714Y-114407200D01*
X112285714Y-114407200D02*
X112142857Y-114454819D01*
X112142857Y-114454819D02*
X112047619Y-114454819D01*
X112047619Y-114454819D02*
X111904762Y-114407200D01*
X111904762Y-114407200D02*
X111809524Y-114311961D01*
X111809524Y-114311961D02*
X111761905Y-114216723D01*
X111761905Y-114216723D02*
X111714286Y-114026247D01*
X111714286Y-114026247D02*
X111714286Y-113883390D01*
X111714286Y-113883390D02*
X111761905Y-113692914D01*
X111761905Y-113692914D02*
X111809524Y-113597676D01*
X111809524Y-113597676D02*
X111904762Y-113502438D01*
X111904762Y-113502438D02*
X112047619Y-113454819D01*
X112047619Y-113454819D02*
X112142857Y-113454819D01*
X112142857Y-113454819D02*
X112285714Y-113502438D01*
X112285714Y-113502438D02*
X112333333Y-113550057D01*
X112714286Y-113550057D02*
X112761905Y-113502438D01*
X112761905Y-113502438D02*
X112857143Y-113454819D01*
X112857143Y-113454819D02*
X113095238Y-113454819D01*
X113095238Y-113454819D02*
X113190476Y-113502438D01*
X113190476Y-113502438D02*
X113238095Y-113550057D01*
X113238095Y-113550057D02*
X113285714Y-113645295D01*
X113285714Y-113645295D02*
X113285714Y-113740533D01*
X113285714Y-113740533D02*
X113238095Y-113883390D01*
X113238095Y-113883390D02*
X112666667Y-114454819D01*
X112666667Y-114454819D02*
X113285714Y-114454819D01*
X117444819Y-142345238D02*
X116968628Y-142678571D01*
X117444819Y-142916666D02*
X116444819Y-142916666D01*
X116444819Y-142916666D02*
X116444819Y-142535714D01*
X116444819Y-142535714D02*
X116492438Y-142440476D01*
X116492438Y-142440476D02*
X116540057Y-142392857D01*
X116540057Y-142392857D02*
X116635295Y-142345238D01*
X116635295Y-142345238D02*
X116778152Y-142345238D01*
X116778152Y-142345238D02*
X116873390Y-142392857D01*
X116873390Y-142392857D02*
X116921009Y-142440476D01*
X116921009Y-142440476D02*
X116968628Y-142535714D01*
X116968628Y-142535714D02*
X116968628Y-142916666D01*
X116444819Y-142059523D02*
X117444819Y-141726190D01*
X117444819Y-141726190D02*
X116444819Y-141392857D01*
X117444819Y-140535714D02*
X117444819Y-141107142D01*
X117444819Y-140821428D02*
X116444819Y-140821428D01*
X116444819Y-140821428D02*
X116587676Y-140916666D01*
X116587676Y-140916666D02*
X116682914Y-141011904D01*
X116682914Y-141011904D02*
X116730533Y-141107142D01*
X118509999Y-136766009D02*
X118176666Y-136766009D01*
X118176666Y-137289819D02*
X118176666Y-136289819D01*
X118176666Y-136289819D02*
X118652856Y-136289819D01*
X118938571Y-136289819D02*
X119176666Y-137289819D01*
X119176666Y-137289819D02*
X119367142Y-136575533D01*
X119367142Y-136575533D02*
X119557618Y-137289819D01*
X119557618Y-137289819D02*
X119795714Y-136289819D01*
X120176666Y-137289819D02*
X120176666Y-136289819D01*
X120176666Y-136289819D02*
X120414761Y-136289819D01*
X120414761Y-136289819D02*
X120557618Y-136337438D01*
X120557618Y-136337438D02*
X120652856Y-136432676D01*
X120652856Y-136432676D02*
X120700475Y-136527914D01*
X120700475Y-136527914D02*
X120748094Y-136718390D01*
X120748094Y-136718390D02*
X120748094Y-136861247D01*
X120748094Y-136861247D02*
X120700475Y-137051723D01*
X120700475Y-137051723D02*
X120652856Y-137146961D01*
X120652856Y-137146961D02*
X120557618Y-137242200D01*
X120557618Y-137242200D02*
X120414761Y-137289819D01*
X120414761Y-137289819D02*
X120176666Y-137289819D01*
X121938571Y-137289819D02*
X121938571Y-136289819D01*
X121938571Y-136289819D02*
X122176666Y-136289819D01*
X122176666Y-136289819D02*
X122319523Y-136337438D01*
X122319523Y-136337438D02*
X122414761Y-136432676D01*
X122414761Y-136432676D02*
X122462380Y-136527914D01*
X122462380Y-136527914D02*
X122509999Y-136718390D01*
X122509999Y-136718390D02*
X122509999Y-136861247D01*
X122509999Y-136861247D02*
X122462380Y-137051723D01*
X122462380Y-137051723D02*
X122414761Y-137146961D01*
X122414761Y-137146961D02*
X122319523Y-137242200D01*
X122319523Y-137242200D02*
X122176666Y-137289819D01*
X122176666Y-137289819D02*
X121938571Y-137289819D01*
X123319523Y-137242200D02*
X123224285Y-137289819D01*
X123224285Y-137289819D02*
X123033809Y-137289819D01*
X123033809Y-137289819D02*
X122938571Y-137242200D01*
X122938571Y-137242200D02*
X122890952Y-137146961D01*
X122890952Y-137146961D02*
X122890952Y-136766009D01*
X122890952Y-136766009D02*
X122938571Y-136670771D01*
X122938571Y-136670771D02*
X123033809Y-136623152D01*
X123033809Y-136623152D02*
X123224285Y-136623152D01*
X123224285Y-136623152D02*
X123319523Y-136670771D01*
X123319523Y-136670771D02*
X123367142Y-136766009D01*
X123367142Y-136766009D02*
X123367142Y-136861247D01*
X123367142Y-136861247D02*
X122890952Y-136956485D01*
X124224285Y-137242200D02*
X124129047Y-137289819D01*
X124129047Y-137289819D02*
X123938571Y-137289819D01*
X123938571Y-137289819D02*
X123843333Y-137242200D01*
X123843333Y-137242200D02*
X123795714Y-137194580D01*
X123795714Y-137194580D02*
X123748095Y-137099342D01*
X123748095Y-137099342D02*
X123748095Y-136813628D01*
X123748095Y-136813628D02*
X123795714Y-136718390D01*
X123795714Y-136718390D02*
X123843333Y-136670771D01*
X123843333Y-136670771D02*
X123938571Y-136623152D01*
X123938571Y-136623152D02*
X124129047Y-136623152D01*
X124129047Y-136623152D02*
X124224285Y-136670771D01*
X125081428Y-137289819D02*
X125081428Y-136766009D01*
X125081428Y-136766009D02*
X125033809Y-136670771D01*
X125033809Y-136670771D02*
X124938571Y-136623152D01*
X124938571Y-136623152D02*
X124748095Y-136623152D01*
X124748095Y-136623152D02*
X124652857Y-136670771D01*
X125081428Y-137242200D02*
X124986190Y-137289819D01*
X124986190Y-137289819D02*
X124748095Y-137289819D01*
X124748095Y-137289819D02*
X124652857Y-137242200D01*
X124652857Y-137242200D02*
X124605238Y-137146961D01*
X124605238Y-137146961D02*
X124605238Y-137051723D01*
X124605238Y-137051723D02*
X124652857Y-136956485D01*
X124652857Y-136956485D02*
X124748095Y-136908866D01*
X124748095Y-136908866D02*
X124986190Y-136908866D01*
X124986190Y-136908866D02*
X125081428Y-136861247D01*
X125462381Y-136623152D02*
X125700476Y-137289819D01*
X125938571Y-136623152D02*
X125700476Y-137289819D01*
X125700476Y-137289819D02*
X125605238Y-137527914D01*
X125605238Y-137527914D02*
X125557619Y-137575533D01*
X125557619Y-137575533D02*
X125462381Y-137623152D01*
X138204819Y-142345238D02*
X137728628Y-142678571D01*
X138204819Y-142916666D02*
X137204819Y-142916666D01*
X137204819Y-142916666D02*
X137204819Y-142535714D01*
X137204819Y-142535714D02*
X137252438Y-142440476D01*
X137252438Y-142440476D02*
X137300057Y-142392857D01*
X137300057Y-142392857D02*
X137395295Y-142345238D01*
X137395295Y-142345238D02*
X137538152Y-142345238D01*
X137538152Y-142345238D02*
X137633390Y-142392857D01*
X137633390Y-142392857D02*
X137681009Y-142440476D01*
X137681009Y-142440476D02*
X137728628Y-142535714D01*
X137728628Y-142535714D02*
X137728628Y-142916666D01*
X137204819Y-142059523D02*
X138204819Y-141726190D01*
X138204819Y-141726190D02*
X137204819Y-141392857D01*
X137300057Y-141107142D02*
X137252438Y-141059523D01*
X137252438Y-141059523D02*
X137204819Y-140964285D01*
X137204819Y-140964285D02*
X137204819Y-140726190D01*
X137204819Y-140726190D02*
X137252438Y-140630952D01*
X137252438Y-140630952D02*
X137300057Y-140583333D01*
X137300057Y-140583333D02*
X137395295Y-140535714D01*
X137395295Y-140535714D02*
X137490533Y-140535714D01*
X137490533Y-140535714D02*
X137633390Y-140583333D01*
X137633390Y-140583333D02*
X138204819Y-141154761D01*
X138204819Y-141154761D02*
X138204819Y-140535714D01*
X129778095Y-136766009D02*
X129444762Y-136766009D01*
X129444762Y-137289819D02*
X129444762Y-136289819D01*
X129444762Y-136289819D02*
X129920952Y-136289819D01*
X130206667Y-136289819D02*
X130444762Y-137289819D01*
X130444762Y-137289819D02*
X130635238Y-136575533D01*
X130635238Y-136575533D02*
X130825714Y-137289819D01*
X130825714Y-137289819D02*
X131063810Y-136289819D01*
X131444762Y-137289819D02*
X131444762Y-136289819D01*
X131444762Y-136289819D02*
X131682857Y-136289819D01*
X131682857Y-136289819D02*
X131825714Y-136337438D01*
X131825714Y-136337438D02*
X131920952Y-136432676D01*
X131920952Y-136432676D02*
X131968571Y-136527914D01*
X131968571Y-136527914D02*
X132016190Y-136718390D01*
X132016190Y-136718390D02*
X132016190Y-136861247D01*
X132016190Y-136861247D02*
X131968571Y-137051723D01*
X131968571Y-137051723D02*
X131920952Y-137146961D01*
X131920952Y-137146961D02*
X131825714Y-137242200D01*
X131825714Y-137242200D02*
X131682857Y-137289819D01*
X131682857Y-137289819D02*
X131444762Y-137289819D01*
X133778095Y-137194580D02*
X133730476Y-137242200D01*
X133730476Y-137242200D02*
X133587619Y-137289819D01*
X133587619Y-137289819D02*
X133492381Y-137289819D01*
X133492381Y-137289819D02*
X133349524Y-137242200D01*
X133349524Y-137242200D02*
X133254286Y-137146961D01*
X133254286Y-137146961D02*
X133206667Y-137051723D01*
X133206667Y-137051723D02*
X133159048Y-136861247D01*
X133159048Y-136861247D02*
X133159048Y-136718390D01*
X133159048Y-136718390D02*
X133206667Y-136527914D01*
X133206667Y-136527914D02*
X133254286Y-136432676D01*
X133254286Y-136432676D02*
X133349524Y-136337438D01*
X133349524Y-136337438D02*
X133492381Y-136289819D01*
X133492381Y-136289819D02*
X133587619Y-136289819D01*
X133587619Y-136289819D02*
X133730476Y-136337438D01*
X133730476Y-136337438D02*
X133778095Y-136385057D01*
X134635238Y-137289819D02*
X134635238Y-136766009D01*
X134635238Y-136766009D02*
X134587619Y-136670771D01*
X134587619Y-136670771D02*
X134492381Y-136623152D01*
X134492381Y-136623152D02*
X134301905Y-136623152D01*
X134301905Y-136623152D02*
X134206667Y-136670771D01*
X134635238Y-137242200D02*
X134540000Y-137289819D01*
X134540000Y-137289819D02*
X134301905Y-137289819D01*
X134301905Y-137289819D02*
X134206667Y-137242200D01*
X134206667Y-137242200D02*
X134159048Y-137146961D01*
X134159048Y-137146961D02*
X134159048Y-137051723D01*
X134159048Y-137051723D02*
X134206667Y-136956485D01*
X134206667Y-136956485D02*
X134301905Y-136908866D01*
X134301905Y-136908866D02*
X134540000Y-136908866D01*
X134540000Y-136908866D02*
X134635238Y-136861247D01*
X135254286Y-137289819D02*
X135159048Y-137242200D01*
X135159048Y-137242200D02*
X135111429Y-137146961D01*
X135111429Y-137146961D02*
X135111429Y-136289819D01*
X135635239Y-137194580D02*
X135682858Y-137242200D01*
X135682858Y-137242200D02*
X135635239Y-137289819D01*
X135635239Y-137289819D02*
X135587620Y-137242200D01*
X135587620Y-137242200D02*
X135635239Y-137194580D01*
X135635239Y-137194580D02*
X135635239Y-137289819D01*
X90033333Y-114507080D02*
X89985714Y-114554700D01*
X89985714Y-114554700D02*
X89842857Y-114602319D01*
X89842857Y-114602319D02*
X89747619Y-114602319D01*
X89747619Y-114602319D02*
X89604762Y-114554700D01*
X89604762Y-114554700D02*
X89509524Y-114459461D01*
X89509524Y-114459461D02*
X89461905Y-114364223D01*
X89461905Y-114364223D02*
X89414286Y-114173747D01*
X89414286Y-114173747D02*
X89414286Y-114030890D01*
X89414286Y-114030890D02*
X89461905Y-113840414D01*
X89461905Y-113840414D02*
X89509524Y-113745176D01*
X89509524Y-113745176D02*
X89604762Y-113649938D01*
X89604762Y-113649938D02*
X89747619Y-113602319D01*
X89747619Y-113602319D02*
X89842857Y-113602319D01*
X89842857Y-113602319D02*
X89985714Y-113649938D01*
X89985714Y-113649938D02*
X90033333Y-113697557D01*
X90366667Y-113602319D02*
X90985714Y-113602319D01*
X90985714Y-113602319D02*
X90652381Y-113983271D01*
X90652381Y-113983271D02*
X90795238Y-113983271D01*
X90795238Y-113983271D02*
X90890476Y-114030890D01*
X90890476Y-114030890D02*
X90938095Y-114078509D01*
X90938095Y-114078509D02*
X90985714Y-114173747D01*
X90985714Y-114173747D02*
X90985714Y-114411842D01*
X90985714Y-114411842D02*
X90938095Y-114507080D01*
X90938095Y-114507080D02*
X90890476Y-114554700D01*
X90890476Y-114554700D02*
X90795238Y-114602319D01*
X90795238Y-114602319D02*
X90509524Y-114602319D01*
X90509524Y-114602319D02*
X90414286Y-114554700D01*
X90414286Y-114554700D02*
X90366667Y-114507080D01*
X96011905Y-127454819D02*
X96011905Y-126454819D01*
X96011905Y-126454819D02*
X96250000Y-126454819D01*
X96250000Y-126454819D02*
X96392857Y-126502438D01*
X96392857Y-126502438D02*
X96488095Y-126597676D01*
X96488095Y-126597676D02*
X96535714Y-126692914D01*
X96535714Y-126692914D02*
X96583333Y-126883390D01*
X96583333Y-126883390D02*
X96583333Y-127026247D01*
X96583333Y-127026247D02*
X96535714Y-127216723D01*
X96535714Y-127216723D02*
X96488095Y-127311961D01*
X96488095Y-127311961D02*
X96392857Y-127407200D01*
X96392857Y-127407200D02*
X96250000Y-127454819D01*
X96250000Y-127454819D02*
X96011905Y-127454819D01*
X97440476Y-126788152D02*
X97440476Y-127454819D01*
X97202381Y-126407200D02*
X96964286Y-127121485D01*
X96964286Y-127121485D02*
X97583333Y-127121485D01*
X85704819Y-142345238D02*
X85228628Y-142678571D01*
X85704819Y-142916666D02*
X84704819Y-142916666D01*
X84704819Y-142916666D02*
X84704819Y-142535714D01*
X84704819Y-142535714D02*
X84752438Y-142440476D01*
X84752438Y-142440476D02*
X84800057Y-142392857D01*
X84800057Y-142392857D02*
X84895295Y-142345238D01*
X84895295Y-142345238D02*
X85038152Y-142345238D01*
X85038152Y-142345238D02*
X85133390Y-142392857D01*
X85133390Y-142392857D02*
X85181009Y-142440476D01*
X85181009Y-142440476D02*
X85228628Y-142535714D01*
X85228628Y-142535714D02*
X85228628Y-142916666D01*
X84704819Y-142059523D02*
X85704819Y-141726190D01*
X85704819Y-141726190D02*
X84704819Y-141392857D01*
X84704819Y-141154761D02*
X84704819Y-140535714D01*
X84704819Y-140535714D02*
X85085771Y-140869047D01*
X85085771Y-140869047D02*
X85085771Y-140726190D01*
X85085771Y-140726190D02*
X85133390Y-140630952D01*
X85133390Y-140630952D02*
X85181009Y-140583333D01*
X85181009Y-140583333D02*
X85276247Y-140535714D01*
X85276247Y-140535714D02*
X85514342Y-140535714D01*
X85514342Y-140535714D02*
X85609580Y-140583333D01*
X85609580Y-140583333D02*
X85657200Y-140630952D01*
X85657200Y-140630952D02*
X85704819Y-140726190D01*
X85704819Y-140726190D02*
X85704819Y-141011904D01*
X85704819Y-141011904D02*
X85657200Y-141107142D01*
X85657200Y-141107142D02*
X85609580Y-141154761D01*
X87367142Y-137289819D02*
X87033809Y-136813628D01*
X86795714Y-137289819D02*
X86795714Y-136289819D01*
X86795714Y-136289819D02*
X87176666Y-136289819D01*
X87176666Y-136289819D02*
X87271904Y-136337438D01*
X87271904Y-136337438D02*
X87319523Y-136385057D01*
X87319523Y-136385057D02*
X87367142Y-136480295D01*
X87367142Y-136480295D02*
X87367142Y-136623152D01*
X87367142Y-136623152D02*
X87319523Y-136718390D01*
X87319523Y-136718390D02*
X87271904Y-136766009D01*
X87271904Y-136766009D02*
X87176666Y-136813628D01*
X87176666Y-136813628D02*
X86795714Y-136813628D01*
X87795714Y-136766009D02*
X88129047Y-136766009D01*
X88271904Y-137289819D02*
X87795714Y-137289819D01*
X87795714Y-137289819D02*
X87795714Y-136289819D01*
X87795714Y-136289819D02*
X88271904Y-136289819D01*
X89033809Y-136766009D02*
X88700476Y-136766009D01*
X88700476Y-137289819D02*
X88700476Y-136289819D01*
X88700476Y-136289819D02*
X89176666Y-136289819D01*
X90319524Y-137289819D02*
X90319524Y-136289819D01*
X90319524Y-136289819D02*
X90557619Y-136289819D01*
X90557619Y-136289819D02*
X90700476Y-136337438D01*
X90700476Y-136337438D02*
X90795714Y-136432676D01*
X90795714Y-136432676D02*
X90843333Y-136527914D01*
X90843333Y-136527914D02*
X90890952Y-136718390D01*
X90890952Y-136718390D02*
X90890952Y-136861247D01*
X90890952Y-136861247D02*
X90843333Y-137051723D01*
X90843333Y-137051723D02*
X90795714Y-137146961D01*
X90795714Y-137146961D02*
X90700476Y-137242200D01*
X90700476Y-137242200D02*
X90557619Y-137289819D01*
X90557619Y-137289819D02*
X90319524Y-137289819D01*
X91700476Y-137242200D02*
X91605238Y-137289819D01*
X91605238Y-137289819D02*
X91414762Y-137289819D01*
X91414762Y-137289819D02*
X91319524Y-137242200D01*
X91319524Y-137242200D02*
X91271905Y-137146961D01*
X91271905Y-137146961D02*
X91271905Y-136766009D01*
X91271905Y-136766009D02*
X91319524Y-136670771D01*
X91319524Y-136670771D02*
X91414762Y-136623152D01*
X91414762Y-136623152D02*
X91605238Y-136623152D01*
X91605238Y-136623152D02*
X91700476Y-136670771D01*
X91700476Y-136670771D02*
X91748095Y-136766009D01*
X91748095Y-136766009D02*
X91748095Y-136861247D01*
X91748095Y-136861247D02*
X91271905Y-136956485D01*
X92605238Y-137242200D02*
X92510000Y-137289819D01*
X92510000Y-137289819D02*
X92319524Y-137289819D01*
X92319524Y-137289819D02*
X92224286Y-137242200D01*
X92224286Y-137242200D02*
X92176667Y-137194580D01*
X92176667Y-137194580D02*
X92129048Y-137099342D01*
X92129048Y-137099342D02*
X92129048Y-136813628D01*
X92129048Y-136813628D02*
X92176667Y-136718390D01*
X92176667Y-136718390D02*
X92224286Y-136670771D01*
X92224286Y-136670771D02*
X92319524Y-136623152D01*
X92319524Y-136623152D02*
X92510000Y-136623152D01*
X92510000Y-136623152D02*
X92605238Y-136670771D01*
X93462381Y-137289819D02*
X93462381Y-136766009D01*
X93462381Y-136766009D02*
X93414762Y-136670771D01*
X93414762Y-136670771D02*
X93319524Y-136623152D01*
X93319524Y-136623152D02*
X93129048Y-136623152D01*
X93129048Y-136623152D02*
X93033810Y-136670771D01*
X93462381Y-137242200D02*
X93367143Y-137289819D01*
X93367143Y-137289819D02*
X93129048Y-137289819D01*
X93129048Y-137289819D02*
X93033810Y-137242200D01*
X93033810Y-137242200D02*
X92986191Y-137146961D01*
X92986191Y-137146961D02*
X92986191Y-137051723D01*
X92986191Y-137051723D02*
X93033810Y-136956485D01*
X93033810Y-136956485D02*
X93129048Y-136908866D01*
X93129048Y-136908866D02*
X93367143Y-136908866D01*
X93367143Y-136908866D02*
X93462381Y-136861247D01*
X93843334Y-136623152D02*
X94081429Y-137289819D01*
X94319524Y-136623152D02*
X94081429Y-137289819D01*
X94081429Y-137289819D02*
X93986191Y-137527914D01*
X93986191Y-137527914D02*
X93938572Y-137575533D01*
X93938572Y-137575533D02*
X93843334Y-137623152D01*
X112857142Y-123304819D02*
X112523809Y-122828628D01*
X112285714Y-123304819D02*
X112285714Y-122304819D01*
X112285714Y-122304819D02*
X112666666Y-122304819D01*
X112666666Y-122304819D02*
X112761904Y-122352438D01*
X112761904Y-122352438D02*
X112809523Y-122400057D01*
X112809523Y-122400057D02*
X112857142Y-122495295D01*
X112857142Y-122495295D02*
X112857142Y-122638152D01*
X112857142Y-122638152D02*
X112809523Y-122733390D01*
X112809523Y-122733390D02*
X112761904Y-122781009D01*
X112761904Y-122781009D02*
X112666666Y-122828628D01*
X112666666Y-122828628D02*
X112285714Y-122828628D01*
X113809523Y-123304819D02*
X113238095Y-123304819D01*
X113523809Y-123304819D02*
X113523809Y-122304819D01*
X113523809Y-122304819D02*
X113428571Y-122447676D01*
X113428571Y-122447676D02*
X113333333Y-122542914D01*
X113333333Y-122542914D02*
X113238095Y-122590533D01*
X114761904Y-123304819D02*
X114190476Y-123304819D01*
X114476190Y-123304819D02*
X114476190Y-122304819D01*
X114476190Y-122304819D02*
X114380952Y-122447676D01*
X114380952Y-122447676D02*
X114285714Y-122542914D01*
X114285714Y-122542914D02*
X114190476Y-122590533D01*
X136833333Y-129704819D02*
X136500000Y-129228628D01*
X136261905Y-129704819D02*
X136261905Y-128704819D01*
X136261905Y-128704819D02*
X136642857Y-128704819D01*
X136642857Y-128704819D02*
X136738095Y-128752438D01*
X136738095Y-128752438D02*
X136785714Y-128800057D01*
X136785714Y-128800057D02*
X136833333Y-128895295D01*
X136833333Y-128895295D02*
X136833333Y-129038152D01*
X136833333Y-129038152D02*
X136785714Y-129133390D01*
X136785714Y-129133390D02*
X136738095Y-129181009D01*
X136738095Y-129181009D02*
X136642857Y-129228628D01*
X136642857Y-129228628D02*
X136261905Y-129228628D01*
X137214286Y-128800057D02*
X137261905Y-128752438D01*
X137261905Y-128752438D02*
X137357143Y-128704819D01*
X137357143Y-128704819D02*
X137595238Y-128704819D01*
X137595238Y-128704819D02*
X137690476Y-128752438D01*
X137690476Y-128752438D02*
X137738095Y-128800057D01*
X137738095Y-128800057D02*
X137785714Y-128895295D01*
X137785714Y-128895295D02*
X137785714Y-128990533D01*
X137785714Y-128990533D02*
X137738095Y-129133390D01*
X137738095Y-129133390D02*
X137166667Y-129704819D01*
X137166667Y-129704819D02*
X137785714Y-129704819D01*
X104716905Y-135304819D02*
X104716905Y-134304819D01*
X104716905Y-134304819D02*
X104955000Y-134304819D01*
X104955000Y-134304819D02*
X105097857Y-134352438D01*
X105097857Y-134352438D02*
X105193095Y-134447676D01*
X105193095Y-134447676D02*
X105240714Y-134542914D01*
X105240714Y-134542914D02*
X105288333Y-134733390D01*
X105288333Y-134733390D02*
X105288333Y-134876247D01*
X105288333Y-134876247D02*
X105240714Y-135066723D01*
X105240714Y-135066723D02*
X105193095Y-135161961D01*
X105193095Y-135161961D02*
X105097857Y-135257200D01*
X105097857Y-135257200D02*
X104955000Y-135304819D01*
X104955000Y-135304819D02*
X104716905Y-135304819D01*
X106145476Y-134304819D02*
X105955000Y-134304819D01*
X105955000Y-134304819D02*
X105859762Y-134352438D01*
X105859762Y-134352438D02*
X105812143Y-134400057D01*
X105812143Y-134400057D02*
X105716905Y-134542914D01*
X105716905Y-134542914D02*
X105669286Y-134733390D01*
X105669286Y-134733390D02*
X105669286Y-135114342D01*
X105669286Y-135114342D02*
X105716905Y-135209580D01*
X105716905Y-135209580D02*
X105764524Y-135257200D01*
X105764524Y-135257200D02*
X105859762Y-135304819D01*
X105859762Y-135304819D02*
X106050238Y-135304819D01*
X106050238Y-135304819D02*
X106145476Y-135257200D01*
X106145476Y-135257200D02*
X106193095Y-135209580D01*
X106193095Y-135209580D02*
X106240714Y-135114342D01*
X106240714Y-135114342D02*
X106240714Y-134876247D01*
X106240714Y-134876247D02*
X106193095Y-134781009D01*
X106193095Y-134781009D02*
X106145476Y-134733390D01*
X106145476Y-134733390D02*
X106050238Y-134685771D01*
X106050238Y-134685771D02*
X105859762Y-134685771D01*
X105859762Y-134685771D02*
X105764524Y-134733390D01*
X105764524Y-134733390D02*
X105716905Y-134781009D01*
X105716905Y-134781009D02*
X105669286Y-134876247D01*
X89783333Y-131109580D02*
X89735714Y-131157200D01*
X89735714Y-131157200D02*
X89592857Y-131204819D01*
X89592857Y-131204819D02*
X89497619Y-131204819D01*
X89497619Y-131204819D02*
X89354762Y-131157200D01*
X89354762Y-131157200D02*
X89259524Y-131061961D01*
X89259524Y-131061961D02*
X89211905Y-130966723D01*
X89211905Y-130966723D02*
X89164286Y-130776247D01*
X89164286Y-130776247D02*
X89164286Y-130633390D01*
X89164286Y-130633390D02*
X89211905Y-130442914D01*
X89211905Y-130442914D02*
X89259524Y-130347676D01*
X89259524Y-130347676D02*
X89354762Y-130252438D01*
X89354762Y-130252438D02*
X89497619Y-130204819D01*
X89497619Y-130204819D02*
X89592857Y-130204819D01*
X89592857Y-130204819D02*
X89735714Y-130252438D01*
X89735714Y-130252438D02*
X89783333Y-130300057D01*
X90640476Y-130538152D02*
X90640476Y-131204819D01*
X90402381Y-130157200D02*
X90164286Y-130871485D01*
X90164286Y-130871485D02*
X90783333Y-130871485D01*
X106454819Y-142345238D02*
X105978628Y-142678571D01*
X106454819Y-142916666D02*
X105454819Y-142916666D01*
X105454819Y-142916666D02*
X105454819Y-142535714D01*
X105454819Y-142535714D02*
X105502438Y-142440476D01*
X105502438Y-142440476D02*
X105550057Y-142392857D01*
X105550057Y-142392857D02*
X105645295Y-142345238D01*
X105645295Y-142345238D02*
X105788152Y-142345238D01*
X105788152Y-142345238D02*
X105883390Y-142392857D01*
X105883390Y-142392857D02*
X105931009Y-142440476D01*
X105931009Y-142440476D02*
X105978628Y-142535714D01*
X105978628Y-142535714D02*
X105978628Y-142916666D01*
X105454819Y-142059523D02*
X106454819Y-141726190D01*
X106454819Y-141726190D02*
X105454819Y-141392857D01*
X105788152Y-140630952D02*
X106454819Y-140630952D01*
X105407200Y-140869047D02*
X106121485Y-141107142D01*
X106121485Y-141107142D02*
X106121485Y-140488095D01*
X98355237Y-137289819D02*
X98021904Y-136813628D01*
X97783809Y-137289819D02*
X97783809Y-136289819D01*
X97783809Y-136289819D02*
X98164761Y-136289819D01*
X98164761Y-136289819D02*
X98259999Y-136337438D01*
X98259999Y-136337438D02*
X98307618Y-136385057D01*
X98307618Y-136385057D02*
X98355237Y-136480295D01*
X98355237Y-136480295D02*
X98355237Y-136623152D01*
X98355237Y-136623152D02*
X98307618Y-136718390D01*
X98307618Y-136718390D02*
X98259999Y-136766009D01*
X98259999Y-136766009D02*
X98164761Y-136813628D01*
X98164761Y-136813628D02*
X97783809Y-136813628D01*
X98783809Y-136766009D02*
X99117142Y-136766009D01*
X99259999Y-137289819D02*
X98783809Y-137289819D01*
X98783809Y-137289819D02*
X98783809Y-136289819D01*
X98783809Y-136289819D02*
X99259999Y-136289819D01*
X100021904Y-136766009D02*
X99688571Y-136766009D01*
X99688571Y-137289819D02*
X99688571Y-136289819D01*
X99688571Y-136289819D02*
X100164761Y-136289819D01*
X101879047Y-137194580D02*
X101831428Y-137242200D01*
X101831428Y-137242200D02*
X101688571Y-137289819D01*
X101688571Y-137289819D02*
X101593333Y-137289819D01*
X101593333Y-137289819D02*
X101450476Y-137242200D01*
X101450476Y-137242200D02*
X101355238Y-137146961D01*
X101355238Y-137146961D02*
X101307619Y-137051723D01*
X101307619Y-137051723D02*
X101260000Y-136861247D01*
X101260000Y-136861247D02*
X101260000Y-136718390D01*
X101260000Y-136718390D02*
X101307619Y-136527914D01*
X101307619Y-136527914D02*
X101355238Y-136432676D01*
X101355238Y-136432676D02*
X101450476Y-136337438D01*
X101450476Y-136337438D02*
X101593333Y-136289819D01*
X101593333Y-136289819D02*
X101688571Y-136289819D01*
X101688571Y-136289819D02*
X101831428Y-136337438D01*
X101831428Y-136337438D02*
X101879047Y-136385057D01*
X102736190Y-137289819D02*
X102736190Y-136766009D01*
X102736190Y-136766009D02*
X102688571Y-136670771D01*
X102688571Y-136670771D02*
X102593333Y-136623152D01*
X102593333Y-136623152D02*
X102402857Y-136623152D01*
X102402857Y-136623152D02*
X102307619Y-136670771D01*
X102736190Y-137242200D02*
X102640952Y-137289819D01*
X102640952Y-137289819D02*
X102402857Y-137289819D01*
X102402857Y-137289819D02*
X102307619Y-137242200D01*
X102307619Y-137242200D02*
X102260000Y-137146961D01*
X102260000Y-137146961D02*
X102260000Y-137051723D01*
X102260000Y-137051723D02*
X102307619Y-136956485D01*
X102307619Y-136956485D02*
X102402857Y-136908866D01*
X102402857Y-136908866D02*
X102640952Y-136908866D01*
X102640952Y-136908866D02*
X102736190Y-136861247D01*
X103355238Y-137289819D02*
X103260000Y-137242200D01*
X103260000Y-137242200D02*
X103212381Y-137146961D01*
X103212381Y-137146961D02*
X103212381Y-136289819D01*
X103736191Y-137194580D02*
X103783810Y-137242200D01*
X103783810Y-137242200D02*
X103736191Y-137289819D01*
X103736191Y-137289819D02*
X103688572Y-137242200D01*
X103688572Y-137242200D02*
X103736191Y-137194580D01*
X103736191Y-137194580D02*
X103736191Y-137289819D01*
X103083333Y-116529580D02*
X103035714Y-116577200D01*
X103035714Y-116577200D02*
X102892857Y-116624819D01*
X102892857Y-116624819D02*
X102797619Y-116624819D01*
X102797619Y-116624819D02*
X102654762Y-116577200D01*
X102654762Y-116577200D02*
X102559524Y-116481961D01*
X102559524Y-116481961D02*
X102511905Y-116386723D01*
X102511905Y-116386723D02*
X102464286Y-116196247D01*
X102464286Y-116196247D02*
X102464286Y-116053390D01*
X102464286Y-116053390D02*
X102511905Y-115862914D01*
X102511905Y-115862914D02*
X102559524Y-115767676D01*
X102559524Y-115767676D02*
X102654762Y-115672438D01*
X102654762Y-115672438D02*
X102797619Y-115624819D01*
X102797619Y-115624819D02*
X102892857Y-115624819D01*
X102892857Y-115624819D02*
X103035714Y-115672438D01*
X103035714Y-115672438D02*
X103083333Y-115720057D01*
X103654762Y-116053390D02*
X103559524Y-116005771D01*
X103559524Y-116005771D02*
X103511905Y-115958152D01*
X103511905Y-115958152D02*
X103464286Y-115862914D01*
X103464286Y-115862914D02*
X103464286Y-115815295D01*
X103464286Y-115815295D02*
X103511905Y-115720057D01*
X103511905Y-115720057D02*
X103559524Y-115672438D01*
X103559524Y-115672438D02*
X103654762Y-115624819D01*
X103654762Y-115624819D02*
X103845238Y-115624819D01*
X103845238Y-115624819D02*
X103940476Y-115672438D01*
X103940476Y-115672438D02*
X103988095Y-115720057D01*
X103988095Y-115720057D02*
X104035714Y-115815295D01*
X104035714Y-115815295D02*
X104035714Y-115862914D01*
X104035714Y-115862914D02*
X103988095Y-115958152D01*
X103988095Y-115958152D02*
X103940476Y-116005771D01*
X103940476Y-116005771D02*
X103845238Y-116053390D01*
X103845238Y-116053390D02*
X103654762Y-116053390D01*
X103654762Y-116053390D02*
X103559524Y-116101009D01*
X103559524Y-116101009D02*
X103511905Y-116148628D01*
X103511905Y-116148628D02*
X103464286Y-116243866D01*
X103464286Y-116243866D02*
X103464286Y-116434342D01*
X103464286Y-116434342D02*
X103511905Y-116529580D01*
X103511905Y-116529580D02*
X103559524Y-116577200D01*
X103559524Y-116577200D02*
X103654762Y-116624819D01*
X103654762Y-116624819D02*
X103845238Y-116624819D01*
X103845238Y-116624819D02*
X103940476Y-116577200D01*
X103940476Y-116577200D02*
X103988095Y-116529580D01*
X103988095Y-116529580D02*
X104035714Y-116434342D01*
X104035714Y-116434342D02*
X104035714Y-116243866D01*
X104035714Y-116243866D02*
X103988095Y-116148628D01*
X103988095Y-116148628D02*
X103940476Y-116101009D01*
X103940476Y-116101009D02*
X103845238Y-116053390D01*
X112607142Y-126304819D02*
X112273809Y-125828628D01*
X112035714Y-126304819D02*
X112035714Y-125304819D01*
X112035714Y-125304819D02*
X112416666Y-125304819D01*
X112416666Y-125304819D02*
X112511904Y-125352438D01*
X112511904Y-125352438D02*
X112559523Y-125400057D01*
X112559523Y-125400057D02*
X112607142Y-125495295D01*
X112607142Y-125495295D02*
X112607142Y-125638152D01*
X112607142Y-125638152D02*
X112559523Y-125733390D01*
X112559523Y-125733390D02*
X112511904Y-125781009D01*
X112511904Y-125781009D02*
X112416666Y-125828628D01*
X112416666Y-125828628D02*
X112035714Y-125828628D01*
X113559523Y-126304819D02*
X112988095Y-126304819D01*
X113273809Y-126304819D02*
X113273809Y-125304819D01*
X113273809Y-125304819D02*
X113178571Y-125447676D01*
X113178571Y-125447676D02*
X113083333Y-125542914D01*
X113083333Y-125542914D02*
X112988095Y-125590533D01*
X113940476Y-125400057D02*
X113988095Y-125352438D01*
X113988095Y-125352438D02*
X114083333Y-125304819D01*
X114083333Y-125304819D02*
X114321428Y-125304819D01*
X114321428Y-125304819D02*
X114416666Y-125352438D01*
X114416666Y-125352438D02*
X114464285Y-125400057D01*
X114464285Y-125400057D02*
X114511904Y-125495295D01*
X114511904Y-125495295D02*
X114511904Y-125590533D01*
X114511904Y-125590533D02*
X114464285Y-125733390D01*
X114464285Y-125733390D02*
X113892857Y-126304819D01*
X113892857Y-126304819D02*
X114511904Y-126304819D01*
X136833333Y-132579819D02*
X136500000Y-132103628D01*
X136261905Y-132579819D02*
X136261905Y-131579819D01*
X136261905Y-131579819D02*
X136642857Y-131579819D01*
X136642857Y-131579819D02*
X136738095Y-131627438D01*
X136738095Y-131627438D02*
X136785714Y-131675057D01*
X136785714Y-131675057D02*
X136833333Y-131770295D01*
X136833333Y-131770295D02*
X136833333Y-131913152D01*
X136833333Y-131913152D02*
X136785714Y-132008390D01*
X136785714Y-132008390D02*
X136738095Y-132056009D01*
X136738095Y-132056009D02*
X136642857Y-132103628D01*
X136642857Y-132103628D02*
X136261905Y-132103628D01*
X137166667Y-131579819D02*
X137785714Y-131579819D01*
X137785714Y-131579819D02*
X137452381Y-131960771D01*
X137452381Y-131960771D02*
X137595238Y-131960771D01*
X137595238Y-131960771D02*
X137690476Y-132008390D01*
X137690476Y-132008390D02*
X137738095Y-132056009D01*
X137738095Y-132056009D02*
X137785714Y-132151247D01*
X137785714Y-132151247D02*
X137785714Y-132389342D01*
X137785714Y-132389342D02*
X137738095Y-132484580D01*
X137738095Y-132484580D02*
X137690476Y-132532200D01*
X137690476Y-132532200D02*
X137595238Y-132579819D01*
X137595238Y-132579819D02*
X137309524Y-132579819D01*
X137309524Y-132579819D02*
X137214286Y-132532200D01*
X137214286Y-132532200D02*
X137166667Y-132484580D01*
X122618333Y-119989580D02*
X122570714Y-120037200D01*
X122570714Y-120037200D02*
X122427857Y-120084819D01*
X122427857Y-120084819D02*
X122332619Y-120084819D01*
X122332619Y-120084819D02*
X122189762Y-120037200D01*
X122189762Y-120037200D02*
X122094524Y-119941961D01*
X122094524Y-119941961D02*
X122046905Y-119846723D01*
X122046905Y-119846723D02*
X121999286Y-119656247D01*
X121999286Y-119656247D02*
X121999286Y-119513390D01*
X121999286Y-119513390D02*
X122046905Y-119322914D01*
X122046905Y-119322914D02*
X122094524Y-119227676D01*
X122094524Y-119227676D02*
X122189762Y-119132438D01*
X122189762Y-119132438D02*
X122332619Y-119084819D01*
X122332619Y-119084819D02*
X122427857Y-119084819D01*
X122427857Y-119084819D02*
X122570714Y-119132438D01*
X122570714Y-119132438D02*
X122618333Y-119180057D01*
X123094524Y-120084819D02*
X123285000Y-120084819D01*
X123285000Y-120084819D02*
X123380238Y-120037200D01*
X123380238Y-120037200D02*
X123427857Y-119989580D01*
X123427857Y-119989580D02*
X123523095Y-119846723D01*
X123523095Y-119846723D02*
X123570714Y-119656247D01*
X123570714Y-119656247D02*
X123570714Y-119275295D01*
X123570714Y-119275295D02*
X123523095Y-119180057D01*
X123523095Y-119180057D02*
X123475476Y-119132438D01*
X123475476Y-119132438D02*
X123380238Y-119084819D01*
X123380238Y-119084819D02*
X123189762Y-119084819D01*
X123189762Y-119084819D02*
X123094524Y-119132438D01*
X123094524Y-119132438D02*
X123046905Y-119180057D01*
X123046905Y-119180057D02*
X122999286Y-119275295D01*
X122999286Y-119275295D02*
X122999286Y-119513390D01*
X122999286Y-119513390D02*
X123046905Y-119608628D01*
X123046905Y-119608628D02*
X123094524Y-119656247D01*
X123094524Y-119656247D02*
X123189762Y-119703866D01*
X123189762Y-119703866D02*
X123380238Y-119703866D01*
X123380238Y-119703866D02*
X123475476Y-119656247D01*
X123475476Y-119656247D02*
X123523095Y-119608628D01*
X123523095Y-119608628D02*
X123570714Y-119513390D01*
X128857142Y-116359580D02*
X128809523Y-116407200D01*
X128809523Y-116407200D02*
X128666666Y-116454819D01*
X128666666Y-116454819D02*
X128571428Y-116454819D01*
X128571428Y-116454819D02*
X128428571Y-116407200D01*
X128428571Y-116407200D02*
X128333333Y-116311961D01*
X128333333Y-116311961D02*
X128285714Y-116216723D01*
X128285714Y-116216723D02*
X128238095Y-116026247D01*
X128238095Y-116026247D02*
X128238095Y-115883390D01*
X128238095Y-115883390D02*
X128285714Y-115692914D01*
X128285714Y-115692914D02*
X128333333Y-115597676D01*
X128333333Y-115597676D02*
X128428571Y-115502438D01*
X128428571Y-115502438D02*
X128571428Y-115454819D01*
X128571428Y-115454819D02*
X128666666Y-115454819D01*
X128666666Y-115454819D02*
X128809523Y-115502438D01*
X128809523Y-115502438D02*
X128857142Y-115550057D01*
X129809523Y-116454819D02*
X129238095Y-116454819D01*
X129523809Y-116454819D02*
X129523809Y-115454819D01*
X129523809Y-115454819D02*
X129428571Y-115597676D01*
X129428571Y-115597676D02*
X129333333Y-115692914D01*
X129333333Y-115692914D02*
X129238095Y-115740533D01*
X130428571Y-115454819D02*
X130523809Y-115454819D01*
X130523809Y-115454819D02*
X130619047Y-115502438D01*
X130619047Y-115502438D02*
X130666666Y-115550057D01*
X130666666Y-115550057D02*
X130714285Y-115645295D01*
X130714285Y-115645295D02*
X130761904Y-115835771D01*
X130761904Y-115835771D02*
X130761904Y-116073866D01*
X130761904Y-116073866D02*
X130714285Y-116264342D01*
X130714285Y-116264342D02*
X130666666Y-116359580D01*
X130666666Y-116359580D02*
X130619047Y-116407200D01*
X130619047Y-116407200D02*
X130523809Y-116454819D01*
X130523809Y-116454819D02*
X130428571Y-116454819D01*
X130428571Y-116454819D02*
X130333333Y-116407200D01*
X130333333Y-116407200D02*
X130285714Y-116359580D01*
X130285714Y-116359580D02*
X130238095Y-116264342D01*
X130238095Y-116264342D02*
X130190476Y-116073866D01*
X130190476Y-116073866D02*
X130190476Y-115835771D01*
X130190476Y-115835771D02*
X130238095Y-115645295D01*
X130238095Y-115645295D02*
X130285714Y-115550057D01*
X130285714Y-115550057D02*
X130333333Y-115502438D01*
X130333333Y-115502438D02*
X130428571Y-115454819D01*
X89833333Y-120179580D02*
X89785714Y-120227200D01*
X89785714Y-120227200D02*
X89642857Y-120274819D01*
X89642857Y-120274819D02*
X89547619Y-120274819D01*
X89547619Y-120274819D02*
X89404762Y-120227200D01*
X89404762Y-120227200D02*
X89309524Y-120131961D01*
X89309524Y-120131961D02*
X89261905Y-120036723D01*
X89261905Y-120036723D02*
X89214286Y-119846247D01*
X89214286Y-119846247D02*
X89214286Y-119703390D01*
X89214286Y-119703390D02*
X89261905Y-119512914D01*
X89261905Y-119512914D02*
X89309524Y-119417676D01*
X89309524Y-119417676D02*
X89404762Y-119322438D01*
X89404762Y-119322438D02*
X89547619Y-119274819D01*
X89547619Y-119274819D02*
X89642857Y-119274819D01*
X89642857Y-119274819D02*
X89785714Y-119322438D01*
X89785714Y-119322438D02*
X89833333Y-119370057D01*
X90738095Y-119274819D02*
X90261905Y-119274819D01*
X90261905Y-119274819D02*
X90214286Y-119751009D01*
X90214286Y-119751009D02*
X90261905Y-119703390D01*
X90261905Y-119703390D02*
X90357143Y-119655771D01*
X90357143Y-119655771D02*
X90595238Y-119655771D01*
X90595238Y-119655771D02*
X90690476Y-119703390D01*
X90690476Y-119703390D02*
X90738095Y-119751009D01*
X90738095Y-119751009D02*
X90785714Y-119846247D01*
X90785714Y-119846247D02*
X90785714Y-120084342D01*
X90785714Y-120084342D02*
X90738095Y-120179580D01*
X90738095Y-120179580D02*
X90690476Y-120227200D01*
X90690476Y-120227200D02*
X90595238Y-120274819D01*
X90595238Y-120274819D02*
X90357143Y-120274819D01*
X90357143Y-120274819D02*
X90261905Y-120227200D01*
X90261905Y-120227200D02*
X90214286Y-120179580D01*
X91333333Y-135359580D02*
X91285714Y-135407200D01*
X91285714Y-135407200D02*
X91142857Y-135454819D01*
X91142857Y-135454819D02*
X91047619Y-135454819D01*
X91047619Y-135454819D02*
X90904762Y-135407200D01*
X90904762Y-135407200D02*
X90809524Y-135311961D01*
X90809524Y-135311961D02*
X90761905Y-135216723D01*
X90761905Y-135216723D02*
X90714286Y-135026247D01*
X90714286Y-135026247D02*
X90714286Y-134883390D01*
X90714286Y-134883390D02*
X90761905Y-134692914D01*
X90761905Y-134692914D02*
X90809524Y-134597676D01*
X90809524Y-134597676D02*
X90904762Y-134502438D01*
X90904762Y-134502438D02*
X91047619Y-134454819D01*
X91047619Y-134454819D02*
X91142857Y-134454819D01*
X91142857Y-134454819D02*
X91285714Y-134502438D01*
X91285714Y-134502438D02*
X91333333Y-134550057D01*
X91666667Y-134454819D02*
X92333333Y-134454819D01*
X92333333Y-134454819D02*
X91904762Y-135454819D01*
X115261905Y-129254819D02*
X115261905Y-128254819D01*
X115261905Y-128254819D02*
X115500000Y-128254819D01*
X115500000Y-128254819D02*
X115642857Y-128302438D01*
X115642857Y-128302438D02*
X115738095Y-128397676D01*
X115738095Y-128397676D02*
X115785714Y-128492914D01*
X115785714Y-128492914D02*
X115833333Y-128683390D01*
X115833333Y-128683390D02*
X115833333Y-128826247D01*
X115833333Y-128826247D02*
X115785714Y-129016723D01*
X115785714Y-129016723D02*
X115738095Y-129111961D01*
X115738095Y-129111961D02*
X115642857Y-129207200D01*
X115642857Y-129207200D02*
X115500000Y-129254819D01*
X115500000Y-129254819D02*
X115261905Y-129254819D01*
X116785714Y-129254819D02*
X116214286Y-129254819D01*
X116500000Y-129254819D02*
X116500000Y-128254819D01*
X116500000Y-128254819D02*
X116404762Y-128397676D01*
X116404762Y-128397676D02*
X116309524Y-128492914D01*
X116309524Y-128492914D02*
X116214286Y-128540533D01*
X87954819Y-112583333D02*
X88669104Y-112583333D01*
X88669104Y-112583333D02*
X88811961Y-112630952D01*
X88811961Y-112630952D02*
X88907200Y-112726190D01*
X88907200Y-112726190D02*
X88954819Y-112869047D01*
X88954819Y-112869047D02*
X88954819Y-112964285D01*
X88954819Y-111583333D02*
X88954819Y-112154761D01*
X88954819Y-111869047D02*
X87954819Y-111869047D01*
X87954819Y-111869047D02*
X88097676Y-111964285D01*
X88097676Y-111964285D02*
X88192914Y-112059523D01*
X88192914Y-112059523D02*
X88240533Y-112154761D01*
X115833333Y-135359580D02*
X115785714Y-135407200D01*
X115785714Y-135407200D02*
X115642857Y-135454819D01*
X115642857Y-135454819D02*
X115547619Y-135454819D01*
X115547619Y-135454819D02*
X115404762Y-135407200D01*
X115404762Y-135407200D02*
X115309524Y-135311961D01*
X115309524Y-135311961D02*
X115261905Y-135216723D01*
X115261905Y-135216723D02*
X115214286Y-135026247D01*
X115214286Y-135026247D02*
X115214286Y-134883390D01*
X115214286Y-134883390D02*
X115261905Y-134692914D01*
X115261905Y-134692914D02*
X115309524Y-134597676D01*
X115309524Y-134597676D02*
X115404762Y-134502438D01*
X115404762Y-134502438D02*
X115547619Y-134454819D01*
X115547619Y-134454819D02*
X115642857Y-134454819D01*
X115642857Y-134454819D02*
X115785714Y-134502438D01*
X115785714Y-134502438D02*
X115833333Y-134550057D01*
X116690476Y-134454819D02*
X116500000Y-134454819D01*
X116500000Y-134454819D02*
X116404762Y-134502438D01*
X116404762Y-134502438D02*
X116357143Y-134550057D01*
X116357143Y-134550057D02*
X116261905Y-134692914D01*
X116261905Y-134692914D02*
X116214286Y-134883390D01*
X116214286Y-134883390D02*
X116214286Y-135264342D01*
X116214286Y-135264342D02*
X116261905Y-135359580D01*
X116261905Y-135359580D02*
X116309524Y-135407200D01*
X116309524Y-135407200D02*
X116404762Y-135454819D01*
X116404762Y-135454819D02*
X116595238Y-135454819D01*
X116595238Y-135454819D02*
X116690476Y-135407200D01*
X116690476Y-135407200D02*
X116738095Y-135359580D01*
X116738095Y-135359580D02*
X116785714Y-135264342D01*
X116785714Y-135264342D02*
X116785714Y-135026247D01*
X116785714Y-135026247D02*
X116738095Y-134931009D01*
X116738095Y-134931009D02*
X116690476Y-134883390D01*
X116690476Y-134883390D02*
X116595238Y-134835771D01*
X116595238Y-134835771D02*
X116404762Y-134835771D01*
X116404762Y-134835771D02*
X116309524Y-134883390D01*
X116309524Y-134883390D02*
X116261905Y-134931009D01*
X116261905Y-134931009D02*
X116214286Y-135026247D01*
X126473095Y-119114819D02*
X126473095Y-119924342D01*
X126473095Y-119924342D02*
X126520714Y-120019580D01*
X126520714Y-120019580D02*
X126568333Y-120067200D01*
X126568333Y-120067200D02*
X126663571Y-120114819D01*
X126663571Y-120114819D02*
X126854047Y-120114819D01*
X126854047Y-120114819D02*
X126949285Y-120067200D01*
X126949285Y-120067200D02*
X126996904Y-120019580D01*
X126996904Y-120019580D02*
X127044523Y-119924342D01*
X127044523Y-119924342D02*
X127044523Y-119114819D01*
X127473095Y-119210057D02*
X127520714Y-119162438D01*
X127520714Y-119162438D02*
X127615952Y-119114819D01*
X127615952Y-119114819D02*
X127854047Y-119114819D01*
X127854047Y-119114819D02*
X127949285Y-119162438D01*
X127949285Y-119162438D02*
X127996904Y-119210057D01*
X127996904Y-119210057D02*
X128044523Y-119305295D01*
X128044523Y-119305295D02*
X128044523Y-119400533D01*
X128044523Y-119400533D02*
X127996904Y-119543390D01*
X127996904Y-119543390D02*
X127425476Y-120114819D01*
X127425476Y-120114819D02*
X128044523Y-120114819D01*
X98261905Y-132554819D02*
X98261905Y-131554819D01*
X98261905Y-131554819D02*
X98500000Y-131554819D01*
X98500000Y-131554819D02*
X98642857Y-131602438D01*
X98642857Y-131602438D02*
X98738095Y-131697676D01*
X98738095Y-131697676D02*
X98785714Y-131792914D01*
X98785714Y-131792914D02*
X98833333Y-131983390D01*
X98833333Y-131983390D02*
X98833333Y-132126247D01*
X98833333Y-132126247D02*
X98785714Y-132316723D01*
X98785714Y-132316723D02*
X98738095Y-132411961D01*
X98738095Y-132411961D02*
X98642857Y-132507200D01*
X98642857Y-132507200D02*
X98500000Y-132554819D01*
X98500000Y-132554819D02*
X98261905Y-132554819D01*
X99738095Y-131554819D02*
X99261905Y-131554819D01*
X99261905Y-131554819D02*
X99214286Y-132031009D01*
X99214286Y-132031009D02*
X99261905Y-131983390D01*
X99261905Y-131983390D02*
X99357143Y-131935771D01*
X99357143Y-131935771D02*
X99595238Y-131935771D01*
X99595238Y-131935771D02*
X99690476Y-131983390D01*
X99690476Y-131983390D02*
X99738095Y-132031009D01*
X99738095Y-132031009D02*
X99785714Y-132126247D01*
X99785714Y-132126247D02*
X99785714Y-132364342D01*
X99785714Y-132364342D02*
X99738095Y-132459580D01*
X99738095Y-132459580D02*
X99690476Y-132507200D01*
X99690476Y-132507200D02*
X99595238Y-132554819D01*
X99595238Y-132554819D02*
X99357143Y-132554819D01*
X99357143Y-132554819D02*
X99261905Y-132507200D01*
X99261905Y-132507200D02*
X99214286Y-132459580D01*
X136833333Y-126329819D02*
X136500000Y-125853628D01*
X136261905Y-126329819D02*
X136261905Y-125329819D01*
X136261905Y-125329819D02*
X136642857Y-125329819D01*
X136642857Y-125329819D02*
X136738095Y-125377438D01*
X136738095Y-125377438D02*
X136785714Y-125425057D01*
X136785714Y-125425057D02*
X136833333Y-125520295D01*
X136833333Y-125520295D02*
X136833333Y-125663152D01*
X136833333Y-125663152D02*
X136785714Y-125758390D01*
X136785714Y-125758390D02*
X136738095Y-125806009D01*
X136738095Y-125806009D02*
X136642857Y-125853628D01*
X136642857Y-125853628D02*
X136261905Y-125853628D01*
X137690476Y-125329819D02*
X137500000Y-125329819D01*
X137500000Y-125329819D02*
X137404762Y-125377438D01*
X137404762Y-125377438D02*
X137357143Y-125425057D01*
X137357143Y-125425057D02*
X137261905Y-125567914D01*
X137261905Y-125567914D02*
X137214286Y-125758390D01*
X137214286Y-125758390D02*
X137214286Y-126139342D01*
X137214286Y-126139342D02*
X137261905Y-126234580D01*
X137261905Y-126234580D02*
X137309524Y-126282200D01*
X137309524Y-126282200D02*
X137404762Y-126329819D01*
X137404762Y-126329819D02*
X137595238Y-126329819D01*
X137595238Y-126329819D02*
X137690476Y-126282200D01*
X137690476Y-126282200D02*
X137738095Y-126234580D01*
X137738095Y-126234580D02*
X137785714Y-126139342D01*
X137785714Y-126139342D02*
X137785714Y-125901247D01*
X137785714Y-125901247D02*
X137738095Y-125806009D01*
X137738095Y-125806009D02*
X137690476Y-125758390D01*
X137690476Y-125758390D02*
X137595238Y-125710771D01*
X137595238Y-125710771D02*
X137404762Y-125710771D01*
X137404762Y-125710771D02*
X137309524Y-125758390D01*
X137309524Y-125758390D02*
X137261905Y-125806009D01*
X137261905Y-125806009D02*
X137214286Y-125901247D01*
X132666666Y-106454819D02*
X132666666Y-107169104D01*
X132666666Y-107169104D02*
X132619047Y-107311961D01*
X132619047Y-107311961D02*
X132523809Y-107407200D01*
X132523809Y-107407200D02*
X132380952Y-107454819D01*
X132380952Y-107454819D02*
X132285714Y-107454819D01*
X133047619Y-106454819D02*
X133666666Y-106454819D01*
X133666666Y-106454819D02*
X133333333Y-106835771D01*
X133333333Y-106835771D02*
X133476190Y-106835771D01*
X133476190Y-106835771D02*
X133571428Y-106883390D01*
X133571428Y-106883390D02*
X133619047Y-106931009D01*
X133619047Y-106931009D02*
X133666666Y-107026247D01*
X133666666Y-107026247D02*
X133666666Y-107264342D01*
X133666666Y-107264342D02*
X133619047Y-107359580D01*
X133619047Y-107359580D02*
X133571428Y-107407200D01*
X133571428Y-107407200D02*
X133476190Y-107454819D01*
X133476190Y-107454819D02*
X133190476Y-107454819D01*
X133190476Y-107454819D02*
X133095238Y-107407200D01*
X133095238Y-107407200D02*
X133047619Y-107359580D01*
X115261905Y-132379819D02*
X115261905Y-131379819D01*
X115261905Y-131379819D02*
X115500000Y-131379819D01*
X115500000Y-131379819D02*
X115642857Y-131427438D01*
X115642857Y-131427438D02*
X115738095Y-131522676D01*
X115738095Y-131522676D02*
X115785714Y-131617914D01*
X115785714Y-131617914D02*
X115833333Y-131808390D01*
X115833333Y-131808390D02*
X115833333Y-131951247D01*
X115833333Y-131951247D02*
X115785714Y-132141723D01*
X115785714Y-132141723D02*
X115738095Y-132236961D01*
X115738095Y-132236961D02*
X115642857Y-132332200D01*
X115642857Y-132332200D02*
X115500000Y-132379819D01*
X115500000Y-132379819D02*
X115261905Y-132379819D01*
X116214286Y-131475057D02*
X116261905Y-131427438D01*
X116261905Y-131427438D02*
X116357143Y-131379819D01*
X116357143Y-131379819D02*
X116595238Y-131379819D01*
X116595238Y-131379819D02*
X116690476Y-131427438D01*
X116690476Y-131427438D02*
X116738095Y-131475057D01*
X116738095Y-131475057D02*
X116785714Y-131570295D01*
X116785714Y-131570295D02*
X116785714Y-131665533D01*
X116785714Y-131665533D02*
X116738095Y-131808390D01*
X116738095Y-131808390D02*
X116166667Y-132379819D01*
X116166667Y-132379819D02*
X116785714Y-132379819D01*
X121216905Y-135454819D02*
X121216905Y-134454819D01*
X121216905Y-134454819D02*
X121455000Y-134454819D01*
X121455000Y-134454819D02*
X121597857Y-134502438D01*
X121597857Y-134502438D02*
X121693095Y-134597676D01*
X121693095Y-134597676D02*
X121740714Y-134692914D01*
X121740714Y-134692914D02*
X121788333Y-134883390D01*
X121788333Y-134883390D02*
X121788333Y-135026247D01*
X121788333Y-135026247D02*
X121740714Y-135216723D01*
X121740714Y-135216723D02*
X121693095Y-135311961D01*
X121693095Y-135311961D02*
X121597857Y-135407200D01*
X121597857Y-135407200D02*
X121455000Y-135454819D01*
X121455000Y-135454819D02*
X121216905Y-135454819D01*
X122121667Y-134454819D02*
X122740714Y-134454819D01*
X122740714Y-134454819D02*
X122407381Y-134835771D01*
X122407381Y-134835771D02*
X122550238Y-134835771D01*
X122550238Y-134835771D02*
X122645476Y-134883390D01*
X122645476Y-134883390D02*
X122693095Y-134931009D01*
X122693095Y-134931009D02*
X122740714Y-135026247D01*
X122740714Y-135026247D02*
X122740714Y-135264342D01*
X122740714Y-135264342D02*
X122693095Y-135359580D01*
X122693095Y-135359580D02*
X122645476Y-135407200D01*
X122645476Y-135407200D02*
X122550238Y-135454819D01*
X122550238Y-135454819D02*
X122264524Y-135454819D01*
X122264524Y-135454819D02*
X122169286Y-135407200D01*
X122169286Y-135407200D02*
X122121667Y-135359580D01*
X90541666Y-124714819D02*
X90541666Y-125429104D01*
X90541666Y-125429104D02*
X90494047Y-125571961D01*
X90494047Y-125571961D02*
X90398809Y-125667200D01*
X90398809Y-125667200D02*
X90255952Y-125714819D01*
X90255952Y-125714819D02*
X90160714Y-125714819D01*
X90970238Y-124810057D02*
X91017857Y-124762438D01*
X91017857Y-124762438D02*
X91113095Y-124714819D01*
X91113095Y-124714819D02*
X91351190Y-124714819D01*
X91351190Y-124714819D02*
X91446428Y-124762438D01*
X91446428Y-124762438D02*
X91494047Y-124810057D01*
X91494047Y-124810057D02*
X91541666Y-124905295D01*
X91541666Y-124905295D02*
X91541666Y-125000533D01*
X91541666Y-125000533D02*
X91494047Y-125143390D01*
X91494047Y-125143390D02*
X90922619Y-125714819D01*
X90922619Y-125714819D02*
X91541666Y-125714819D01*
X112833333Y-135804819D02*
X112500000Y-135328628D01*
X112261905Y-135804819D02*
X112261905Y-134804819D01*
X112261905Y-134804819D02*
X112642857Y-134804819D01*
X112642857Y-134804819D02*
X112738095Y-134852438D01*
X112738095Y-134852438D02*
X112785714Y-134900057D01*
X112785714Y-134900057D02*
X112833333Y-134995295D01*
X112833333Y-134995295D02*
X112833333Y-135138152D01*
X112833333Y-135138152D02*
X112785714Y-135233390D01*
X112785714Y-135233390D02*
X112738095Y-135281009D01*
X112738095Y-135281009D02*
X112642857Y-135328628D01*
X112642857Y-135328628D02*
X112261905Y-135328628D01*
X113309524Y-135804819D02*
X113500000Y-135804819D01*
X113500000Y-135804819D02*
X113595238Y-135757200D01*
X113595238Y-135757200D02*
X113642857Y-135709580D01*
X113642857Y-135709580D02*
X113738095Y-135566723D01*
X113738095Y-135566723D02*
X113785714Y-135376247D01*
X113785714Y-135376247D02*
X113785714Y-134995295D01*
X113785714Y-134995295D02*
X113738095Y-134900057D01*
X113738095Y-134900057D02*
X113690476Y-134852438D01*
X113690476Y-134852438D02*
X113595238Y-134804819D01*
X113595238Y-134804819D02*
X113404762Y-134804819D01*
X113404762Y-134804819D02*
X113309524Y-134852438D01*
X113309524Y-134852438D02*
X113261905Y-134900057D01*
X113261905Y-134900057D02*
X113214286Y-134995295D01*
X113214286Y-134995295D02*
X113214286Y-135233390D01*
X113214286Y-135233390D02*
X113261905Y-135328628D01*
X113261905Y-135328628D02*
X113309524Y-135376247D01*
X113309524Y-135376247D02*
X113404762Y-135423866D01*
X113404762Y-135423866D02*
X113595238Y-135423866D01*
X113595238Y-135423866D02*
X113690476Y-135376247D01*
X113690476Y-135376247D02*
X113738095Y-135328628D01*
X113738095Y-135328628D02*
X113785714Y-135233390D01*
X130833333Y-135584819D02*
X130500000Y-135108628D01*
X130261905Y-135584819D02*
X130261905Y-134584819D01*
X130261905Y-134584819D02*
X130642857Y-134584819D01*
X130642857Y-134584819D02*
X130738095Y-134632438D01*
X130738095Y-134632438D02*
X130785714Y-134680057D01*
X130785714Y-134680057D02*
X130833333Y-134775295D01*
X130833333Y-134775295D02*
X130833333Y-134918152D01*
X130833333Y-134918152D02*
X130785714Y-135013390D01*
X130785714Y-135013390D02*
X130738095Y-135061009D01*
X130738095Y-135061009D02*
X130642857Y-135108628D01*
X130642857Y-135108628D02*
X130261905Y-135108628D01*
X131690476Y-134918152D02*
X131690476Y-135584819D01*
X131452381Y-134537200D02*
X131214286Y-135251485D01*
X131214286Y-135251485D02*
X131833333Y-135251485D01*
X129157142Y-108029580D02*
X129109523Y-108077200D01*
X129109523Y-108077200D02*
X128966666Y-108124819D01*
X128966666Y-108124819D02*
X128871428Y-108124819D01*
X128871428Y-108124819D02*
X128728571Y-108077200D01*
X128728571Y-108077200D02*
X128633333Y-107981961D01*
X128633333Y-107981961D02*
X128585714Y-107886723D01*
X128585714Y-107886723D02*
X128538095Y-107696247D01*
X128538095Y-107696247D02*
X128538095Y-107553390D01*
X128538095Y-107553390D02*
X128585714Y-107362914D01*
X128585714Y-107362914D02*
X128633333Y-107267676D01*
X128633333Y-107267676D02*
X128728571Y-107172438D01*
X128728571Y-107172438D02*
X128871428Y-107124819D01*
X128871428Y-107124819D02*
X128966666Y-107124819D01*
X128966666Y-107124819D02*
X129109523Y-107172438D01*
X129109523Y-107172438D02*
X129157142Y-107220057D01*
X130109523Y-108124819D02*
X129538095Y-108124819D01*
X129823809Y-108124819D02*
X129823809Y-107124819D01*
X129823809Y-107124819D02*
X129728571Y-107267676D01*
X129728571Y-107267676D02*
X129633333Y-107362914D01*
X129633333Y-107362914D02*
X129538095Y-107410533D01*
X131061904Y-108124819D02*
X130490476Y-108124819D01*
X130776190Y-108124819D02*
X130776190Y-107124819D01*
X130776190Y-107124819D02*
X130680952Y-107267676D01*
X130680952Y-107267676D02*
X130585714Y-107362914D01*
X130585714Y-107362914D02*
X130490476Y-107410533D01*
X112607142Y-132554819D02*
X112273809Y-132078628D01*
X112035714Y-132554819D02*
X112035714Y-131554819D01*
X112035714Y-131554819D02*
X112416666Y-131554819D01*
X112416666Y-131554819D02*
X112511904Y-131602438D01*
X112511904Y-131602438D02*
X112559523Y-131650057D01*
X112559523Y-131650057D02*
X112607142Y-131745295D01*
X112607142Y-131745295D02*
X112607142Y-131888152D01*
X112607142Y-131888152D02*
X112559523Y-131983390D01*
X112559523Y-131983390D02*
X112511904Y-132031009D01*
X112511904Y-132031009D02*
X112416666Y-132078628D01*
X112416666Y-132078628D02*
X112035714Y-132078628D01*
X113559523Y-132554819D02*
X112988095Y-132554819D01*
X113273809Y-132554819D02*
X113273809Y-131554819D01*
X113273809Y-131554819D02*
X113178571Y-131697676D01*
X113178571Y-131697676D02*
X113083333Y-131792914D01*
X113083333Y-131792914D02*
X112988095Y-131840533D01*
X114178571Y-131554819D02*
X114273809Y-131554819D01*
X114273809Y-131554819D02*
X114369047Y-131602438D01*
X114369047Y-131602438D02*
X114416666Y-131650057D01*
X114416666Y-131650057D02*
X114464285Y-131745295D01*
X114464285Y-131745295D02*
X114511904Y-131935771D01*
X114511904Y-131935771D02*
X114511904Y-132173866D01*
X114511904Y-132173866D02*
X114464285Y-132364342D01*
X114464285Y-132364342D02*
X114416666Y-132459580D01*
X114416666Y-132459580D02*
X114369047Y-132507200D01*
X114369047Y-132507200D02*
X114273809Y-132554819D01*
X114273809Y-132554819D02*
X114178571Y-132554819D01*
X114178571Y-132554819D02*
X114083333Y-132507200D01*
X114083333Y-132507200D02*
X114035714Y-132459580D01*
X114035714Y-132459580D02*
X113988095Y-132364342D01*
X113988095Y-132364342D02*
X113940476Y-132173866D01*
X113940476Y-132173866D02*
X113940476Y-131935771D01*
X113940476Y-131935771D02*
X113988095Y-131745295D01*
X113988095Y-131745295D02*
X114035714Y-131650057D01*
X114035714Y-131650057D02*
X114083333Y-131602438D01*
X114083333Y-131602438D02*
X114178571Y-131554819D01*
X105188095Y-114602319D02*
X105188095Y-115411842D01*
X105188095Y-115411842D02*
X105235714Y-115507080D01*
X105235714Y-115507080D02*
X105283333Y-115554700D01*
X105283333Y-115554700D02*
X105378571Y-115602319D01*
X105378571Y-115602319D02*
X105569047Y-115602319D01*
X105569047Y-115602319D02*
X105664285Y-115554700D01*
X105664285Y-115554700D02*
X105711904Y-115507080D01*
X105711904Y-115507080D02*
X105759523Y-115411842D01*
X105759523Y-115411842D02*
X105759523Y-114602319D01*
X106759523Y-115602319D02*
X106188095Y-115602319D01*
X106473809Y-115602319D02*
X106473809Y-114602319D01*
X106473809Y-114602319D02*
X106378571Y-114745176D01*
X106378571Y-114745176D02*
X106283333Y-114840414D01*
X106283333Y-114840414D02*
X106188095Y-114888033D01*
X90033333Y-108757080D02*
X89985714Y-108804700D01*
X89985714Y-108804700D02*
X89842857Y-108852319D01*
X89842857Y-108852319D02*
X89747619Y-108852319D01*
X89747619Y-108852319D02*
X89604762Y-108804700D01*
X89604762Y-108804700D02*
X89509524Y-108709461D01*
X89509524Y-108709461D02*
X89461905Y-108614223D01*
X89461905Y-108614223D02*
X89414286Y-108423747D01*
X89414286Y-108423747D02*
X89414286Y-108280890D01*
X89414286Y-108280890D02*
X89461905Y-108090414D01*
X89461905Y-108090414D02*
X89509524Y-107995176D01*
X89509524Y-107995176D02*
X89604762Y-107899938D01*
X89604762Y-107899938D02*
X89747619Y-107852319D01*
X89747619Y-107852319D02*
X89842857Y-107852319D01*
X89842857Y-107852319D02*
X89985714Y-107899938D01*
X89985714Y-107899938D02*
X90033333Y-107947557D01*
X90985714Y-108852319D02*
X90414286Y-108852319D01*
X90700000Y-108852319D02*
X90700000Y-107852319D01*
X90700000Y-107852319D02*
X90604762Y-107995176D01*
X90604762Y-107995176D02*
X90509524Y-108090414D01*
X90509524Y-108090414D02*
X90414286Y-108138033D01*
X95205833Y-121654819D02*
X94872500Y-121178628D01*
X94634405Y-121654819D02*
X94634405Y-120654819D01*
X94634405Y-120654819D02*
X95015357Y-120654819D01*
X95015357Y-120654819D02*
X95110595Y-120702438D01*
X95110595Y-120702438D02*
X95158214Y-120750057D01*
X95158214Y-120750057D02*
X95205833Y-120845295D01*
X95205833Y-120845295D02*
X95205833Y-120988152D01*
X95205833Y-120988152D02*
X95158214Y-121083390D01*
X95158214Y-121083390D02*
X95110595Y-121131009D01*
X95110595Y-121131009D02*
X95015357Y-121178628D01*
X95015357Y-121178628D02*
X94634405Y-121178628D01*
X95539167Y-120654819D02*
X96205833Y-120654819D01*
X96205833Y-120654819D02*
X95777262Y-121654819D01*
X116628333Y-123204819D02*
X116295000Y-122728628D01*
X116056905Y-123204819D02*
X116056905Y-122204819D01*
X116056905Y-122204819D02*
X116437857Y-122204819D01*
X116437857Y-122204819D02*
X116533095Y-122252438D01*
X116533095Y-122252438D02*
X116580714Y-122300057D01*
X116580714Y-122300057D02*
X116628333Y-122395295D01*
X116628333Y-122395295D02*
X116628333Y-122538152D01*
X116628333Y-122538152D02*
X116580714Y-122633390D01*
X116580714Y-122633390D02*
X116533095Y-122681009D01*
X116533095Y-122681009D02*
X116437857Y-122728628D01*
X116437857Y-122728628D02*
X116056905Y-122728628D01*
X117580714Y-123204819D02*
X117009286Y-123204819D01*
X117295000Y-123204819D02*
X117295000Y-122204819D01*
X117295000Y-122204819D02*
X117199762Y-122347676D01*
X117199762Y-122347676D02*
X117104524Y-122442914D01*
X117104524Y-122442914D02*
X117009286Y-122490533D01*
X102488095Y-119214819D02*
X102488095Y-120024342D01*
X102488095Y-120024342D02*
X102535714Y-120119580D01*
X102535714Y-120119580D02*
X102583333Y-120167200D01*
X102583333Y-120167200D02*
X102678571Y-120214819D01*
X102678571Y-120214819D02*
X102869047Y-120214819D01*
X102869047Y-120214819D02*
X102964285Y-120167200D01*
X102964285Y-120167200D02*
X103011904Y-120119580D01*
X103011904Y-120119580D02*
X103059523Y-120024342D01*
X103059523Y-120024342D02*
X103059523Y-119214819D01*
X103440476Y-119214819D02*
X104059523Y-119214819D01*
X104059523Y-119214819D02*
X103726190Y-119595771D01*
X103726190Y-119595771D02*
X103869047Y-119595771D01*
X103869047Y-119595771D02*
X103964285Y-119643390D01*
X103964285Y-119643390D02*
X104011904Y-119691009D01*
X104011904Y-119691009D02*
X104059523Y-119786247D01*
X104059523Y-119786247D02*
X104059523Y-120024342D01*
X104059523Y-120024342D02*
X104011904Y-120119580D01*
X104011904Y-120119580D02*
X103964285Y-120167200D01*
X103964285Y-120167200D02*
X103869047Y-120214819D01*
X103869047Y-120214819D02*
X103583333Y-120214819D01*
X103583333Y-120214819D02*
X103488095Y-120167200D01*
X103488095Y-120167200D02*
X103440476Y-120119580D01*
X89461905Y-111852319D02*
X89461905Y-110852319D01*
X89461905Y-110852319D02*
X89700000Y-110852319D01*
X89700000Y-110852319D02*
X89842857Y-110899938D01*
X89842857Y-110899938D02*
X89938095Y-110995176D01*
X89938095Y-110995176D02*
X89985714Y-111090414D01*
X89985714Y-111090414D02*
X90033333Y-111280890D01*
X90033333Y-111280890D02*
X90033333Y-111423747D01*
X90033333Y-111423747D02*
X89985714Y-111614223D01*
X89985714Y-111614223D02*
X89938095Y-111709461D01*
X89938095Y-111709461D02*
X89842857Y-111804700D01*
X89842857Y-111804700D02*
X89700000Y-111852319D01*
X89700000Y-111852319D02*
X89461905Y-111852319D01*
X90366667Y-110852319D02*
X91033333Y-110852319D01*
X91033333Y-110852319D02*
X90604762Y-111852319D01*
D12*
%TO.C,R8*%
X110022936Y-128365000D02*
X110477064Y-128365000D01*
X110022936Y-129835000D02*
X110477064Y-129835000D01*
%TO.C,R5*%
X133772936Y-122015000D02*
X134227064Y-122015000D01*
X133772936Y-123485000D02*
X134227064Y-123485000D01*
%TO.C,C2*%
X113152677Y-109125000D02*
X114152677Y-109125000D01*
X113652677Y-108625000D02*
X113652677Y-109625000D01*
X118632323Y-106920000D02*
X118632323Y-117080000D01*
X118672323Y-106920000D02*
X118672323Y-117080000D01*
X118712323Y-106920000D02*
X118712323Y-117080000D01*
X118752323Y-106921000D02*
X118752323Y-117079000D01*
X118792323Y-106922000D02*
X118792323Y-117078000D01*
X118832323Y-106923000D02*
X118832323Y-117077000D01*
X118872323Y-106925000D02*
X118872323Y-117075000D01*
X118912323Y-106927000D02*
X118912323Y-117073000D01*
X118952323Y-106930000D02*
X118952323Y-117070000D01*
X118992323Y-106932000D02*
X118992323Y-117068000D01*
X119032323Y-106935000D02*
X119032323Y-117065000D01*
X119072323Y-106938000D02*
X119072323Y-117062000D01*
X119112323Y-106942000D02*
X119112323Y-117058000D01*
X119152323Y-106946000D02*
X119152323Y-117054000D01*
X119192323Y-106950000D02*
X119192323Y-117050000D01*
X119232323Y-106955000D02*
X119232323Y-117045000D01*
X119272323Y-106960000D02*
X119272323Y-117040000D01*
X119312323Y-106965000D02*
X119312323Y-117035000D01*
X119353323Y-106970000D02*
X119353323Y-117030000D01*
X119393323Y-106976000D02*
X119393323Y-117024000D01*
X119433323Y-106982000D02*
X119433323Y-117018000D01*
X119473323Y-106989000D02*
X119473323Y-117011000D01*
X119513323Y-106996000D02*
X119513323Y-117004000D01*
X119553323Y-107003000D02*
X119553323Y-116997000D01*
X119593323Y-107010000D02*
X119593323Y-116990000D01*
X119633323Y-107018000D02*
X119633323Y-116982000D01*
X119673323Y-107026000D02*
X119673323Y-116974000D01*
X119713323Y-107035000D02*
X119713323Y-116965000D01*
X119753323Y-107044000D02*
X119753323Y-116956000D01*
X119793323Y-107053000D02*
X119793323Y-116947000D01*
X119833323Y-107062000D02*
X119833323Y-116938000D01*
X119873323Y-107072000D02*
X119873323Y-116928000D01*
X119913323Y-107082000D02*
X119913323Y-110759000D01*
X119913323Y-113241000D02*
X119913323Y-116918000D01*
X119953323Y-107093000D02*
X119953323Y-110759000D01*
X119953323Y-113241000D02*
X119953323Y-116907000D01*
X119993323Y-107103000D02*
X119993323Y-110759000D01*
X119993323Y-113241000D02*
X119993323Y-116897000D01*
X120033323Y-107115000D02*
X120033323Y-110759000D01*
X120033323Y-113241000D02*
X120033323Y-116885000D01*
X120073323Y-107126000D02*
X120073323Y-110759000D01*
X120073323Y-113241000D02*
X120073323Y-116874000D01*
X120113323Y-107138000D02*
X120113323Y-110759000D01*
X120113323Y-113241000D02*
X120113323Y-116862000D01*
X120153323Y-107150000D02*
X120153323Y-110759000D01*
X120153323Y-113241000D02*
X120153323Y-116850000D01*
X120193323Y-107163000D02*
X120193323Y-110759000D01*
X120193323Y-113241000D02*
X120193323Y-116837000D01*
X120233323Y-107176000D02*
X120233323Y-110759000D01*
X120233323Y-113241000D02*
X120233323Y-116824000D01*
X120273323Y-107189000D02*
X120273323Y-110759000D01*
X120273323Y-113241000D02*
X120273323Y-116811000D01*
X120313323Y-107203000D02*
X120313323Y-110759000D01*
X120313323Y-113241000D02*
X120313323Y-116797000D01*
X120353323Y-107217000D02*
X120353323Y-110759000D01*
X120353323Y-113241000D02*
X120353323Y-116783000D01*
X120393323Y-107232000D02*
X120393323Y-110759000D01*
X120393323Y-113241000D02*
X120393323Y-116768000D01*
X120433323Y-107246000D02*
X120433323Y-110759000D01*
X120433323Y-113241000D02*
X120433323Y-116754000D01*
X120473323Y-107262000D02*
X120473323Y-110759000D01*
X120473323Y-113241000D02*
X120473323Y-116738000D01*
X120513323Y-107277000D02*
X120513323Y-110759000D01*
X120513323Y-113241000D02*
X120513323Y-116723000D01*
X120553323Y-107293000D02*
X120553323Y-110759000D01*
X120553323Y-113241000D02*
X120553323Y-116707000D01*
X120593323Y-107310000D02*
X120593323Y-110759000D01*
X120593323Y-113241000D02*
X120593323Y-116690000D01*
X120633323Y-107326000D02*
X120633323Y-110759000D01*
X120633323Y-113241000D02*
X120633323Y-116674000D01*
X120673323Y-107343000D02*
X120673323Y-110759000D01*
X120673323Y-113241000D02*
X120673323Y-116657000D01*
X120713323Y-107361000D02*
X120713323Y-110759000D01*
X120713323Y-113241000D02*
X120713323Y-116639000D01*
X120753323Y-107379000D02*
X120753323Y-110759000D01*
X120753323Y-113241000D02*
X120753323Y-116621000D01*
X120793323Y-107397000D02*
X120793323Y-110759000D01*
X120793323Y-113241000D02*
X120793323Y-116603000D01*
X120833323Y-107416000D02*
X120833323Y-110759000D01*
X120833323Y-113241000D02*
X120833323Y-116584000D01*
X120873323Y-107436000D02*
X120873323Y-110759000D01*
X120873323Y-113241000D02*
X120873323Y-116564000D01*
X120913323Y-107455000D02*
X120913323Y-110759000D01*
X120913323Y-113241000D02*
X120913323Y-116545000D01*
X120953323Y-107475000D02*
X120953323Y-110759000D01*
X120953323Y-113241000D02*
X120953323Y-116525000D01*
X120993323Y-107496000D02*
X120993323Y-110759000D01*
X120993323Y-113241000D02*
X120993323Y-116504000D01*
X121033323Y-107517000D02*
X121033323Y-110759000D01*
X121033323Y-113241000D02*
X121033323Y-116483000D01*
X121073323Y-107538000D02*
X121073323Y-110759000D01*
X121073323Y-113241000D02*
X121073323Y-116462000D01*
X121113323Y-107560000D02*
X121113323Y-110759000D01*
X121113323Y-113241000D02*
X121113323Y-116440000D01*
X121153323Y-107583000D02*
X121153323Y-110759000D01*
X121153323Y-113241000D02*
X121153323Y-116417000D01*
X121193323Y-107605000D02*
X121193323Y-110759000D01*
X121193323Y-113241000D02*
X121193323Y-116395000D01*
X121233323Y-107629000D02*
X121233323Y-110759000D01*
X121233323Y-113241000D02*
X121233323Y-116371000D01*
X121273323Y-107653000D02*
X121273323Y-110759000D01*
X121273323Y-113241000D02*
X121273323Y-116347000D01*
X121313323Y-107677000D02*
X121313323Y-110759000D01*
X121313323Y-113241000D02*
X121313323Y-116323000D01*
X121353323Y-107702000D02*
X121353323Y-110759000D01*
X121353323Y-113241000D02*
X121353323Y-116298000D01*
X121393323Y-107727000D02*
X121393323Y-110759000D01*
X121393323Y-113241000D02*
X121393323Y-116273000D01*
X121433323Y-107753000D02*
X121433323Y-110759000D01*
X121433323Y-113241000D02*
X121433323Y-116247000D01*
X121473323Y-107779000D02*
X121473323Y-110759000D01*
X121473323Y-113241000D02*
X121473323Y-116221000D01*
X121513323Y-107806000D02*
X121513323Y-110759000D01*
X121513323Y-113241000D02*
X121513323Y-116194000D01*
X121553323Y-107834000D02*
X121553323Y-110759000D01*
X121553323Y-113241000D02*
X121553323Y-116166000D01*
X121593323Y-107862000D02*
X121593323Y-110759000D01*
X121593323Y-113241000D02*
X121593323Y-116138000D01*
X121633323Y-107890000D02*
X121633323Y-110759000D01*
X121633323Y-113241000D02*
X121633323Y-116110000D01*
X121673323Y-107920000D02*
X121673323Y-110759000D01*
X121673323Y-113241000D02*
X121673323Y-116080000D01*
X121713323Y-107950000D02*
X121713323Y-110759000D01*
X121713323Y-113241000D02*
X121713323Y-116050000D01*
X121753323Y-107980000D02*
X121753323Y-110759000D01*
X121753323Y-113241000D02*
X121753323Y-116020000D01*
X121793323Y-108011000D02*
X121793323Y-110759000D01*
X121793323Y-113241000D02*
X121793323Y-115989000D01*
X121833323Y-108043000D02*
X121833323Y-110759000D01*
X121833323Y-113241000D02*
X121833323Y-115957000D01*
X121873323Y-108075000D02*
X121873323Y-110759000D01*
X121873323Y-113241000D02*
X121873323Y-115925000D01*
X121913323Y-108108000D02*
X121913323Y-110759000D01*
X121913323Y-113241000D02*
X121913323Y-115892000D01*
X121953323Y-108142000D02*
X121953323Y-110759000D01*
X121953323Y-113241000D02*
X121953323Y-115858000D01*
X121993323Y-108176000D02*
X121993323Y-110759000D01*
X121993323Y-113241000D02*
X121993323Y-115824000D01*
X122033323Y-108211000D02*
X122033323Y-110759000D01*
X122033323Y-113241000D02*
X122033323Y-115789000D01*
X122073323Y-108247000D02*
X122073323Y-110759000D01*
X122073323Y-113241000D02*
X122073323Y-115753000D01*
X122113323Y-108284000D02*
X122113323Y-110759000D01*
X122113323Y-113241000D02*
X122113323Y-115716000D01*
X122153323Y-108321000D02*
X122153323Y-110759000D01*
X122153323Y-113241000D02*
X122153323Y-115679000D01*
X122193323Y-108360000D02*
X122193323Y-110759000D01*
X122193323Y-113241000D02*
X122193323Y-115640000D01*
X122233323Y-108399000D02*
X122233323Y-110759000D01*
X122233323Y-113241000D02*
X122233323Y-115601000D01*
X122273323Y-108439000D02*
X122273323Y-110759000D01*
X122273323Y-113241000D02*
X122273323Y-115561000D01*
X122313323Y-108480000D02*
X122313323Y-110759000D01*
X122313323Y-113241000D02*
X122313323Y-115520000D01*
X122353323Y-108522000D02*
X122353323Y-110759000D01*
X122353323Y-113241000D02*
X122353323Y-115478000D01*
X122393323Y-108564000D02*
X122393323Y-115436000D01*
X122433323Y-108608000D02*
X122433323Y-115392000D01*
X122473323Y-108653000D02*
X122473323Y-115347000D01*
X122513323Y-108699000D02*
X122513323Y-115301000D01*
X122553323Y-108746000D02*
X122553323Y-115254000D01*
X122593323Y-108794000D02*
X122593323Y-115206000D01*
X122633323Y-108844000D02*
X122633323Y-115156000D01*
X122673323Y-108894000D02*
X122673323Y-115106000D01*
X122713323Y-108946000D02*
X122713323Y-115054000D01*
X122753323Y-109000000D02*
X122753323Y-115000000D01*
X122793323Y-109055000D02*
X122793323Y-114945000D01*
X122833323Y-109111000D02*
X122833323Y-114889000D01*
X122873323Y-109170000D02*
X122873323Y-114830000D01*
X122913323Y-109230000D02*
X122913323Y-114770000D01*
X122953323Y-109291000D02*
X122953323Y-114709000D01*
X122993323Y-109355000D02*
X122993323Y-114645000D01*
X123033323Y-109421000D02*
X123033323Y-114579000D01*
X123073323Y-109490000D02*
X123073323Y-114510000D01*
X123113323Y-109561000D02*
X123113323Y-114439000D01*
X123153323Y-109635000D02*
X123153323Y-114365000D01*
X123193323Y-109711000D02*
X123193323Y-114289000D01*
X123233323Y-109791000D02*
X123233323Y-114209000D01*
X123273323Y-109875000D02*
X123273323Y-114125000D01*
X123313323Y-109963000D02*
X123313323Y-114037000D01*
X123353323Y-110056000D02*
X123353323Y-113944000D01*
X123393323Y-110154000D02*
X123393323Y-113846000D01*
X123433323Y-110258000D02*
X123433323Y-113742000D01*
X123473323Y-110370000D02*
X123473323Y-113630000D01*
X123513323Y-110490000D02*
X123513323Y-113510000D01*
X123553323Y-110622000D02*
X123553323Y-113378000D01*
X123593323Y-110770000D02*
X123593323Y-113230000D01*
X123633323Y-110938000D02*
X123633323Y-113062000D01*
X123673323Y-111138000D02*
X123673323Y-112862000D01*
X123713323Y-111401000D02*
X123713323Y-112599000D01*
X123752323Y-112000000D02*
G75*
G02*
X113512323Y-112000000I-5120000J0D01*
G01*
X113512323Y-112000000D02*
G75*
G02*
X123752323Y-112000000I5120000J0D01*
G01*
%TO.C,RV1*%
X117825000Y-138115000D02*
X117825000Y-144325000D01*
X118079000Y-144325000D02*
X118079000Y-146355000D01*
X125940000Y-144325000D02*
X118079000Y-144325000D01*
X125940000Y-144325000D02*
X125940000Y-146355000D01*
X125940000Y-146355000D02*
X118079000Y-146355000D01*
X126196000Y-138115000D02*
X117825000Y-138115000D01*
X126196000Y-138115000D02*
X126196000Y-144325000D01*
X126196000Y-144325000D02*
X117825000Y-144325000D01*
%TO.C,RV2*%
X128355000Y-138115000D02*
X128355000Y-144325000D01*
X128609000Y-144325000D02*
X128609000Y-146355000D01*
X136470000Y-144325000D02*
X128609000Y-144325000D01*
X136470000Y-144325000D02*
X136470000Y-146355000D01*
X136470000Y-146355000D02*
X128609000Y-146355000D01*
X136726000Y-138115000D02*
X128355000Y-138115000D01*
X136726000Y-138115000D02*
X136726000Y-144325000D01*
X136726000Y-144325000D02*
X128355000Y-144325000D01*
%TO.C,C3*%
X93958752Y-113162500D02*
X93436248Y-113162500D01*
X93958752Y-114632500D02*
X93436248Y-114632500D01*
%TO.C,D4*%
X93035000Y-127900000D02*
X93035000Y-129900000D01*
X93035000Y-127900000D02*
X97045000Y-127900000D01*
X93035000Y-129900000D02*
X97045000Y-129900000D01*
%TO.C,RV3*%
X86325000Y-138115000D02*
X86325000Y-144325000D01*
X86579000Y-144325000D02*
X86579000Y-146355000D01*
X94440000Y-144325000D02*
X86579000Y-144325000D01*
X94440000Y-144325000D02*
X94440000Y-146355000D01*
X94440000Y-146355000D02*
X86579000Y-146355000D01*
X94696000Y-138115000D02*
X86325000Y-138115000D01*
X94696000Y-138115000D02*
X94696000Y-144325000D01*
X94696000Y-144325000D02*
X86325000Y-144325000D01*
%TO.C,R11*%
X110022936Y-122115000D02*
X110477064Y-122115000D01*
X110022936Y-123585000D02*
X110477064Y-123585000D01*
%TO.C,R2*%
X133772936Y-128265000D02*
X134227064Y-128265000D01*
X133772936Y-129735000D02*
X134227064Y-129735000D01*
%TO.C,D6*%
X99490000Y-134000000D02*
X99490000Y-136000000D01*
X99490000Y-134000000D02*
X103500000Y-134000000D01*
X99490000Y-136000000D02*
X103500000Y-136000000D01*
%TO.C,C4*%
X89688748Y-128265000D02*
X90211252Y-128265000D01*
X89688748Y-129735000D02*
X90211252Y-129735000D01*
%TO.C,RV4*%
X96575000Y-138115000D02*
X96575000Y-144325000D01*
X96829000Y-144325000D02*
X96829000Y-146355000D01*
X104690000Y-144325000D02*
X96829000Y-144325000D01*
X104690000Y-144325000D02*
X104690000Y-146355000D01*
X104690000Y-146355000D02*
X96829000Y-146355000D01*
X104946000Y-138115000D02*
X96575000Y-138115000D01*
X104946000Y-138115000D02*
X104946000Y-144325000D01*
X104946000Y-144325000D02*
X96575000Y-144325000D01*
%TO.C,C8*%
X102988748Y-117115000D02*
X103511252Y-117115000D01*
X102988748Y-118585000D02*
X103511252Y-118585000D01*
%TO.C,R12*%
X110477064Y-125240000D02*
X110022936Y-125240000D01*
X110477064Y-126710000D02*
X110022936Y-126710000D01*
%TO.C,R3*%
X133772936Y-131390000D02*
X134227064Y-131390000D01*
X133772936Y-132860000D02*
X134227064Y-132860000D01*
%TO.C,C9*%
X119796252Y-118895000D02*
X119273748Y-118895000D01*
X119796252Y-120365000D02*
X119273748Y-120365000D01*
%TO.C,C10*%
X130261252Y-116765000D02*
X129738748Y-116765000D01*
X130261252Y-118235000D02*
X129738748Y-118235000D01*
%TO.C,C5*%
X89738748Y-120765000D02*
X90261252Y-120765000D01*
X89738748Y-122235000D02*
X90261252Y-122235000D01*
%TO.C,C7*%
X94811252Y-134265000D02*
X94288748Y-134265000D01*
X94811252Y-135735000D02*
X94288748Y-135735000D01*
%TO.C,D1*%
X117185000Y-127800000D02*
X117185000Y-129800000D01*
X117185000Y-127800000D02*
X121195000Y-127800000D01*
X117185000Y-129800000D02*
X121195000Y-129800000D01*
%TO.C,J1*%
X75775000Y-110855000D02*
X81775000Y-110855000D01*
X75775000Y-111615000D02*
X75775000Y-110855000D01*
X75775000Y-113395000D02*
X81775000Y-113395000D01*
X75775000Y-114155000D02*
X75775000Y-113395000D01*
X81775000Y-109905000D02*
X81775000Y-115105000D01*
X81775000Y-111615000D02*
X75775000Y-111615000D01*
X81775000Y-113495000D02*
X75775000Y-113495000D01*
X81775000Y-113615000D02*
X75775000Y-113615000D01*
X81775000Y-113735000D02*
X75775000Y-113735000D01*
X81775000Y-113855000D02*
X75775000Y-113855000D01*
X81775000Y-113975000D02*
X75775000Y-113975000D01*
X81775000Y-114095000D02*
X75775000Y-114095000D01*
X81775000Y-114155000D02*
X75775000Y-114155000D01*
X81775000Y-115105000D02*
X84435000Y-115105000D01*
X84435000Y-109905000D02*
X81775000Y-109905000D01*
X84435000Y-112505000D02*
X81775000Y-112505000D01*
X84435000Y-115105000D02*
X84435000Y-109905000D01*
X84765000Y-113395000D02*
X84435000Y-113395000D01*
X84765000Y-114155000D02*
X84435000Y-114155000D01*
X84832071Y-110855000D02*
X84435000Y-110855000D01*
X84832071Y-111615000D02*
X84435000Y-111615000D01*
X87145000Y-113775000D02*
X87145000Y-115045000D01*
X87145000Y-115045000D02*
X85875000Y-115045000D01*
%TO.C,C6*%
X119261252Y-134265000D02*
X118738748Y-134265000D01*
X119261252Y-135735000D02*
X118738748Y-135735000D01*
%TO.C,U2*%
X127235000Y-120505000D02*
X125285000Y-120505000D01*
X127235000Y-120505000D02*
X129185000Y-120505000D01*
X127235000Y-129375000D02*
X125285000Y-129375000D01*
X127235000Y-129375000D02*
X129185000Y-129375000D01*
X124535000Y-120570000D02*
X124295000Y-120240000D01*
X124775000Y-120240000D01*
X124535000Y-120570000D01*
G36*
X124535000Y-120570000D02*
G01*
X124295000Y-120240000D01*
X124775000Y-120240000D01*
X124535000Y-120570000D01*
G37*
%TO.C,D5*%
X97710000Y-131025000D02*
X93700000Y-131025000D01*
X97710000Y-133025000D02*
X93700000Y-133025000D01*
X97710000Y-133025000D02*
X97710000Y-131025000D01*
%TO.C,R6*%
X134227064Y-125140000D02*
X133772936Y-125140000D01*
X134227064Y-126610000D02*
X133772936Y-126610000D01*
%TO.C,J3*%
X134355000Y-108430000D02*
X135625000Y-108430000D01*
X134355000Y-109700000D02*
X134355000Y-108430000D01*
X136667929Y-111860000D02*
X137065000Y-111860000D01*
X136667929Y-112620000D02*
X137065000Y-112620000D01*
X136667929Y-114400000D02*
X137065000Y-114400000D01*
X136667929Y-115160000D02*
X137065000Y-115160000D01*
X136667929Y-116940000D02*
X137065000Y-116940000D01*
X136667929Y-117700000D02*
X137065000Y-117700000D01*
X136735000Y-109320000D02*
X137065000Y-109320000D01*
X136735000Y-110080000D02*
X137065000Y-110080000D01*
X137065000Y-108370000D02*
X137065000Y-118650000D01*
X137065000Y-110970000D02*
X139725000Y-110970000D01*
X137065000Y-113510000D02*
X139725000Y-113510000D01*
X137065000Y-116050000D02*
X139725000Y-116050000D01*
X137065000Y-118650000D02*
X139725000Y-118650000D01*
X139725000Y-108370000D02*
X137065000Y-108370000D01*
X139725000Y-109320000D02*
X145725000Y-109320000D01*
X139725000Y-109380000D02*
X145725000Y-109380000D01*
X139725000Y-109500000D02*
X145725000Y-109500000D01*
X139725000Y-109620000D02*
X145725000Y-109620000D01*
X139725000Y-109740000D02*
X145725000Y-109740000D01*
X139725000Y-109860000D02*
X145725000Y-109860000D01*
X139725000Y-109980000D02*
X145725000Y-109980000D01*
X139725000Y-111860000D02*
X145725000Y-111860000D01*
X139725000Y-114400000D02*
X145725000Y-114400000D01*
X139725000Y-116940000D02*
X145725000Y-116940000D01*
X139725000Y-118650000D02*
X139725000Y-108370000D01*
X145725000Y-109320000D02*
X145725000Y-110080000D01*
X145725000Y-110080000D02*
X139725000Y-110080000D01*
X145725000Y-111860000D02*
X145725000Y-112620000D01*
X145725000Y-112620000D02*
X139725000Y-112620000D01*
X145725000Y-114400000D02*
X145725000Y-115160000D01*
X145725000Y-115160000D02*
X139725000Y-115160000D01*
X145725000Y-116940000D02*
X145725000Y-117700000D01*
X145725000Y-117700000D02*
X139725000Y-117700000D01*
%TO.C,D2*%
X121860000Y-130925000D02*
X117850000Y-130925000D01*
X121860000Y-132925000D02*
X117850000Y-132925000D01*
X121860000Y-132925000D02*
X121860000Y-130925000D01*
%TO.C,D3*%
X123140000Y-134000000D02*
X123140000Y-136000000D01*
X123140000Y-134000000D02*
X127150000Y-134000000D01*
X123140000Y-136000000D02*
X127150000Y-136000000D01*
%TO.C,J2*%
X75775000Y-121300000D02*
X81775000Y-121300000D01*
X75775000Y-122060000D02*
X75775000Y-121300000D01*
X75775000Y-123840000D02*
X81775000Y-123840000D01*
X75775000Y-124600000D02*
X75775000Y-123840000D01*
X75775000Y-126380000D02*
X81775000Y-126380000D01*
X75775000Y-127140000D02*
X75775000Y-126380000D01*
X75775000Y-128920000D02*
X81775000Y-128920000D01*
X75775000Y-129680000D02*
X75775000Y-128920000D01*
X81775000Y-120350000D02*
X81775000Y-130630000D01*
X81775000Y-122060000D02*
X75775000Y-122060000D01*
X81775000Y-124600000D02*
X75775000Y-124600000D01*
X81775000Y-127140000D02*
X75775000Y-127140000D01*
X81775000Y-129020000D02*
X75775000Y-129020000D01*
X81775000Y-129140000D02*
X75775000Y-129140000D01*
X81775000Y-129260000D02*
X75775000Y-129260000D01*
X81775000Y-129380000D02*
X75775000Y-129380000D01*
X81775000Y-129500000D02*
X75775000Y-129500000D01*
X81775000Y-129620000D02*
X75775000Y-129620000D01*
X81775000Y-129680000D02*
X75775000Y-129680000D01*
X81775000Y-130630000D02*
X84435000Y-130630000D01*
X84435000Y-120350000D02*
X81775000Y-120350000D01*
X84435000Y-122950000D02*
X81775000Y-122950000D01*
X84435000Y-125490000D02*
X81775000Y-125490000D01*
X84435000Y-128030000D02*
X81775000Y-128030000D01*
X84435000Y-130630000D02*
X84435000Y-120350000D01*
X84765000Y-128920000D02*
X84435000Y-128920000D01*
X84765000Y-129680000D02*
X84435000Y-129680000D01*
X84832071Y-121300000D02*
X84435000Y-121300000D01*
X84832071Y-122060000D02*
X84435000Y-122060000D01*
X84832071Y-123840000D02*
X84435000Y-123840000D01*
X84832071Y-124600000D02*
X84435000Y-124600000D01*
X84832071Y-126380000D02*
X84435000Y-126380000D01*
X84832071Y-127140000D02*
X84435000Y-127140000D01*
X87145000Y-129300000D02*
X87145000Y-130570000D01*
X87145000Y-130570000D02*
X85875000Y-130570000D01*
%TO.C,R9*%
X110022936Y-134615000D02*
X110477064Y-134615000D01*
X110022936Y-136085000D02*
X110477064Y-136085000D01*
%TO.C,R4*%
X133772936Y-134515000D02*
X134227064Y-134515000D01*
X133772936Y-135985000D02*
X134227064Y-135985000D01*
%TO.C,C11*%
X130311252Y-108765000D02*
X129788748Y-108765000D01*
X130311252Y-110235000D02*
X129788748Y-110235000D01*
%TO.C,R10*%
X110022936Y-131490000D02*
X110477064Y-131490000D01*
X110022936Y-132960000D02*
X110477064Y-132960000D01*
%TO.C,U1*%
X101980000Y-107020000D02*
X101980000Y-107290000D01*
X101980000Y-113920000D02*
X101980000Y-113650000D01*
X108400000Y-107020000D02*
X101980000Y-107020000D01*
X108400000Y-113920000D02*
X101980000Y-113920000D01*
X100250000Y-107330000D02*
X99910000Y-106860000D01*
X100590000Y-106860000D01*
X100250000Y-107330000D01*
G36*
X100250000Y-107330000D02*
G01*
X99910000Y-106860000D01*
X100590000Y-106860000D01*
X100250000Y-107330000D01*
G37*
%TO.C,C1*%
X93958752Y-107662500D02*
X93436248Y-107662500D01*
X93958752Y-109132500D02*
X93436248Y-109132500D01*
%TO.C,R7*%
X95145436Y-122115000D02*
X95599564Y-122115000D01*
X95145436Y-123585000D02*
X95599564Y-123585000D01*
%TO.C,R1*%
X119295436Y-122015000D02*
X119749564Y-122015000D01*
X119295436Y-123485000D02*
X119749564Y-123485000D01*
%TO.C,U3*%
X103250000Y-120605000D02*
X101300000Y-120605000D01*
X103250000Y-120605000D02*
X105200000Y-120605000D01*
X103250000Y-129475000D02*
X101300000Y-129475000D01*
X103250000Y-129475000D02*
X105200000Y-129475000D01*
X100550000Y-120670000D02*
X100310000Y-120340000D01*
X100790000Y-120340000D01*
X100550000Y-120670000D01*
G36*
X100550000Y-120670000D02*
G01*
X100310000Y-120340000D01*
X100790000Y-120340000D01*
X100550000Y-120670000D01*
G37*
%TO.C,D7*%
X96035000Y-110147500D02*
X92025000Y-110147500D01*
X96035000Y-112147500D02*
X92025000Y-112147500D01*
X96035000Y-112147500D02*
X96035000Y-110147500D01*
%TD*%
M02*
