%TF.GenerationSoftware,KiCad,Pcbnew,9.0.0*%
%TF.CreationDate,2025-03-02T16:31:14-06:00*%
%TF.ProjectId,peak-read-amp,7065616b-2d72-4656-9164-2d616d702e6b,rev?*%
%TF.SameCoordinates,Original*%
%TF.FileFunction,Copper,L2,Bot*%
%TF.FilePolarity,Positive*%
%FSLAX46Y46*%
G04 Gerber Fmt 4.6, Leading zero omitted, Abs format (unit mm)*
G04 Created by KiCad (PCBNEW 9.0.0) date 2025-03-02 16:31:14*
%MOMM*%
%LPD*%
G01*
G04 APERTURE LIST*
%TA.AperFunction,ComponentPad*%
%ADD10R,2.000000X2.000000*%
%TD*%
%TA.AperFunction,ComponentPad*%
%ADD11C,2.000000*%
%TD*%
%TA.AperFunction,ComponentPad*%
%ADD12C,1.440000*%
%TD*%
%TA.AperFunction,ComponentPad*%
%ADD13R,1.700000X1.700000*%
%TD*%
%TA.AperFunction,ComponentPad*%
%ADD14O,1.700000X1.700000*%
%TD*%
%TA.AperFunction,ViaPad*%
%ADD15C,0.600000*%
%TD*%
%TA.AperFunction,Conductor*%
%ADD16C,0.200000*%
%TD*%
G04 APERTURE END LIST*
D10*
%TO.P,C2,1*%
%TO.N,+8V*%
X116132323Y-112000000D03*
D11*
%TO.P,C2,2*%
%TO.N,GND*%
X121132323Y-112000000D03*
%TD*%
D12*
%TO.P,RV1,1,1*%
%TO.N,Net-(R4-Pad2)*%
X124550000Y-139125000D03*
%TO.P,RV1,2,2*%
X122010000Y-141665000D03*
%TO.P,RV1,3,3*%
%TO.N,GND*%
X119470000Y-139125000D03*
%TD*%
%TO.P,RV2,1,1*%
%TO.N,Net-(R6-Pad1)*%
X135080000Y-139125000D03*
%TO.P,RV2,2,2*%
%TO.N,Net-(J3-Pin_4)*%
X132540000Y-141665000D03*
%TO.P,RV2,3,3*%
%TO.N,GND*%
X130000000Y-139125000D03*
%TD*%
%TO.P,RV3,1,1*%
%TO.N,Net-(R9-Pad2)*%
X93050000Y-139125000D03*
%TO.P,RV3,2,2*%
X90510000Y-141665000D03*
%TO.P,RV3,3,3*%
%TO.N,GND*%
X87970000Y-139125000D03*
%TD*%
%TO.P,RV4,1,1*%
%TO.N,Net-(R12-Pad1)*%
X103300000Y-139125000D03*
%TO.P,RV4,2,2*%
%TO.N,Net-(J3-Pin_1)*%
X100760000Y-141665000D03*
%TO.P,RV4,3,3*%
%TO.N,GND*%
X98220000Y-139125000D03*
%TD*%
D13*
%TO.P,J1,1,Pin_1*%
%TO.N,GND*%
X85875000Y-113775000D03*
D14*
%TO.P,J1,2,Pin_2*%
%TO.N,Net-(D7-A)*%
X85875000Y-111235000D03*
%TD*%
D13*
%TO.P,J3,1,Pin_1*%
%TO.N,Net-(J3-Pin_1)*%
X135625000Y-109700000D03*
D14*
%TO.P,J3,2,Pin_2*%
%TO.N,GND*%
X135625000Y-112240000D03*
%TO.P,J3,3,Pin_3*%
X135625000Y-114780000D03*
%TO.P,J3,4,Pin_4*%
%TO.N,Net-(J3-Pin_4)*%
X135625000Y-117320000D03*
%TD*%
D13*
%TO.P,J2,1,Pin_1*%
%TO.N,Net-(J2-Pin_1)*%
X85875000Y-129300000D03*
D14*
%TO.P,J2,2,Pin_2*%
%TO.N,GND*%
X85875000Y-126760000D03*
%TO.P,J2,3,Pin_3*%
X85875000Y-124220000D03*
%TO.P,J2,4,Pin_4*%
%TO.N,Net-(J2-Pin_4)*%
X85875000Y-121680000D03*
%TD*%
D15*
%TO.N,Net-(J2-Pin_1)*%
X122340000Y-123670000D03*
%TO.N,GND*%
X116250000Y-117500000D03*
X107250000Y-117500000D03*
X79000000Y-134500000D03*
X97250000Y-117250000D03*
X142500000Y-134000000D03*
X97700000Y-110397500D03*
X122260000Y-122250000D03*
X120000000Y-103500000D03*
X122250000Y-117500000D03*
X103250000Y-131750000D03*
X107000000Y-135000000D03*
X129750000Y-119250000D03*
X98500000Y-122500000D03*
X130000000Y-131000000D03*
X79000000Y-118000000D03*
X137000000Y-103000000D03*
X130000000Y-135000000D03*
X115000000Y-131000000D03*
X85000000Y-103000000D03*
X101750000Y-103500000D03*
X142500000Y-123380000D03*
%TO.N,Net-(J2-Pin_4)*%
X98500000Y-123850000D03*
%TD*%
D16*
%TO.N,Net-(J2-Pin_1)*%
X117000000Y-129040000D02*
X86250000Y-129040000D01*
X117000000Y-129010000D02*
X117000000Y-129040000D01*
X122340000Y-123670000D02*
X117000000Y-129010000D01*
%TO.N,Net-(J2-Pin_4)*%
X98500000Y-123850000D02*
X96850000Y-123850000D01*
X94420000Y-121420000D02*
X86250000Y-121420000D01*
X96850000Y-123850000D02*
X94420000Y-121420000D01*
%TO.N,Net-(J3-Pin_4)*%
X135625000Y-117320000D02*
X132500000Y-120445000D01*
X132500000Y-120445000D02*
X132500000Y-141625000D01*
X132500000Y-141625000D02*
X132540000Y-141665000D01*
%TO.N,Net-(J3-Pin_1)*%
X129620000Y-136380000D02*
X132000000Y-134000000D01*
X116120000Y-136380000D02*
X129620000Y-136380000D01*
X110250000Y-142250000D02*
X116120000Y-136380000D01*
X132000000Y-112500000D02*
X134800000Y-109700000D01*
X132000000Y-134000000D02*
X132000000Y-112500000D01*
X134800000Y-109700000D02*
X135625000Y-109700000D01*
X101345000Y-142250000D02*
X110250000Y-142250000D01*
X100760000Y-141665000D02*
X101345000Y-142250000D01*
%TD*%
%TA.AperFunction,Conductor*%
%TO.N,GND*%
G36*
X134486351Y-110965396D02*
G01*
X134492516Y-110967886D01*
X134505760Y-110973652D01*
X134532669Y-110993796D01*
X134667517Y-111044091D01*
X134667555Y-111044095D01*
X134670764Y-111045492D01*
X134695121Y-111065851D01*
X134720531Y-111084873D01*
X134721732Y-111088095D01*
X134724373Y-111090302D01*
X134733855Y-111120596D01*
X134744949Y-111150337D01*
X134744217Y-111153699D01*
X134745245Y-111156981D01*
X134736846Y-111187585D01*
X134730098Y-111218610D01*
X134727311Y-111222332D01*
X134726755Y-111224360D01*
X134723821Y-111226994D01*
X134708947Y-111246865D01*
X134595271Y-111360541D01*
X134470379Y-111532442D01*
X134373904Y-111721782D01*
X134308242Y-111923870D01*
X134308242Y-111923873D01*
X134297769Y-111990000D01*
X135191988Y-111990000D01*
X135159075Y-112047007D01*
X135125000Y-112174174D01*
X135125000Y-112305826D01*
X135159075Y-112432993D01*
X135191988Y-112490000D01*
X134297769Y-112490000D01*
X134308242Y-112556126D01*
X134308242Y-112556129D01*
X134373904Y-112758217D01*
X134470379Y-112947557D01*
X134595272Y-113119459D01*
X134595276Y-113119464D01*
X134745535Y-113269723D01*
X134745540Y-113269727D01*
X134917444Y-113394622D01*
X134927048Y-113399516D01*
X134977844Y-113447491D01*
X134994638Y-113515312D01*
X134972100Y-113581447D01*
X134927048Y-113620484D01*
X134917444Y-113625377D01*
X134745540Y-113750272D01*
X134745535Y-113750276D01*
X134595276Y-113900535D01*
X134595272Y-113900540D01*
X134470379Y-114072442D01*
X134373904Y-114261782D01*
X134308242Y-114463870D01*
X134308242Y-114463873D01*
X134297769Y-114530000D01*
X135191988Y-114530000D01*
X135159075Y-114587007D01*
X135125000Y-114714174D01*
X135125000Y-114845826D01*
X135159075Y-114972993D01*
X135191988Y-115030000D01*
X134297769Y-115030000D01*
X134308242Y-115096126D01*
X134308242Y-115096129D01*
X134373904Y-115298217D01*
X134470379Y-115487557D01*
X134595272Y-115659459D01*
X134595276Y-115659464D01*
X134745535Y-115809723D01*
X134745540Y-115809727D01*
X134917444Y-115934622D01*
X134926495Y-115939234D01*
X134977292Y-115987208D01*
X134994087Y-116055029D01*
X134971550Y-116121164D01*
X134926499Y-116160202D01*
X134917182Y-116164949D01*
X134745213Y-116289890D01*
X134594890Y-116440213D01*
X134469951Y-116612179D01*
X134373444Y-116801585D01*
X134307753Y-117003760D01*
X134274500Y-117213713D01*
X134274500Y-117426286D01*
X134307754Y-117636244D01*
X134307754Y-117636247D01*
X134321491Y-117678523D01*
X134323486Y-117748364D01*
X134291241Y-117804522D01*
X132812181Y-119283583D01*
X132750858Y-119317068D01*
X132681166Y-119312084D01*
X132625233Y-119270212D01*
X132600816Y-119204748D01*
X132600500Y-119195902D01*
X132600500Y-112800096D01*
X132620185Y-112733057D01*
X132636814Y-112712420D01*
X134355338Y-110993895D01*
X134416659Y-110960412D01*
X134486351Y-110965396D01*
G37*
%TD.AperFunction*%
%TA.AperFunction,Conductor*%
G36*
X135875000Y-114346988D02*
G01*
X135817993Y-114314075D01*
X135690826Y-114280000D01*
X135559174Y-114280000D01*
X135432007Y-114314075D01*
X135375000Y-114346988D01*
X135375000Y-112673012D01*
X135432007Y-112705925D01*
X135559174Y-112740000D01*
X135690826Y-112740000D01*
X135817993Y-112705925D01*
X135875000Y-112673012D01*
X135875000Y-114346988D01*
G37*
%TD.AperFunction*%
%TA.AperFunction,Conductor*%
G36*
X86125000Y-126326988D02*
G01*
X86067993Y-126294075D01*
X85940826Y-126260000D01*
X85809174Y-126260000D01*
X85682007Y-126294075D01*
X85625000Y-126326988D01*
X85625000Y-124653012D01*
X85682007Y-124685925D01*
X85809174Y-124720000D01*
X85940826Y-124720000D01*
X86067993Y-124685925D01*
X86125000Y-124653012D01*
X86125000Y-126326988D01*
G37*
%TD.AperFunction*%
%TA.AperFunction,Conductor*%
G36*
X145942539Y-97520185D02*
G01*
X145988294Y-97572989D01*
X145999500Y-97624500D01*
X145999500Y-143375500D01*
X145979815Y-143442539D01*
X145927011Y-143488294D01*
X145875500Y-143499500D01*
X75624500Y-143499500D01*
X75557461Y-143479815D01*
X75511706Y-143427011D01*
X75500500Y-143375500D01*
X75500500Y-141568945D01*
X89289500Y-141568945D01*
X89289500Y-141761054D01*
X89319553Y-141950802D01*
X89378916Y-142133506D01*
X89378918Y-142133509D01*
X89466135Y-142304681D01*
X89579055Y-142460102D01*
X89714898Y-142595945D01*
X89870319Y-142708865D01*
X90041491Y-142796082D01*
X90041493Y-142796083D01*
X90116359Y-142820408D01*
X90224199Y-142855447D01*
X90413945Y-142885500D01*
X90413946Y-142885500D01*
X90606054Y-142885500D01*
X90606055Y-142885500D01*
X90795801Y-142855447D01*
X90978509Y-142796082D01*
X91149681Y-142708865D01*
X91305102Y-142595945D01*
X91440945Y-142460102D01*
X91553865Y-142304681D01*
X91641082Y-142133509D01*
X91700447Y-141950801D01*
X91730500Y-141761055D01*
X91730500Y-141568945D01*
X99539500Y-141568945D01*
X99539500Y-141761054D01*
X99569553Y-141950802D01*
X99628916Y-142133506D01*
X99628918Y-142133509D01*
X99716135Y-142304681D01*
X99829055Y-142460102D01*
X99964898Y-142595945D01*
X100120319Y-142708865D01*
X100291491Y-142796082D01*
X100291493Y-142796083D01*
X100366359Y-142820408D01*
X100474199Y-142855447D01*
X100663945Y-142885500D01*
X100663946Y-142885500D01*
X100856054Y-142885500D01*
X100856055Y-142885500D01*
X101045801Y-142855447D01*
X101118707Y-142831757D01*
X101188544Y-142829762D01*
X101189117Y-142829915D01*
X101265943Y-142850501D01*
X101265944Y-142850501D01*
X101431653Y-142850501D01*
X101431669Y-142850500D01*
X110163331Y-142850500D01*
X110163347Y-142850501D01*
X110170943Y-142850501D01*
X110329054Y-142850501D01*
X110329057Y-142850501D01*
X110481785Y-142809577D01*
X110531904Y-142780639D01*
X110618716Y-142730520D01*
X110730520Y-142618716D01*
X110730520Y-142618714D01*
X110740728Y-142608507D01*
X110740729Y-142608504D01*
X111780289Y-141568945D01*
X120789500Y-141568945D01*
X120789500Y-141761054D01*
X120819553Y-141950802D01*
X120878916Y-142133506D01*
X120878918Y-142133509D01*
X120966135Y-142304681D01*
X121079055Y-142460102D01*
X121214898Y-142595945D01*
X121370319Y-142708865D01*
X121541491Y-142796082D01*
X121541493Y-142796083D01*
X121616359Y-142820408D01*
X121724199Y-142855447D01*
X121913945Y-142885500D01*
X121913946Y-142885500D01*
X122106054Y-142885500D01*
X122106055Y-142885500D01*
X122295801Y-142855447D01*
X122478509Y-142796082D01*
X122649681Y-142708865D01*
X122805102Y-142595945D01*
X122940945Y-142460102D01*
X123053865Y-142304681D01*
X123141082Y-142133509D01*
X123200447Y-141950801D01*
X123230500Y-141761055D01*
X123230500Y-141568945D01*
X123200447Y-141379199D01*
X123141082Y-141196491D01*
X123053865Y-141025319D01*
X122940945Y-140869898D01*
X122805102Y-140734055D01*
X122649681Y-140621135D01*
X122570500Y-140580790D01*
X122478506Y-140533916D01*
X122295802Y-140474553D01*
X122200928Y-140459526D01*
X122106055Y-140444500D01*
X121913945Y-140444500D01*
X121850696Y-140454517D01*
X121724197Y-140474553D01*
X121541493Y-140533916D01*
X121370318Y-140621135D01*
X121318385Y-140658867D01*
X121214898Y-140734055D01*
X121214896Y-140734057D01*
X121214895Y-140734057D01*
X121079057Y-140869895D01*
X121079057Y-140869896D01*
X121079055Y-140869898D01*
X121030560Y-140936645D01*
X120966135Y-141025318D01*
X120878916Y-141196493D01*
X120819553Y-141379197D01*
X120789500Y-141568945D01*
X111780289Y-141568945D01*
X114320251Y-139028984D01*
X118250000Y-139028984D01*
X118250000Y-139221015D01*
X118280040Y-139410684D01*
X118339383Y-139593321D01*
X118426561Y-139764415D01*
X118447798Y-139793646D01*
X119070000Y-139171445D01*
X119070000Y-139177661D01*
X119097259Y-139279394D01*
X119149920Y-139370606D01*
X119224394Y-139445080D01*
X119315606Y-139497741D01*
X119417339Y-139525000D01*
X119423554Y-139525000D01*
X118801351Y-140147200D01*
X118801352Y-140147201D01*
X118830577Y-140168434D01*
X119001678Y-140255616D01*
X119184315Y-140314959D01*
X119373985Y-140345000D01*
X119566015Y-140345000D01*
X119755684Y-140314959D01*
X119938321Y-140255616D01*
X120109419Y-140168436D01*
X120138646Y-140147201D01*
X120138646Y-140147200D01*
X119516447Y-139525000D01*
X119522661Y-139525000D01*
X119624394Y-139497741D01*
X119715606Y-139445080D01*
X119790080Y-139370606D01*
X119842741Y-139279394D01*
X119870000Y-139177661D01*
X119870000Y-139171446D01*
X120492200Y-139793646D01*
X120492201Y-139793646D01*
X120513436Y-139764419D01*
X120600616Y-139593321D01*
X120659959Y-139410684D01*
X120690000Y-139221015D01*
X120690000Y-139028984D01*
X120689994Y-139028945D01*
X123329500Y-139028945D01*
X123329500Y-139221054D01*
X123359553Y-139410802D01*
X123418916Y-139593506D01*
X123505999Y-139764415D01*
X123506135Y-139764681D01*
X123619055Y-139920102D01*
X123754898Y-140055945D01*
X123910319Y-140168865D01*
X124080576Y-140255616D01*
X124081493Y-140256083D01*
X124172845Y-140285764D01*
X124264199Y-140315447D01*
X124453945Y-140345500D01*
X124453946Y-140345500D01*
X124646054Y-140345500D01*
X124646055Y-140345500D01*
X124835801Y-140315447D01*
X125018509Y-140256082D01*
X125189681Y-140168865D01*
X125345102Y-140055945D01*
X125480945Y-139920102D01*
X125593865Y-139764681D01*
X125681082Y-139593509D01*
X125740447Y-139410801D01*
X125770500Y-139221055D01*
X125770500Y-139028984D01*
X128780000Y-139028984D01*
X128780000Y-139221015D01*
X128810040Y-139410684D01*
X128869383Y-139593321D01*
X128956561Y-139764415D01*
X128977798Y-139793646D01*
X129600000Y-139171445D01*
X129600000Y-139177661D01*
X129627259Y-139279394D01*
X129679920Y-139370606D01*
X129754394Y-139445080D01*
X129845606Y-139497741D01*
X129947339Y-139525000D01*
X129953554Y-139525000D01*
X129331351Y-140147200D01*
X129331352Y-140147201D01*
X129360577Y-140168434D01*
X129531678Y-140255616D01*
X129714315Y-140314959D01*
X129903985Y-140345000D01*
X130096015Y-140345000D01*
X130285684Y-140314959D01*
X130468321Y-140255616D01*
X130639419Y-140168436D01*
X130668646Y-140147201D01*
X130668646Y-140147200D01*
X130046447Y-139525000D01*
X130052661Y-139525000D01*
X130154394Y-139497741D01*
X130245606Y-139445080D01*
X130320080Y-139370606D01*
X130372741Y-139279394D01*
X130400000Y-139177661D01*
X130400000Y-139171446D01*
X131022200Y-139793646D01*
X131022201Y-139793646D01*
X131043436Y-139764419D01*
X131130616Y-139593321D01*
X131189959Y-139410684D01*
X131220000Y-139221015D01*
X131220000Y-139028984D01*
X131189959Y-138839315D01*
X131130616Y-138656678D01*
X131043434Y-138485577D01*
X131022201Y-138456352D01*
X131022200Y-138456351D01*
X130400000Y-139078552D01*
X130400000Y-139072339D01*
X130372741Y-138970606D01*
X130320080Y-138879394D01*
X130245606Y-138804920D01*
X130154394Y-138752259D01*
X130052661Y-138725000D01*
X130046447Y-138725000D01*
X130668646Y-138102798D01*
X130639415Y-138081561D01*
X130468321Y-137994383D01*
X130285684Y-137935040D01*
X130096015Y-137905000D01*
X129903985Y-137905000D01*
X129714315Y-137935040D01*
X129531678Y-137994383D01*
X129360578Y-138081564D01*
X129331352Y-138102798D01*
X129331351Y-138102798D01*
X129953554Y-138725000D01*
X129947339Y-138725000D01*
X129845606Y-138752259D01*
X129754394Y-138804920D01*
X129679920Y-138879394D01*
X129627259Y-138970606D01*
X129600000Y-139072339D01*
X129600000Y-139078553D01*
X128977798Y-138456351D01*
X128977798Y-138456352D01*
X128956564Y-138485578D01*
X128869383Y-138656678D01*
X128810040Y-138839315D01*
X128780000Y-139028984D01*
X125770500Y-139028984D01*
X125770500Y-139028945D01*
X125740447Y-138839199D01*
X125703342Y-138725000D01*
X125681083Y-138656493D01*
X125681082Y-138656491D01*
X125593865Y-138485319D01*
X125480945Y-138329898D01*
X125345102Y-138194055D01*
X125189681Y-138081135D01*
X125063337Y-138016759D01*
X125018506Y-137993916D01*
X124835802Y-137934553D01*
X124740928Y-137919526D01*
X124646055Y-137904500D01*
X124453945Y-137904500D01*
X124390696Y-137914517D01*
X124264197Y-137934553D01*
X124081493Y-137993916D01*
X123910318Y-138081135D01*
X123880502Y-138102798D01*
X123754898Y-138194055D01*
X123754896Y-138194057D01*
X123754895Y-138194057D01*
X123619057Y-138329895D01*
X123619057Y-138329896D01*
X123619055Y-138329898D01*
X123570560Y-138396645D01*
X123506135Y-138485318D01*
X123418916Y-138656493D01*
X123359553Y-138839197D01*
X123329500Y-139028945D01*
X120689994Y-139028945D01*
X120659959Y-138839315D01*
X120600616Y-138656678D01*
X120513434Y-138485577D01*
X120492201Y-138456352D01*
X120492200Y-138456351D01*
X119870000Y-139078552D01*
X119870000Y-139072339D01*
X119842741Y-138970606D01*
X119790080Y-138879394D01*
X119715606Y-138804920D01*
X119624394Y-138752259D01*
X119522661Y-138725000D01*
X119516447Y-138725000D01*
X120138646Y-138102798D01*
X120109415Y-138081561D01*
X119938321Y-137994383D01*
X119755684Y-137935040D01*
X119566015Y-137905000D01*
X119373985Y-137905000D01*
X119184315Y-137935040D01*
X119001678Y-137994383D01*
X118830578Y-138081564D01*
X118801352Y-138102798D01*
X118801351Y-138102798D01*
X119423554Y-138725000D01*
X119417339Y-138725000D01*
X119315606Y-138752259D01*
X119224394Y-138804920D01*
X119149920Y-138879394D01*
X119097259Y-138970606D01*
X119070000Y-139072339D01*
X119070000Y-139078553D01*
X118447798Y-138456351D01*
X118447798Y-138456352D01*
X118426564Y-138485578D01*
X118339383Y-138656678D01*
X118280040Y-138839315D01*
X118250000Y-139028984D01*
X114320251Y-139028984D01*
X116332417Y-137016819D01*
X116393740Y-136983334D01*
X116420098Y-136980500D01*
X129533331Y-136980500D01*
X129533347Y-136980501D01*
X129540943Y-136980501D01*
X129699054Y-136980501D01*
X129699057Y-136980501D01*
X129851785Y-136939577D01*
X129901904Y-136910639D01*
X129988716Y-136860520D01*
X130100520Y-136748716D01*
X130100520Y-136748714D01*
X130110728Y-136738507D01*
X130110729Y-136738504D01*
X131687820Y-135161413D01*
X131749142Y-135127930D01*
X131818834Y-135132914D01*
X131874767Y-135174786D01*
X131899184Y-135240250D01*
X131899500Y-135249096D01*
X131899500Y-140558549D01*
X131879815Y-140625588D01*
X131848387Y-140658865D01*
X131773018Y-140713624D01*
X131744895Y-140734057D01*
X131609057Y-140869895D01*
X131609057Y-140869896D01*
X131609055Y-140869898D01*
X131560560Y-140936645D01*
X131496135Y-141025318D01*
X131408916Y-141196493D01*
X131349553Y-141379197D01*
X131319500Y-141568945D01*
X131319500Y-141761054D01*
X131349553Y-141950802D01*
X131408916Y-142133506D01*
X131408918Y-142133509D01*
X131496135Y-142304681D01*
X131609055Y-142460102D01*
X131744898Y-142595945D01*
X131900319Y-142708865D01*
X132071491Y-142796082D01*
X132071493Y-142796083D01*
X132146359Y-142820408D01*
X132254199Y-142855447D01*
X132443945Y-142885500D01*
X132443946Y-142885500D01*
X132636054Y-142885500D01*
X132636055Y-142885500D01*
X132825801Y-142855447D01*
X133008509Y-142796082D01*
X133179681Y-142708865D01*
X133335102Y-142595945D01*
X133470945Y-142460102D01*
X133583865Y-142304681D01*
X133671082Y-142133509D01*
X133730447Y-141950801D01*
X133760500Y-141761055D01*
X133760500Y-141568945D01*
X133730447Y-141379199D01*
X133671082Y-141196491D01*
X133583865Y-141025319D01*
X133470945Y-140869898D01*
X133335102Y-140734055D01*
X133179681Y-140621135D01*
X133179679Y-140621134D01*
X133179675Y-140621131D01*
X133168201Y-140615284D01*
X133117407Y-140567308D01*
X133100500Y-140504802D01*
X133100500Y-139028945D01*
X133859500Y-139028945D01*
X133859500Y-139221054D01*
X133889553Y-139410802D01*
X133948916Y-139593506D01*
X134035999Y-139764415D01*
X134036135Y-139764681D01*
X134149055Y-139920102D01*
X134284898Y-140055945D01*
X134440319Y-140168865D01*
X134610576Y-140255616D01*
X134611493Y-140256083D01*
X134702845Y-140285764D01*
X134794199Y-140315447D01*
X134983945Y-140345500D01*
X134983946Y-140345500D01*
X135176054Y-140345500D01*
X135176055Y-140345500D01*
X135365801Y-140315447D01*
X135548509Y-140256082D01*
X135719681Y-140168865D01*
X135875102Y-140055945D01*
X136010945Y-139920102D01*
X136123865Y-139764681D01*
X136211082Y-139593509D01*
X136270447Y-139410801D01*
X136276270Y-139374038D01*
X140899500Y-139374038D01*
X140899500Y-139625961D01*
X140938910Y-139874785D01*
X141016760Y-140114383D01*
X141088723Y-140255616D01*
X141118959Y-140314959D01*
X141131132Y-140338848D01*
X141279201Y-140542649D01*
X141279205Y-140542654D01*
X141457345Y-140720794D01*
X141457350Y-140720798D01*
X141475600Y-140734057D01*
X141661155Y-140868870D01*
X141804184Y-140941747D01*
X141885616Y-140983239D01*
X141885618Y-140983239D01*
X141885621Y-140983241D01*
X142125215Y-141061090D01*
X142374038Y-141100500D01*
X142374039Y-141100500D01*
X142625961Y-141100500D01*
X142625962Y-141100500D01*
X142874785Y-141061090D01*
X143114379Y-140983241D01*
X143338845Y-140868870D01*
X143542656Y-140720793D01*
X143720793Y-140542656D01*
X143868870Y-140338845D01*
X143983241Y-140114379D01*
X144061090Y-139874785D01*
X144100500Y-139625962D01*
X144100500Y-139374038D01*
X144061090Y-139125215D01*
X143983241Y-138885621D01*
X143983239Y-138885618D01*
X143983239Y-138885616D01*
X143925066Y-138771446D01*
X143868870Y-138661155D01*
X143849952Y-138635117D01*
X143720798Y-138457350D01*
X143720794Y-138457345D01*
X143542654Y-138279205D01*
X143542649Y-138279201D01*
X143338848Y-138131132D01*
X143338847Y-138131131D01*
X143338845Y-138131130D01*
X143241566Y-138081564D01*
X143114383Y-138016760D01*
X142874785Y-137938910D01*
X142660687Y-137905000D01*
X142625962Y-137899500D01*
X142374038Y-137899500D01*
X142339313Y-137905000D01*
X142125214Y-137938910D01*
X141885616Y-138016760D01*
X141661151Y-138131132D01*
X141457350Y-138279201D01*
X141457345Y-138279205D01*
X141279205Y-138457345D01*
X141279201Y-138457350D01*
X141131132Y-138661151D01*
X141016760Y-138885616D01*
X140938910Y-139125214D01*
X140899500Y-139374038D01*
X136276270Y-139374038D01*
X136300500Y-139221055D01*
X136300500Y-139028945D01*
X136270447Y-138839199D01*
X136233342Y-138725000D01*
X136211083Y-138656493D01*
X136211082Y-138656491D01*
X136123865Y-138485319D01*
X136010945Y-138329898D01*
X135875102Y-138194055D01*
X135719681Y-138081135D01*
X135593337Y-138016759D01*
X135548506Y-137993916D01*
X135365802Y-137934553D01*
X135270928Y-137919526D01*
X135176055Y-137904500D01*
X134983945Y-137904500D01*
X134920696Y-137914517D01*
X134794197Y-137934553D01*
X134611493Y-137993916D01*
X134440318Y-138081135D01*
X134410502Y-138102798D01*
X134284898Y-138194055D01*
X134284896Y-138194057D01*
X134284895Y-138194057D01*
X134149057Y-138329895D01*
X134149057Y-138329896D01*
X134149055Y-138329898D01*
X134100560Y-138396645D01*
X134036135Y-138485318D01*
X133948916Y-138656493D01*
X133889553Y-138839197D01*
X133859500Y-139028945D01*
X133100500Y-139028945D01*
X133100500Y-120745096D01*
X133120185Y-120678057D01*
X133136814Y-120657420D01*
X135140478Y-118653755D01*
X135201799Y-118620272D01*
X135266473Y-118623506D01*
X135308757Y-118637246D01*
X135518713Y-118670500D01*
X135518714Y-118670500D01*
X135731286Y-118670500D01*
X135731287Y-118670500D01*
X135941243Y-118637246D01*
X136143412Y-118571557D01*
X136332816Y-118475051D01*
X136354789Y-118459086D01*
X136504786Y-118350109D01*
X136504788Y-118350106D01*
X136504792Y-118350104D01*
X136655104Y-118199792D01*
X136655106Y-118199788D01*
X136655109Y-118199786D01*
X136780048Y-118027820D01*
X136780047Y-118027820D01*
X136780051Y-118027816D01*
X136876557Y-117838412D01*
X136942246Y-117636243D01*
X136975500Y-117426287D01*
X136975500Y-117213713D01*
X136942246Y-117003757D01*
X136876557Y-116801588D01*
X136780051Y-116612184D01*
X136780049Y-116612181D01*
X136780048Y-116612179D01*
X136655109Y-116440213D01*
X136504786Y-116289890D01*
X136332817Y-116164949D01*
X136323504Y-116160204D01*
X136272707Y-116112230D01*
X136255912Y-116044409D01*
X136278449Y-115978274D01*
X136323507Y-115939232D01*
X136332558Y-115934620D01*
X136504459Y-115809727D01*
X136504464Y-115809723D01*
X136654723Y-115659464D01*
X136654727Y-115659459D01*
X136779620Y-115487557D01*
X136876095Y-115298217D01*
X136941757Y-115096129D01*
X136941757Y-115096126D01*
X136952231Y-115030000D01*
X136058012Y-115030000D01*
X136090925Y-114972993D01*
X136125000Y-114845826D01*
X136125000Y-114714174D01*
X136090925Y-114587007D01*
X136058012Y-114530000D01*
X136952231Y-114530000D01*
X136941757Y-114463873D01*
X136941757Y-114463870D01*
X136876095Y-114261782D01*
X136779620Y-114072442D01*
X136654727Y-113900540D01*
X136654723Y-113900535D01*
X136504464Y-113750276D01*
X136504459Y-113750272D01*
X136332558Y-113625379D01*
X136322954Y-113620486D01*
X136272157Y-113572512D01*
X136255361Y-113504692D01*
X136277897Y-113438556D01*
X136322954Y-113399514D01*
X136332558Y-113394620D01*
X136504459Y-113269727D01*
X136504464Y-113269723D01*
X136654723Y-113119464D01*
X136654727Y-113119459D01*
X136779620Y-112947557D01*
X136876095Y-112758217D01*
X136941757Y-112556129D01*
X136941757Y-112556126D01*
X136952231Y-112490000D01*
X136058012Y-112490000D01*
X136090925Y-112432993D01*
X136125000Y-112305826D01*
X136125000Y-112174174D01*
X136090925Y-112047007D01*
X136058012Y-111990000D01*
X136952231Y-111990000D01*
X136941757Y-111923873D01*
X136941757Y-111923870D01*
X136876095Y-111721782D01*
X136779620Y-111532442D01*
X136654727Y-111360540D01*
X136654723Y-111360535D01*
X136541053Y-111246865D01*
X136507568Y-111185542D01*
X136512552Y-111115850D01*
X136554424Y-111059917D01*
X136585400Y-111043002D01*
X136674847Y-111009641D01*
X136717326Y-110993798D01*
X136717326Y-110993797D01*
X136717331Y-110993796D01*
X136832546Y-110907546D01*
X136918796Y-110792331D01*
X136969091Y-110657483D01*
X136975500Y-110597873D01*
X136975499Y-108802128D01*
X136969091Y-108742517D01*
X136918796Y-108607669D01*
X136918795Y-108607668D01*
X136918793Y-108607664D01*
X136832547Y-108492455D01*
X136832544Y-108492452D01*
X136717335Y-108406206D01*
X136717328Y-108406202D01*
X136582482Y-108355908D01*
X136582483Y-108355908D01*
X136522883Y-108349501D01*
X136522881Y-108349500D01*
X136522873Y-108349500D01*
X136522864Y-108349500D01*
X134727129Y-108349500D01*
X134727123Y-108349501D01*
X134667516Y-108355908D01*
X134532671Y-108406202D01*
X134532664Y-108406206D01*
X134417455Y-108492452D01*
X134417452Y-108492455D01*
X134331206Y-108607664D01*
X134331202Y-108607671D01*
X134280908Y-108742517D01*
X134274501Y-108802116D01*
X134274501Y-108802123D01*
X134274500Y-108802135D01*
X134274500Y-109324902D01*
X134254815Y-109391941D01*
X134238181Y-109412583D01*
X131519481Y-112131282D01*
X131519477Y-112131287D01*
X131481510Y-112197050D01*
X131440424Y-112268211D01*
X131440423Y-112268212D01*
X131418174Y-112351247D01*
X131399499Y-112420943D01*
X131399499Y-112420945D01*
X131399499Y-112589046D01*
X131399500Y-112589059D01*
X131399500Y-133699903D01*
X131379815Y-133766942D01*
X131363181Y-133787584D01*
X129407584Y-135743181D01*
X129346261Y-135776666D01*
X129319903Y-135779500D01*
X116206670Y-135779500D01*
X116206654Y-135779499D01*
X116199058Y-135779499D01*
X116040943Y-135779499D01*
X115964579Y-135799961D01*
X115888214Y-135820423D01*
X115888209Y-135820426D01*
X115751290Y-135899475D01*
X115751282Y-135899481D01*
X110037584Y-141613181D01*
X109976261Y-141646666D01*
X109949903Y-141649500D01*
X102099164Y-141649500D01*
X102032125Y-141629815D01*
X101986370Y-141577011D01*
X101976691Y-141544898D01*
X101950447Y-141379199D01*
X101891082Y-141196491D01*
X101803865Y-141025319D01*
X101690945Y-140869898D01*
X101555102Y-140734055D01*
X101399681Y-140621135D01*
X101320500Y-140580790D01*
X101228506Y-140533916D01*
X101045802Y-140474553D01*
X100950928Y-140459526D01*
X100856055Y-140444500D01*
X100663945Y-140444500D01*
X100600696Y-140454517D01*
X100474197Y-140474553D01*
X100291493Y-140533916D01*
X100120318Y-140621135D01*
X100068385Y-140658867D01*
X99964898Y-140734055D01*
X99964896Y-140734057D01*
X99964895Y-140734057D01*
X99829057Y-140869895D01*
X99829057Y-140869896D01*
X99829055Y-140869898D01*
X99780560Y-140936645D01*
X99716135Y-141025318D01*
X99628916Y-141196493D01*
X99569553Y-141379197D01*
X99539500Y-141568945D01*
X91730500Y-141568945D01*
X91700447Y-141379199D01*
X91641082Y-141196491D01*
X91553865Y-141025319D01*
X91440945Y-140869898D01*
X91305102Y-140734055D01*
X91149681Y-140621135D01*
X91070500Y-140580790D01*
X90978506Y-140533916D01*
X90795802Y-140474553D01*
X90700928Y-140459526D01*
X90606055Y-140444500D01*
X90413945Y-140444500D01*
X90350696Y-140454517D01*
X90224197Y-140474553D01*
X90041493Y-140533916D01*
X89870318Y-140621135D01*
X89818385Y-140658867D01*
X89714898Y-140734055D01*
X89714896Y-140734057D01*
X89714895Y-140734057D01*
X89579057Y-140869895D01*
X89579057Y-140869896D01*
X89579055Y-140869898D01*
X89530560Y-140936645D01*
X89466135Y-141025318D01*
X89378916Y-141196493D01*
X89319553Y-141379197D01*
X89289500Y-141568945D01*
X75500500Y-141568945D01*
X75500500Y-139374038D01*
X77399500Y-139374038D01*
X77399500Y-139625961D01*
X77438910Y-139874785D01*
X77516760Y-140114383D01*
X77588723Y-140255616D01*
X77618959Y-140314959D01*
X77631132Y-140338848D01*
X77779201Y-140542649D01*
X77779205Y-140542654D01*
X77957345Y-140720794D01*
X77957350Y-140720798D01*
X77975600Y-140734057D01*
X78161155Y-140868870D01*
X78304184Y-140941747D01*
X78385616Y-140983239D01*
X78385618Y-140983239D01*
X78385621Y-140983241D01*
X78625215Y-141061090D01*
X78874038Y-141100500D01*
X78874039Y-141100500D01*
X79125961Y-141100500D01*
X79125962Y-141100500D01*
X79374785Y-141061090D01*
X79614379Y-140983241D01*
X79838845Y-140868870D01*
X80042656Y-140720793D01*
X80220793Y-140542656D01*
X80368870Y-140338845D01*
X80483241Y-140114379D01*
X80561090Y-139874785D01*
X80600500Y-139625962D01*
X80600500Y-139374038D01*
X80561090Y-139125215D01*
X80529823Y-139028984D01*
X86750000Y-139028984D01*
X86750000Y-139221015D01*
X86780040Y-139410684D01*
X86839383Y-139593321D01*
X86926561Y-139764415D01*
X86947798Y-139793646D01*
X87570000Y-139171445D01*
X87570000Y-139177661D01*
X87597259Y-139279394D01*
X87649920Y-139370606D01*
X87724394Y-139445080D01*
X87815606Y-139497741D01*
X87917339Y-139525000D01*
X87923554Y-139525000D01*
X87301351Y-140147200D01*
X87301352Y-140147201D01*
X87330577Y-140168434D01*
X87501678Y-140255616D01*
X87684315Y-140314959D01*
X87873985Y-140345000D01*
X88066015Y-140345000D01*
X88255684Y-140314959D01*
X88438321Y-140255616D01*
X88609419Y-140168436D01*
X88638646Y-140147201D01*
X88638646Y-140147200D01*
X88016447Y-139525000D01*
X88022661Y-139525000D01*
X88124394Y-139497741D01*
X88215606Y-139445080D01*
X88290080Y-139370606D01*
X88342741Y-139279394D01*
X88370000Y-139177661D01*
X88370000Y-139171446D01*
X88992200Y-139793646D01*
X88992201Y-139793646D01*
X89013436Y-139764419D01*
X89100616Y-139593321D01*
X89159959Y-139410684D01*
X89190000Y-139221015D01*
X89190000Y-139028984D01*
X89189994Y-139028945D01*
X91829500Y-139028945D01*
X91829500Y-139221054D01*
X91859553Y-139410802D01*
X91918916Y-139593506D01*
X92005999Y-139764415D01*
X92006135Y-139764681D01*
X92119055Y-139920102D01*
X92254898Y-140055945D01*
X92410319Y-140168865D01*
X92580576Y-140255616D01*
X92581493Y-140256083D01*
X92672845Y-140285764D01*
X92764199Y-140315447D01*
X92953945Y-140345500D01*
X92953946Y-140345500D01*
X93146054Y-140345500D01*
X93146055Y-140345500D01*
X93335801Y-140315447D01*
X93518509Y-140256082D01*
X93689681Y-140168865D01*
X93845102Y-140055945D01*
X93980945Y-139920102D01*
X94093865Y-139764681D01*
X94181082Y-139593509D01*
X94240447Y-139410801D01*
X94270500Y-139221055D01*
X94270500Y-139028984D01*
X97000000Y-139028984D01*
X97000000Y-139221015D01*
X97030040Y-139410684D01*
X97089383Y-139593321D01*
X97176561Y-139764415D01*
X97197798Y-139793646D01*
X97820000Y-139171445D01*
X97820000Y-139177661D01*
X97847259Y-139279394D01*
X97899920Y-139370606D01*
X97974394Y-139445080D01*
X98065606Y-139497741D01*
X98167339Y-139525000D01*
X98173554Y-139525000D01*
X97551351Y-140147200D01*
X97551352Y-140147201D01*
X97580577Y-140168434D01*
X97751678Y-140255616D01*
X97934315Y-140314959D01*
X98123985Y-140345000D01*
X98316015Y-140345000D01*
X98505684Y-140314959D01*
X98688321Y-140255616D01*
X98859419Y-140168436D01*
X98888646Y-140147201D01*
X98888646Y-140147200D01*
X98266447Y-139525000D01*
X98272661Y-139525000D01*
X98374394Y-139497741D01*
X98465606Y-139445080D01*
X98540080Y-139370606D01*
X98592741Y-139279394D01*
X98620000Y-139177661D01*
X98620000Y-139171446D01*
X99242200Y-139793646D01*
X99242201Y-139793646D01*
X99263436Y-139764419D01*
X99350616Y-139593321D01*
X99409959Y-139410684D01*
X99440000Y-139221015D01*
X99440000Y-139028984D01*
X99439994Y-139028945D01*
X102079500Y-139028945D01*
X102079500Y-139221054D01*
X102109553Y-139410802D01*
X102168916Y-139593506D01*
X102255999Y-139764415D01*
X102256135Y-139764681D01*
X102369055Y-139920102D01*
X102504898Y-140055945D01*
X102660319Y-140168865D01*
X102830576Y-140255616D01*
X102831493Y-140256083D01*
X102922845Y-140285764D01*
X103014199Y-140315447D01*
X103203945Y-140345500D01*
X103203946Y-140345500D01*
X103396054Y-140345500D01*
X103396055Y-140345500D01*
X103585801Y-140315447D01*
X103768509Y-140256082D01*
X103939681Y-140168865D01*
X104095102Y-140055945D01*
X104230945Y-139920102D01*
X104343865Y-139764681D01*
X104431082Y-139593509D01*
X104490447Y-139410801D01*
X104520500Y-139221055D01*
X104520500Y-139028945D01*
X104490447Y-138839199D01*
X104453342Y-138725000D01*
X104431083Y-138656493D01*
X104431082Y-138656491D01*
X104343865Y-138485319D01*
X104230945Y-138329898D01*
X104095102Y-138194055D01*
X103939681Y-138081135D01*
X103813337Y-138016759D01*
X103768506Y-137993916D01*
X103585802Y-137934553D01*
X103490928Y-137919526D01*
X103396055Y-137904500D01*
X103203945Y-137904500D01*
X103140696Y-137914517D01*
X103014197Y-137934553D01*
X102831493Y-137993916D01*
X102660318Y-138081135D01*
X102630502Y-138102798D01*
X102504898Y-138194055D01*
X102504896Y-138194057D01*
X102504895Y-138194057D01*
X102369057Y-138329895D01*
X102369057Y-138329896D01*
X102369055Y-138329898D01*
X102320560Y-138396645D01*
X102256135Y-138485318D01*
X102168916Y-138656493D01*
X102109553Y-138839197D01*
X102079500Y-139028945D01*
X99439994Y-139028945D01*
X99409959Y-138839315D01*
X99350616Y-138656678D01*
X99263434Y-138485577D01*
X99242201Y-138456352D01*
X99242200Y-138456351D01*
X98620000Y-139078552D01*
X98620000Y-139072339D01*
X98592741Y-138970606D01*
X98540080Y-138879394D01*
X98465606Y-138804920D01*
X98374394Y-138752259D01*
X98272661Y-138725000D01*
X98266447Y-138725000D01*
X98888646Y-138102798D01*
X98859415Y-138081561D01*
X98688321Y-137994383D01*
X98505684Y-137935040D01*
X98316015Y-137905000D01*
X98123985Y-137905000D01*
X97934315Y-137935040D01*
X97751678Y-137994383D01*
X97580578Y-138081564D01*
X97551352Y-138102798D01*
X97551351Y-138102798D01*
X98173554Y-138725000D01*
X98167339Y-138725000D01*
X98065606Y-138752259D01*
X97974394Y-138804920D01*
X97899920Y-138879394D01*
X97847259Y-138970606D01*
X97820000Y-139072339D01*
X97820000Y-139078553D01*
X97197798Y-138456351D01*
X97197798Y-138456352D01*
X97176564Y-138485578D01*
X97089383Y-138656678D01*
X97030040Y-138839315D01*
X97000000Y-139028984D01*
X94270500Y-139028984D01*
X94270500Y-139028945D01*
X94240447Y-138839199D01*
X94203342Y-138725000D01*
X94181083Y-138656493D01*
X94181082Y-138656491D01*
X94093865Y-138485319D01*
X93980945Y-138329898D01*
X93845102Y-138194055D01*
X93689681Y-138081135D01*
X93563337Y-138016759D01*
X93518506Y-137993916D01*
X93335802Y-137934553D01*
X93240928Y-137919526D01*
X93146055Y-137904500D01*
X92953945Y-137904500D01*
X92890696Y-137914517D01*
X92764197Y-137934553D01*
X92581493Y-137993916D01*
X92410318Y-138081135D01*
X92380502Y-138102798D01*
X92254898Y-138194055D01*
X92254896Y-138194057D01*
X92254895Y-138194057D01*
X92119057Y-138329895D01*
X92119057Y-138329896D01*
X92119055Y-138329898D01*
X92070560Y-138396645D01*
X92006135Y-138485318D01*
X91918916Y-138656493D01*
X91859553Y-138839197D01*
X91829500Y-139028945D01*
X89189994Y-139028945D01*
X89159959Y-138839315D01*
X89100616Y-138656678D01*
X89013434Y-138485577D01*
X88992201Y-138456352D01*
X88992200Y-138456351D01*
X88370000Y-139078552D01*
X88370000Y-139072339D01*
X88342741Y-138970606D01*
X88290080Y-138879394D01*
X88215606Y-138804920D01*
X88124394Y-138752259D01*
X88022661Y-138725000D01*
X88016447Y-138725000D01*
X88638646Y-138102798D01*
X88609415Y-138081561D01*
X88438321Y-137994383D01*
X88255684Y-137935040D01*
X88066015Y-137905000D01*
X87873985Y-137905000D01*
X87684315Y-137935040D01*
X87501678Y-137994383D01*
X87330578Y-138081564D01*
X87301352Y-138102798D01*
X87301351Y-138102798D01*
X87923554Y-138725000D01*
X87917339Y-138725000D01*
X87815606Y-138752259D01*
X87724394Y-138804920D01*
X87649920Y-138879394D01*
X87597259Y-138970606D01*
X87570000Y-139072339D01*
X87570000Y-139078553D01*
X86947798Y-138456351D01*
X86947798Y-138456352D01*
X86926564Y-138485578D01*
X86839383Y-138656678D01*
X86780040Y-138839315D01*
X86750000Y-139028984D01*
X80529823Y-139028984D01*
X80483241Y-138885621D01*
X80368870Y-138661155D01*
X80349952Y-138635117D01*
X80220798Y-138457350D01*
X80220794Y-138457345D01*
X80042656Y-138279207D01*
X80002973Y-138250376D01*
X80002971Y-138250373D01*
X79838848Y-138131132D01*
X79838847Y-138131131D01*
X79838845Y-138131130D01*
X79741566Y-138081564D01*
X79614383Y-138016760D01*
X79374785Y-137938910D01*
X79160687Y-137905000D01*
X79125962Y-137899500D01*
X78874038Y-137899500D01*
X78839313Y-137905000D01*
X78625214Y-137938910D01*
X78385616Y-138016760D01*
X78161151Y-138131132D01*
X77957350Y-138279201D01*
X77957345Y-138279205D01*
X77779205Y-138457345D01*
X77779201Y-138457350D01*
X77631132Y-138661151D01*
X77516760Y-138885616D01*
X77438910Y-139125214D01*
X77399500Y-139374038D01*
X75500500Y-139374038D01*
X75500500Y-121573713D01*
X84524500Y-121573713D01*
X84524500Y-121786287D01*
X84557754Y-121996243D01*
X84577436Y-122056819D01*
X84623444Y-122198414D01*
X84719951Y-122387820D01*
X84844890Y-122559786D01*
X84995213Y-122710109D01*
X85167179Y-122835048D01*
X85167181Y-122835049D01*
X85167184Y-122835051D01*
X85176493Y-122839794D01*
X85227290Y-122887766D01*
X85244087Y-122955587D01*
X85221552Y-123021722D01*
X85176502Y-123060762D01*
X85167443Y-123065378D01*
X84995540Y-123190272D01*
X84995535Y-123190276D01*
X84845276Y-123340535D01*
X84845272Y-123340540D01*
X84720379Y-123512442D01*
X84623904Y-123701782D01*
X84558242Y-123903870D01*
X84558242Y-123903873D01*
X84547769Y-123970000D01*
X85441988Y-123970000D01*
X85409075Y-124027007D01*
X85375000Y-124154174D01*
X85375000Y-124285826D01*
X85409075Y-124412993D01*
X85441988Y-124470000D01*
X84547769Y-124470000D01*
X84558242Y-124536126D01*
X84558242Y-124536129D01*
X84623904Y-124738217D01*
X84720379Y-124927557D01*
X84845272Y-125099459D01*
X84845276Y-125099464D01*
X84995535Y-125249723D01*
X84995540Y-125249727D01*
X85167444Y-125374622D01*
X85177048Y-125379516D01*
X85227844Y-125427491D01*
X85244638Y-125495312D01*
X85222100Y-125561447D01*
X85177048Y-125600484D01*
X85167444Y-125605377D01*
X84995540Y-125730272D01*
X84995535Y-125730276D01*
X84845276Y-125880535D01*
X84845272Y-125880540D01*
X84720379Y-126052442D01*
X84623904Y-126241782D01*
X84558242Y-126443870D01*
X84558242Y-126443873D01*
X84547769Y-126510000D01*
X85441988Y-126510000D01*
X85409075Y-126567007D01*
X85375000Y-126694174D01*
X85375000Y-126825826D01*
X85409075Y-126952993D01*
X85441988Y-127010000D01*
X84547769Y-127010000D01*
X84558242Y-127076126D01*
X84558242Y-127076129D01*
X84623904Y-127278217D01*
X84720379Y-127467557D01*
X84845272Y-127639459D01*
X84845276Y-127639464D01*
X84958946Y-127753134D01*
X84992431Y-127814457D01*
X84987447Y-127884149D01*
X84945575Y-127940082D01*
X84914598Y-127956997D01*
X84782671Y-128006202D01*
X84782664Y-128006206D01*
X84667455Y-128092452D01*
X84667452Y-128092455D01*
X84581206Y-128207664D01*
X84581202Y-128207671D01*
X84530908Y-128342517D01*
X84524501Y-128402116D01*
X84524500Y-128402135D01*
X84524500Y-130197870D01*
X84524501Y-130197876D01*
X84530908Y-130257483D01*
X84581202Y-130392328D01*
X84581206Y-130392335D01*
X84667452Y-130507544D01*
X84667455Y-130507547D01*
X84782664Y-130593793D01*
X84782671Y-130593797D01*
X84917517Y-130644091D01*
X84917516Y-130644091D01*
X84924444Y-130644835D01*
X84977127Y-130650500D01*
X86772872Y-130650499D01*
X86832483Y-130644091D01*
X86967331Y-130593796D01*
X87082546Y-130507546D01*
X87168796Y-130392331D01*
X87219091Y-130257483D01*
X87225500Y-130197873D01*
X87225500Y-129764500D01*
X87245185Y-129697461D01*
X87297989Y-129651706D01*
X87349500Y-129640500D01*
X117079055Y-129640500D01*
X117079057Y-129640500D01*
X117231784Y-129599577D01*
X117368716Y-129520520D01*
X117480520Y-129408716D01*
X117513339Y-129351868D01*
X117533042Y-129326191D01*
X122354662Y-124504572D01*
X122415983Y-124471089D01*
X122418150Y-124470638D01*
X122476085Y-124459113D01*
X122573497Y-124439737D01*
X122719179Y-124379394D01*
X122850289Y-124291789D01*
X122961789Y-124180289D01*
X123049394Y-124049179D01*
X123109737Y-123903497D01*
X123140500Y-123748842D01*
X123140500Y-123591158D01*
X123140500Y-123591155D01*
X123140499Y-123591153D01*
X123124842Y-123512442D01*
X123109737Y-123436503D01*
X123069643Y-123339707D01*
X123049397Y-123290827D01*
X123049390Y-123290814D01*
X122961789Y-123159711D01*
X122961786Y-123159707D01*
X122850292Y-123048213D01*
X122850288Y-123048210D01*
X122719185Y-122960609D01*
X122719172Y-122960602D01*
X122573501Y-122900264D01*
X122573489Y-122900261D01*
X122418845Y-122869500D01*
X122418842Y-122869500D01*
X122261158Y-122869500D01*
X122261155Y-122869500D01*
X122106510Y-122900261D01*
X122106498Y-122900264D01*
X121960827Y-122960602D01*
X121960814Y-122960609D01*
X121829711Y-123048210D01*
X121829707Y-123048213D01*
X121718213Y-123159707D01*
X121718210Y-123159711D01*
X121630609Y-123290814D01*
X121630602Y-123290827D01*
X121570264Y-123436498D01*
X121570261Y-123436508D01*
X121539361Y-123591850D01*
X121506976Y-123653761D01*
X121505425Y-123655339D01*
X116757584Y-128403181D01*
X116696261Y-128436666D01*
X116669903Y-128439500D01*
X87340122Y-128439500D01*
X87273083Y-128419815D01*
X87227328Y-128367011D01*
X87219445Y-128344015D01*
X87219091Y-128342521D01*
X87219091Y-128342517D01*
X87168796Y-128207669D01*
X87168795Y-128207668D01*
X87168793Y-128207664D01*
X87082547Y-128092455D01*
X87082544Y-128092452D01*
X86967335Y-128006206D01*
X86967328Y-128006202D01*
X86835401Y-127956997D01*
X86779467Y-127915126D01*
X86755050Y-127849662D01*
X86769902Y-127781389D01*
X86791053Y-127753133D01*
X86904728Y-127639458D01*
X87029620Y-127467557D01*
X87126095Y-127278217D01*
X87191757Y-127076129D01*
X87191757Y-127076126D01*
X87202231Y-127010000D01*
X86308012Y-127010000D01*
X86340925Y-126952993D01*
X86375000Y-126825826D01*
X86375000Y-126694174D01*
X86340925Y-126567007D01*
X86308012Y-126510000D01*
X87202231Y-126510000D01*
X87191757Y-126443873D01*
X87191757Y-126443870D01*
X87126095Y-126241782D01*
X87029620Y-126052442D01*
X86904727Y-125880540D01*
X86904723Y-125880535D01*
X86754464Y-125730276D01*
X86754459Y-125730272D01*
X86582558Y-125605379D01*
X86572954Y-125600486D01*
X86522157Y-125552512D01*
X86505361Y-125484692D01*
X86527897Y-125418556D01*
X86572954Y-125379514D01*
X86582558Y-125374620D01*
X86754459Y-125249727D01*
X86754464Y-125249723D01*
X86904723Y-125099464D01*
X86904727Y-125099459D01*
X87029620Y-124927557D01*
X87126095Y-124738217D01*
X87191757Y-124536129D01*
X87191757Y-124536126D01*
X87202231Y-124470000D01*
X86308012Y-124470000D01*
X86340925Y-124412993D01*
X86375000Y-124285826D01*
X86375000Y-124154174D01*
X86340925Y-124027007D01*
X86308012Y-123970000D01*
X87202231Y-123970000D01*
X87191757Y-123903873D01*
X87191757Y-123903870D01*
X87126095Y-123701782D01*
X87029620Y-123512442D01*
X86904727Y-123340540D01*
X86904723Y-123340535D01*
X86754464Y-123190276D01*
X86754459Y-123190272D01*
X86582555Y-123065377D01*
X86573500Y-123060763D01*
X86522706Y-123012788D01*
X86505912Y-122944966D01*
X86528451Y-122878832D01*
X86573508Y-122839793D01*
X86582816Y-122835051D01*
X86662007Y-122777515D01*
X86754786Y-122710109D01*
X86754788Y-122710106D01*
X86754792Y-122710104D01*
X86905104Y-122559792D01*
X86905106Y-122559788D01*
X86905109Y-122559786D01*
X87030048Y-122387820D01*
X87030047Y-122387820D01*
X87030051Y-122387816D01*
X87126557Y-122198412D01*
X87126558Y-122198409D01*
X87156525Y-122106182D01*
X87195962Y-122048506D01*
X87260321Y-122021308D01*
X87274456Y-122020500D01*
X94119903Y-122020500D01*
X94186942Y-122040185D01*
X94207584Y-122056819D01*
X96365139Y-124214374D01*
X96365149Y-124214385D01*
X96369479Y-124218715D01*
X96369480Y-124218716D01*
X96481284Y-124330520D01*
X96565937Y-124379394D01*
X96565938Y-124379395D01*
X96618209Y-124409574D01*
X96618210Y-124409575D01*
X96618212Y-124409575D01*
X96618215Y-124409577D01*
X96770943Y-124450501D01*
X96770946Y-124450501D01*
X96936653Y-124450501D01*
X96936669Y-124450500D01*
X97920234Y-124450500D01*
X97987273Y-124470185D01*
X97989125Y-124471398D01*
X98120814Y-124559390D01*
X98120827Y-124559397D01*
X98266498Y-124619735D01*
X98266503Y-124619737D01*
X98421153Y-124650499D01*
X98421156Y-124650500D01*
X98421158Y-124650500D01*
X98578844Y-124650500D01*
X98578845Y-124650499D01*
X98733497Y-124619737D01*
X98879179Y-124559394D01*
X99010289Y-124471789D01*
X99121789Y-124360289D01*
X99209394Y-124229179D01*
X99269737Y-124083497D01*
X99300500Y-123928842D01*
X99300500Y-123771158D01*
X99300500Y-123771155D01*
X99300499Y-123771153D01*
X99269738Y-123616510D01*
X99269737Y-123616503D01*
X99269735Y-123616498D01*
X99209397Y-123470827D01*
X99209390Y-123470814D01*
X99121789Y-123339711D01*
X99121786Y-123339707D01*
X99010292Y-123228213D01*
X99010288Y-123228210D01*
X98879185Y-123140609D01*
X98879172Y-123140602D01*
X98733501Y-123080264D01*
X98733489Y-123080261D01*
X98578845Y-123049500D01*
X98578842Y-123049500D01*
X98421158Y-123049500D01*
X98421155Y-123049500D01*
X98266510Y-123080261D01*
X98266498Y-123080264D01*
X98120827Y-123140602D01*
X98120814Y-123140609D01*
X97989125Y-123228602D01*
X97922447Y-123249480D01*
X97920234Y-123249500D01*
X97150097Y-123249500D01*
X97083058Y-123229815D01*
X97062416Y-123213181D01*
X94907590Y-121058355D01*
X94907588Y-121058352D01*
X94788717Y-120939481D01*
X94788716Y-120939480D01*
X94701904Y-120889360D01*
X94701904Y-120889359D01*
X94701900Y-120889358D01*
X94651785Y-120860423D01*
X94499057Y-120819499D01*
X94340943Y-120819499D01*
X94333347Y-120819499D01*
X94333331Y-120819500D01*
X86975759Y-120819500D01*
X86908720Y-120799815D01*
X86888078Y-120783182D01*
X86849992Y-120745096D01*
X86754792Y-120649896D01*
X86754788Y-120649893D01*
X86754784Y-120649889D01*
X86582820Y-120524951D01*
X86393414Y-120428444D01*
X86393413Y-120428443D01*
X86393412Y-120428443D01*
X86191243Y-120362754D01*
X86191241Y-120362753D01*
X86191240Y-120362753D01*
X86029957Y-120337208D01*
X85981287Y-120329500D01*
X85768713Y-120329500D01*
X85720042Y-120337208D01*
X85558760Y-120362753D01*
X85356585Y-120428444D01*
X85167179Y-120524951D01*
X84995213Y-120649890D01*
X84844890Y-120800213D01*
X84719951Y-120972179D01*
X84623444Y-121161585D01*
X84557753Y-121363760D01*
X84524500Y-121573713D01*
X75500500Y-121573713D01*
X75500500Y-111128713D01*
X84524500Y-111128713D01*
X84524500Y-111341287D01*
X84557754Y-111551243D01*
X84619085Y-111740000D01*
X84623444Y-111753414D01*
X84719951Y-111942820D01*
X84844890Y-112114786D01*
X84958818Y-112228714D01*
X84992303Y-112290037D01*
X84987319Y-112359729D01*
X84945447Y-112415662D01*
X84914471Y-112432577D01*
X84782912Y-112481646D01*
X84782906Y-112481649D01*
X84667812Y-112567809D01*
X84667809Y-112567812D01*
X84581649Y-112682906D01*
X84581645Y-112682913D01*
X84531403Y-112817620D01*
X84531401Y-112817627D01*
X84525000Y-112877155D01*
X84525000Y-113525000D01*
X85441988Y-113525000D01*
X85409075Y-113582007D01*
X85375000Y-113709174D01*
X85375000Y-113840826D01*
X85409075Y-113967993D01*
X85441988Y-114025000D01*
X84525000Y-114025000D01*
X84525000Y-114672844D01*
X84531401Y-114732372D01*
X84531403Y-114732379D01*
X84581645Y-114867086D01*
X84581649Y-114867093D01*
X84667809Y-114982187D01*
X84667812Y-114982190D01*
X84782906Y-115068350D01*
X84782913Y-115068354D01*
X84917620Y-115118596D01*
X84917627Y-115118598D01*
X84977155Y-115124999D01*
X84977172Y-115125000D01*
X85625000Y-115125000D01*
X85625000Y-114208012D01*
X85682007Y-114240925D01*
X85809174Y-114275000D01*
X85940826Y-114275000D01*
X86067993Y-114240925D01*
X86125000Y-114208012D01*
X86125000Y-115125000D01*
X86772828Y-115125000D01*
X86772844Y-115124999D01*
X86832372Y-115118598D01*
X86832379Y-115118596D01*
X86967086Y-115068354D01*
X86967093Y-115068350D01*
X87082187Y-114982190D01*
X87082190Y-114982187D01*
X87168350Y-114867093D01*
X87168354Y-114867086D01*
X87218596Y-114732379D01*
X87218598Y-114732372D01*
X87224999Y-114672844D01*
X87225000Y-114672827D01*
X87225000Y-114025000D01*
X86308012Y-114025000D01*
X86340925Y-113967993D01*
X86375000Y-113840826D01*
X86375000Y-113709174D01*
X86340925Y-113582007D01*
X86308012Y-113525000D01*
X87225000Y-113525000D01*
X87225000Y-112877172D01*
X87224999Y-112877155D01*
X87218598Y-112817627D01*
X87218596Y-112817620D01*
X87168354Y-112682913D01*
X87168350Y-112682906D01*
X87082190Y-112567812D01*
X87082187Y-112567809D01*
X86967093Y-112481649D01*
X86967088Y-112481646D01*
X86835528Y-112432577D01*
X86779595Y-112390705D01*
X86755178Y-112325241D01*
X86770030Y-112256968D01*
X86791175Y-112228720D01*
X86905104Y-112114792D01*
X87030051Y-111942816D01*
X87126557Y-111753412D01*
X87192246Y-111551243D01*
X87225500Y-111341287D01*
X87225500Y-111128713D01*
X87204147Y-110993897D01*
X87200078Y-110968204D01*
X87197533Y-110952135D01*
X114631823Y-110952135D01*
X114631823Y-113047870D01*
X114631824Y-113047876D01*
X114638231Y-113107483D01*
X114688525Y-113242328D01*
X114688529Y-113242335D01*
X114774775Y-113357544D01*
X114774778Y-113357547D01*
X114889987Y-113443793D01*
X114889994Y-113443797D01*
X115024840Y-113494091D01*
X115024839Y-113494091D01*
X115031767Y-113494835D01*
X115084450Y-113500500D01*
X117180195Y-113500499D01*
X117239806Y-113494091D01*
X117374654Y-113443796D01*
X117489869Y-113357546D01*
X117576119Y-113242331D01*
X117626414Y-113107483D01*
X117632823Y-113047873D01*
X117632822Y-111881947D01*
X119632323Y-111881947D01*
X119632323Y-112118052D01*
X119669257Y-112351247D01*
X119742220Y-112575802D01*
X119849410Y-112786174D01*
X119909661Y-112869104D01*
X119909663Y-112869105D01*
X120649360Y-112129408D01*
X120666398Y-112192993D01*
X120732224Y-112307007D01*
X120825316Y-112400099D01*
X120939330Y-112465925D01*
X121002913Y-112482962D01*
X120263216Y-113222658D01*
X120346151Y-113282914D01*
X120556520Y-113390102D01*
X120781075Y-113463065D01*
X120781074Y-113463065D01*
X121014271Y-113500000D01*
X121250375Y-113500000D01*
X121483570Y-113463065D01*
X121708125Y-113390102D01*
X121918486Y-113282918D01*
X121918492Y-113282914D01*
X122001427Y-113222658D01*
X122001428Y-113222658D01*
X121261731Y-112482962D01*
X121325316Y-112465925D01*
X121439330Y-112400099D01*
X121532422Y-112307007D01*
X121598248Y-112192993D01*
X121615285Y-112129409D01*
X122354981Y-112869105D01*
X122354981Y-112869104D01*
X122415237Y-112786169D01*
X122415241Y-112786163D01*
X122522425Y-112575802D01*
X122595388Y-112351247D01*
X122632323Y-112118052D01*
X122632323Y-111881947D01*
X122595388Y-111648752D01*
X122522425Y-111424197D01*
X122415237Y-111213828D01*
X122354981Y-111130894D01*
X122354981Y-111130893D01*
X121615285Y-111870590D01*
X121598248Y-111807007D01*
X121532422Y-111692993D01*
X121439330Y-111599901D01*
X121325316Y-111534075D01*
X121261732Y-111517037D01*
X122001428Y-110777340D01*
X122001427Y-110777338D01*
X121918497Y-110717087D01*
X121708125Y-110609897D01*
X121483570Y-110536934D01*
X121483571Y-110536934D01*
X121250375Y-110500000D01*
X121014271Y-110500000D01*
X120781075Y-110536934D01*
X120556520Y-110609897D01*
X120346153Y-110717084D01*
X120263217Y-110777340D01*
X121002914Y-111517037D01*
X120939330Y-111534075D01*
X120825316Y-111599901D01*
X120732224Y-111692993D01*
X120666398Y-111807007D01*
X120649360Y-111870591D01*
X119909663Y-111130894D01*
X119849407Y-111213830D01*
X119742220Y-111424197D01*
X119669257Y-111648752D01*
X119632323Y-111881947D01*
X117632822Y-111881947D01*
X117632822Y-110952128D01*
X117626414Y-110892517D01*
X117626413Y-110892514D01*
X117617245Y-110867931D01*
X117576120Y-110757671D01*
X117576116Y-110757664D01*
X117489870Y-110642455D01*
X117489867Y-110642452D01*
X117374658Y-110556206D01*
X117374651Y-110556202D01*
X117239805Y-110505908D01*
X117239806Y-110505908D01*
X117180206Y-110499501D01*
X117180204Y-110499500D01*
X117180196Y-110499500D01*
X117180187Y-110499500D01*
X115084452Y-110499500D01*
X115084446Y-110499501D01*
X115024839Y-110505908D01*
X114889994Y-110556202D01*
X114889987Y-110556206D01*
X114774778Y-110642452D01*
X114774775Y-110642455D01*
X114688529Y-110757664D01*
X114688525Y-110757671D01*
X114638231Y-110892517D01*
X114635410Y-110918760D01*
X114631824Y-110952123D01*
X114631823Y-110952135D01*
X87197533Y-110952135D01*
X87192246Y-110918760D01*
X87192246Y-110918757D01*
X87126557Y-110716588D01*
X87030051Y-110527184D01*
X87030049Y-110527181D01*
X87030048Y-110527179D01*
X86905109Y-110355213D01*
X86754786Y-110204890D01*
X86582820Y-110079951D01*
X86393414Y-109983444D01*
X86393413Y-109983443D01*
X86393412Y-109983443D01*
X86191243Y-109917754D01*
X86191241Y-109917753D01*
X86191240Y-109917753D01*
X86029957Y-109892208D01*
X85981287Y-109884500D01*
X85768713Y-109884500D01*
X85720042Y-109892208D01*
X85558760Y-109917753D01*
X85356585Y-109983444D01*
X85167179Y-110079951D01*
X84995213Y-110204890D01*
X84844890Y-110355213D01*
X84719951Y-110527179D01*
X84623444Y-110716585D01*
X84557753Y-110918760D01*
X84545853Y-110993897D01*
X84524500Y-111128713D01*
X75500500Y-111128713D01*
X75500500Y-101374038D01*
X77399500Y-101374038D01*
X77399500Y-101625961D01*
X77438910Y-101874785D01*
X77516760Y-102114383D01*
X77631132Y-102338848D01*
X77779201Y-102542649D01*
X77779205Y-102542654D01*
X77957345Y-102720794D01*
X77957350Y-102720798D01*
X78135117Y-102849952D01*
X78161155Y-102868870D01*
X78304184Y-102941747D01*
X78385616Y-102983239D01*
X78385618Y-102983239D01*
X78385621Y-102983241D01*
X78625215Y-103061090D01*
X78874038Y-103100500D01*
X78874039Y-103100500D01*
X79125961Y-103100500D01*
X79125962Y-103100500D01*
X79374785Y-103061090D01*
X79614379Y-102983241D01*
X79838845Y-102868870D01*
X80042656Y-102720793D01*
X80220793Y-102542656D01*
X80368870Y-102338845D01*
X80483241Y-102114379D01*
X80561090Y-101874785D01*
X80600500Y-101625962D01*
X80600500Y-101374038D01*
X140899500Y-101374038D01*
X140899500Y-101625961D01*
X140938910Y-101874785D01*
X141016760Y-102114383D01*
X141131132Y-102338848D01*
X141279201Y-102542649D01*
X141279205Y-102542654D01*
X141457345Y-102720794D01*
X141457350Y-102720798D01*
X141635117Y-102849952D01*
X141661155Y-102868870D01*
X141804184Y-102941747D01*
X141885616Y-102983239D01*
X141885618Y-102983239D01*
X141885621Y-102983241D01*
X142125215Y-103061090D01*
X142374038Y-103100500D01*
X142374039Y-103100500D01*
X142625961Y-103100500D01*
X142625962Y-103100500D01*
X142874785Y-103061090D01*
X143114379Y-102983241D01*
X143338845Y-102868870D01*
X143542656Y-102720793D01*
X143720793Y-102542656D01*
X143868870Y-102338845D01*
X143983241Y-102114379D01*
X144061090Y-101874785D01*
X144100500Y-101625962D01*
X144100500Y-101374038D01*
X144061090Y-101125215D01*
X143983241Y-100885621D01*
X143983239Y-100885618D01*
X143983239Y-100885616D01*
X143941747Y-100804184D01*
X143868870Y-100661155D01*
X143849952Y-100635117D01*
X143720798Y-100457350D01*
X143720794Y-100457345D01*
X143542654Y-100279205D01*
X143542649Y-100279201D01*
X143338848Y-100131132D01*
X143338847Y-100131131D01*
X143338845Y-100131130D01*
X143268747Y-100095413D01*
X143114383Y-100016760D01*
X142874785Y-99938910D01*
X142625962Y-99899500D01*
X142374038Y-99899500D01*
X142249626Y-99919205D01*
X142125214Y-99938910D01*
X141885616Y-100016760D01*
X141661151Y-100131132D01*
X141457350Y-100279201D01*
X141457345Y-100279205D01*
X141279205Y-100457345D01*
X141279201Y-100457350D01*
X141131132Y-100661151D01*
X141016760Y-100885616D01*
X140938910Y-101125214D01*
X140899500Y-101374038D01*
X80600500Y-101374038D01*
X80561090Y-101125215D01*
X80483241Y-100885621D01*
X80483239Y-100885618D01*
X80483239Y-100885616D01*
X80441747Y-100804184D01*
X80368870Y-100661155D01*
X80349952Y-100635117D01*
X80220798Y-100457350D01*
X80220794Y-100457345D01*
X80042654Y-100279205D01*
X80042649Y-100279201D01*
X79838848Y-100131132D01*
X79838847Y-100131131D01*
X79838845Y-100131130D01*
X79768747Y-100095413D01*
X79614383Y-100016760D01*
X79374785Y-99938910D01*
X79125962Y-99899500D01*
X78874038Y-99899500D01*
X78749626Y-99919205D01*
X78625214Y-99938910D01*
X78385616Y-100016760D01*
X78161151Y-100131132D01*
X77957350Y-100279201D01*
X77957345Y-100279205D01*
X77779205Y-100457345D01*
X77779201Y-100457350D01*
X77631132Y-100661151D01*
X77516760Y-100885616D01*
X77438910Y-101125214D01*
X77399500Y-101374038D01*
X75500500Y-101374038D01*
X75500500Y-97624500D01*
X75520185Y-97557461D01*
X75572989Y-97511706D01*
X75624500Y-97500500D01*
X145875500Y-97500500D01*
X145942539Y-97520185D01*
G37*
%TD.AperFunction*%
%TD*%
M02*
