%TF.GenerationSoftware,KiCad,Pcbnew,9.0.0*%
%TF.CreationDate,2025-03-02T16:31:13-06:00*%
%TF.ProjectId,peak-read-amp,7065616b-2d72-4656-9164-2d616d702e6b,rev?*%
%TF.SameCoordinates,Original*%
%TF.FileFunction,Copper,L1,Top*%
%TF.FilePolarity,Positive*%
%FSLAX46Y46*%
G04 Gerber Fmt 4.6, Leading zero omitted, Abs format (unit mm)*
G04 Created by KiCad (PCBNEW 9.0.0) date 2025-03-02 16:31:13*
%MOMM*%
%LPD*%
G01*
G04 APERTURE LIST*
G04 Aperture macros list*
%AMRoundRect*
0 Rectangle with rounded corners*
0 $1 Rounding radius*
0 $2 $3 $4 $5 $6 $7 $8 $9 X,Y pos of 4 corners*
0 Add a 4 corners polygon primitive as box body*
4,1,4,$2,$3,$4,$5,$6,$7,$8,$9,$2,$3,0*
0 Add four circle primitives for the rounded corners*
1,1,$1+$1,$2,$3*
1,1,$1+$1,$4,$5*
1,1,$1+$1,$6,$7*
1,1,$1+$1,$8,$9*
0 Add four rect primitives between the rounded corners*
20,1,$1+$1,$2,$3,$4,$5,0*
20,1,$1+$1,$4,$5,$6,$7,0*
20,1,$1+$1,$6,$7,$8,$9,0*
20,1,$1+$1,$8,$9,$2,$3,0*%
G04 Aperture macros list end*
%TA.AperFunction,SMDPad,CuDef*%
%ADD10RoundRect,0.250000X-0.262500X-0.450000X0.262500X-0.450000X0.262500X0.450000X-0.262500X0.450000X0*%
%TD*%
%TA.AperFunction,ComponentPad*%
%ADD11R,2.000000X2.000000*%
%TD*%
%TA.AperFunction,ComponentPad*%
%ADD12C,2.000000*%
%TD*%
%TA.AperFunction,ComponentPad*%
%ADD13C,1.440000*%
%TD*%
%TA.AperFunction,SMDPad,CuDef*%
%ADD14RoundRect,0.250000X0.250000X0.475000X-0.250000X0.475000X-0.250000X-0.475000X0.250000X-0.475000X0*%
%TD*%
%TA.AperFunction,SMDPad,CuDef*%
%ADD15RoundRect,0.225000X-0.225000X-0.375000X0.225000X-0.375000X0.225000X0.375000X-0.225000X0.375000X0*%
%TD*%
%TA.AperFunction,SMDPad,CuDef*%
%ADD16RoundRect,0.250000X-0.250000X-0.475000X0.250000X-0.475000X0.250000X0.475000X-0.250000X0.475000X0*%
%TD*%
%TA.AperFunction,SMDPad,CuDef*%
%ADD17RoundRect,0.250000X0.262500X0.450000X-0.262500X0.450000X-0.262500X-0.450000X0.262500X-0.450000X0*%
%TD*%
%TA.AperFunction,ComponentPad*%
%ADD18R,1.700000X1.700000*%
%TD*%
%TA.AperFunction,ComponentPad*%
%ADD19O,1.700000X1.700000*%
%TD*%
%TA.AperFunction,SMDPad,CuDef*%
%ADD20RoundRect,0.150000X-0.825000X-0.150000X0.825000X-0.150000X0.825000X0.150000X-0.825000X0.150000X0*%
%TD*%
%TA.AperFunction,SMDPad,CuDef*%
%ADD21RoundRect,0.225000X0.225000X0.375000X-0.225000X0.375000X-0.225000X-0.375000X0.225000X-0.375000X0*%
%TD*%
%TA.AperFunction,SMDPad,CuDef*%
%ADD22RoundRect,0.250000X-0.850000X-0.350000X0.850000X-0.350000X0.850000X0.350000X-0.850000X0.350000X0*%
%TD*%
%TA.AperFunction,SMDPad,CuDef*%
%ADD23RoundRect,0.250000X-1.275000X-1.125000X1.275000X-1.125000X1.275000X1.125000X-1.275000X1.125000X0*%
%TD*%
%TA.AperFunction,SMDPad,CuDef*%
%ADD24RoundRect,0.249997X-2.950003X-2.650003X2.950003X-2.650003X2.950003X2.650003X-2.950003X2.650003X0*%
%TD*%
%TA.AperFunction,ViaPad*%
%ADD25C,0.600000*%
%TD*%
%TA.AperFunction,Conductor*%
%ADD26C,0.200000*%
%TD*%
%TA.AperFunction,Conductor*%
%ADD27C,0.500000*%
%TD*%
G04 APERTURE END LIST*
D10*
%TO.P,R8,1*%
%TO.N,Net-(D4-A)*%
X109337500Y-129100000D03*
%TO.P,R8,2*%
%TO.N,Net-(U3C--)*%
X111162500Y-129100000D03*
%TD*%
%TO.P,R5,1*%
%TO.N,Net-(U2C-+)*%
X133087500Y-122750000D03*
%TO.P,R5,2*%
%TO.N,Net-(D3-K)*%
X134912500Y-122750000D03*
%TD*%
D11*
%TO.P,C2,1*%
%TO.N,+8V*%
X116132323Y-112000000D03*
D12*
%TO.P,C2,2*%
%TO.N,GND*%
X121132323Y-112000000D03*
%TD*%
D13*
%TO.P,RV1,1,1*%
%TO.N,Net-(R4-Pad2)*%
X124550000Y-139125000D03*
%TO.P,RV1,2,2*%
X122010000Y-141665000D03*
%TO.P,RV1,3,3*%
%TO.N,GND*%
X119470000Y-139125000D03*
%TD*%
%TO.P,RV2,1,1*%
%TO.N,Net-(R6-Pad1)*%
X135080000Y-139125000D03*
%TO.P,RV2,2,2*%
%TO.N,Net-(J3-Pin_4)*%
X132540000Y-141665000D03*
%TO.P,RV2,3,3*%
%TO.N,GND*%
X130000000Y-139125000D03*
%TD*%
D14*
%TO.P,C3,1*%
%TO.N,+8V*%
X94647500Y-113897500D03*
%TO.P,C3,2*%
%TO.N,GND*%
X92747500Y-113897500D03*
%TD*%
D15*
%TO.P,D4,1,K*%
%TO.N,Net-(D4-K)*%
X93745000Y-128900000D03*
%TO.P,D4,2,A*%
%TO.N,Net-(D4-A)*%
X97045000Y-128900000D03*
%TD*%
D13*
%TO.P,RV3,1,1*%
%TO.N,Net-(R9-Pad2)*%
X93050000Y-139125000D03*
%TO.P,RV3,2,2*%
X90510000Y-141665000D03*
%TO.P,RV3,3,3*%
%TO.N,GND*%
X87970000Y-139125000D03*
%TD*%
D10*
%TO.P,R11,1*%
%TO.N,Net-(U3C-+)*%
X109337500Y-122850000D03*
%TO.P,R11,2*%
%TO.N,Net-(D6-K)*%
X111162500Y-122850000D03*
%TD*%
%TO.P,R2,1*%
%TO.N,Net-(D1-A)*%
X133087500Y-129000000D03*
%TO.P,R2,2*%
%TO.N,Net-(U2C--)*%
X134912500Y-129000000D03*
%TD*%
D15*
%TO.P,D6,1,K*%
%TO.N,Net-(D6-K)*%
X100200000Y-135000000D03*
%TO.P,D6,2,A*%
%TO.N,Net-(D5-K)*%
X103500000Y-135000000D03*
%TD*%
D16*
%TO.P,C4,1*%
%TO.N,Net-(J2-Pin_1)*%
X89000000Y-129000000D03*
%TO.P,C4,2*%
%TO.N,GND*%
X90900000Y-129000000D03*
%TD*%
D13*
%TO.P,RV4,1,1*%
%TO.N,Net-(R12-Pad1)*%
X103300000Y-139125000D03*
%TO.P,RV4,2,2*%
%TO.N,Net-(J3-Pin_1)*%
X100760000Y-141665000D03*
%TO.P,RV4,3,3*%
%TO.N,GND*%
X98220000Y-139125000D03*
%TD*%
D16*
%TO.P,C8,1*%
%TO.N,+8V*%
X102300000Y-117850000D03*
%TO.P,C8,2*%
%TO.N,GND*%
X104200000Y-117850000D03*
%TD*%
D17*
%TO.P,R12,1*%
%TO.N,Net-(R12-Pad1)*%
X111162500Y-125975000D03*
%TO.P,R12,2*%
%TO.N,Net-(U3C--)*%
X109337500Y-125975000D03*
%TD*%
D10*
%TO.P,R3,1*%
%TO.N,Net-(U2C--)*%
X133087500Y-132125000D03*
%TO.P,R3,2*%
%TO.N,Net-(D2-K)*%
X134912500Y-132125000D03*
%TD*%
D14*
%TO.P,C9,1*%
%TO.N,+8V*%
X120485000Y-119630000D03*
%TO.P,C9,2*%
%TO.N,GND*%
X118585000Y-119630000D03*
%TD*%
%TO.P,C10,1*%
%TO.N,Net-(J3-Pin_4)*%
X130950000Y-117500000D03*
%TO.P,C10,2*%
%TO.N,GND*%
X129050000Y-117500000D03*
%TD*%
D16*
%TO.P,C5,1*%
%TO.N,Net-(J2-Pin_4)*%
X89050000Y-121500000D03*
%TO.P,C5,2*%
%TO.N,GND*%
X90950000Y-121500000D03*
%TD*%
D14*
%TO.P,C7,1*%
%TO.N,Net-(D6-K)*%
X95500000Y-135000000D03*
%TO.P,C7,2*%
%TO.N,GND*%
X93600000Y-135000000D03*
%TD*%
D15*
%TO.P,D1,1,K*%
%TO.N,Net-(D1-K)*%
X117895000Y-128800000D03*
%TO.P,D1,2,A*%
%TO.N,Net-(D1-A)*%
X121195000Y-128800000D03*
%TD*%
D18*
%TO.P,J1,1,Pin_1*%
%TO.N,GND*%
X85875000Y-113775000D03*
D19*
%TO.P,J1,2,Pin_2*%
%TO.N,Net-(D7-A)*%
X85875000Y-111235000D03*
%TD*%
D14*
%TO.P,C6,1*%
%TO.N,Net-(D3-K)*%
X119950000Y-135000000D03*
%TO.P,C6,2*%
%TO.N,GND*%
X118050000Y-135000000D03*
%TD*%
D20*
%TO.P,U2,1*%
%TO.N,Net-(U2A--)*%
X124760000Y-121130000D03*
%TO.P,U2,2,-*%
X124760000Y-122400000D03*
%TO.P,U2,3,+*%
%TO.N,Net-(J2-Pin_1)*%
X124760000Y-123670000D03*
%TO.P,U2,4,V+*%
%TO.N,+8V*%
X124760000Y-124940000D03*
%TO.P,U2,5,+*%
%TO.N,Net-(U2B-+)*%
X124760000Y-126210000D03*
%TO.P,U2,6,-*%
%TO.N,Net-(D1-A)*%
X124760000Y-127480000D03*
%TO.P,U2,7*%
%TO.N,Net-(D1-K)*%
X124760000Y-128750000D03*
%TO.P,U2,8*%
%TO.N,Net-(U2C--)*%
X129710000Y-128750000D03*
%TO.P,U2,9,-*%
X129710000Y-127480000D03*
%TO.P,U2,10,+*%
%TO.N,Net-(U2C-+)*%
X129710000Y-126210000D03*
%TO.P,U2,11,V-*%
%TO.N,GND*%
X129710000Y-124940000D03*
%TO.P,U2,12,+*%
X129710000Y-123670000D03*
%TO.P,U2,13,-*%
X129710000Y-122400000D03*
%TO.P,U2,14*%
%TO.N,unconnected-(U2-Pad14)*%
X129710000Y-121130000D03*
%TD*%
D21*
%TO.P,D5,1,K*%
%TO.N,Net-(D5-K)*%
X97000000Y-132025000D03*
%TO.P,D5,2,A*%
%TO.N,Net-(D4-K)*%
X93700000Y-132025000D03*
%TD*%
D17*
%TO.P,R6,1*%
%TO.N,Net-(R6-Pad1)*%
X134912500Y-125875000D03*
%TO.P,R6,2*%
%TO.N,Net-(U2C--)*%
X133087500Y-125875000D03*
%TD*%
D18*
%TO.P,J3,1,Pin_1*%
%TO.N,Net-(J3-Pin_1)*%
X135625000Y-109700000D03*
D19*
%TO.P,J3,2,Pin_2*%
%TO.N,GND*%
X135625000Y-112240000D03*
%TO.P,J3,3,Pin_3*%
X135625000Y-114780000D03*
%TO.P,J3,4,Pin_4*%
%TO.N,Net-(J3-Pin_4)*%
X135625000Y-117320000D03*
%TD*%
D21*
%TO.P,D2,1,K*%
%TO.N,Net-(D2-K)*%
X121150000Y-131925000D03*
%TO.P,D2,2,A*%
%TO.N,Net-(D1-K)*%
X117850000Y-131925000D03*
%TD*%
D15*
%TO.P,D3,1,K*%
%TO.N,Net-(D3-K)*%
X123850000Y-135000000D03*
%TO.P,D3,2,A*%
%TO.N,Net-(D2-K)*%
X127150000Y-135000000D03*
%TD*%
D18*
%TO.P,J2,1,Pin_1*%
%TO.N,Net-(J2-Pin_1)*%
X85875000Y-129300000D03*
D19*
%TO.P,J2,2,Pin_2*%
%TO.N,GND*%
X85875000Y-126760000D03*
%TO.P,J2,3,Pin_3*%
X85875000Y-124220000D03*
%TO.P,J2,4,Pin_4*%
%TO.N,Net-(J2-Pin_4)*%
X85875000Y-121680000D03*
%TD*%
D10*
%TO.P,R9,1*%
%TO.N,Net-(D6-K)*%
X109337500Y-135350000D03*
%TO.P,R9,2*%
%TO.N,Net-(R9-Pad2)*%
X111162500Y-135350000D03*
%TD*%
%TO.P,R4,1*%
%TO.N,Net-(D3-K)*%
X133087500Y-135250000D03*
%TO.P,R4,2*%
%TO.N,Net-(R4-Pad2)*%
X134912500Y-135250000D03*
%TD*%
D14*
%TO.P,C11,1*%
%TO.N,Net-(J3-Pin_1)*%
X131000000Y-109500000D03*
%TO.P,C11,2*%
%TO.N,GND*%
X129100000Y-109500000D03*
%TD*%
D10*
%TO.P,R10,1*%
%TO.N,Net-(U3C--)*%
X109337500Y-132225000D03*
%TO.P,R10,2*%
%TO.N,Net-(D5-K)*%
X111162500Y-132225000D03*
%TD*%
D22*
%TO.P,U1,1,VI*%
%TO.N,Net-(D7-K)*%
X100250000Y-108190000D03*
%TO.P,U1,2,GND*%
%TO.N,GND*%
X100250000Y-110470000D03*
D23*
X104875000Y-108945000D03*
X104875000Y-111995000D03*
D24*
X106550000Y-110470000D03*
D23*
X108225000Y-108945000D03*
X108225000Y-111995000D03*
D22*
%TO.P,U1,3,VO*%
%TO.N,+8V*%
X100250000Y-112750000D03*
%TD*%
D14*
%TO.P,C1,1*%
%TO.N,Net-(D7-K)*%
X94647500Y-108397500D03*
%TO.P,C1,2*%
%TO.N,GND*%
X92747500Y-108397500D03*
%TD*%
D10*
%TO.P,R7,1*%
%TO.N,Net-(U3A--)*%
X94460000Y-122850000D03*
%TO.P,R7,2*%
%TO.N,Net-(U3B-+)*%
X96285000Y-122850000D03*
%TD*%
%TO.P,R1,1*%
%TO.N,Net-(U2A--)*%
X118610000Y-122750000D03*
%TO.P,R1,2*%
%TO.N,Net-(U2B-+)*%
X120435000Y-122750000D03*
%TD*%
D20*
%TO.P,U3,1*%
%TO.N,Net-(U3A--)*%
X100775000Y-121230000D03*
%TO.P,U3,2,-*%
X100775000Y-122500000D03*
%TO.P,U3,3,+*%
%TO.N,Net-(J2-Pin_4)*%
X100775000Y-123770000D03*
%TO.P,U3,4,V+*%
%TO.N,+8V*%
X100775000Y-125040000D03*
%TO.P,U3,5,+*%
%TO.N,Net-(U3B-+)*%
X100775000Y-126310000D03*
%TO.P,U3,6,-*%
%TO.N,Net-(D4-A)*%
X100775000Y-127580000D03*
%TO.P,U3,7*%
%TO.N,Net-(D4-K)*%
X100775000Y-128850000D03*
%TO.P,U3,8*%
%TO.N,Net-(U3C--)*%
X105725000Y-128850000D03*
%TO.P,U3,9,-*%
X105725000Y-127580000D03*
%TO.P,U3,10,+*%
%TO.N,Net-(U3C-+)*%
X105725000Y-126310000D03*
%TO.P,U3,11,V-*%
%TO.N,GND*%
X105725000Y-125040000D03*
%TO.P,U3,12,+*%
X105725000Y-123770000D03*
%TO.P,U3,13,-*%
X105725000Y-122500000D03*
%TO.P,U3,14*%
%TO.N,unconnected-(U3-Pad14)*%
X105725000Y-121230000D03*
%TD*%
D21*
%TO.P,D7,1,K*%
%TO.N,Net-(D7-K)*%
X95325000Y-111147500D03*
%TO.P,D7,2,A*%
%TO.N,Net-(D7-A)*%
X92025000Y-111147500D03*
%TD*%
D25*
%TO.N,Net-(J2-Pin_1)*%
X122340000Y-123670000D03*
%TO.N,GND*%
X116250000Y-117500000D03*
X107250000Y-117500000D03*
X79000000Y-134500000D03*
X97250000Y-117250000D03*
X142500000Y-134000000D03*
X97700000Y-110397500D03*
X122260000Y-122250000D03*
X120000000Y-103500000D03*
X122250000Y-117500000D03*
X103250000Y-131750000D03*
X107000000Y-135000000D03*
X129750000Y-119250000D03*
X98500000Y-122500000D03*
X130000000Y-131000000D03*
X79000000Y-118000000D03*
X137000000Y-103000000D03*
X130000000Y-135000000D03*
X115000000Y-131000000D03*
X85000000Y-103000000D03*
X101750000Y-103500000D03*
X142500000Y-123380000D03*
%TO.N,Net-(J2-Pin_4)*%
X98500000Y-123850000D03*
%TD*%
D26*
%TO.N,Net-(J2-Pin_1)*%
X88200000Y-129300000D02*
X85875000Y-129300000D01*
X122340000Y-123670000D02*
X124760000Y-123670000D01*
X89000000Y-129000000D02*
X88500000Y-129000000D01*
X88500000Y-129000000D02*
X88200000Y-129300000D01*
%TO.N,Net-(J2-Pin_4)*%
X98580000Y-123770000D02*
X98500000Y-123850000D01*
X100775000Y-123770000D02*
X98580000Y-123770000D01*
X89050000Y-121500000D02*
X86055000Y-121500000D01*
X86055000Y-121500000D02*
X85875000Y-121680000D01*
%TO.N,Net-(D1-K)*%
X117850000Y-128845000D02*
X117895000Y-128800000D01*
X124760000Y-128750000D02*
X123130000Y-130380000D01*
X117895000Y-130380000D02*
X117895000Y-131880000D01*
X117895000Y-128800000D02*
X117895000Y-130380000D01*
X123130000Y-130380000D02*
X117895000Y-130380000D01*
X117895000Y-131880000D02*
X117850000Y-131925000D01*
%TO.N,Net-(D1-A)*%
X125360000Y-126880000D02*
X131667500Y-126880000D01*
X124760000Y-127480000D02*
X125360000Y-126880000D01*
X122515000Y-127480000D02*
X121195000Y-128800000D01*
X131667500Y-126880000D02*
X133087500Y-128300000D01*
X124760000Y-127480000D02*
X122515000Y-127480000D01*
X133087500Y-128300000D02*
X133087500Y-129000000D01*
%TO.N,Net-(D2-K)*%
X133537500Y-133500000D02*
X134912500Y-132125000D01*
X121150000Y-131925000D02*
X125425000Y-131925000D01*
X127150000Y-133650000D02*
X127000000Y-133500000D01*
X127000000Y-133500000D02*
X125425000Y-131925000D01*
X127150000Y-135000000D02*
X127150000Y-133650000D01*
X133537500Y-133500000D02*
X127000000Y-133500000D01*
%TO.N,Net-(D3-K)*%
X134100000Y-126559744D02*
X135725000Y-128184744D01*
X125350000Y-136500000D02*
X123850000Y-135000000D01*
X134457500Y-133880000D02*
X133087500Y-135250000D01*
X132750000Y-135250000D02*
X131500000Y-136500000D01*
X131500000Y-136500000D02*
X125350000Y-136500000D01*
X135725000Y-128184744D02*
X135725000Y-133405000D01*
X133087500Y-135250000D02*
X132750000Y-135250000D01*
X135250000Y-133880000D02*
X134457500Y-133880000D01*
X123850000Y-135000000D02*
X119950000Y-135000000D01*
X134100000Y-123562500D02*
X134100000Y-126559744D01*
X135725000Y-133405000D02*
X135250000Y-133880000D01*
X134912500Y-122750000D02*
X134100000Y-123562500D01*
%TO.N,Net-(D4-K)*%
X93700000Y-128945000D02*
X93745000Y-128900000D01*
X100775000Y-128850000D02*
X99375000Y-130250000D01*
X99375000Y-130250000D02*
X93700000Y-130250000D01*
X93700000Y-130250000D02*
X93700000Y-128945000D01*
X93700000Y-132025000D02*
X93700000Y-130250000D01*
%TO.N,Net-(D4-A)*%
X100775000Y-127580000D02*
X99770000Y-127580000D01*
X109337500Y-128582224D02*
X109337500Y-129100000D01*
X107735276Y-126980000D02*
X109337500Y-128582224D01*
X97045000Y-128900000D02*
X98450000Y-128900000D01*
X100775000Y-127580000D02*
X101375000Y-126980000D01*
X99770000Y-127580000D02*
X98450000Y-128900000D01*
X101375000Y-126980000D02*
X107735276Y-126980000D01*
%TO.N,Net-(D5-K)*%
X98200000Y-133225000D02*
X97000000Y-132025000D01*
X103500000Y-133225000D02*
X98200000Y-133225000D01*
X103500000Y-135000000D02*
X103500000Y-133225000D01*
X110162500Y-133225000D02*
X103500000Y-133225000D01*
X111162500Y-132225000D02*
X110162500Y-133225000D01*
%TO.N,Net-(D6-K)*%
X95500000Y-135000000D02*
X100200000Y-135000000D01*
X110350000Y-126790256D02*
X110350000Y-123662500D01*
X100200000Y-135000000D02*
X101700000Y-136500000D01*
X111975000Y-128415256D02*
X110350000Y-126790256D01*
X111007628Y-134007628D02*
X111975000Y-133040256D01*
X109665256Y-135350000D02*
X109337500Y-135350000D01*
X111975000Y-133040256D02*
X111975000Y-128415256D01*
X109992372Y-134007628D02*
X109337500Y-134662500D01*
X110350000Y-123662500D02*
X111162500Y-122850000D01*
X108187500Y-136500000D02*
X109337500Y-135350000D01*
X101700000Y-136500000D02*
X108187500Y-136500000D01*
X109337500Y-134662500D02*
X109337500Y-135350000D01*
X111007628Y-134007628D02*
X109992372Y-134007628D01*
%TO.N,Net-(U2B-+)*%
X124760000Y-126210000D02*
X122765000Y-126210000D01*
X120435000Y-123880000D02*
X120435000Y-122750000D01*
X122765000Y-126210000D02*
X120435000Y-123880000D01*
%TO.N,Net-(U2A--)*%
X124760000Y-121130000D02*
X124760000Y-122400000D01*
X118610000Y-122750000D02*
X120230000Y-121130000D01*
X120230000Y-121130000D02*
X124760000Y-121130000D01*
%TO.N,Net-(U2C--)*%
X131340256Y-128750000D02*
X129710000Y-128750000D01*
X134912500Y-129000000D02*
X134912500Y-129793750D01*
X134912500Y-129000000D02*
X133087500Y-127175000D01*
X133000000Y-130206250D02*
X132796506Y-130206250D01*
X132796506Y-130206250D02*
X131340256Y-128750000D01*
X134500000Y-130206250D02*
X133000000Y-130206250D01*
X133087500Y-132125000D02*
X133087500Y-130293750D01*
X133087500Y-127175000D02*
X133087500Y-125875000D01*
X129710000Y-128750000D02*
X129710000Y-127480000D01*
X133087500Y-130293750D02*
X133000000Y-130206250D01*
X134912500Y-129793750D02*
X134500000Y-130206250D01*
%TO.N,Net-(R4-Pad2)*%
X133162500Y-137000000D02*
X126675000Y-137000000D01*
X126675000Y-137000000D02*
X124550000Y-139125000D01*
X122010000Y-141665000D02*
X124550000Y-139125000D01*
X134912500Y-135250000D02*
X133162500Y-137000000D01*
%TO.N,Net-(U2C-+)*%
X131040000Y-126210000D02*
X129710000Y-126210000D01*
X133087500Y-124162500D02*
X133087500Y-122750000D01*
X133087500Y-124162500D02*
X131040000Y-126210000D01*
%TO.N,Net-(J3-Pin_4)*%
X135445000Y-117500000D02*
X135625000Y-117320000D01*
X130950000Y-117500000D02*
X135445000Y-117500000D01*
%TO.N,Net-(U3A--)*%
X100775000Y-121230000D02*
X100775000Y-122500000D01*
X94460000Y-122785000D02*
X94460000Y-122850000D01*
X96015000Y-121230000D02*
X94460000Y-122785000D01*
X96015000Y-121230000D02*
X100775000Y-121230000D01*
%TO.N,Net-(U3B-+)*%
X96285000Y-122850000D02*
X96285000Y-124035000D01*
X96285000Y-124035000D02*
X98560000Y-126310000D01*
X98560000Y-126310000D02*
X100775000Y-126310000D01*
%TO.N,Net-(U3C--)*%
X109337500Y-125975000D02*
X109337500Y-127275000D01*
X109337500Y-127275000D02*
X111162500Y-129100000D01*
X109250000Y-130100000D02*
X106975000Y-130100000D01*
X109337500Y-130187500D02*
X109250000Y-130100000D01*
X109337500Y-132225000D02*
X109337500Y-130187500D01*
X105725000Y-128850000D02*
X105725000Y-127580000D01*
X110162500Y-130100000D02*
X109250000Y-130100000D01*
X106975000Y-130100000D02*
X105725000Y-128850000D01*
X111162500Y-129100000D02*
X110162500Y-130100000D01*
%TO.N,Net-(R9-Pad2)*%
X96175000Y-136000000D02*
X93050000Y-139125000D01*
X100634314Y-136000000D02*
X96175000Y-136000000D01*
X90510000Y-141665000D02*
X93050000Y-139125000D01*
X101534314Y-136900000D02*
X100634314Y-136000000D01*
X109612500Y-136900000D02*
X101534314Y-136900000D01*
X111162500Y-135350000D02*
X109612500Y-136900000D01*
%TO.N,Net-(U3C-+)*%
X109337500Y-124412500D02*
X109337500Y-122850000D01*
X105725000Y-126310000D02*
X107440000Y-126310000D01*
X107440000Y-126310000D02*
X109337500Y-124412500D01*
%TO.N,Net-(J3-Pin_1)*%
X135425000Y-109500000D02*
X135625000Y-109700000D01*
X131000000Y-109500000D02*
X135425000Y-109500000D01*
D27*
%TO.N,Net-(D7-K)*%
X94647500Y-108397500D02*
X100042500Y-108397500D01*
X95325000Y-109075000D02*
X94647500Y-108397500D01*
D26*
X100042500Y-108397500D02*
X100250000Y-108190000D01*
D27*
X95325000Y-111147500D02*
X95325000Y-109075000D01*
%TO.N,+8V*%
X94647500Y-113897500D02*
X95795000Y-112750000D01*
D26*
X100147500Y-112647500D02*
X100250000Y-112750000D01*
D27*
X120485000Y-120000000D02*
X120485000Y-119102677D01*
X126750000Y-120750000D02*
X126750000Y-124000000D01*
X126750000Y-124000000D02*
X125810000Y-124940000D01*
X102300000Y-124489999D02*
X101749999Y-125040000D01*
D26*
X101749999Y-125040000D02*
X100775000Y-125040000D01*
D27*
X95795000Y-112750000D02*
X100250000Y-112750000D01*
X116132323Y-114750000D02*
X102300000Y-114750000D01*
X120485000Y-119630000D02*
X125630000Y-119630000D01*
X125810000Y-124940000D02*
X124760000Y-124940000D01*
X102300000Y-114750000D02*
X102300000Y-119000000D01*
X100250000Y-112750000D02*
X102250000Y-114750000D01*
X120485000Y-119102677D02*
X116132323Y-114750000D01*
X125630000Y-119630000D02*
X126750000Y-120750000D01*
X102300000Y-117850000D02*
X102300000Y-124489999D01*
X116132323Y-112000000D02*
X116132323Y-114750000D01*
D26*
%TO.N,Net-(R6-Pad1)*%
X134912500Y-125875000D02*
X136550000Y-127512500D01*
X136550000Y-137655000D02*
X135080000Y-139125000D01*
X136550000Y-127512500D02*
X136550000Y-137655000D01*
%TO.N,Net-(R12-Pad1)*%
X112500000Y-135850000D02*
X112500000Y-127312500D01*
X104925000Y-137500000D02*
X110850000Y-137500000D01*
X103300000Y-139125000D02*
X104925000Y-137500000D01*
X112500000Y-127312500D02*
X111162500Y-125975000D01*
X110850000Y-137500000D02*
X112500000Y-135850000D01*
D27*
%TO.N,Net-(D7-A)*%
X92025000Y-111147500D02*
X85962500Y-111147500D01*
D26*
X85462500Y-111147500D02*
X85375000Y-111235000D01*
D27*
X85962500Y-111147500D02*
X85875000Y-111235000D01*
%TD*%
%TA.AperFunction,Conductor*%
%TO.N,GND*%
G36*
X109047147Y-133831738D02*
G01*
X109069236Y-133833318D01*
X109080020Y-133841390D01*
X109092941Y-133845185D01*
X109107439Y-133861916D01*
X109125170Y-133875190D01*
X109129877Y-133887811D01*
X109138696Y-133897989D01*
X109141847Y-133919905D01*
X109149586Y-133940655D01*
X109146723Y-133953815D01*
X109148640Y-133967147D01*
X109139441Y-133987289D01*
X109134734Y-134008928D01*
X109121463Y-134026654D01*
X109119615Y-134030703D01*
X109113591Y-134037172D01*
X109061009Y-134089755D01*
X109029757Y-134121007D01*
X108968433Y-134154491D01*
X108954679Y-134156683D01*
X108922209Y-134160000D01*
X108922202Y-134160001D01*
X108755668Y-134215185D01*
X108755663Y-134215187D01*
X108606342Y-134307289D01*
X108482289Y-134431342D01*
X108390187Y-134580663D01*
X108390186Y-134580666D01*
X108335001Y-134747203D01*
X108335001Y-134747204D01*
X108335000Y-134747204D01*
X108324500Y-134849983D01*
X108324500Y-135462401D01*
X108304815Y-135529440D01*
X108288185Y-135550077D01*
X107975082Y-135863182D01*
X107913761Y-135896666D01*
X107887403Y-135899500D01*
X104476069Y-135899500D01*
X104409030Y-135879815D01*
X104363275Y-135827011D01*
X104353331Y-135757853D01*
X104370530Y-135710403D01*
X104385893Y-135685496D01*
X104387003Y-135683697D01*
X104440349Y-135522708D01*
X104450500Y-135423345D01*
X104450499Y-134576656D01*
X104440349Y-134477292D01*
X104387003Y-134316303D01*
X104386999Y-134316297D01*
X104386998Y-134316294D01*
X104297970Y-134171959D01*
X104297969Y-134171958D01*
X104297968Y-134171956D01*
X104178044Y-134052032D01*
X104178043Y-134052031D01*
X104172383Y-134047556D01*
X104174161Y-134045306D01*
X104136188Y-134003079D01*
X104124973Y-133934115D01*
X104152823Y-133870036D01*
X104210896Y-133831186D01*
X104248015Y-133825500D01*
X109025902Y-133825500D01*
X109047147Y-133831738D01*
G37*
%TD.AperFunction*%
%TA.AperFunction,Conductor*%
G36*
X132230809Y-134120185D02*
G01*
X132276564Y-134172989D01*
X132286508Y-134242147D01*
X132257483Y-134305703D01*
X132251451Y-134312181D01*
X132232289Y-134331342D01*
X132140187Y-134480663D01*
X132140186Y-134480666D01*
X132085001Y-134647203D01*
X132085001Y-134647204D01*
X132085000Y-134647204D01*
X132074500Y-134749983D01*
X132074500Y-135024902D01*
X132054815Y-135091941D01*
X132038181Y-135112583D01*
X131287584Y-135863181D01*
X131226261Y-135896666D01*
X131199903Y-135899500D01*
X128126069Y-135899500D01*
X128059030Y-135879815D01*
X128013275Y-135827011D01*
X128003331Y-135757853D01*
X128020530Y-135710403D01*
X128035893Y-135685496D01*
X128037003Y-135683697D01*
X128090349Y-135522708D01*
X128100500Y-135423345D01*
X128100499Y-134576656D01*
X128090349Y-134477292D01*
X128037003Y-134316303D01*
X128020529Y-134289595D01*
X128002090Y-134222205D01*
X128023012Y-134155541D01*
X128076654Y-134110771D01*
X128126069Y-134100500D01*
X132163770Y-134100500D01*
X132230809Y-134120185D01*
G37*
%TD.AperFunction*%
%TA.AperFunction,Conductor*%
G36*
X128177539Y-127500185D02*
G01*
X128223294Y-127552989D01*
X128234500Y-127604500D01*
X128234500Y-127695701D01*
X128237401Y-127732567D01*
X128237402Y-127732573D01*
X128283254Y-127890393D01*
X128283255Y-127890396D01*
X128366917Y-128031862D01*
X128371702Y-128038031D01*
X128369256Y-128039927D01*
X128395857Y-128088642D01*
X128390873Y-128158334D01*
X128370069Y-128190703D01*
X128371702Y-128191969D01*
X128366917Y-128198137D01*
X128283255Y-128339603D01*
X128283254Y-128339606D01*
X128237402Y-128497426D01*
X128237401Y-128497432D01*
X128234500Y-128534298D01*
X128234500Y-128965701D01*
X128237401Y-129002567D01*
X128237402Y-129002573D01*
X128283254Y-129160393D01*
X128283255Y-129160396D01*
X128366917Y-129301862D01*
X128366923Y-129301870D01*
X128483129Y-129418076D01*
X128483133Y-129418079D01*
X128483135Y-129418081D01*
X128624602Y-129501744D01*
X128645629Y-129507853D01*
X128782426Y-129547597D01*
X128782429Y-129547597D01*
X128782431Y-129547598D01*
X128819306Y-129550500D01*
X128819314Y-129550500D01*
X130600686Y-129550500D01*
X130600694Y-129550500D01*
X130637569Y-129547598D01*
X130637571Y-129547597D01*
X130637573Y-129547597D01*
X130715444Y-129524973D01*
X130795398Y-129501744D01*
X130936865Y-129418081D01*
X130960301Y-129394644D01*
X131021621Y-129361159D01*
X131091313Y-129366141D01*
X131135663Y-129394642D01*
X132427790Y-130686770D01*
X132427792Y-130686771D01*
X132434241Y-130691720D01*
X132432908Y-130693456D01*
X132433278Y-130693843D01*
X132444203Y-130698833D01*
X132456944Y-130718659D01*
X132473210Y-130735715D01*
X132476427Y-130748976D01*
X132481977Y-130757611D01*
X132487000Y-130792546D01*
X132487000Y-130932491D01*
X132467315Y-130999530D01*
X132428098Y-131038029D01*
X132356344Y-131082287D01*
X132232289Y-131206342D01*
X132140187Y-131355663D01*
X132140185Y-131355668D01*
X132112349Y-131439670D01*
X132085001Y-131522203D01*
X132085001Y-131522204D01*
X132085000Y-131522204D01*
X132074500Y-131624983D01*
X132074500Y-132625001D01*
X132074501Y-132625019D01*
X132085000Y-132727796D01*
X132085001Y-132727797D01*
X132087884Y-132736498D01*
X132090284Y-132806326D01*
X132054552Y-132866368D01*
X131992031Y-132897559D01*
X131970177Y-132899500D01*
X127300097Y-132899500D01*
X127233058Y-132879815D01*
X127212416Y-132863181D01*
X125912590Y-131563355D01*
X125912588Y-131563352D01*
X125793717Y-131444481D01*
X125793716Y-131444480D01*
X125706904Y-131394360D01*
X125706904Y-131394359D01*
X125706900Y-131394358D01*
X125656785Y-131365423D01*
X125504057Y-131324499D01*
X125345943Y-131324499D01*
X125338347Y-131324499D01*
X125338331Y-131324500D01*
X122154113Y-131324500D01*
X122087074Y-131304815D01*
X122046907Y-131262813D01*
X122040449Y-131251702D01*
X122037003Y-131241303D01*
X121991929Y-131168228D01*
X121991107Y-131166813D01*
X121983142Y-131134393D01*
X121974334Y-131102205D01*
X121974838Y-131100596D01*
X121974437Y-131098962D01*
X121985256Y-131067403D01*
X121995256Y-131035541D01*
X121996549Y-131034461D01*
X121997096Y-131032868D01*
X122023278Y-131012153D01*
X122048898Y-130990772D01*
X122050806Y-130990375D01*
X122051891Y-130989517D01*
X122057673Y-130988947D01*
X122098313Y-130980500D01*
X123043331Y-130980500D01*
X123043347Y-130980501D01*
X123050943Y-130980501D01*
X123209054Y-130980501D01*
X123209057Y-130980501D01*
X123361785Y-130939577D01*
X123411904Y-130910639D01*
X123498716Y-130860520D01*
X123610520Y-130748716D01*
X123610520Y-130748714D01*
X123620728Y-130738507D01*
X123620729Y-130738504D01*
X124772416Y-129586819D01*
X124833739Y-129553334D01*
X124860097Y-129550500D01*
X125650686Y-129550500D01*
X125650694Y-129550500D01*
X125687569Y-129547598D01*
X125687571Y-129547597D01*
X125687573Y-129547597D01*
X125765444Y-129524973D01*
X125845398Y-129501744D01*
X125986865Y-129418081D01*
X126103081Y-129301865D01*
X126186744Y-129160398D01*
X126232598Y-129002569D01*
X126235500Y-128965694D01*
X126235500Y-128534306D01*
X126232598Y-128497431D01*
X126231573Y-128493904D01*
X126187591Y-128342517D01*
X126186744Y-128339602D01*
X126103081Y-128198135D01*
X126103078Y-128198132D01*
X126098298Y-128191969D01*
X126100750Y-128190066D01*
X126074155Y-128141421D01*
X126079104Y-128071726D01*
X126099940Y-128039304D01*
X126098298Y-128038031D01*
X126103075Y-128031870D01*
X126103081Y-128031865D01*
X126186744Y-127890398D01*
X126232598Y-127732569D01*
X126235500Y-127695694D01*
X126235500Y-127604500D01*
X126255185Y-127537461D01*
X126307989Y-127491706D01*
X126359500Y-127480500D01*
X128110500Y-127480500D01*
X128177539Y-127500185D01*
G37*
%TD.AperFunction*%
%TA.AperFunction,Conductor*%
G36*
X104192539Y-127600185D02*
G01*
X104238294Y-127652989D01*
X104249500Y-127704500D01*
X104249500Y-127795701D01*
X104252401Y-127832567D01*
X104252402Y-127832573D01*
X104298254Y-127990393D01*
X104298255Y-127990396D01*
X104298256Y-127990398D01*
X104307604Y-128006204D01*
X104381917Y-128131862D01*
X104386702Y-128138031D01*
X104384256Y-128139927D01*
X104410857Y-128188642D01*
X104405873Y-128258334D01*
X104385069Y-128290703D01*
X104386702Y-128291969D01*
X104381917Y-128298137D01*
X104298255Y-128439603D01*
X104298254Y-128439606D01*
X104252402Y-128597426D01*
X104252401Y-128597432D01*
X104249500Y-128634298D01*
X104249500Y-129065701D01*
X104252401Y-129102567D01*
X104252402Y-129102573D01*
X104298254Y-129260393D01*
X104298255Y-129260396D01*
X104298256Y-129260398D01*
X104303175Y-129268716D01*
X104381917Y-129401862D01*
X104381923Y-129401870D01*
X104498129Y-129518076D01*
X104498133Y-129518079D01*
X104498135Y-129518081D01*
X104639602Y-129601744D01*
X104678968Y-129613181D01*
X104797426Y-129647597D01*
X104797429Y-129647597D01*
X104797431Y-129647598D01*
X104834306Y-129650500D01*
X105624903Y-129650500D01*
X105691942Y-129670185D01*
X105712584Y-129686819D01*
X106490139Y-130464374D01*
X106490149Y-130464385D01*
X106494479Y-130468715D01*
X106494480Y-130468716D01*
X106606284Y-130580520D01*
X106672442Y-130618716D01*
X106743215Y-130659577D01*
X106895943Y-130700501D01*
X106895946Y-130700501D01*
X107061653Y-130700501D01*
X107061669Y-130700500D01*
X108613000Y-130700500D01*
X108621685Y-130703050D01*
X108630647Y-130701762D01*
X108654687Y-130712740D01*
X108680039Y-130720185D01*
X108685966Y-130727025D01*
X108694203Y-130730787D01*
X108708492Y-130753021D01*
X108725794Y-130772989D01*
X108728081Y-130783503D01*
X108731977Y-130789565D01*
X108737000Y-130824500D01*
X108737000Y-131032491D01*
X108717315Y-131099530D01*
X108678098Y-131138029D01*
X108606344Y-131182287D01*
X108482289Y-131306342D01*
X108390187Y-131455663D01*
X108390185Y-131455668D01*
X108368138Y-131522203D01*
X108335001Y-131622203D01*
X108335001Y-131622204D01*
X108335000Y-131622204D01*
X108324500Y-131724983D01*
X108324500Y-131724991D01*
X108324500Y-132162583D01*
X108324501Y-132500500D01*
X108304817Y-132567539D01*
X108252013Y-132613294D01*
X108200501Y-132624500D01*
X98500097Y-132624500D01*
X98433058Y-132604815D01*
X98412416Y-132588181D01*
X97986818Y-132162583D01*
X97953333Y-132101260D01*
X97950499Y-132074902D01*
X97950499Y-131601662D01*
X97950498Y-131601644D01*
X97940349Y-131502292D01*
X97940348Y-131502289D01*
X97924898Y-131455663D01*
X97887003Y-131341303D01*
X97886999Y-131341297D01*
X97886998Y-131341294D01*
X97797970Y-131196959D01*
X97797967Y-131196955D01*
X97678044Y-131077032D01*
X97672377Y-131072551D01*
X97674159Y-131070297D01*
X97636199Y-131028103D01*
X97624970Y-130959142D01*
X97652806Y-130895057D01*
X97710871Y-130856194D01*
X97748015Y-130850500D01*
X99288331Y-130850500D01*
X99288347Y-130850501D01*
X99295943Y-130850501D01*
X99454054Y-130850501D01*
X99454057Y-130850501D01*
X99606785Y-130809577D01*
X99667938Y-130774270D01*
X99743716Y-130730520D01*
X99855520Y-130618716D01*
X99855520Y-130618714D01*
X99865724Y-130608511D01*
X99865727Y-130608506D01*
X100787416Y-129686819D01*
X100848739Y-129653334D01*
X100875097Y-129650500D01*
X101665686Y-129650500D01*
X101665694Y-129650500D01*
X101702569Y-129647598D01*
X101702571Y-129647597D01*
X101702573Y-129647597D01*
X101763778Y-129629815D01*
X101860398Y-129601744D01*
X102001865Y-129518081D01*
X102118081Y-129401865D01*
X102201744Y-129260398D01*
X102247598Y-129102569D01*
X102250500Y-129065694D01*
X102250500Y-128634306D01*
X102247598Y-128597431D01*
X102241226Y-128575500D01*
X102201745Y-128439606D01*
X102201744Y-128439603D01*
X102201744Y-128439602D01*
X102118081Y-128298135D01*
X102118078Y-128298132D01*
X102113298Y-128291969D01*
X102115750Y-128290066D01*
X102089155Y-128241421D01*
X102094104Y-128171726D01*
X102114940Y-128139304D01*
X102113298Y-128138031D01*
X102118075Y-128131870D01*
X102118081Y-128131865D01*
X102201744Y-127990398D01*
X102238758Y-127862996D01*
X102247597Y-127832573D01*
X102247598Y-127832567D01*
X102249023Y-127814457D01*
X102250500Y-127795694D01*
X102250500Y-127704500D01*
X102270185Y-127637461D01*
X102322989Y-127591706D01*
X102374500Y-127580500D01*
X104125500Y-127580500D01*
X104192539Y-127600185D01*
G37*
%TD.AperFunction*%
%TA.AperFunction,Conductor*%
G36*
X99351132Y-121850185D02*
G01*
X99396887Y-121902989D01*
X99406831Y-121972147D01*
X99390825Y-122017620D01*
X99348257Y-122089599D01*
X99348254Y-122089606D01*
X99302402Y-122247426D01*
X99302401Y-122247432D01*
X99299500Y-122284298D01*
X99299500Y-122715701D01*
X99302401Y-122752567D01*
X99302402Y-122752573D01*
X99348254Y-122910393D01*
X99348257Y-122910400D01*
X99390825Y-122982380D01*
X99408008Y-123050104D01*
X99385848Y-123116366D01*
X99331381Y-123160129D01*
X99284093Y-123169500D01*
X98960037Y-123169500D01*
X98892998Y-123149815D01*
X98891147Y-123148602D01*
X98879181Y-123140606D01*
X98879177Y-123140604D01*
X98733501Y-123080264D01*
X98733489Y-123080261D01*
X98578845Y-123049500D01*
X98578842Y-123049500D01*
X98421158Y-123049500D01*
X98421155Y-123049500D01*
X98266510Y-123080261D01*
X98266498Y-123080264D01*
X98120827Y-123140602D01*
X98120814Y-123140609D01*
X97989711Y-123228210D01*
X97989707Y-123228213D01*
X97878213Y-123339707D01*
X97878210Y-123339711D01*
X97790609Y-123470814D01*
X97790602Y-123470827D01*
X97730264Y-123616498D01*
X97730261Y-123616510D01*
X97699500Y-123771153D01*
X97699500Y-123928846D01*
X97730261Y-124083489D01*
X97730264Y-124083501D01*
X97790602Y-124229172D01*
X97790609Y-124229185D01*
X97878210Y-124360288D01*
X97878213Y-124360292D01*
X97989707Y-124471786D01*
X97989711Y-124471789D01*
X98120814Y-124559390D01*
X98120827Y-124559397D01*
X98266498Y-124619735D01*
X98266503Y-124619737D01*
X98383554Y-124643020D01*
X98421153Y-124650499D01*
X98421156Y-124650500D01*
X98421158Y-124650500D01*
X98578844Y-124650500D01*
X98578845Y-124650499D01*
X98733497Y-124619737D01*
X98868255Y-124563919D01*
X98879172Y-124559397D01*
X98879172Y-124559396D01*
X98879179Y-124559394D01*
X99010289Y-124471789D01*
X99075260Y-124406817D01*
X99102191Y-124392111D01*
X99128005Y-124375523D01*
X99134204Y-124374631D01*
X99136581Y-124373334D01*
X99162940Y-124370500D01*
X99284093Y-124370500D01*
X99351132Y-124390185D01*
X99396887Y-124442989D01*
X99406831Y-124512147D01*
X99390825Y-124557620D01*
X99348257Y-124629599D01*
X99348254Y-124629606D01*
X99302402Y-124787426D01*
X99302401Y-124787432D01*
X99299500Y-124824298D01*
X99299500Y-125255701D01*
X99302401Y-125292567D01*
X99302402Y-125292573D01*
X99348254Y-125450393D01*
X99348257Y-125450400D01*
X99390825Y-125522380D01*
X99408008Y-125590104D01*
X99385848Y-125656366D01*
X99331381Y-125700129D01*
X99284093Y-125709500D01*
X98860097Y-125709500D01*
X98793058Y-125689815D01*
X98772416Y-125673181D01*
X97091732Y-123992497D01*
X97058247Y-123931174D01*
X97063231Y-123861482D01*
X97091731Y-123817136D01*
X97140212Y-123768656D01*
X97232314Y-123619334D01*
X97287499Y-123452797D01*
X97298000Y-123350009D01*
X97297999Y-122349992D01*
X97292313Y-122294334D01*
X97287499Y-122247203D01*
X97287498Y-122247200D01*
X97254438Y-122147432D01*
X97232314Y-122080666D01*
X97194645Y-122019595D01*
X97176206Y-121952204D01*
X97197129Y-121885541D01*
X97250771Y-121840771D01*
X97300185Y-121830500D01*
X99284093Y-121830500D01*
X99351132Y-121850185D01*
G37*
%TD.AperFunction*%
%TA.AperFunction,Conductor*%
G36*
X123336132Y-121750185D02*
G01*
X123381887Y-121802989D01*
X123391831Y-121872147D01*
X123375825Y-121917620D01*
X123333257Y-121989599D01*
X123333254Y-121989606D01*
X123287402Y-122147426D01*
X123287401Y-122147432D01*
X123284500Y-122184298D01*
X123284500Y-122615701D01*
X123287401Y-122652567D01*
X123287402Y-122652573D01*
X123333254Y-122810393D01*
X123333257Y-122810400D01*
X123375825Y-122882380D01*
X123393008Y-122950104D01*
X123370848Y-123016366D01*
X123316381Y-123060129D01*
X123269093Y-123069500D01*
X122919766Y-123069500D01*
X122852727Y-123049815D01*
X122850875Y-123048602D01*
X122719185Y-122960609D01*
X122719172Y-122960602D01*
X122573501Y-122900264D01*
X122573489Y-122900261D01*
X122418845Y-122869500D01*
X122418842Y-122869500D01*
X122261158Y-122869500D01*
X122261155Y-122869500D01*
X122106510Y-122900261D01*
X122106498Y-122900264D01*
X121960827Y-122960602D01*
X121960814Y-122960609D01*
X121829711Y-123048210D01*
X121829707Y-123048213D01*
X121718213Y-123159707D01*
X121718208Y-123159713D01*
X121675100Y-123224228D01*
X121621487Y-123269033D01*
X121552162Y-123277739D01*
X121489135Y-123247583D01*
X121452417Y-123188140D01*
X121447999Y-123155342D01*
X121447999Y-122249992D01*
X121447737Y-122247432D01*
X121437499Y-122147203D01*
X121437498Y-122147200D01*
X121398827Y-122030500D01*
X121382314Y-121980666D01*
X121344645Y-121919595D01*
X121326206Y-121852204D01*
X121347129Y-121785541D01*
X121400771Y-121740771D01*
X121450185Y-121730500D01*
X123269093Y-121730500D01*
X123336132Y-121750185D01*
G37*
%TD.AperFunction*%
%TA.AperFunction,Conductor*%
G36*
X86125000Y-126326988D02*
G01*
X86067993Y-126294075D01*
X85940826Y-126260000D01*
X85809174Y-126260000D01*
X85682007Y-126294075D01*
X85625000Y-126326988D01*
X85625000Y-124653012D01*
X85682007Y-124685925D01*
X85809174Y-124720000D01*
X85940826Y-124720000D01*
X86067993Y-124685925D01*
X86125000Y-124653012D01*
X86125000Y-126326988D01*
G37*
%TD.AperFunction*%
%TA.AperFunction,Conductor*%
G36*
X135875000Y-114346988D02*
G01*
X135817993Y-114314075D01*
X135690826Y-114280000D01*
X135559174Y-114280000D01*
X135432007Y-114314075D01*
X135375000Y-114346988D01*
X135375000Y-112673012D01*
X135432007Y-112705925D01*
X135559174Y-112740000D01*
X135690826Y-112740000D01*
X135817993Y-112705925D01*
X135875000Y-112673012D01*
X135875000Y-114346988D01*
G37*
%TD.AperFunction*%
%TA.AperFunction,Conductor*%
G36*
X145942539Y-97520185D02*
G01*
X145988294Y-97572989D01*
X145999500Y-97624500D01*
X145999500Y-143375500D01*
X145979815Y-143442539D01*
X145927011Y-143488294D01*
X145875500Y-143499500D01*
X75624500Y-143499500D01*
X75557461Y-143479815D01*
X75511706Y-143427011D01*
X75500500Y-143375500D01*
X75500500Y-141568945D01*
X89289500Y-141568945D01*
X89289500Y-141761054D01*
X89319553Y-141950802D01*
X89378916Y-142133506D01*
X89378918Y-142133509D01*
X89466135Y-142304681D01*
X89579055Y-142460102D01*
X89714898Y-142595945D01*
X89870319Y-142708865D01*
X90041491Y-142796082D01*
X90041493Y-142796083D01*
X90132845Y-142825764D01*
X90224199Y-142855447D01*
X90413945Y-142885500D01*
X90413946Y-142885500D01*
X90606054Y-142885500D01*
X90606055Y-142885500D01*
X90795801Y-142855447D01*
X90978509Y-142796082D01*
X91149681Y-142708865D01*
X91305102Y-142595945D01*
X91440945Y-142460102D01*
X91553865Y-142304681D01*
X91641082Y-142133509D01*
X91700447Y-141950801D01*
X91730500Y-141761055D01*
X91730500Y-141568945D01*
X99539500Y-141568945D01*
X99539500Y-141761054D01*
X99569553Y-141950802D01*
X99628916Y-142133506D01*
X99628918Y-142133509D01*
X99716135Y-142304681D01*
X99829055Y-142460102D01*
X99964898Y-142595945D01*
X100120319Y-142708865D01*
X100291491Y-142796082D01*
X100291493Y-142796083D01*
X100382845Y-142825764D01*
X100474199Y-142855447D01*
X100663945Y-142885500D01*
X100663946Y-142885500D01*
X100856054Y-142885500D01*
X100856055Y-142885500D01*
X101045801Y-142855447D01*
X101228509Y-142796082D01*
X101399681Y-142708865D01*
X101555102Y-142595945D01*
X101690945Y-142460102D01*
X101803865Y-142304681D01*
X101891082Y-142133509D01*
X101950447Y-141950801D01*
X101980500Y-141761055D01*
X101980500Y-141568945D01*
X101950447Y-141379199D01*
X101891082Y-141196491D01*
X101803865Y-141025319D01*
X101690945Y-140869898D01*
X101555102Y-140734055D01*
X101399681Y-140621135D01*
X101228506Y-140533916D01*
X101045802Y-140474553D01*
X100950928Y-140459526D01*
X100856055Y-140444500D01*
X100663945Y-140444500D01*
X100600696Y-140454517D01*
X100474197Y-140474553D01*
X100291493Y-140533916D01*
X100120318Y-140621135D01*
X100031645Y-140685560D01*
X99964898Y-140734055D01*
X99964896Y-140734057D01*
X99964895Y-140734057D01*
X99829057Y-140869895D01*
X99829057Y-140869896D01*
X99829055Y-140869898D01*
X99780560Y-140936645D01*
X99716135Y-141025318D01*
X99628916Y-141196493D01*
X99569553Y-141379197D01*
X99539500Y-141568945D01*
X91730500Y-141568945D01*
X91702677Y-141393278D01*
X91707283Y-141358713D01*
X91711709Y-141324473D01*
X91711881Y-141324220D01*
X91711908Y-141324021D01*
X91712474Y-141323353D01*
X91737543Y-141286690D01*
X92671689Y-140352544D01*
X92733010Y-140319061D01*
X92778764Y-140317754D01*
X92953945Y-140345500D01*
X92953946Y-140345500D01*
X93146054Y-140345500D01*
X93146055Y-140345500D01*
X93335801Y-140315447D01*
X93518509Y-140256082D01*
X93689681Y-140168865D01*
X93845102Y-140055945D01*
X93980945Y-139920102D01*
X94093865Y-139764681D01*
X94181082Y-139593509D01*
X94240447Y-139410801D01*
X94270500Y-139221055D01*
X94270500Y-139028984D01*
X97000000Y-139028984D01*
X97000000Y-139221015D01*
X97030040Y-139410684D01*
X97089383Y-139593321D01*
X97176561Y-139764415D01*
X97197798Y-139793646D01*
X97820000Y-139171445D01*
X97820000Y-139177661D01*
X97847259Y-139279394D01*
X97899920Y-139370606D01*
X97974394Y-139445080D01*
X98065606Y-139497741D01*
X98167339Y-139525000D01*
X98173554Y-139525000D01*
X97551351Y-140147200D01*
X97551352Y-140147201D01*
X97580577Y-140168434D01*
X97751678Y-140255616D01*
X97934315Y-140314959D01*
X98123985Y-140345000D01*
X98316015Y-140345000D01*
X98505684Y-140314959D01*
X98688321Y-140255616D01*
X98859419Y-140168436D01*
X98888646Y-140147201D01*
X98888646Y-140147200D01*
X98266447Y-139525000D01*
X98272661Y-139525000D01*
X98374394Y-139497741D01*
X98465606Y-139445080D01*
X98540080Y-139370606D01*
X98592741Y-139279394D01*
X98620000Y-139177661D01*
X98620000Y-139171446D01*
X99242200Y-139793646D01*
X99242201Y-139793646D01*
X99263436Y-139764419D01*
X99350616Y-139593321D01*
X99409959Y-139410684D01*
X99440000Y-139221015D01*
X99440000Y-139028984D01*
X99409959Y-138839315D01*
X99350616Y-138656678D01*
X99263434Y-138485577D01*
X99242201Y-138456352D01*
X99242200Y-138456351D01*
X98620000Y-139078552D01*
X98620000Y-139072339D01*
X98592741Y-138970606D01*
X98540080Y-138879394D01*
X98465606Y-138804920D01*
X98374394Y-138752259D01*
X98272661Y-138725000D01*
X98266447Y-138725000D01*
X98888646Y-138102798D01*
X98859415Y-138081561D01*
X98688321Y-137994383D01*
X98505684Y-137935040D01*
X98316015Y-137905000D01*
X98123985Y-137905000D01*
X97934315Y-137935040D01*
X97751678Y-137994383D01*
X97580578Y-138081564D01*
X97551352Y-138102798D01*
X97551351Y-138102798D01*
X98173554Y-138725000D01*
X98167339Y-138725000D01*
X98065606Y-138752259D01*
X97974394Y-138804920D01*
X97899920Y-138879394D01*
X97847259Y-138970606D01*
X97820000Y-139072339D01*
X97820000Y-139078553D01*
X97197798Y-138456351D01*
X97197798Y-138456352D01*
X97176564Y-138485578D01*
X97089383Y-138656678D01*
X97030040Y-138839315D01*
X97000000Y-139028984D01*
X94270500Y-139028984D01*
X94270500Y-139028945D01*
X94242698Y-138853412D01*
X94242677Y-138853275D01*
X94247265Y-138818860D01*
X94251709Y-138784473D01*
X94251883Y-138784218D01*
X94251910Y-138784018D01*
X94252476Y-138783350D01*
X94277543Y-138746690D01*
X96387416Y-136636819D01*
X96448739Y-136603334D01*
X96475097Y-136600500D01*
X100334217Y-136600500D01*
X100401256Y-136620185D01*
X100421898Y-136636819D01*
X101049453Y-137264374D01*
X101049463Y-137264385D01*
X101053793Y-137268715D01*
X101053794Y-137268716D01*
X101165598Y-137380520D01*
X101239549Y-137423215D01*
X101302529Y-137459577D01*
X101455256Y-137500500D01*
X101455257Y-137500500D01*
X103775903Y-137500500D01*
X103842942Y-137520185D01*
X103888697Y-137572989D01*
X103898641Y-137642147D01*
X103869616Y-137705703D01*
X103863603Y-137712160D01*
X103717263Y-137858501D01*
X103678310Y-137897454D01*
X103616986Y-137930938D01*
X103571231Y-137932245D01*
X103453520Y-137913601D01*
X103396055Y-137904500D01*
X103203945Y-137904500D01*
X103140696Y-137914517D01*
X103014197Y-137934553D01*
X102831493Y-137993916D01*
X102660318Y-138081135D01*
X102571645Y-138145560D01*
X102504898Y-138194055D01*
X102504896Y-138194057D01*
X102504895Y-138194057D01*
X102369057Y-138329895D01*
X102369057Y-138329896D01*
X102369055Y-138329898D01*
X102320560Y-138396645D01*
X102256135Y-138485318D01*
X102168916Y-138656493D01*
X102109553Y-138839197D01*
X102079500Y-139028945D01*
X102079500Y-139221054D01*
X102109553Y-139410802D01*
X102168916Y-139593506D01*
X102255999Y-139764415D01*
X102256135Y-139764681D01*
X102369055Y-139920102D01*
X102504898Y-140055945D01*
X102660319Y-140168865D01*
X102830576Y-140255616D01*
X102831493Y-140256083D01*
X102922845Y-140285764D01*
X103014199Y-140315447D01*
X103203945Y-140345500D01*
X103203946Y-140345500D01*
X103396054Y-140345500D01*
X103396055Y-140345500D01*
X103585801Y-140315447D01*
X103768509Y-140256082D01*
X103939681Y-140168865D01*
X104095102Y-140055945D01*
X104230945Y-139920102D01*
X104343865Y-139764681D01*
X104431082Y-139593509D01*
X104490447Y-139410801D01*
X104520500Y-139221055D01*
X104520500Y-139028984D01*
X118250000Y-139028984D01*
X118250000Y-139221015D01*
X118280040Y-139410684D01*
X118339383Y-139593321D01*
X118426561Y-139764415D01*
X118447798Y-139793646D01*
X119070000Y-139171445D01*
X119070000Y-139177661D01*
X119097259Y-139279394D01*
X119149920Y-139370606D01*
X119224394Y-139445080D01*
X119315606Y-139497741D01*
X119417339Y-139525000D01*
X119423554Y-139525000D01*
X118801351Y-140147200D01*
X118801352Y-140147201D01*
X118830577Y-140168434D01*
X119001678Y-140255616D01*
X119184315Y-140314959D01*
X119373985Y-140345000D01*
X119566015Y-140345000D01*
X119755684Y-140314959D01*
X119938321Y-140255616D01*
X120109419Y-140168436D01*
X120138646Y-140147201D01*
X120138646Y-140147200D01*
X119516447Y-139525000D01*
X119522661Y-139525000D01*
X119624394Y-139497741D01*
X119715606Y-139445080D01*
X119790080Y-139370606D01*
X119842741Y-139279394D01*
X119870000Y-139177661D01*
X119870000Y-139171446D01*
X120492200Y-139793646D01*
X120492201Y-139793646D01*
X120513436Y-139764419D01*
X120600616Y-139593321D01*
X120659959Y-139410684D01*
X120690000Y-139221015D01*
X120690000Y-139028984D01*
X120659959Y-138839315D01*
X120600616Y-138656678D01*
X120513434Y-138485577D01*
X120492201Y-138456352D01*
X120492200Y-138456351D01*
X119870000Y-139078552D01*
X119870000Y-139072339D01*
X119842741Y-138970606D01*
X119790080Y-138879394D01*
X119715606Y-138804920D01*
X119624394Y-138752259D01*
X119522661Y-138725000D01*
X119516447Y-138725000D01*
X120138646Y-138102798D01*
X120109415Y-138081561D01*
X119938321Y-137994383D01*
X119755684Y-137935040D01*
X119566015Y-137905000D01*
X119373985Y-137905000D01*
X119184315Y-137935040D01*
X119001678Y-137994383D01*
X118830578Y-138081564D01*
X118801352Y-138102798D01*
X118801351Y-138102798D01*
X119423554Y-138725000D01*
X119417339Y-138725000D01*
X119315606Y-138752259D01*
X119224394Y-138804920D01*
X119149920Y-138879394D01*
X119097259Y-138970606D01*
X119070000Y-139072339D01*
X119070000Y-139078553D01*
X118447798Y-138456351D01*
X118447798Y-138456352D01*
X118426564Y-138485578D01*
X118339383Y-138656678D01*
X118280040Y-138839315D01*
X118250000Y-139028984D01*
X104520500Y-139028984D01*
X104520500Y-139028945D01*
X104492698Y-138853412D01*
X104492677Y-138853275D01*
X104497265Y-138818860D01*
X104501709Y-138784473D01*
X104501883Y-138784218D01*
X104501910Y-138784018D01*
X104502476Y-138783350D01*
X104527543Y-138746690D01*
X105137416Y-138136819D01*
X105198739Y-138103334D01*
X105225097Y-138100500D01*
X110763331Y-138100500D01*
X110763347Y-138100501D01*
X110770943Y-138100501D01*
X110929054Y-138100501D01*
X110929057Y-138100501D01*
X111081785Y-138059577D01*
X111131904Y-138030639D01*
X111218716Y-137980520D01*
X111330520Y-137868716D01*
X111330520Y-137868714D01*
X111340728Y-137858507D01*
X111340730Y-137858504D01*
X112858506Y-136340728D01*
X112858511Y-136340724D01*
X112868714Y-136330520D01*
X112868716Y-136330520D01*
X112980520Y-136218716D01*
X113059577Y-136081784D01*
X113094139Y-135952797D01*
X113100500Y-135929058D01*
X113100500Y-135770943D01*
X113100500Y-135524986D01*
X117050001Y-135524986D01*
X117060494Y-135627697D01*
X117115641Y-135794119D01*
X117115643Y-135794124D01*
X117207684Y-135943345D01*
X117331654Y-136067315D01*
X117480875Y-136159356D01*
X117480880Y-136159358D01*
X117647302Y-136214505D01*
X117647309Y-136214506D01*
X117750019Y-136224999D01*
X117799999Y-136224998D01*
X117800000Y-136224998D01*
X117800000Y-135250000D01*
X117050001Y-135250000D01*
X117050001Y-135524986D01*
X113100500Y-135524986D01*
X113100500Y-134475013D01*
X117050000Y-134475013D01*
X117050000Y-134750000D01*
X117800000Y-134750000D01*
X117800000Y-133775000D01*
X117799999Y-133774999D01*
X117750029Y-133775000D01*
X117750011Y-133775001D01*
X117647302Y-133785494D01*
X117480880Y-133840641D01*
X117480875Y-133840643D01*
X117331654Y-133932684D01*
X117207684Y-134056654D01*
X117115643Y-134205875D01*
X117115641Y-134205880D01*
X117060494Y-134372302D01*
X117060493Y-134372309D01*
X117050000Y-134475013D01*
X113100500Y-134475013D01*
X113100500Y-127401560D01*
X113100501Y-127401547D01*
X113100501Y-127233444D01*
X113100501Y-127233443D01*
X113059577Y-127080716D01*
X113029220Y-127028135D01*
X112980524Y-126943790D01*
X112980518Y-126943782D01*
X112211818Y-126175082D01*
X112178333Y-126113759D01*
X112175499Y-126087401D01*
X112175499Y-125474998D01*
X112175498Y-125474981D01*
X112164999Y-125372203D01*
X112164998Y-125372200D01*
X112157774Y-125350400D01*
X112109814Y-125205666D01*
X112017712Y-125056344D01*
X111893656Y-124932288D01*
X111752940Y-124845494D01*
X111744336Y-124840187D01*
X111744331Y-124840185D01*
X111696387Y-124824298D01*
X111577797Y-124785001D01*
X111577795Y-124785000D01*
X111475016Y-124774500D01*
X111475009Y-124774500D01*
X111074500Y-124774500D01*
X111007461Y-124754815D01*
X110961706Y-124702011D01*
X110950500Y-124650500D01*
X110950500Y-124174499D01*
X110970185Y-124107460D01*
X111022989Y-124061705D01*
X111074500Y-124050499D01*
X111475002Y-124050499D01*
X111475008Y-124050499D01*
X111577797Y-124039999D01*
X111744334Y-123984814D01*
X111893656Y-123892712D01*
X112017712Y-123768656D01*
X112109814Y-123619334D01*
X112164999Y-123452797D01*
X112175500Y-123350009D01*
X112175499Y-122349992D01*
X112169813Y-122294334D01*
X112164999Y-122247203D01*
X112164998Y-122247200D01*
X112131938Y-122147432D01*
X112109814Y-122080666D01*
X112017712Y-121931344D01*
X111893656Y-121807288D01*
X111769162Y-121730500D01*
X111744336Y-121715187D01*
X111744331Y-121715185D01*
X111720499Y-121707288D01*
X111577797Y-121660001D01*
X111577795Y-121660000D01*
X111475010Y-121649500D01*
X110849998Y-121649500D01*
X110849980Y-121649501D01*
X110747203Y-121660000D01*
X110747200Y-121660001D01*
X110580668Y-121715185D01*
X110580663Y-121715187D01*
X110431342Y-121807289D01*
X110337681Y-121900951D01*
X110276358Y-121934436D01*
X110206666Y-121929452D01*
X110162319Y-121900951D01*
X110068657Y-121807289D01*
X110068656Y-121807288D01*
X109944162Y-121730500D01*
X109919336Y-121715187D01*
X109919331Y-121715185D01*
X109895499Y-121707288D01*
X109752797Y-121660001D01*
X109752795Y-121660000D01*
X109650010Y-121649500D01*
X109024998Y-121649500D01*
X109024980Y-121649501D01*
X108922203Y-121660000D01*
X108922200Y-121660001D01*
X108755668Y-121715185D01*
X108755663Y-121715187D01*
X108606342Y-121807289D01*
X108482289Y-121931342D01*
X108390187Y-122080663D01*
X108390185Y-122080668D01*
X108374604Y-122127690D01*
X108335001Y-122247203D01*
X108335001Y-122247204D01*
X108335000Y-122247204D01*
X108324500Y-122349983D01*
X108324500Y-123350001D01*
X108324501Y-123350019D01*
X108335000Y-123452796D01*
X108335001Y-123452799D01*
X108390185Y-123619331D01*
X108390187Y-123619336D01*
X108420367Y-123668265D01*
X108482288Y-123768656D01*
X108606344Y-123892712D01*
X108678096Y-123936968D01*
X108684919Y-123944554D01*
X108694203Y-123948794D01*
X108707890Y-123970092D01*
X108724821Y-123988915D01*
X108727465Y-124000551D01*
X108731977Y-124007572D01*
X108737000Y-124042507D01*
X108737000Y-124112403D01*
X108717315Y-124179442D01*
X108700681Y-124200084D01*
X107370221Y-125530543D01*
X107308898Y-125564028D01*
X107239206Y-125559044D01*
X107183273Y-125517172D01*
X107158856Y-125451708D01*
X107163464Y-125408267D01*
X107197099Y-125292494D01*
X107197100Y-125292488D01*
X107197295Y-125290001D01*
X107197295Y-125290000D01*
X104252705Y-125290000D01*
X104252704Y-125290001D01*
X104252899Y-125292486D01*
X104298718Y-125450198D01*
X104382314Y-125591552D01*
X104387100Y-125597722D01*
X104384640Y-125599629D01*
X104411210Y-125648288D01*
X104406226Y-125717980D01*
X104385162Y-125750781D01*
X104386699Y-125751974D01*
X104381915Y-125758140D01*
X104298255Y-125899603D01*
X104298254Y-125899606D01*
X104252402Y-126057426D01*
X104252401Y-126057432D01*
X104249500Y-126094298D01*
X104249500Y-126255500D01*
X104229815Y-126322539D01*
X104177011Y-126368294D01*
X104125500Y-126379500D01*
X102374500Y-126379500D01*
X102307461Y-126359815D01*
X102261706Y-126307011D01*
X102250500Y-126255500D01*
X102250500Y-126094313D01*
X102250499Y-126094298D01*
X102249956Y-126087401D01*
X102247598Y-126057431D01*
X102229260Y-125994313D01*
X102201745Y-125899606D01*
X102201744Y-125899603D01*
X102201744Y-125899602D01*
X102151769Y-125815099D01*
X102134587Y-125747377D01*
X102156747Y-125681115D01*
X102189609Y-125648880D01*
X102228415Y-125622952D01*
X102882952Y-124968415D01*
X102910252Y-124927557D01*
X102951328Y-124866083D01*
X102965084Y-124845494D01*
X102965085Y-124845492D01*
X102989134Y-124787431D01*
X103021658Y-124708912D01*
X103037435Y-124629599D01*
X103050500Y-124563919D01*
X103050500Y-124020001D01*
X104252704Y-124020001D01*
X104252899Y-124022486D01*
X104298718Y-124180198D01*
X104382314Y-124321552D01*
X104387100Y-124327722D01*
X104384753Y-124329542D01*
X104411564Y-124378642D01*
X104406580Y-124448334D01*
X104385541Y-124481069D01*
X104387100Y-124482278D01*
X104382314Y-124488447D01*
X104298718Y-124629801D01*
X104252899Y-124787513D01*
X104252704Y-124789998D01*
X104252705Y-124790000D01*
X105475000Y-124790000D01*
X105975000Y-124790000D01*
X107197295Y-124790000D01*
X107197295Y-124789998D01*
X107197100Y-124787513D01*
X107151281Y-124629801D01*
X107067685Y-124488447D01*
X107062900Y-124482278D01*
X107065252Y-124480453D01*
X107038445Y-124431405D01*
X107043402Y-124361712D01*
X107064465Y-124328936D01*
X107062900Y-124327722D01*
X107067685Y-124321552D01*
X107151281Y-124180198D01*
X107197100Y-124022486D01*
X107197295Y-124020001D01*
X107197295Y-124020000D01*
X105975000Y-124020000D01*
X105975000Y-124790000D01*
X105475000Y-124790000D01*
X105475000Y-124020000D01*
X104252705Y-124020000D01*
X104252704Y-124020001D01*
X103050500Y-124020001D01*
X103050500Y-122750001D01*
X104252704Y-122750001D01*
X104252899Y-122752486D01*
X104298718Y-122910198D01*
X104382314Y-123051552D01*
X104387100Y-123057722D01*
X104384753Y-123059542D01*
X104411564Y-123108642D01*
X104406580Y-123178334D01*
X104385541Y-123211069D01*
X104387100Y-123212278D01*
X104382314Y-123218447D01*
X104298718Y-123359801D01*
X104252899Y-123517513D01*
X104252704Y-123519998D01*
X104252705Y-123520000D01*
X105475000Y-123520000D01*
X105975000Y-123520000D01*
X107197295Y-123520000D01*
X107197295Y-123519998D01*
X107197100Y-123517513D01*
X107151281Y-123359801D01*
X107067685Y-123218447D01*
X107062900Y-123212278D01*
X107065252Y-123210453D01*
X107038445Y-123161405D01*
X107043402Y-123091712D01*
X107064465Y-123058936D01*
X107062900Y-123057722D01*
X107067685Y-123051552D01*
X107151281Y-122910198D01*
X107197100Y-122752486D01*
X107197295Y-122750001D01*
X107197295Y-122750000D01*
X105975000Y-122750000D01*
X105975000Y-123520000D01*
X105475000Y-123520000D01*
X105475000Y-122750000D01*
X104252705Y-122750000D01*
X104252704Y-122750001D01*
X103050500Y-122750001D01*
X103050500Y-121014298D01*
X104249500Y-121014298D01*
X104249500Y-121445701D01*
X104252401Y-121482567D01*
X104252402Y-121482573D01*
X104298254Y-121640393D01*
X104298255Y-121640396D01*
X104298256Y-121640398D01*
X104322778Y-121681862D01*
X104381917Y-121781862D01*
X104386702Y-121788031D01*
X104384369Y-121789840D01*
X104411210Y-121838995D01*
X104406226Y-121908687D01*
X104385470Y-121941021D01*
X104387097Y-121942283D01*
X104382313Y-121948449D01*
X104298718Y-122089801D01*
X104252899Y-122247513D01*
X104252704Y-122249998D01*
X104252705Y-122250000D01*
X107197295Y-122250000D01*
X107197295Y-122249998D01*
X107197100Y-122247513D01*
X107151281Y-122089801D01*
X107067685Y-121948447D01*
X107062900Y-121942278D01*
X107065366Y-121940364D01*
X107038802Y-121891776D01*
X107043749Y-121822082D01*
X107064856Y-121789232D01*
X107063301Y-121788026D01*
X107068077Y-121781868D01*
X107068081Y-121781865D01*
X107151744Y-121640398D01*
X107197598Y-121482569D01*
X107200500Y-121445694D01*
X107200500Y-121014306D01*
X107197598Y-120977431D01*
X107196895Y-120975013D01*
X107151745Y-120819606D01*
X107151744Y-120819603D01*
X107151744Y-120819602D01*
X107068081Y-120678135D01*
X107068079Y-120678133D01*
X107068076Y-120678129D01*
X106951870Y-120561923D01*
X106951862Y-120561917D01*
X106810396Y-120478255D01*
X106810393Y-120478254D01*
X106652573Y-120432402D01*
X106652567Y-120432401D01*
X106615701Y-120429500D01*
X106615694Y-120429500D01*
X104834306Y-120429500D01*
X104834298Y-120429500D01*
X104797432Y-120432401D01*
X104797426Y-120432402D01*
X104639606Y-120478254D01*
X104639603Y-120478255D01*
X104498137Y-120561917D01*
X104498129Y-120561923D01*
X104381923Y-120678129D01*
X104381917Y-120678137D01*
X104298255Y-120819603D01*
X104298254Y-120819606D01*
X104252402Y-120977426D01*
X104252401Y-120977432D01*
X104249500Y-121014298D01*
X103050500Y-121014298D01*
X103050500Y-120154986D01*
X117585001Y-120154986D01*
X117595494Y-120257697D01*
X117650641Y-120424119D01*
X117650643Y-120424124D01*
X117742684Y-120573345D01*
X117866654Y-120697315D01*
X118015875Y-120789356D01*
X118015880Y-120789358D01*
X118182302Y-120844505D01*
X118182309Y-120844506D01*
X118285019Y-120854999D01*
X118334999Y-120854998D01*
X118335000Y-120854998D01*
X118335000Y-119880000D01*
X117585001Y-119880000D01*
X117585001Y-120154986D01*
X103050500Y-120154986D01*
X103050500Y-118937230D01*
X103058506Y-118909962D01*
X103063487Y-118881985D01*
X103068953Y-118874385D01*
X103070185Y-118870191D01*
X103083548Y-118852947D01*
X103085153Y-118851214D01*
X103142712Y-118793656D01*
X103151112Y-118780036D01*
X103159341Y-118771157D01*
X103179361Y-118759214D01*
X103196694Y-118743623D01*
X103208806Y-118741650D01*
X103219346Y-118735364D01*
X103242645Y-118736141D01*
X103265656Y-118732395D01*
X103276911Y-118737284D01*
X103289177Y-118737694D01*
X103308357Y-118750945D01*
X103329740Y-118760234D01*
X103341581Y-118773897D01*
X103346662Y-118777408D01*
X103348552Y-118781942D01*
X103355829Y-118790339D01*
X103357681Y-118793341D01*
X103357683Y-118793344D01*
X103481654Y-118917315D01*
X103630875Y-119009356D01*
X103630880Y-119009358D01*
X103797302Y-119064505D01*
X103797309Y-119064506D01*
X103900019Y-119074999D01*
X104450000Y-119074999D01*
X104499972Y-119074999D01*
X104499986Y-119074998D01*
X104602697Y-119064505D01*
X104769119Y-119009358D01*
X104769124Y-119009356D01*
X104918345Y-118917315D01*
X105042315Y-118793345D01*
X105134356Y-118644124D01*
X105134358Y-118644119D01*
X105189505Y-118477697D01*
X105189506Y-118477690D01*
X105199999Y-118374986D01*
X105200000Y-118374973D01*
X105200000Y-118100000D01*
X104450000Y-118100000D01*
X104450000Y-119074999D01*
X103900019Y-119074999D01*
X103949999Y-119074998D01*
X103950000Y-119074998D01*
X103950000Y-117600000D01*
X104450000Y-117600000D01*
X105199999Y-117600000D01*
X105199999Y-117325028D01*
X105199998Y-117325013D01*
X105189505Y-117222302D01*
X105134358Y-117055880D01*
X105134356Y-117055875D01*
X105042315Y-116906654D01*
X104918345Y-116782684D01*
X104769124Y-116690643D01*
X104769119Y-116690641D01*
X104602697Y-116635494D01*
X104602690Y-116635493D01*
X104499986Y-116625000D01*
X104450000Y-116625000D01*
X104450000Y-117600000D01*
X103950000Y-117600000D01*
X103950000Y-116625000D01*
X103949999Y-116624999D01*
X103900029Y-116625000D01*
X103900011Y-116625001D01*
X103797302Y-116635494D01*
X103630880Y-116690641D01*
X103630875Y-116690643D01*
X103481654Y-116782684D01*
X103357683Y-116906655D01*
X103357679Y-116906660D01*
X103355826Y-116909665D01*
X103354018Y-116911290D01*
X103353202Y-116912323D01*
X103353025Y-116912183D01*
X103303874Y-116956385D01*
X103234911Y-116967601D01*
X103170831Y-116939752D01*
X103159341Y-116928843D01*
X103151112Y-116919963D01*
X103142712Y-116906344D01*
X103085140Y-116848772D01*
X103083548Y-116847054D01*
X103068985Y-116817791D01*
X103053334Y-116789128D01*
X103052951Y-116785572D01*
X103052419Y-116784502D01*
X103052630Y-116782580D01*
X103050500Y-116762770D01*
X103050500Y-115624500D01*
X103070185Y-115557461D01*
X103122989Y-115511706D01*
X103174500Y-115500500D01*
X115770093Y-115500500D01*
X115837132Y-115520185D01*
X115857774Y-115536819D01*
X118514274Y-118193319D01*
X118547759Y-118254642D01*
X118542775Y-118324334D01*
X118500903Y-118380267D01*
X118435439Y-118404684D01*
X118426594Y-118405000D01*
X118285029Y-118405000D01*
X118285012Y-118405001D01*
X118182302Y-118415494D01*
X118015880Y-118470641D01*
X118015875Y-118470643D01*
X117866654Y-118562684D01*
X117742684Y-118686654D01*
X117650643Y-118835875D01*
X117650641Y-118835880D01*
X117595494Y-119002302D01*
X117595493Y-119002309D01*
X117585000Y-119105013D01*
X117585000Y-119380000D01*
X118461000Y-119380000D01*
X118528039Y-119399685D01*
X118573794Y-119452489D01*
X118585000Y-119504000D01*
X118585000Y-119630000D01*
X118711000Y-119630000D01*
X118778039Y-119649685D01*
X118823794Y-119702489D01*
X118835000Y-119754000D01*
X118835000Y-120854999D01*
X118884972Y-120854999D01*
X118884986Y-120854998D01*
X118987697Y-120844505D01*
X119154119Y-120789358D01*
X119154124Y-120789356D01*
X119303345Y-120697315D01*
X119427318Y-120573342D01*
X119429165Y-120570348D01*
X119430969Y-120568724D01*
X119431798Y-120567677D01*
X119431976Y-120567818D01*
X119481110Y-120523621D01*
X119550073Y-120512396D01*
X119614156Y-120540236D01*
X119625509Y-120550996D01*
X119633830Y-120559944D01*
X119642288Y-120573656D01*
X119703597Y-120634965D01*
X119705138Y-120636622D01*
X119719791Y-120665938D01*
X119735501Y-120694709D01*
X119735334Y-120697033D01*
X119736377Y-120699119D01*
X119732854Y-120731713D01*
X119730516Y-120764400D01*
X119729079Y-120766635D01*
X119728869Y-120768584D01*
X119723747Y-120774932D01*
X119702016Y-120808747D01*
X118997582Y-121513181D01*
X118936259Y-121546666D01*
X118909901Y-121549500D01*
X118297498Y-121549500D01*
X118297480Y-121549501D01*
X118194703Y-121560000D01*
X118194700Y-121560001D01*
X118028168Y-121615185D01*
X118028163Y-121615187D01*
X117878842Y-121707289D01*
X117754789Y-121831342D01*
X117662687Y-121980663D01*
X117662685Y-121980668D01*
X117634849Y-122064670D01*
X117607501Y-122147203D01*
X117607501Y-122147204D01*
X117607500Y-122147204D01*
X117597000Y-122249983D01*
X117597000Y-123250001D01*
X117597001Y-123250019D01*
X117607500Y-123352796D01*
X117607501Y-123352799D01*
X117662685Y-123519331D01*
X117662687Y-123519336D01*
X117663097Y-123520000D01*
X117754788Y-123668656D01*
X117878844Y-123792712D01*
X118028166Y-123884814D01*
X118194703Y-123939999D01*
X118297491Y-123950500D01*
X118922508Y-123950499D01*
X118922516Y-123950498D01*
X118922519Y-123950498D01*
X119000745Y-123942507D01*
X119025297Y-123939999D01*
X119191834Y-123884814D01*
X119341156Y-123792712D01*
X119434819Y-123699049D01*
X119437597Y-123697531D01*
X119439250Y-123694831D01*
X119468063Y-123680896D01*
X119496142Y-123665564D01*
X119499299Y-123665789D01*
X119502150Y-123664411D01*
X119533916Y-123668265D01*
X119565834Y-123670548D01*
X119569312Y-123672560D01*
X119571511Y-123672827D01*
X119581608Y-123679673D01*
X119601616Y-123691249D01*
X119606079Y-123694947D01*
X119703844Y-123792712D01*
X119782955Y-123841508D01*
X119789615Y-123847026D01*
X119804507Y-123869112D01*
X119822320Y-123888916D01*
X119824586Y-123898891D01*
X119828677Y-123904957D01*
X119828968Y-123918171D01*
X119834499Y-123942507D01*
X119834499Y-123959054D01*
X119834498Y-123959054D01*
X119875423Y-124111785D01*
X119893100Y-124142402D01*
X119893099Y-124142402D01*
X119893100Y-124142403D01*
X119954475Y-124248709D01*
X119954481Y-124248717D01*
X120073349Y-124367585D01*
X120073354Y-124367589D01*
X121247683Y-125541919D01*
X122401840Y-126696076D01*
X122402522Y-126697326D01*
X122403758Y-126698037D01*
X122419216Y-126727898D01*
X122435325Y-126757399D01*
X122435223Y-126758819D01*
X122435879Y-126760086D01*
X122432738Y-126793570D01*
X122430341Y-126827091D01*
X122429487Y-126828231D01*
X122429354Y-126829650D01*
X122408614Y-126856113D01*
X122388469Y-126883024D01*
X122386849Y-126883885D01*
X122386255Y-126884644D01*
X122378828Y-126888150D01*
X122354912Y-126900869D01*
X122350631Y-126902358D01*
X122283215Y-126920423D01*
X122269858Y-126928135D01*
X122259696Y-126934001D01*
X122259690Y-126934004D01*
X122146290Y-126999475D01*
X122146282Y-126999481D01*
X122034478Y-127111286D01*
X121482582Y-127663181D01*
X121421259Y-127696666D01*
X121394901Y-127699500D01*
X120921662Y-127699500D01*
X120921644Y-127699501D01*
X120822292Y-127709650D01*
X120822289Y-127709651D01*
X120661305Y-127762996D01*
X120661294Y-127763001D01*
X120516959Y-127852029D01*
X120516955Y-127852032D01*
X120397032Y-127971955D01*
X120397029Y-127971959D01*
X120308001Y-128116294D01*
X120307996Y-128116305D01*
X120254651Y-128277290D01*
X120244500Y-128376647D01*
X120244500Y-129223337D01*
X120244501Y-129223355D01*
X120254650Y-129322707D01*
X120254651Y-129322710D01*
X120307996Y-129483694D01*
X120308001Y-129483705D01*
X120373814Y-129590403D01*
X120392255Y-129657795D01*
X120371333Y-129724459D01*
X120317691Y-129769228D01*
X120268276Y-129779500D01*
X118821724Y-129779500D01*
X118754685Y-129759815D01*
X118708930Y-129707011D01*
X118698986Y-129637853D01*
X118716186Y-129590403D01*
X118777588Y-129490855D01*
X118782003Y-129483697D01*
X118835349Y-129322708D01*
X118845500Y-129223345D01*
X118845499Y-128376656D01*
X118835349Y-128277292D01*
X118782003Y-128116303D01*
X118781999Y-128116297D01*
X118781998Y-128116294D01*
X118692970Y-127971959D01*
X118692967Y-127971955D01*
X118573044Y-127852032D01*
X118573040Y-127852029D01*
X118428705Y-127763001D01*
X118428699Y-127762998D01*
X118428697Y-127762997D01*
X118336865Y-127732567D01*
X118267709Y-127709651D01*
X118168346Y-127699500D01*
X117621662Y-127699500D01*
X117621644Y-127699501D01*
X117522292Y-127709650D01*
X117522289Y-127709651D01*
X117361305Y-127762996D01*
X117361294Y-127763001D01*
X117216959Y-127852029D01*
X117216955Y-127852032D01*
X117097032Y-127971955D01*
X117097029Y-127971959D01*
X117008001Y-128116294D01*
X117007996Y-128116305D01*
X116954651Y-128277290D01*
X116944500Y-128376647D01*
X116944500Y-129223337D01*
X116944501Y-129223355D01*
X116954650Y-129322707D01*
X116954651Y-129322710D01*
X117007996Y-129483694D01*
X117008001Y-129483705D01*
X117097029Y-129628040D01*
X117097032Y-129628044D01*
X117216956Y-129747968D01*
X117235596Y-129759465D01*
X117282321Y-129811412D01*
X117294500Y-129865004D01*
X117294500Y-130832238D01*
X117274815Y-130899277D01*
X117235598Y-130937776D01*
X117171956Y-130977031D01*
X117052032Y-131096955D01*
X117052029Y-131096959D01*
X116963001Y-131241294D01*
X116962996Y-131241305D01*
X116909651Y-131402290D01*
X116899500Y-131501647D01*
X116899500Y-132348337D01*
X116899501Y-132348355D01*
X116909650Y-132447707D01*
X116909651Y-132447710D01*
X116962996Y-132608694D01*
X116963001Y-132608705D01*
X117052029Y-132753040D01*
X117052032Y-132753044D01*
X117171955Y-132872967D01*
X117171959Y-132872970D01*
X117316294Y-132961998D01*
X117316297Y-132961999D01*
X117316303Y-132962003D01*
X117477292Y-133015349D01*
X117576655Y-133025500D01*
X118123344Y-133025499D01*
X118123352Y-133025498D01*
X118123355Y-133025498D01*
X118177760Y-133019940D01*
X118222708Y-133015349D01*
X118383697Y-132962003D01*
X118528044Y-132872968D01*
X118647968Y-132753044D01*
X118737003Y-132608697D01*
X118790349Y-132447708D01*
X118800500Y-132348345D01*
X118800499Y-131501656D01*
X118794658Y-131444480D01*
X118790349Y-131402292D01*
X118790348Y-131402289D01*
X118770136Y-131341294D01*
X118737003Y-131241303D01*
X118736997Y-131241294D01*
X118717347Y-131209436D01*
X118692773Y-131169596D01*
X118674333Y-131102205D01*
X118695255Y-131035542D01*
X118748897Y-130990772D01*
X118798312Y-130980500D01*
X120201688Y-130980500D01*
X120268727Y-131000185D01*
X120314482Y-131052989D01*
X120324426Y-131122147D01*
X120307226Y-131169596D01*
X120300705Y-131180170D01*
X120262999Y-131241298D01*
X120262996Y-131241305D01*
X120209651Y-131402290D01*
X120199500Y-131501647D01*
X120199500Y-132348337D01*
X120199501Y-132348355D01*
X120209650Y-132447707D01*
X120209651Y-132447710D01*
X120262996Y-132608694D01*
X120263001Y-132608705D01*
X120352029Y-132753040D01*
X120352032Y-132753044D01*
X120471955Y-132872967D01*
X120471959Y-132872970D01*
X120616294Y-132961998D01*
X120616297Y-132961999D01*
X120616303Y-132962003D01*
X120777292Y-133015349D01*
X120876655Y-133025500D01*
X121423344Y-133025499D01*
X121423352Y-133025498D01*
X121423355Y-133025498D01*
X121477760Y-133019940D01*
X121522708Y-133015349D01*
X121683697Y-132962003D01*
X121828044Y-132872968D01*
X121947968Y-132753044D01*
X122037003Y-132608697D01*
X122037004Y-132608692D01*
X122040053Y-132602155D01*
X122041661Y-132602904D01*
X122076184Y-132553047D01*
X122140701Y-132526227D01*
X122154113Y-132525500D01*
X125124903Y-132525500D01*
X125191942Y-132545185D01*
X125212584Y-132561819D01*
X126503840Y-133853075D01*
X126537325Y-133914398D01*
X126532341Y-133984090D01*
X126490469Y-134040023D01*
X126481264Y-134046290D01*
X126471955Y-134052032D01*
X126352029Y-134171959D01*
X126263001Y-134316294D01*
X126262996Y-134316305D01*
X126209651Y-134477290D01*
X126199500Y-134576647D01*
X126199500Y-135423337D01*
X126199501Y-135423355D01*
X126209650Y-135522707D01*
X126209651Y-135522710D01*
X126262996Y-135683694D01*
X126262998Y-135683699D01*
X126279470Y-135710403D01*
X126297910Y-135777795D01*
X126276988Y-135844459D01*
X126223346Y-135889229D01*
X126173931Y-135899500D01*
X125650097Y-135899500D01*
X125583058Y-135879815D01*
X125562416Y-135863181D01*
X124836818Y-135137583D01*
X124803333Y-135076260D01*
X124800499Y-135049902D01*
X124800499Y-134576662D01*
X124800498Y-134576644D01*
X124790349Y-134477292D01*
X124790348Y-134477289D01*
X124775123Y-134431342D01*
X124737003Y-134316303D01*
X124736999Y-134316297D01*
X124736998Y-134316294D01*
X124647970Y-134171959D01*
X124647967Y-134171955D01*
X124528044Y-134052032D01*
X124528040Y-134052029D01*
X124383705Y-133963001D01*
X124383699Y-133962998D01*
X124383697Y-133962997D01*
X124296618Y-133934142D01*
X124222709Y-133909651D01*
X124123346Y-133899500D01*
X123576662Y-133899500D01*
X123576644Y-133899501D01*
X123477292Y-133909650D01*
X123477289Y-133909651D01*
X123316305Y-133962996D01*
X123316294Y-133963001D01*
X123171959Y-134052029D01*
X123171955Y-134052032D01*
X123052031Y-134171956D01*
X122962999Y-134316297D01*
X122959947Y-134322845D01*
X122958338Y-134322095D01*
X122923816Y-134371953D01*
X122859299Y-134398773D01*
X122845887Y-134399500D01*
X121038585Y-134399500D01*
X120971546Y-134379815D01*
X120925791Y-134327011D01*
X120920879Y-134314504D01*
X120884814Y-134205666D01*
X120792712Y-134056344D01*
X120668656Y-133932288D01*
X120519334Y-133840186D01*
X120352797Y-133785001D01*
X120352795Y-133785000D01*
X120250010Y-133774500D01*
X119649998Y-133774500D01*
X119649980Y-133774501D01*
X119547203Y-133785000D01*
X119547200Y-133785001D01*
X119380668Y-133840185D01*
X119380663Y-133840187D01*
X119231342Y-133932289D01*
X119107288Y-134056343D01*
X119107283Y-134056349D01*
X119105241Y-134059661D01*
X119103247Y-134061453D01*
X119102807Y-134062011D01*
X119102711Y-134061935D01*
X119053291Y-134106383D01*
X118984328Y-134117602D01*
X118920247Y-134089755D01*
X118894168Y-134059656D01*
X118892319Y-134056659D01*
X118892316Y-134056655D01*
X118768345Y-133932684D01*
X118619124Y-133840643D01*
X118619119Y-133840641D01*
X118452697Y-133785494D01*
X118452690Y-133785493D01*
X118349986Y-133775000D01*
X118300000Y-133775000D01*
X118300000Y-136224999D01*
X118349972Y-136224999D01*
X118349986Y-136224998D01*
X118452697Y-136214505D01*
X118619119Y-136159358D01*
X118619124Y-136159356D01*
X118768345Y-136067315D01*
X118892318Y-135943342D01*
X118894165Y-135940348D01*
X118895969Y-135938724D01*
X118896798Y-135937677D01*
X118896976Y-135937818D01*
X118946110Y-135893621D01*
X119015073Y-135882396D01*
X119079156Y-135910236D01*
X119105243Y-135940341D01*
X119107288Y-135943656D01*
X119231344Y-136067712D01*
X119380666Y-136159814D01*
X119547203Y-136214999D01*
X119649991Y-136225500D01*
X120250008Y-136225499D01*
X120250016Y-136225498D01*
X120250019Y-136225498D01*
X120316400Y-136218717D01*
X120352797Y-136214999D01*
X120519334Y-136159814D01*
X120668656Y-136067712D01*
X120792712Y-135943656D01*
X120884814Y-135794334D01*
X120920879Y-135685494D01*
X120960652Y-135628051D01*
X121025167Y-135601228D01*
X121038585Y-135600500D01*
X122845887Y-135600500D01*
X122912926Y-135620185D01*
X122958681Y-135672989D01*
X122962295Y-135682192D01*
X122962999Y-135683702D01*
X123052031Y-135828043D01*
X123171955Y-135947967D01*
X123171959Y-135947970D01*
X123316294Y-136036998D01*
X123316297Y-136036999D01*
X123316303Y-136037003D01*
X123477292Y-136090349D01*
X123576655Y-136100500D01*
X124049902Y-136100499D01*
X124116941Y-136120183D01*
X124137583Y-136136818D01*
X124865139Y-136864374D01*
X124865149Y-136864385D01*
X124869479Y-136868715D01*
X124869480Y-136868716D01*
X124981284Y-136980520D01*
X124981286Y-136980521D01*
X124981290Y-136980524D01*
X125118209Y-137059573D01*
X125118216Y-137059577D01*
X125230019Y-137089534D01*
X125270942Y-137100500D01*
X125270943Y-137100500D01*
X125430036Y-137100500D01*
X125434148Y-137100774D01*
X125463229Y-137111460D01*
X125492942Y-137120185D01*
X125495730Y-137123403D01*
X125499730Y-137124873D01*
X125518419Y-137149587D01*
X125538697Y-137172989D01*
X125539302Y-137177203D01*
X125541873Y-137180602D01*
X125544233Y-137211491D01*
X125548641Y-137242147D01*
X125546871Y-137246021D01*
X125547196Y-137250269D01*
X125532484Y-137277524D01*
X125519616Y-137305703D01*
X125514046Y-137311683D01*
X125514009Y-137311754D01*
X125513952Y-137311785D01*
X125513584Y-137312181D01*
X124928310Y-137897453D01*
X124866987Y-137930938D01*
X124821231Y-137932245D01*
X124703520Y-137913601D01*
X124646055Y-137904500D01*
X124453945Y-137904500D01*
X124390696Y-137914517D01*
X124264197Y-137934553D01*
X124081493Y-137993916D01*
X123910318Y-138081135D01*
X123821645Y-138145560D01*
X123754898Y-138194055D01*
X123754896Y-138194057D01*
X123754895Y-138194057D01*
X123619057Y-138329895D01*
X123619057Y-138329896D01*
X123619055Y-138329898D01*
X123570560Y-138396645D01*
X123506135Y-138485318D01*
X123418916Y-138656493D01*
X123359553Y-138839197D01*
X123329500Y-139028945D01*
X123329500Y-139221054D01*
X123357245Y-139396231D01*
X123348290Y-139465525D01*
X123322453Y-139503310D01*
X122388310Y-140437453D01*
X122326987Y-140470938D01*
X122281231Y-140472245D01*
X122163520Y-140453601D01*
X122106055Y-140444500D01*
X121913945Y-140444500D01*
X121850696Y-140454517D01*
X121724197Y-140474553D01*
X121541493Y-140533916D01*
X121370318Y-140621135D01*
X121281645Y-140685560D01*
X121214898Y-140734055D01*
X121214896Y-140734057D01*
X121214895Y-140734057D01*
X121079057Y-140869895D01*
X121079057Y-140869896D01*
X121079055Y-140869898D01*
X121030560Y-140936645D01*
X120966135Y-141025318D01*
X120878916Y-141196493D01*
X120819553Y-141379197D01*
X120789500Y-141568945D01*
X120789500Y-141761054D01*
X120819553Y-141950802D01*
X120878916Y-142133506D01*
X120878918Y-142133509D01*
X120966135Y-142304681D01*
X121079055Y-142460102D01*
X121214898Y-142595945D01*
X121370319Y-142708865D01*
X121541491Y-142796082D01*
X121541493Y-142796083D01*
X121632845Y-142825764D01*
X121724199Y-142855447D01*
X121913945Y-142885500D01*
X121913946Y-142885500D01*
X122106054Y-142885500D01*
X122106055Y-142885500D01*
X122295801Y-142855447D01*
X122478509Y-142796082D01*
X122649681Y-142708865D01*
X122805102Y-142595945D01*
X122940945Y-142460102D01*
X123053865Y-142304681D01*
X123141082Y-142133509D01*
X123200447Y-141950801D01*
X123230500Y-141761055D01*
X123230500Y-141568945D01*
X131319500Y-141568945D01*
X131319500Y-141761054D01*
X131349553Y-141950802D01*
X131408916Y-142133506D01*
X131408918Y-142133509D01*
X131496135Y-142304681D01*
X131609055Y-142460102D01*
X131744898Y-142595945D01*
X131900319Y-142708865D01*
X132071491Y-142796082D01*
X132071493Y-142796083D01*
X132162845Y-142825764D01*
X132254199Y-142855447D01*
X132443945Y-142885500D01*
X132443946Y-142885500D01*
X132636054Y-142885500D01*
X132636055Y-142885500D01*
X132825801Y-142855447D01*
X133008509Y-142796082D01*
X133179681Y-142708865D01*
X133335102Y-142595945D01*
X133470945Y-142460102D01*
X133583865Y-142304681D01*
X133671082Y-142133509D01*
X133730447Y-141950801D01*
X133760500Y-141761055D01*
X133760500Y-141568945D01*
X133730447Y-141379199D01*
X133671082Y-141196491D01*
X133583865Y-141025319D01*
X133470945Y-140869898D01*
X133335102Y-140734055D01*
X133179681Y-140621135D01*
X133008506Y-140533916D01*
X132825802Y-140474553D01*
X132730928Y-140459526D01*
X132636055Y-140444500D01*
X132443945Y-140444500D01*
X132380696Y-140454517D01*
X132254197Y-140474553D01*
X132071493Y-140533916D01*
X131900318Y-140621135D01*
X131811645Y-140685560D01*
X131744898Y-140734055D01*
X131744896Y-140734057D01*
X131744895Y-140734057D01*
X131609057Y-140869895D01*
X131609057Y-140869896D01*
X131609055Y-140869898D01*
X131560560Y-140936645D01*
X131496135Y-141025318D01*
X131408916Y-141196493D01*
X131349553Y-141379197D01*
X131319500Y-141568945D01*
X123230500Y-141568945D01*
X123202677Y-141393278D01*
X123207283Y-141358713D01*
X123211709Y-141324473D01*
X123211881Y-141324220D01*
X123211908Y-141324021D01*
X123212474Y-141323353D01*
X123237543Y-141286690D01*
X124171689Y-140352544D01*
X124233010Y-140319061D01*
X124278764Y-140317754D01*
X124453945Y-140345500D01*
X124453946Y-140345500D01*
X124646054Y-140345500D01*
X124646055Y-140345500D01*
X124835801Y-140315447D01*
X125018509Y-140256082D01*
X125189681Y-140168865D01*
X125345102Y-140055945D01*
X125480945Y-139920102D01*
X125593865Y-139764681D01*
X125681082Y-139593509D01*
X125740447Y-139410801D01*
X125770500Y-139221055D01*
X125770500Y-139028984D01*
X128780000Y-139028984D01*
X128780000Y-139221015D01*
X128810040Y-139410684D01*
X128869383Y-139593321D01*
X128956561Y-139764415D01*
X128977798Y-139793646D01*
X129600000Y-139171445D01*
X129600000Y-139177661D01*
X129627259Y-139279394D01*
X129679920Y-139370606D01*
X129754394Y-139445080D01*
X129845606Y-139497741D01*
X129947339Y-139525000D01*
X129953554Y-139525000D01*
X129331351Y-140147200D01*
X129331352Y-140147201D01*
X129360577Y-140168434D01*
X129531678Y-140255616D01*
X129714315Y-140314959D01*
X129903985Y-140345000D01*
X130096015Y-140345000D01*
X130285684Y-140314959D01*
X130468321Y-140255616D01*
X130639419Y-140168436D01*
X130668646Y-140147201D01*
X130668646Y-140147200D01*
X130046447Y-139525000D01*
X130052661Y-139525000D01*
X130154394Y-139497741D01*
X130245606Y-139445080D01*
X130320080Y-139370606D01*
X130372741Y-139279394D01*
X130400000Y-139177661D01*
X130400000Y-139171446D01*
X131022200Y-139793646D01*
X131022201Y-139793646D01*
X131043436Y-139764419D01*
X131130616Y-139593321D01*
X131189959Y-139410684D01*
X131220000Y-139221015D01*
X131220000Y-139028984D01*
X131189959Y-138839315D01*
X131130616Y-138656678D01*
X131043434Y-138485577D01*
X131022201Y-138456352D01*
X131022200Y-138456351D01*
X130400000Y-139078552D01*
X130400000Y-139072339D01*
X130372741Y-138970606D01*
X130320080Y-138879394D01*
X130245606Y-138804920D01*
X130154394Y-138752259D01*
X130052661Y-138725000D01*
X130046447Y-138725000D01*
X130668646Y-138102798D01*
X130639415Y-138081561D01*
X130468321Y-137994383D01*
X130285684Y-137935040D01*
X130096015Y-137905000D01*
X129903985Y-137905000D01*
X129714315Y-137935040D01*
X129531678Y-137994383D01*
X129360578Y-138081564D01*
X129331352Y-138102798D01*
X129331351Y-138102798D01*
X129953554Y-138725000D01*
X129947339Y-138725000D01*
X129845606Y-138752259D01*
X129754394Y-138804920D01*
X129679920Y-138879394D01*
X129627259Y-138970606D01*
X129600000Y-139072339D01*
X129600000Y-139078553D01*
X128977798Y-138456351D01*
X128977798Y-138456352D01*
X128956564Y-138485578D01*
X128869383Y-138656678D01*
X128810040Y-138839315D01*
X128780000Y-139028984D01*
X125770500Y-139028984D01*
X125770500Y-139028945D01*
X125742698Y-138853412D01*
X125742677Y-138853275D01*
X125747265Y-138818860D01*
X125751709Y-138784473D01*
X125751883Y-138784218D01*
X125751910Y-138784018D01*
X125752476Y-138783350D01*
X125777543Y-138746690D01*
X126887416Y-137636819D01*
X126948739Y-137603334D01*
X126975097Y-137600500D01*
X133075831Y-137600500D01*
X133075847Y-137600501D01*
X133083443Y-137600501D01*
X133241554Y-137600501D01*
X133241557Y-137600501D01*
X133394285Y-137559577D01*
X133444404Y-137530639D01*
X133531216Y-137480520D01*
X133643020Y-137368716D01*
X133643020Y-137368714D01*
X133653228Y-137358507D01*
X133653230Y-137358504D01*
X134524917Y-136486816D01*
X134586238Y-136453333D01*
X134612586Y-136450499D01*
X135225008Y-136450499D01*
X135225016Y-136450498D01*
X135225019Y-136450498D01*
X135281302Y-136444748D01*
X135327797Y-136439999D01*
X135494334Y-136384814D01*
X135643656Y-136292712D01*
X135737819Y-136198549D01*
X135799142Y-136165064D01*
X135868834Y-136170048D01*
X135924767Y-136211920D01*
X135949184Y-136277384D01*
X135949500Y-136286230D01*
X135949500Y-137354902D01*
X135929815Y-137421941D01*
X135913181Y-137442583D01*
X135458310Y-137897453D01*
X135396987Y-137930938D01*
X135351231Y-137932245D01*
X135233520Y-137913601D01*
X135176055Y-137904500D01*
X134983945Y-137904500D01*
X134920696Y-137914517D01*
X134794197Y-137934553D01*
X134611493Y-137993916D01*
X134440318Y-138081135D01*
X134351645Y-138145560D01*
X134284898Y-138194055D01*
X134284896Y-138194057D01*
X134284895Y-138194057D01*
X134149057Y-138329895D01*
X134149057Y-138329896D01*
X134149055Y-138329898D01*
X134100560Y-138396645D01*
X134036135Y-138485318D01*
X133948916Y-138656493D01*
X133889553Y-138839197D01*
X133859500Y-139028945D01*
X133859500Y-139221054D01*
X133889553Y-139410802D01*
X133948916Y-139593506D01*
X134035999Y-139764415D01*
X134036135Y-139764681D01*
X134149055Y-139920102D01*
X134284898Y-140055945D01*
X134440319Y-140168865D01*
X134610576Y-140255616D01*
X134611493Y-140256083D01*
X134702845Y-140285764D01*
X134794199Y-140315447D01*
X134983945Y-140345500D01*
X134983946Y-140345500D01*
X135176054Y-140345500D01*
X135176055Y-140345500D01*
X135365801Y-140315447D01*
X135548509Y-140256082D01*
X135719681Y-140168865D01*
X135875102Y-140055945D01*
X136010945Y-139920102D01*
X136123865Y-139764681D01*
X136211082Y-139593509D01*
X136270447Y-139410801D01*
X136276270Y-139374038D01*
X140899500Y-139374038D01*
X140899500Y-139625961D01*
X140938910Y-139874785D01*
X141016760Y-140114383D01*
X141088723Y-140255616D01*
X141118959Y-140314959D01*
X141131132Y-140338848D01*
X141279201Y-140542649D01*
X141279205Y-140542654D01*
X141457345Y-140720794D01*
X141457350Y-140720798D01*
X141475600Y-140734057D01*
X141661155Y-140868870D01*
X141804184Y-140941747D01*
X141885616Y-140983239D01*
X141885618Y-140983239D01*
X141885621Y-140983241D01*
X142125215Y-141061090D01*
X142374038Y-141100500D01*
X142374039Y-141100500D01*
X142625961Y-141100500D01*
X142625962Y-141100500D01*
X142874785Y-141061090D01*
X143114379Y-140983241D01*
X143338845Y-140868870D01*
X143542656Y-140720793D01*
X143720793Y-140542656D01*
X143868870Y-140338845D01*
X143983241Y-140114379D01*
X144061090Y-139874785D01*
X144100500Y-139625962D01*
X144100500Y-139374038D01*
X144061090Y-139125215D01*
X143983241Y-138885621D01*
X143983239Y-138885618D01*
X143983239Y-138885616D01*
X143938278Y-138797376D01*
X143868870Y-138661155D01*
X143849952Y-138635117D01*
X143720798Y-138457350D01*
X143720794Y-138457345D01*
X143542654Y-138279205D01*
X143542649Y-138279201D01*
X143338848Y-138131132D01*
X143338847Y-138131131D01*
X143338845Y-138131130D01*
X143241566Y-138081564D01*
X143114383Y-138016760D01*
X142874785Y-137938910D01*
X142660687Y-137905000D01*
X142625962Y-137899500D01*
X142374038Y-137899500D01*
X142339313Y-137905000D01*
X142125214Y-137938910D01*
X141885616Y-138016760D01*
X141661151Y-138131132D01*
X141457350Y-138279201D01*
X141457345Y-138279205D01*
X141279205Y-138457345D01*
X141279201Y-138457350D01*
X141131132Y-138661151D01*
X141016760Y-138885616D01*
X140938910Y-139125214D01*
X140899500Y-139374038D01*
X136276270Y-139374038D01*
X136300500Y-139221055D01*
X136300500Y-139028945D01*
X136272754Y-138853765D01*
X136281709Y-138784473D01*
X136307543Y-138746690D01*
X136908506Y-138145728D01*
X136908511Y-138145724D01*
X136918714Y-138135520D01*
X136918716Y-138135520D01*
X137030520Y-138023716D01*
X137099349Y-137904500D01*
X137109577Y-137886785D01*
X137150501Y-137734057D01*
X137150501Y-137575943D01*
X137150501Y-137568348D01*
X137150500Y-137568330D01*
X137150500Y-127601560D01*
X137150501Y-127601547D01*
X137150501Y-127433444D01*
X137150501Y-127433443D01*
X137109577Y-127280716D01*
X137069490Y-127211283D01*
X137030524Y-127143790D01*
X137030518Y-127143782D01*
X135961818Y-126075082D01*
X135928333Y-126013759D01*
X135925499Y-125987401D01*
X135925499Y-125374998D01*
X135925498Y-125374981D01*
X135914999Y-125272203D01*
X135914998Y-125272200D01*
X135887760Y-125190001D01*
X135859814Y-125105666D01*
X135767712Y-124956344D01*
X135643656Y-124832288D01*
X135494334Y-124740186D01*
X135327797Y-124685001D01*
X135327795Y-124685000D01*
X135225016Y-124674500D01*
X135225009Y-124674500D01*
X134824500Y-124674500D01*
X134757461Y-124654815D01*
X134711706Y-124602011D01*
X134700500Y-124550500D01*
X134700500Y-124074499D01*
X134720185Y-124007460D01*
X134772989Y-123961705D01*
X134824500Y-123950499D01*
X135225002Y-123950499D01*
X135225008Y-123950499D01*
X135327797Y-123939999D01*
X135494334Y-123884814D01*
X135643656Y-123792712D01*
X135767712Y-123668656D01*
X135859814Y-123519334D01*
X135914999Y-123352797D01*
X135925500Y-123250009D01*
X135925499Y-122249992D01*
X135925237Y-122247432D01*
X135914999Y-122147203D01*
X135914998Y-122147200D01*
X135876327Y-122030500D01*
X135859814Y-121980666D01*
X135767712Y-121831344D01*
X135643656Y-121707288D01*
X135545372Y-121646666D01*
X135494336Y-121615187D01*
X135494331Y-121615185D01*
X135488283Y-121613181D01*
X135327797Y-121560001D01*
X135327795Y-121560000D01*
X135225010Y-121549500D01*
X134599998Y-121549500D01*
X134599980Y-121549501D01*
X134497203Y-121560000D01*
X134497200Y-121560001D01*
X134330668Y-121615185D01*
X134330663Y-121615187D01*
X134181342Y-121707289D01*
X134087681Y-121800951D01*
X134026358Y-121834436D01*
X133956666Y-121829452D01*
X133912319Y-121800951D01*
X133818657Y-121707289D01*
X133818656Y-121707288D01*
X133720372Y-121646666D01*
X133669336Y-121615187D01*
X133669331Y-121615185D01*
X133663283Y-121613181D01*
X133502797Y-121560001D01*
X133502795Y-121560000D01*
X133400010Y-121549500D01*
X132774998Y-121549500D01*
X132774980Y-121549501D01*
X132672203Y-121560000D01*
X132672200Y-121560001D01*
X132505668Y-121615185D01*
X132505663Y-121615187D01*
X132356342Y-121707289D01*
X132232289Y-121831342D01*
X132140187Y-121980663D01*
X132140185Y-121980668D01*
X132112349Y-122064670D01*
X132085001Y-122147203D01*
X132085001Y-122147204D01*
X132085000Y-122147204D01*
X132074500Y-122249983D01*
X132074500Y-123250001D01*
X132074501Y-123250019D01*
X132085000Y-123352796D01*
X132085001Y-123352799D01*
X132140185Y-123519331D01*
X132140187Y-123519336D01*
X132140597Y-123520000D01*
X132201867Y-123619336D01*
X132232289Y-123668657D01*
X132356345Y-123792713D01*
X132378550Y-123806409D01*
X132425275Y-123858356D01*
X132436498Y-123927319D01*
X132408655Y-123991401D01*
X132401135Y-123999629D01*
X131247082Y-125153681D01*
X131185759Y-125187166D01*
X131159401Y-125190000D01*
X128237705Y-125190000D01*
X128237704Y-125190001D01*
X128237899Y-125192486D01*
X128283718Y-125350198D01*
X128367314Y-125491552D01*
X128372100Y-125497722D01*
X128369640Y-125499629D01*
X128396210Y-125548288D01*
X128391226Y-125617980D01*
X128370162Y-125650781D01*
X128371699Y-125651974D01*
X128366915Y-125658140D01*
X128283255Y-125799603D01*
X128283254Y-125799606D01*
X128237402Y-125957426D01*
X128237401Y-125957432D01*
X128234500Y-125994298D01*
X128234500Y-126155500D01*
X128214815Y-126222539D01*
X128162011Y-126268294D01*
X128110500Y-126279500D01*
X126359500Y-126279500D01*
X126292461Y-126259815D01*
X126246706Y-126207011D01*
X126235500Y-126155500D01*
X126235500Y-125994313D01*
X126235499Y-125994298D01*
X126234956Y-125987401D01*
X126232598Y-125957431D01*
X126210257Y-125880535D01*
X126186745Y-125799606D01*
X126186744Y-125799603D01*
X126186744Y-125799602D01*
X126162221Y-125758135D01*
X126158013Y-125751019D01*
X126156634Y-125745587D01*
X126152888Y-125741416D01*
X126148136Y-125712090D01*
X126140830Y-125683295D01*
X126142608Y-125677977D01*
X126141712Y-125672446D01*
X126153566Y-125645211D01*
X126162990Y-125617033D01*
X126167948Y-125612169D01*
X126169597Y-125608382D01*
X126195848Y-125584801D01*
X126214729Y-125572186D01*
X126214729Y-125572185D01*
X126214731Y-125572185D01*
X126250496Y-125548288D01*
X126288416Y-125522952D01*
X127332952Y-124478416D01*
X127389166Y-124394284D01*
X127415084Y-124355495D01*
X127451829Y-124266784D01*
X127471659Y-124218912D01*
X127498361Y-124084669D01*
X127500500Y-124073918D01*
X127500500Y-123920001D01*
X128237704Y-123920001D01*
X128237899Y-123922486D01*
X128283718Y-124080198D01*
X128367314Y-124221552D01*
X128372100Y-124227722D01*
X128369753Y-124229542D01*
X128396564Y-124278642D01*
X128391580Y-124348334D01*
X128370541Y-124381069D01*
X128372100Y-124382278D01*
X128367314Y-124388447D01*
X128283718Y-124529801D01*
X128237899Y-124687513D01*
X128237704Y-124689998D01*
X128237705Y-124690000D01*
X129460000Y-124690000D01*
X129960000Y-124690000D01*
X131182295Y-124690000D01*
X131182295Y-124689998D01*
X131182100Y-124687513D01*
X131136281Y-124529801D01*
X131052685Y-124388447D01*
X131047900Y-124382278D01*
X131050252Y-124380453D01*
X131023445Y-124331405D01*
X131028402Y-124261712D01*
X131049465Y-124228936D01*
X131047900Y-124227722D01*
X131052685Y-124221552D01*
X131136281Y-124080198D01*
X131182100Y-123922486D01*
X131182295Y-123920001D01*
X131182295Y-123920000D01*
X129960000Y-123920000D01*
X129960000Y-124690000D01*
X129460000Y-124690000D01*
X129460000Y-123920000D01*
X128237705Y-123920000D01*
X128237704Y-123920001D01*
X127500500Y-123920001D01*
X127500500Y-122650001D01*
X128237704Y-122650001D01*
X128237899Y-122652486D01*
X128283718Y-122810198D01*
X128367314Y-122951552D01*
X128372100Y-122957722D01*
X128369753Y-122959542D01*
X128396564Y-123008642D01*
X128391580Y-123078334D01*
X128370541Y-123111069D01*
X128372100Y-123112278D01*
X128367314Y-123118447D01*
X128283718Y-123259801D01*
X128237899Y-123417513D01*
X128237704Y-123419998D01*
X128237705Y-123420000D01*
X129460000Y-123420000D01*
X129960000Y-123420000D01*
X131182295Y-123420000D01*
X131182295Y-123419998D01*
X131182100Y-123417513D01*
X131136281Y-123259801D01*
X131052685Y-123118447D01*
X131047900Y-123112278D01*
X131050252Y-123110453D01*
X131023445Y-123061405D01*
X131028402Y-122991712D01*
X131049465Y-122958936D01*
X131047900Y-122957722D01*
X131052685Y-122951552D01*
X131136281Y-122810198D01*
X131182100Y-122652486D01*
X131182295Y-122650001D01*
X131182295Y-122650000D01*
X129960000Y-122650000D01*
X129960000Y-123420000D01*
X129460000Y-123420000D01*
X129460000Y-122650000D01*
X128237705Y-122650000D01*
X128237704Y-122650001D01*
X127500500Y-122650001D01*
X127500500Y-120914298D01*
X128234500Y-120914298D01*
X128234500Y-121345701D01*
X128237401Y-121382567D01*
X128237402Y-121382573D01*
X128283254Y-121540393D01*
X128283255Y-121540396D01*
X128283256Y-121540398D01*
X128290763Y-121553092D01*
X128366917Y-121681862D01*
X128371702Y-121688031D01*
X128369369Y-121689840D01*
X128396210Y-121738995D01*
X128391226Y-121808687D01*
X128370470Y-121841021D01*
X128372097Y-121842283D01*
X128367313Y-121848449D01*
X128283718Y-121989801D01*
X128237899Y-122147513D01*
X128237704Y-122149998D01*
X128237705Y-122150000D01*
X131182295Y-122150000D01*
X131182295Y-122149998D01*
X131182100Y-122147513D01*
X131136281Y-121989801D01*
X131052685Y-121848447D01*
X131047900Y-121842278D01*
X131050366Y-121840364D01*
X131023802Y-121791776D01*
X131028749Y-121722082D01*
X131049856Y-121689232D01*
X131048301Y-121688026D01*
X131053077Y-121681868D01*
X131053081Y-121681865D01*
X131136744Y-121540398D01*
X131182598Y-121382569D01*
X131185500Y-121345694D01*
X131185500Y-120914306D01*
X131182598Y-120877431D01*
X131181079Y-120872203D01*
X131145423Y-120749475D01*
X131136744Y-120719602D01*
X131053081Y-120578135D01*
X131053079Y-120578133D01*
X131053076Y-120578129D01*
X130936870Y-120461923D01*
X130936862Y-120461917D01*
X130822884Y-120394511D01*
X130795398Y-120378256D01*
X130795397Y-120378255D01*
X130795396Y-120378255D01*
X130795393Y-120378254D01*
X130637573Y-120332402D01*
X130637567Y-120332401D01*
X130600701Y-120329500D01*
X130600694Y-120329500D01*
X128819306Y-120329500D01*
X128819298Y-120329500D01*
X128782432Y-120332401D01*
X128782426Y-120332402D01*
X128624606Y-120378254D01*
X128624603Y-120378255D01*
X128483137Y-120461917D01*
X128483129Y-120461923D01*
X128366923Y-120578129D01*
X128366917Y-120578137D01*
X128283255Y-120719603D01*
X128283254Y-120719606D01*
X128237402Y-120877426D01*
X128237401Y-120877432D01*
X128234500Y-120914298D01*
X127500500Y-120914298D01*
X127500500Y-120676082D01*
X127500500Y-120676079D01*
X127471659Y-120531092D01*
X127471658Y-120531091D01*
X127471658Y-120531087D01*
X127469116Y-120524949D01*
X127415087Y-120394511D01*
X127415080Y-120394498D01*
X127332952Y-120271585D01*
X127319064Y-120257697D01*
X127228416Y-120167049D01*
X127216353Y-120154986D01*
X126108421Y-119047052D01*
X126108414Y-119047046D01*
X126034729Y-118997812D01*
X126034729Y-118997813D01*
X125985491Y-118964913D01*
X125848917Y-118908343D01*
X125848907Y-118908340D01*
X125703920Y-118879500D01*
X125703918Y-118879500D01*
X121516058Y-118879500D01*
X121449019Y-118859815D01*
X121410519Y-118820597D01*
X121327712Y-118686344D01*
X121203656Y-118562288D01*
X121066677Y-118477799D01*
X121054336Y-118470187D01*
X121054331Y-118470185D01*
X120887792Y-118414999D01*
X120886570Y-118414738D01*
X120885889Y-118414369D01*
X120881371Y-118412872D01*
X120881638Y-118412065D01*
X120825140Y-118381449D01*
X120468677Y-118024986D01*
X128050001Y-118024986D01*
X128060494Y-118127697D01*
X128115641Y-118294119D01*
X128115643Y-118294124D01*
X128207684Y-118443345D01*
X128331654Y-118567315D01*
X128480875Y-118659356D01*
X128480880Y-118659358D01*
X128647302Y-118714505D01*
X128647309Y-118714506D01*
X128750019Y-118724999D01*
X128799999Y-118724998D01*
X128800000Y-118724998D01*
X128800000Y-117750000D01*
X128050001Y-117750000D01*
X128050001Y-118024986D01*
X120468677Y-118024986D01*
X119418704Y-116975013D01*
X128050000Y-116975013D01*
X128050000Y-117250000D01*
X128800000Y-117250000D01*
X128800000Y-116275000D01*
X129300000Y-116275000D01*
X129300000Y-118724999D01*
X129349972Y-118724999D01*
X129349986Y-118724998D01*
X129452697Y-118714505D01*
X129619119Y-118659358D01*
X129619124Y-118659356D01*
X129768345Y-118567315D01*
X129892318Y-118443342D01*
X129894165Y-118440348D01*
X129895969Y-118438724D01*
X129896798Y-118437677D01*
X129896976Y-118437818D01*
X129946110Y-118393621D01*
X130015073Y-118382396D01*
X130079156Y-118410236D01*
X130105243Y-118440341D01*
X130107288Y-118443656D01*
X130231344Y-118567712D01*
X130380666Y-118659814D01*
X130547203Y-118714999D01*
X130649991Y-118725500D01*
X131250008Y-118725499D01*
X131250016Y-118725498D01*
X131250019Y-118725498D01*
X131306302Y-118719748D01*
X131352797Y-118714999D01*
X131519334Y-118659814D01*
X131668656Y-118567712D01*
X131792712Y-118443656D01*
X131884814Y-118294334D01*
X131920879Y-118185494D01*
X131960652Y-118128051D01*
X132025167Y-118101228D01*
X132038585Y-118100500D01*
X134459575Y-118100500D01*
X134526614Y-118120185D01*
X134559893Y-118151615D01*
X134594892Y-118199787D01*
X134594897Y-118199793D01*
X134745213Y-118350109D01*
X134917179Y-118475048D01*
X134917181Y-118475049D01*
X134917184Y-118475051D01*
X135106588Y-118571557D01*
X135308757Y-118637246D01*
X135518713Y-118670500D01*
X135518714Y-118670500D01*
X135731286Y-118670500D01*
X135731287Y-118670500D01*
X135941243Y-118637246D01*
X136143412Y-118571557D01*
X136332816Y-118475051D01*
X136354789Y-118459086D01*
X136504786Y-118350109D01*
X136504788Y-118350106D01*
X136504792Y-118350104D01*
X136655104Y-118199792D01*
X136655108Y-118199787D01*
X136655109Y-118199786D01*
X136780048Y-118027820D01*
X136780047Y-118027820D01*
X136780051Y-118027816D01*
X136876557Y-117838412D01*
X136942246Y-117636243D01*
X136975500Y-117426287D01*
X136975500Y-117213713D01*
X136942246Y-117003757D01*
X136876557Y-116801588D01*
X136780051Y-116612184D01*
X136780049Y-116612181D01*
X136780048Y-116612179D01*
X136655109Y-116440213D01*
X136504786Y-116289890D01*
X136332817Y-116164949D01*
X136323504Y-116160204D01*
X136272707Y-116112230D01*
X136255912Y-116044409D01*
X136278449Y-115978274D01*
X136323507Y-115939232D01*
X136332558Y-115934620D01*
X136504459Y-115809727D01*
X136504464Y-115809723D01*
X136654723Y-115659464D01*
X136654727Y-115659459D01*
X136779620Y-115487557D01*
X136876095Y-115298217D01*
X136941757Y-115096129D01*
X136941757Y-115096126D01*
X136952231Y-115030000D01*
X136058012Y-115030000D01*
X136090925Y-114972993D01*
X136125000Y-114845826D01*
X136125000Y-114714174D01*
X136090925Y-114587007D01*
X136058012Y-114530000D01*
X136952231Y-114530000D01*
X136941757Y-114463873D01*
X136941757Y-114463870D01*
X136876095Y-114261782D01*
X136779620Y-114072442D01*
X136654727Y-113900540D01*
X136654723Y-113900535D01*
X136504464Y-113750276D01*
X136504459Y-113750272D01*
X136332558Y-113625379D01*
X136322954Y-113620486D01*
X136272157Y-113572512D01*
X136255361Y-113504692D01*
X136277897Y-113438556D01*
X136322954Y-113399514D01*
X136332558Y-113394620D01*
X136504459Y-113269727D01*
X136504464Y-113269723D01*
X136654723Y-113119464D01*
X136654727Y-113119459D01*
X136779620Y-112947557D01*
X136876095Y-112758217D01*
X136941757Y-112556129D01*
X136941757Y-112556126D01*
X136952231Y-112490000D01*
X136058012Y-112490000D01*
X136090925Y-112432993D01*
X136125000Y-112305826D01*
X136125000Y-112174174D01*
X136090925Y-112047007D01*
X136058012Y-111990000D01*
X136952231Y-111990000D01*
X136941757Y-111923873D01*
X136941757Y-111923870D01*
X136876095Y-111721782D01*
X136779620Y-111532442D01*
X136654727Y-111360540D01*
X136654723Y-111360535D01*
X136541053Y-111246865D01*
X136507568Y-111185542D01*
X136512552Y-111115850D01*
X136554424Y-111059917D01*
X136585400Y-111043002D01*
X136717331Y-110993796D01*
X136832546Y-110907546D01*
X136918796Y-110792331D01*
X136969091Y-110657483D01*
X136975500Y-110597873D01*
X136975499Y-108802128D01*
X136969091Y-108742517D01*
X136955426Y-108705880D01*
X136918797Y-108607671D01*
X136918793Y-108607664D01*
X136832547Y-108492455D01*
X136832544Y-108492452D01*
X136717335Y-108406206D01*
X136717328Y-108406202D01*
X136582482Y-108355908D01*
X136582483Y-108355908D01*
X136522883Y-108349501D01*
X136522881Y-108349500D01*
X136522873Y-108349500D01*
X136522864Y-108349500D01*
X134727129Y-108349500D01*
X134727123Y-108349501D01*
X134667516Y-108355908D01*
X134532671Y-108406202D01*
X134532664Y-108406206D01*
X134417455Y-108492452D01*
X134417452Y-108492455D01*
X134331206Y-108607664D01*
X134331202Y-108607671D01*
X134280910Y-108742513D01*
X134280909Y-108742517D01*
X134275937Y-108788757D01*
X134249201Y-108853306D01*
X134191809Y-108893154D01*
X134152649Y-108899500D01*
X132088585Y-108899500D01*
X132021546Y-108879815D01*
X131975791Y-108827011D01*
X131970879Y-108814504D01*
X131934814Y-108705666D01*
X131842712Y-108556344D01*
X131718656Y-108432288D01*
X131584436Y-108349501D01*
X131569336Y-108340187D01*
X131569331Y-108340185D01*
X131567862Y-108339698D01*
X131402797Y-108285001D01*
X131402795Y-108285000D01*
X131300010Y-108274500D01*
X130699998Y-108274500D01*
X130699980Y-108274501D01*
X130597203Y-108285000D01*
X130597200Y-108285001D01*
X130430668Y-108340185D01*
X130430663Y-108340187D01*
X130281342Y-108432289D01*
X130157288Y-108556343D01*
X130157283Y-108556349D01*
X130155241Y-108559661D01*
X130153247Y-108561453D01*
X130152807Y-108562011D01*
X130152711Y-108561935D01*
X130103291Y-108606383D01*
X130034328Y-108617602D01*
X129970247Y-108589755D01*
X129944168Y-108559656D01*
X129942319Y-108556659D01*
X129942316Y-108556655D01*
X129818345Y-108432684D01*
X129669124Y-108340643D01*
X129669119Y-108340641D01*
X129502697Y-108285494D01*
X129502690Y-108285493D01*
X129399986Y-108275000D01*
X129350000Y-108275000D01*
X129350000Y-110724999D01*
X129399972Y-110724999D01*
X129399986Y-110724998D01*
X129502697Y-110714505D01*
X129669119Y-110659358D01*
X129669124Y-110659356D01*
X129818345Y-110567315D01*
X129942318Y-110443342D01*
X129944165Y-110440348D01*
X129945969Y-110438724D01*
X129946798Y-110437677D01*
X129946976Y-110437818D01*
X129996110Y-110393621D01*
X130065073Y-110382396D01*
X130129156Y-110410236D01*
X130155243Y-110440341D01*
X130157288Y-110443656D01*
X130281344Y-110567712D01*
X130430666Y-110659814D01*
X130597203Y-110714999D01*
X130699991Y-110725500D01*
X131300008Y-110725499D01*
X131300016Y-110725498D01*
X131300019Y-110725498D01*
X131356302Y-110719748D01*
X131402797Y-110714999D01*
X131569334Y-110659814D01*
X131718656Y-110567712D01*
X131842712Y-110443656D01*
X131934814Y-110294334D01*
X131970879Y-110185494D01*
X132010652Y-110128051D01*
X132075167Y-110101228D01*
X132088585Y-110100500D01*
X134150501Y-110100500D01*
X134217540Y-110120185D01*
X134263295Y-110172989D01*
X134274501Y-110224500D01*
X134274501Y-110597876D01*
X134280908Y-110657483D01*
X134331202Y-110792328D01*
X134331206Y-110792335D01*
X134417452Y-110907544D01*
X134417455Y-110907547D01*
X134532664Y-110993793D01*
X134532671Y-110993797D01*
X134532674Y-110993798D01*
X134664598Y-111043002D01*
X134720531Y-111084873D01*
X134744949Y-111150337D01*
X134730098Y-111218610D01*
X134708947Y-111246865D01*
X134595271Y-111360541D01*
X134470379Y-111532442D01*
X134373904Y-111721782D01*
X134308242Y-111923870D01*
X134308242Y-111923873D01*
X134297769Y-111990000D01*
X135191988Y-111990000D01*
X135159075Y-112047007D01*
X135125000Y-112174174D01*
X135125000Y-112305826D01*
X135159075Y-112432993D01*
X135191988Y-112490000D01*
X134297769Y-112490000D01*
X134308242Y-112556126D01*
X134308242Y-112556129D01*
X134373904Y-112758217D01*
X134470379Y-112947557D01*
X134595272Y-113119459D01*
X134595276Y-113119464D01*
X134745535Y-113269723D01*
X134745540Y-113269727D01*
X134917444Y-113394622D01*
X134927048Y-113399516D01*
X134977844Y-113447491D01*
X134994638Y-113515312D01*
X134972100Y-113581447D01*
X134927048Y-113620484D01*
X134917444Y-113625377D01*
X134745540Y-113750272D01*
X134745535Y-113750276D01*
X134595276Y-113900535D01*
X134595272Y-113900540D01*
X134470379Y-114072442D01*
X134373904Y-114261782D01*
X134308242Y-114463870D01*
X134308242Y-114463873D01*
X134297769Y-114530000D01*
X135191988Y-114530000D01*
X135159075Y-114587007D01*
X135125000Y-114714174D01*
X135125000Y-114845826D01*
X135159075Y-114972993D01*
X135191988Y-115030000D01*
X134297769Y-115030000D01*
X134308242Y-115096126D01*
X134308242Y-115096129D01*
X134373904Y-115298217D01*
X134470379Y-115487557D01*
X134595272Y-115659459D01*
X134595276Y-115659464D01*
X134745535Y-115809723D01*
X134745540Y-115809727D01*
X134917444Y-115934622D01*
X134926495Y-115939234D01*
X134977292Y-115987208D01*
X134994087Y-116055029D01*
X134971550Y-116121164D01*
X134926499Y-116160202D01*
X134917182Y-116164949D01*
X134745213Y-116289890D01*
X134594890Y-116440213D01*
X134469951Y-116612179D01*
X134373444Y-116801584D01*
X134369468Y-116813822D01*
X134330029Y-116871496D01*
X134265669Y-116898692D01*
X134251538Y-116899500D01*
X132038585Y-116899500D01*
X131971546Y-116879815D01*
X131925791Y-116827011D01*
X131920879Y-116814504D01*
X131916598Y-116801584D01*
X131884814Y-116705666D01*
X131792712Y-116556344D01*
X131668656Y-116432288D01*
X131519334Y-116340186D01*
X131352797Y-116285001D01*
X131352795Y-116285000D01*
X131250010Y-116274500D01*
X130649998Y-116274500D01*
X130649980Y-116274501D01*
X130547203Y-116285000D01*
X130547200Y-116285001D01*
X130380668Y-116340185D01*
X130380663Y-116340187D01*
X130231342Y-116432289D01*
X130107288Y-116556343D01*
X130107283Y-116556349D01*
X130105241Y-116559661D01*
X130103247Y-116561453D01*
X130102807Y-116562011D01*
X130102711Y-116561935D01*
X130053291Y-116606383D01*
X129984328Y-116617602D01*
X129920247Y-116589755D01*
X129894168Y-116559656D01*
X129892319Y-116556659D01*
X129892316Y-116556655D01*
X129768345Y-116432684D01*
X129619124Y-116340643D01*
X129619119Y-116340641D01*
X129452697Y-116285494D01*
X129452690Y-116285493D01*
X129349986Y-116275000D01*
X129300000Y-116275000D01*
X128800000Y-116275000D01*
X128799999Y-116274999D01*
X128750029Y-116275000D01*
X128750011Y-116275001D01*
X128647302Y-116285494D01*
X128480880Y-116340641D01*
X128480875Y-116340643D01*
X128331654Y-116432684D01*
X128207684Y-116556654D01*
X128115643Y-116705875D01*
X128115641Y-116705880D01*
X128060494Y-116872302D01*
X128060493Y-116872309D01*
X128050000Y-116975013D01*
X119418704Y-116975013D01*
X116919142Y-114475451D01*
X116885657Y-114414128D01*
X116882823Y-114387770D01*
X116882823Y-113624499D01*
X116902508Y-113557460D01*
X116955312Y-113511705D01*
X117006823Y-113500499D01*
X117180194Y-113500499D01*
X117180195Y-113500499D01*
X117239806Y-113494091D01*
X117374654Y-113443796D01*
X117489869Y-113357546D01*
X117576119Y-113242331D01*
X117626414Y-113107483D01*
X117632823Y-113047873D01*
X117632822Y-111881947D01*
X119632323Y-111881947D01*
X119632323Y-112118052D01*
X119669257Y-112351247D01*
X119742220Y-112575802D01*
X119849410Y-112786174D01*
X119909661Y-112869104D01*
X119909663Y-112869105D01*
X120649360Y-112129408D01*
X120666398Y-112192993D01*
X120732224Y-112307007D01*
X120825316Y-112400099D01*
X120939330Y-112465925D01*
X121002913Y-112482962D01*
X120263216Y-113222658D01*
X120346151Y-113282914D01*
X120556520Y-113390102D01*
X120781075Y-113463065D01*
X120781074Y-113463065D01*
X121014271Y-113500000D01*
X121250375Y-113500000D01*
X121483570Y-113463065D01*
X121708125Y-113390102D01*
X121918486Y-113282918D01*
X121918492Y-113282914D01*
X122001427Y-113222658D01*
X122001428Y-113222658D01*
X121261731Y-112482962D01*
X121325316Y-112465925D01*
X121439330Y-112400099D01*
X121532422Y-112307007D01*
X121598248Y-112192993D01*
X121615285Y-112129409D01*
X122354981Y-112869105D01*
X122354981Y-112869104D01*
X122415237Y-112786169D01*
X122415241Y-112786163D01*
X122522425Y-112575802D01*
X122574798Y-112414618D01*
X122574798Y-112414617D01*
X122595388Y-112351245D01*
X122632323Y-112118052D01*
X122632323Y-111881947D01*
X122595388Y-111648752D01*
X122522425Y-111424197D01*
X122415237Y-111213828D01*
X122354981Y-111130894D01*
X122354981Y-111130893D01*
X121615285Y-111870590D01*
X121598248Y-111807007D01*
X121532422Y-111692993D01*
X121439330Y-111599901D01*
X121325316Y-111534075D01*
X121261732Y-111517037D01*
X122001428Y-110777340D01*
X122001427Y-110777338D01*
X121918497Y-110717087D01*
X121708125Y-110609897D01*
X121483570Y-110536934D01*
X121483571Y-110536934D01*
X121250375Y-110500000D01*
X121014271Y-110500000D01*
X120781075Y-110536934D01*
X120556520Y-110609897D01*
X120346153Y-110717084D01*
X120263217Y-110777340D01*
X121002914Y-111517037D01*
X120939330Y-111534075D01*
X120825316Y-111599901D01*
X120732224Y-111692993D01*
X120666398Y-111807007D01*
X120649360Y-111870591D01*
X119909663Y-111130894D01*
X119849407Y-111213830D01*
X119742220Y-111424197D01*
X119669257Y-111648752D01*
X119632323Y-111881947D01*
X117632822Y-111881947D01*
X117632822Y-110952128D01*
X117626414Y-110892517D01*
X117626413Y-110892514D01*
X117617245Y-110867931D01*
X117576120Y-110757671D01*
X117576116Y-110757664D01*
X117489870Y-110642455D01*
X117489867Y-110642452D01*
X117374658Y-110556206D01*
X117374651Y-110556202D01*
X117239805Y-110505908D01*
X117239806Y-110505908D01*
X117180206Y-110499501D01*
X117180204Y-110499500D01*
X117180196Y-110499500D01*
X117180187Y-110499500D01*
X115084452Y-110499500D01*
X115084446Y-110499501D01*
X115024839Y-110505908D01*
X114889994Y-110556202D01*
X114889987Y-110556206D01*
X114774778Y-110642452D01*
X114774775Y-110642455D01*
X114688529Y-110757664D01*
X114688525Y-110757671D01*
X114638231Y-110892517D01*
X114635410Y-110918760D01*
X114631824Y-110952123D01*
X114631823Y-110952135D01*
X114631823Y-113047870D01*
X114631824Y-113047876D01*
X114638231Y-113107483D01*
X114688525Y-113242328D01*
X114688529Y-113242335D01*
X114774775Y-113357544D01*
X114774778Y-113357547D01*
X114889987Y-113443793D01*
X114889994Y-113443797D01*
X114934941Y-113460561D01*
X115024840Y-113494091D01*
X115084450Y-113500500D01*
X115257823Y-113500499D01*
X115324862Y-113520183D01*
X115370617Y-113572987D01*
X115381823Y-113624499D01*
X115381823Y-113875500D01*
X115362138Y-113942539D01*
X115309334Y-113988294D01*
X115257823Y-113999500D01*
X109939987Y-113999500D01*
X109872948Y-113979815D01*
X109827193Y-113927011D01*
X109817249Y-113857853D01*
X109846274Y-113794297D01*
X109874890Y-113769961D01*
X109968346Y-113712316D01*
X110092316Y-113588346D01*
X110184357Y-113439125D01*
X110184359Y-113439120D01*
X110239505Y-113272698D01*
X110249999Y-113169988D01*
X110250000Y-113169975D01*
X110250000Y-112245000D01*
X102850001Y-112245000D01*
X102850001Y-113169988D01*
X102860494Y-113272699D01*
X102915640Y-113439120D01*
X102915642Y-113439125D01*
X103007683Y-113588346D01*
X103131653Y-113712316D01*
X103225110Y-113769961D01*
X103271834Y-113821909D01*
X103283057Y-113890872D01*
X103255213Y-113954954D01*
X103197144Y-113993810D01*
X103160013Y-113999500D01*
X102612229Y-113999500D01*
X102545190Y-113979815D01*
X102524548Y-113963181D01*
X101879269Y-113317902D01*
X101845784Y-113256579D01*
X101843592Y-113217623D01*
X101850500Y-113150009D01*
X101850499Y-112349992D01*
X101847650Y-112322106D01*
X101839999Y-112247203D01*
X101839998Y-112247200D01*
X101833872Y-112228713D01*
X101784814Y-112080666D01*
X101692712Y-111931344D01*
X101568656Y-111807288D01*
X101467669Y-111744999D01*
X102850000Y-111744999D01*
X102850002Y-111745000D01*
X104625000Y-111745000D01*
X105125000Y-111745000D01*
X107975000Y-111745000D01*
X108475000Y-111745000D01*
X110249999Y-111745000D01*
X110249999Y-110720000D01*
X108475000Y-110720000D01*
X108475000Y-111745000D01*
X107975000Y-111745000D01*
X107975000Y-110720000D01*
X105125000Y-110720000D01*
X105125000Y-111745000D01*
X104625000Y-111745000D01*
X104625000Y-110720000D01*
X102850000Y-110720000D01*
X102850000Y-111744999D01*
X101467669Y-111744999D01*
X101419428Y-111715244D01*
X101372705Y-111663297D01*
X101361482Y-111594334D01*
X101389326Y-111530252D01*
X101419430Y-111504167D01*
X101568343Y-111412317D01*
X101692315Y-111288345D01*
X101784356Y-111139124D01*
X101784358Y-111139119D01*
X101839505Y-110972697D01*
X101839506Y-110972690D01*
X101849999Y-110869986D01*
X101850000Y-110869973D01*
X101850000Y-110720000D01*
X98650001Y-110720000D01*
X98650001Y-110869986D01*
X98660494Y-110972697D01*
X98715641Y-111139119D01*
X98715643Y-111139124D01*
X98807684Y-111288345D01*
X98931654Y-111412315D01*
X99080570Y-111504167D01*
X99127294Y-111556115D01*
X99138517Y-111625078D01*
X99110673Y-111689160D01*
X99080570Y-111715245D01*
X98931342Y-111807289D01*
X98807287Y-111931344D01*
X98801580Y-111940598D01*
X98749632Y-111987322D01*
X98696042Y-111999500D01*
X96327953Y-111999500D01*
X96260914Y-111979815D01*
X96215159Y-111927011D01*
X96205215Y-111857853D01*
X96210247Y-111836496D01*
X96219925Y-111807289D01*
X96265349Y-111670208D01*
X96275500Y-111570845D01*
X96275499Y-110724156D01*
X96275074Y-110720000D01*
X96265349Y-110624792D01*
X96265348Y-110624789D01*
X96256426Y-110597864D01*
X96212003Y-110463803D01*
X96211999Y-110463797D01*
X96211998Y-110463794D01*
X96122970Y-110319459D01*
X96122967Y-110319455D01*
X96111819Y-110308307D01*
X96078334Y-110246984D01*
X96075500Y-110220626D01*
X96075500Y-109272000D01*
X96095185Y-109204961D01*
X96147989Y-109159206D01*
X96199500Y-109148000D01*
X98920963Y-109148000D01*
X98937519Y-109152695D01*
X98953688Y-109152396D01*
X98986059Y-109166461D01*
X99080569Y-109224754D01*
X99127294Y-109276701D01*
X99138517Y-109345664D01*
X99110674Y-109409746D01*
X99080570Y-109435831D01*
X98931659Y-109527680D01*
X98931655Y-109527683D01*
X98807684Y-109651654D01*
X98715643Y-109800875D01*
X98715641Y-109800880D01*
X98660494Y-109967302D01*
X98660493Y-109967309D01*
X98650000Y-110070013D01*
X98650000Y-110220000D01*
X101849999Y-110220000D01*
X102850000Y-110220000D01*
X104625000Y-110220000D01*
X105125000Y-110220000D01*
X106300000Y-110220000D01*
X106800000Y-110220000D01*
X107975000Y-110220000D01*
X108475000Y-110220000D01*
X110249999Y-110220000D01*
X110249999Y-110126113D01*
X110250000Y-110126092D01*
X110250000Y-110024986D01*
X128100001Y-110024986D01*
X128110494Y-110127697D01*
X128165641Y-110294119D01*
X128165643Y-110294124D01*
X128257684Y-110443345D01*
X128381654Y-110567315D01*
X128530875Y-110659356D01*
X128530880Y-110659358D01*
X128697302Y-110714505D01*
X128697309Y-110714506D01*
X128800019Y-110724999D01*
X128849999Y-110724998D01*
X128850000Y-110724998D01*
X128850000Y-109750000D01*
X128100001Y-109750000D01*
X128100001Y-110024986D01*
X110250000Y-110024986D01*
X110250000Y-109195000D01*
X108475000Y-109195000D01*
X108475000Y-110220000D01*
X107975000Y-110220000D01*
X107975000Y-109195000D01*
X106800000Y-109195000D01*
X106800000Y-110220000D01*
X106300000Y-110220000D01*
X106300000Y-109195000D01*
X105125000Y-109195000D01*
X105125000Y-110220000D01*
X104625000Y-110220000D01*
X104625000Y-109195000D01*
X102850000Y-109195000D01*
X102850000Y-110220000D01*
X101849999Y-110220000D01*
X101849999Y-110070028D01*
X101849998Y-110070013D01*
X101839505Y-109967302D01*
X101784358Y-109800880D01*
X101784356Y-109800875D01*
X101692315Y-109651654D01*
X101568345Y-109527684D01*
X101419429Y-109435832D01*
X101372705Y-109383884D01*
X101361482Y-109314921D01*
X101389326Y-109250839D01*
X101419426Y-109224756D01*
X101568656Y-109132712D01*
X101692712Y-109008656D01*
X101713463Y-108975013D01*
X128100000Y-108975013D01*
X128100000Y-109250000D01*
X128850000Y-109250000D01*
X128850000Y-108275000D01*
X128849999Y-108274999D01*
X128800029Y-108275000D01*
X128800011Y-108275001D01*
X128697302Y-108285494D01*
X128530880Y-108340641D01*
X128530875Y-108340643D01*
X128381654Y-108432684D01*
X128257684Y-108556654D01*
X128165643Y-108705875D01*
X128165641Y-108705880D01*
X128110494Y-108872302D01*
X128110493Y-108872309D01*
X128100000Y-108975013D01*
X101713463Y-108975013D01*
X101784814Y-108859334D01*
X101839999Y-108692797D01*
X101850500Y-108590009D01*
X101850499Y-107789992D01*
X101850427Y-107789292D01*
X101849424Y-107779460D01*
X101848458Y-107770011D01*
X102850000Y-107770011D01*
X102850000Y-108695000D01*
X104625000Y-108695000D01*
X105125000Y-108695000D01*
X106300000Y-108695000D01*
X106800000Y-108695000D01*
X107975000Y-108695000D01*
X108475000Y-108695000D01*
X110249999Y-108695000D01*
X110249999Y-107770028D01*
X110249998Y-107770013D01*
X110240148Y-107673589D01*
X110239976Y-107670219D01*
X110239505Y-107667300D01*
X110184359Y-107500879D01*
X110184357Y-107500874D01*
X110092316Y-107351653D01*
X109968346Y-107227683D01*
X109819125Y-107135642D01*
X109819120Y-107135640D01*
X109652698Y-107080494D01*
X109549988Y-107070000D01*
X108475000Y-107070000D01*
X108475000Y-108695000D01*
X107975000Y-108695000D01*
X107975000Y-107070000D01*
X106800000Y-107070000D01*
X106800000Y-108695000D01*
X106300000Y-108695000D01*
X106300000Y-107070000D01*
X105125000Y-107070000D01*
X105125000Y-108695000D01*
X104625000Y-108695000D01*
X104625000Y-107070000D01*
X103549197Y-107070000D01*
X103546364Y-107070374D01*
X103447300Y-107080494D01*
X103280879Y-107135640D01*
X103280874Y-107135642D01*
X103131653Y-107227683D01*
X103007683Y-107351653D01*
X102915642Y-107500874D01*
X102915640Y-107500879D01*
X102860494Y-107667301D01*
X102850000Y-107770011D01*
X101848458Y-107770011D01*
X101844827Y-107734474D01*
X101839999Y-107687203D01*
X101784814Y-107520666D01*
X101692712Y-107371344D01*
X101568656Y-107247288D01*
X101419334Y-107155186D01*
X101252797Y-107100001D01*
X101252795Y-107100000D01*
X101150010Y-107089500D01*
X99349998Y-107089500D01*
X99349981Y-107089501D01*
X99247203Y-107100000D01*
X99247200Y-107100001D01*
X99080668Y-107155185D01*
X99080663Y-107155187D01*
X98931342Y-107247289D01*
X98807289Y-107371342D01*
X98715187Y-107520663D01*
X98715186Y-107520666D01*
X98701488Y-107562005D01*
X98661715Y-107619449D01*
X98597199Y-107646272D01*
X98583782Y-107647000D01*
X95678558Y-107647000D01*
X95611519Y-107627315D01*
X95573019Y-107588097D01*
X95490212Y-107453844D01*
X95366156Y-107329788D01*
X95232403Y-107247289D01*
X95216836Y-107237687D01*
X95216831Y-107237685D01*
X95186647Y-107227683D01*
X95050297Y-107182501D01*
X95050295Y-107182500D01*
X94947510Y-107172000D01*
X94347498Y-107172000D01*
X94347480Y-107172001D01*
X94244703Y-107182500D01*
X94244700Y-107182501D01*
X94078168Y-107237685D01*
X94078163Y-107237687D01*
X93928842Y-107329789D01*
X93804788Y-107453843D01*
X93804783Y-107453849D01*
X93802741Y-107457161D01*
X93800747Y-107458953D01*
X93800307Y-107459511D01*
X93800211Y-107459435D01*
X93750791Y-107503883D01*
X93681828Y-107515102D01*
X93617747Y-107487255D01*
X93591668Y-107457156D01*
X93589819Y-107454159D01*
X93589816Y-107454155D01*
X93465845Y-107330184D01*
X93316624Y-107238143D01*
X93316619Y-107238141D01*
X93150197Y-107182994D01*
X93150190Y-107182993D01*
X93047486Y-107172500D01*
X92997500Y-107172500D01*
X92997500Y-109622499D01*
X93047472Y-109622499D01*
X93047486Y-109622498D01*
X93150197Y-109612005D01*
X93316619Y-109556858D01*
X93316624Y-109556856D01*
X93465845Y-109464815D01*
X93589818Y-109340842D01*
X93591665Y-109337848D01*
X93593469Y-109336224D01*
X93594298Y-109335177D01*
X93594476Y-109335318D01*
X93643610Y-109291121D01*
X93712573Y-109279896D01*
X93776656Y-109307736D01*
X93802743Y-109337841D01*
X93804788Y-109341156D01*
X93928844Y-109465212D01*
X94078166Y-109557314D01*
X94244703Y-109612499D01*
X94347491Y-109623000D01*
X94450500Y-109622999D01*
X94517538Y-109642683D01*
X94563294Y-109695486D01*
X94574500Y-109746999D01*
X94574500Y-110220626D01*
X94554815Y-110287665D01*
X94538181Y-110308307D01*
X94527032Y-110319455D01*
X94527029Y-110319459D01*
X94438001Y-110463794D01*
X94437996Y-110463805D01*
X94384651Y-110624790D01*
X94374500Y-110724147D01*
X94374500Y-111570837D01*
X94374501Y-111570855D01*
X94384650Y-111670207D01*
X94384651Y-111670210D01*
X94437996Y-111831194D01*
X94438001Y-111831205D01*
X94527029Y-111975540D01*
X94527032Y-111975544D01*
X94646955Y-112095467D01*
X94646959Y-112095470D01*
X94791294Y-112184498D01*
X94791297Y-112184499D01*
X94791303Y-112184503D01*
X94898629Y-112220067D01*
X94952291Y-112237849D01*
X94958978Y-112238532D01*
X95023670Y-112264926D01*
X95063823Y-112322106D01*
X95066688Y-112391917D01*
X95034059Y-112449571D01*
X94847949Y-112635681D01*
X94786626Y-112669166D01*
X94760268Y-112672000D01*
X94347498Y-112672000D01*
X94347480Y-112672001D01*
X94244703Y-112682500D01*
X94244700Y-112682501D01*
X94078168Y-112737685D01*
X94078163Y-112737687D01*
X93928842Y-112829789D01*
X93804788Y-112953843D01*
X93804783Y-112953849D01*
X93802741Y-112957161D01*
X93800747Y-112958953D01*
X93800307Y-112959511D01*
X93800211Y-112959435D01*
X93750791Y-113003883D01*
X93681828Y-113015102D01*
X93617747Y-112987255D01*
X93591668Y-112957156D01*
X93589819Y-112954159D01*
X93589816Y-112954155D01*
X93465845Y-112830184D01*
X93316624Y-112738143D01*
X93316619Y-112738141D01*
X93150197Y-112682994D01*
X93150190Y-112682993D01*
X93047486Y-112672500D01*
X92997500Y-112672500D01*
X92997500Y-115122499D01*
X93047472Y-115122499D01*
X93047486Y-115122498D01*
X93150197Y-115112005D01*
X93316619Y-115056858D01*
X93316624Y-115056856D01*
X93465845Y-114964815D01*
X93589818Y-114840842D01*
X93591665Y-114837848D01*
X93593469Y-114836224D01*
X93594298Y-114835177D01*
X93594476Y-114835318D01*
X93643610Y-114791121D01*
X93712573Y-114779896D01*
X93776656Y-114807736D01*
X93802743Y-114837841D01*
X93804788Y-114841156D01*
X93928844Y-114965212D01*
X94078166Y-115057314D01*
X94244703Y-115112499D01*
X94347491Y-115123000D01*
X94947508Y-115122999D01*
X94947516Y-115122998D01*
X94947519Y-115122998D01*
X95003802Y-115117248D01*
X95050297Y-115112499D01*
X95216834Y-115057314D01*
X95366156Y-114965212D01*
X95490212Y-114841156D01*
X95582314Y-114691834D01*
X95637499Y-114525297D01*
X95648000Y-114422509D01*
X95647999Y-114009728D01*
X95667683Y-113942690D01*
X95684313Y-113922053D01*
X96069549Y-113536819D01*
X96130872Y-113503334D01*
X96157230Y-113500500D01*
X98696042Y-113500500D01*
X98763081Y-113520185D01*
X98801580Y-113559402D01*
X98807288Y-113568656D01*
X98931344Y-113692712D01*
X99080666Y-113784814D01*
X99247203Y-113839999D01*
X99349991Y-113850500D01*
X100237769Y-113850499D01*
X100304808Y-113870183D01*
X100325450Y-113886818D01*
X101513181Y-115074548D01*
X101546666Y-115135871D01*
X101549500Y-115162229D01*
X101549500Y-116762770D01*
X101529815Y-116829809D01*
X101513181Y-116850451D01*
X101457289Y-116906342D01*
X101365187Y-117055663D01*
X101365185Y-117055668D01*
X101365115Y-117055880D01*
X101310001Y-117222203D01*
X101310001Y-117222204D01*
X101310000Y-117222204D01*
X101299500Y-117324983D01*
X101299500Y-118375001D01*
X101299501Y-118375019D01*
X101310000Y-118477796D01*
X101310001Y-118477799D01*
X101365185Y-118644331D01*
X101365187Y-118644336D01*
X101374453Y-118659358D01*
X101457096Y-118793345D01*
X101457289Y-118793657D01*
X101513181Y-118849549D01*
X101546666Y-118910872D01*
X101549500Y-118937230D01*
X101549500Y-120305500D01*
X101529815Y-120372539D01*
X101477011Y-120418294D01*
X101425500Y-120429500D01*
X99884298Y-120429500D01*
X99847432Y-120432401D01*
X99847426Y-120432402D01*
X99689606Y-120478254D01*
X99689603Y-120478255D01*
X99548137Y-120561917D01*
X99548129Y-120561923D01*
X99516874Y-120593180D01*
X99455552Y-120626666D01*
X99429192Y-120629500D01*
X95935943Y-120629500D01*
X95783214Y-120670423D01*
X95735952Y-120697711D01*
X95735950Y-120697711D01*
X95646290Y-120749475D01*
X95646282Y-120749481D01*
X95534478Y-120861286D01*
X94782582Y-121613181D01*
X94721259Y-121646666D01*
X94694901Y-121649500D01*
X94147498Y-121649500D01*
X94147480Y-121649501D01*
X94044703Y-121660000D01*
X94044700Y-121660001D01*
X93878168Y-121715185D01*
X93878163Y-121715187D01*
X93728842Y-121807289D01*
X93604789Y-121931342D01*
X93512687Y-122080663D01*
X93512685Y-122080668D01*
X93497104Y-122127690D01*
X93457501Y-122247203D01*
X93457501Y-122247204D01*
X93457500Y-122247204D01*
X93447000Y-122349983D01*
X93447000Y-123350001D01*
X93447001Y-123350019D01*
X93457500Y-123452796D01*
X93457501Y-123452799D01*
X93512685Y-123619331D01*
X93512687Y-123619336D01*
X93542867Y-123668265D01*
X93604788Y-123768656D01*
X93728844Y-123892712D01*
X93878166Y-123984814D01*
X94044703Y-124039999D01*
X94147491Y-124050500D01*
X94772508Y-124050499D01*
X94772516Y-124050498D01*
X94772519Y-124050498D01*
X94850745Y-124042507D01*
X94875297Y-124039999D01*
X95041834Y-123984814D01*
X95191156Y-123892712D01*
X95284819Y-123799049D01*
X95287597Y-123797531D01*
X95289250Y-123794831D01*
X95318063Y-123780896D01*
X95346142Y-123765564D01*
X95349299Y-123765789D01*
X95352150Y-123764411D01*
X95383916Y-123768265D01*
X95415834Y-123770548D01*
X95419312Y-123772560D01*
X95421511Y-123772827D01*
X95431608Y-123779673D01*
X95451616Y-123791249D01*
X95456079Y-123794947D01*
X95553844Y-123892712D01*
X95632955Y-123941508D01*
X95639615Y-123947026D01*
X95654507Y-123969112D01*
X95672320Y-123988916D01*
X95674586Y-123998891D01*
X95678677Y-124004957D01*
X95678968Y-124018171D01*
X95684499Y-124042507D01*
X95684499Y-124114054D01*
X95684498Y-124114054D01*
X95684499Y-124114057D01*
X95725423Y-124266785D01*
X95747487Y-124305000D01*
X95754358Y-124316900D01*
X95754359Y-124316904D01*
X95754360Y-124316904D01*
X95795484Y-124388135D01*
X95804479Y-124403714D01*
X95804481Y-124403717D01*
X95923349Y-124522585D01*
X95923355Y-124522590D01*
X98075139Y-126674374D01*
X98075149Y-126674385D01*
X98079479Y-126678715D01*
X98079480Y-126678716D01*
X98191284Y-126790520D01*
X98254629Y-126827091D01*
X98278095Y-126840639D01*
X98278097Y-126840641D01*
X98316151Y-126862611D01*
X98328215Y-126869577D01*
X98480943Y-126910501D01*
X98480946Y-126910501D01*
X98646653Y-126910501D01*
X98646669Y-126910500D01*
X99284093Y-126910500D01*
X99290552Y-126912396D01*
X99297179Y-126911192D01*
X99323658Y-126922117D01*
X99351132Y-126930185D01*
X99355540Y-126935272D01*
X99361767Y-126937842D01*
X99378136Y-126961349D01*
X99396887Y-126982989D01*
X99397845Y-126989652D01*
X99401694Y-126995180D01*
X99402755Y-127023801D01*
X99406831Y-127052147D01*
X99404094Y-127059920D01*
X99404283Y-127065001D01*
X99390821Y-127097627D01*
X99380967Y-127114287D01*
X99361921Y-127138840D01*
X99289480Y-127211283D01*
X99289478Y-127211286D01*
X98747631Y-127753134D01*
X98237584Y-128263181D01*
X98210656Y-128277884D01*
X98184838Y-128294477D01*
X98178637Y-128295368D01*
X98176261Y-128296666D01*
X98149903Y-128299500D01*
X98049113Y-128299500D01*
X97982074Y-128279815D01*
X97936319Y-128227011D01*
X97932704Y-128217807D01*
X97932000Y-128216297D01*
X97842968Y-128071956D01*
X97723044Y-127952032D01*
X97723040Y-127952029D01*
X97578705Y-127863001D01*
X97578699Y-127862998D01*
X97578697Y-127862997D01*
X97545607Y-127852032D01*
X97417709Y-127809651D01*
X97318346Y-127799500D01*
X96771662Y-127799500D01*
X96771644Y-127799501D01*
X96672292Y-127809650D01*
X96672289Y-127809651D01*
X96511305Y-127862996D01*
X96511294Y-127863001D01*
X96366959Y-127952029D01*
X96366955Y-127952032D01*
X96247032Y-128071955D01*
X96247029Y-128071959D01*
X96158001Y-128216294D01*
X96157996Y-128216305D01*
X96104651Y-128377290D01*
X96094500Y-128476647D01*
X96094500Y-129323337D01*
X96094501Y-129323355D01*
X96104650Y-129422707D01*
X96104651Y-129422710D01*
X96125788Y-129486496D01*
X96128190Y-129556324D01*
X96092458Y-129616366D01*
X96029938Y-129647559D01*
X96008082Y-129649500D01*
X94781918Y-129649500D01*
X94714879Y-129629815D01*
X94669124Y-129577011D01*
X94659180Y-129507853D01*
X94664212Y-129486496D01*
X94666426Y-129479815D01*
X94685349Y-129422708D01*
X94695500Y-129323345D01*
X94695499Y-128476656D01*
X94687885Y-128402123D01*
X94685349Y-128377292D01*
X94685348Y-128377289D01*
X94672859Y-128339599D01*
X94632003Y-128216303D01*
X94631999Y-128216297D01*
X94631998Y-128216294D01*
X94542970Y-128071959D01*
X94542967Y-128071955D01*
X94423044Y-127952032D01*
X94423040Y-127952029D01*
X94278705Y-127863001D01*
X94278699Y-127862998D01*
X94278697Y-127862997D01*
X94245607Y-127852032D01*
X94117709Y-127809651D01*
X94018346Y-127799500D01*
X93471662Y-127799500D01*
X93471644Y-127799501D01*
X93372292Y-127809650D01*
X93372289Y-127809651D01*
X93211305Y-127862996D01*
X93211294Y-127863001D01*
X93066959Y-127952029D01*
X93066955Y-127952032D01*
X92947032Y-128071955D01*
X92947029Y-128071959D01*
X92858001Y-128216294D01*
X92857996Y-128216305D01*
X92804651Y-128377290D01*
X92794500Y-128476647D01*
X92794500Y-129323337D01*
X92794501Y-129323355D01*
X92804650Y-129422707D01*
X92804651Y-129422710D01*
X92857996Y-129583694D01*
X92858001Y-129583705D01*
X92947029Y-129728040D01*
X92947032Y-129728044D01*
X93063181Y-129844193D01*
X93096666Y-129905516D01*
X93099500Y-129931874D01*
X93099500Y-130959995D01*
X93079815Y-131027034D01*
X93040600Y-131065532D01*
X93021954Y-131077033D01*
X92902029Y-131196959D01*
X92813001Y-131341294D01*
X92812996Y-131341305D01*
X92759651Y-131502290D01*
X92749500Y-131601647D01*
X92749500Y-132448337D01*
X92749501Y-132448355D01*
X92759650Y-132547707D01*
X92759651Y-132547710D01*
X92812996Y-132708694D01*
X92813001Y-132708705D01*
X92902029Y-132853040D01*
X92902032Y-132853044D01*
X93021955Y-132972967D01*
X93021959Y-132972970D01*
X93166294Y-133061998D01*
X93166297Y-133061999D01*
X93166303Y-133062003D01*
X93327292Y-133115349D01*
X93426655Y-133125500D01*
X93973344Y-133125499D01*
X93973352Y-133125498D01*
X93973355Y-133125498D01*
X94027760Y-133119940D01*
X94072708Y-133115349D01*
X94233697Y-133062003D01*
X94378044Y-132972968D01*
X94497968Y-132853044D01*
X94587003Y-132708697D01*
X94640349Y-132547708D01*
X94650500Y-132448345D01*
X94650499Y-131601656D01*
X94645864Y-131556286D01*
X94640349Y-131502292D01*
X94640348Y-131502289D01*
X94624898Y-131455663D01*
X94587003Y-131341303D01*
X94586999Y-131341297D01*
X94586998Y-131341294D01*
X94497970Y-131196959D01*
X94497969Y-131196958D01*
X94497968Y-131196956D01*
X94378044Y-131077032D01*
X94378043Y-131077031D01*
X94372383Y-131072556D01*
X94374161Y-131070306D01*
X94336188Y-131028079D01*
X94324973Y-130959115D01*
X94352823Y-130895036D01*
X94410896Y-130856186D01*
X94448015Y-130850500D01*
X96251985Y-130850500D01*
X96319024Y-130870185D01*
X96364779Y-130922989D01*
X96374723Y-130992147D01*
X96345698Y-131055703D01*
X96326923Y-131071666D01*
X96327623Y-131072551D01*
X96321955Y-131077032D01*
X96202032Y-131196955D01*
X96202029Y-131196959D01*
X96113001Y-131341294D01*
X96112996Y-131341305D01*
X96059651Y-131502290D01*
X96049500Y-131601647D01*
X96049500Y-132448337D01*
X96049501Y-132448355D01*
X96059650Y-132547707D01*
X96059651Y-132547710D01*
X96112996Y-132708694D01*
X96113001Y-132708705D01*
X96202029Y-132853040D01*
X96202032Y-132853044D01*
X96321955Y-132972967D01*
X96321959Y-132972970D01*
X96466294Y-133061998D01*
X96466297Y-133061999D01*
X96466303Y-133062003D01*
X96627292Y-133115349D01*
X96726655Y-133125500D01*
X97199902Y-133125499D01*
X97266941Y-133145183D01*
X97287583Y-133161818D01*
X97715139Y-133589374D01*
X97715149Y-133589385D01*
X97719479Y-133593715D01*
X97719480Y-133593716D01*
X97831284Y-133705520D01*
X97918095Y-133755639D01*
X97918097Y-133755641D01*
X97968213Y-133784576D01*
X97968215Y-133784577D01*
X98120942Y-133825500D01*
X98120943Y-133825500D01*
X99451985Y-133825500D01*
X99519024Y-133845185D01*
X99564779Y-133897989D01*
X99574723Y-133967147D01*
X99545698Y-134030703D01*
X99526923Y-134046666D01*
X99527623Y-134047551D01*
X99521955Y-134052032D01*
X99402031Y-134171956D01*
X99312999Y-134316297D01*
X99309947Y-134322845D01*
X99308338Y-134322095D01*
X99273816Y-134371953D01*
X99209299Y-134398773D01*
X99195887Y-134399500D01*
X96588585Y-134399500D01*
X96521546Y-134379815D01*
X96475791Y-134327011D01*
X96470879Y-134314504D01*
X96434814Y-134205666D01*
X96342712Y-134056344D01*
X96218656Y-133932288D01*
X96069334Y-133840186D01*
X95902797Y-133785001D01*
X95902795Y-133785000D01*
X95800010Y-133774500D01*
X95199998Y-133774500D01*
X95199980Y-133774501D01*
X95097203Y-133785000D01*
X95097200Y-133785001D01*
X94930668Y-133840185D01*
X94930663Y-133840187D01*
X94781342Y-133932289D01*
X94657288Y-134056343D01*
X94657283Y-134056349D01*
X94655241Y-134059661D01*
X94653247Y-134061453D01*
X94652807Y-134062011D01*
X94652711Y-134061935D01*
X94603291Y-134106383D01*
X94534328Y-134117602D01*
X94470247Y-134089755D01*
X94444168Y-134059656D01*
X94442319Y-134056659D01*
X94442316Y-134056655D01*
X94318345Y-133932684D01*
X94169124Y-133840643D01*
X94169119Y-133840641D01*
X94002697Y-133785494D01*
X94002690Y-133785493D01*
X93899986Y-133775000D01*
X93850000Y-133775000D01*
X93850000Y-136224999D01*
X93899972Y-136224999D01*
X93899986Y-136224998D01*
X94002697Y-136214505D01*
X94169119Y-136159358D01*
X94169124Y-136159356D01*
X94318345Y-136067315D01*
X94442318Y-135943342D01*
X94444165Y-135940348D01*
X94445969Y-135938724D01*
X94446798Y-135937677D01*
X94446976Y-135937818D01*
X94496110Y-135893621D01*
X94565073Y-135882396D01*
X94629156Y-135910236D01*
X94655243Y-135940341D01*
X94657288Y-135943656D01*
X94781344Y-136067712D01*
X94930666Y-136159814D01*
X94930667Y-136159814D01*
X94936813Y-136163605D01*
X94936158Y-136164666D01*
X94983065Y-136205965D01*
X95002219Y-136273158D01*
X94982006Y-136340039D01*
X94965904Y-136359859D01*
X93428310Y-137897453D01*
X93366987Y-137930938D01*
X93321231Y-137932245D01*
X93203520Y-137913601D01*
X93146055Y-137904500D01*
X92953945Y-137904500D01*
X92890696Y-137914517D01*
X92764197Y-137934553D01*
X92581493Y-137993916D01*
X92410318Y-138081135D01*
X92321645Y-138145560D01*
X92254898Y-138194055D01*
X92254896Y-138194057D01*
X92254895Y-138194057D01*
X92119057Y-138329895D01*
X92119057Y-138329896D01*
X92119055Y-138329898D01*
X92070560Y-138396645D01*
X92006135Y-138485318D01*
X91918916Y-138656493D01*
X91859553Y-138839197D01*
X91829500Y-139028945D01*
X91829500Y-139221054D01*
X91857245Y-139396231D01*
X91848290Y-139465525D01*
X91822453Y-139503310D01*
X90888310Y-140437453D01*
X90826987Y-140470938D01*
X90781231Y-140472245D01*
X90663520Y-140453601D01*
X90606055Y-140444500D01*
X90413945Y-140444500D01*
X90350696Y-140454517D01*
X90224197Y-140474553D01*
X90041493Y-140533916D01*
X89870318Y-140621135D01*
X89781645Y-140685560D01*
X89714898Y-140734055D01*
X89714896Y-140734057D01*
X89714895Y-140734057D01*
X89579057Y-140869895D01*
X89579057Y-140869896D01*
X89579055Y-140869898D01*
X89530560Y-140936645D01*
X89466135Y-141025318D01*
X89378916Y-141196493D01*
X89319553Y-141379197D01*
X89289500Y-141568945D01*
X75500500Y-141568945D01*
X75500500Y-139374038D01*
X77399500Y-139374038D01*
X77399500Y-139625961D01*
X77438910Y-139874785D01*
X77516760Y-140114383D01*
X77588723Y-140255616D01*
X77618959Y-140314959D01*
X77631132Y-140338848D01*
X77779201Y-140542649D01*
X77779205Y-140542654D01*
X77957345Y-140720794D01*
X77957350Y-140720798D01*
X77975600Y-140734057D01*
X78161155Y-140868870D01*
X78304184Y-140941747D01*
X78385616Y-140983239D01*
X78385618Y-140983239D01*
X78385621Y-140983241D01*
X78625215Y-141061090D01*
X78874038Y-141100500D01*
X78874039Y-141100500D01*
X79125961Y-141100500D01*
X79125962Y-141100500D01*
X79374785Y-141061090D01*
X79614379Y-140983241D01*
X79838845Y-140868870D01*
X80042656Y-140720793D01*
X80220793Y-140542656D01*
X80368870Y-140338845D01*
X80483241Y-140114379D01*
X80561090Y-139874785D01*
X80600500Y-139625962D01*
X80600500Y-139374038D01*
X80561090Y-139125215D01*
X80529823Y-139028984D01*
X86750000Y-139028984D01*
X86750000Y-139221015D01*
X86780040Y-139410684D01*
X86839383Y-139593321D01*
X86926561Y-139764415D01*
X86947798Y-139793646D01*
X87570000Y-139171445D01*
X87570000Y-139177661D01*
X87597259Y-139279394D01*
X87649920Y-139370606D01*
X87724394Y-139445080D01*
X87815606Y-139497741D01*
X87917339Y-139525000D01*
X87923554Y-139525000D01*
X87301351Y-140147200D01*
X87301352Y-140147201D01*
X87330577Y-140168434D01*
X87501678Y-140255616D01*
X87684315Y-140314959D01*
X87873985Y-140345000D01*
X88066015Y-140345000D01*
X88255684Y-140314959D01*
X88438321Y-140255616D01*
X88609419Y-140168436D01*
X88638646Y-140147201D01*
X88638646Y-140147200D01*
X88016447Y-139525000D01*
X88022661Y-139525000D01*
X88124394Y-139497741D01*
X88215606Y-139445080D01*
X88290080Y-139370606D01*
X88342741Y-139279394D01*
X88370000Y-139177661D01*
X88370000Y-139171446D01*
X88992200Y-139793646D01*
X88992201Y-139793646D01*
X89013436Y-139764419D01*
X89100616Y-139593321D01*
X89159959Y-139410684D01*
X89190000Y-139221015D01*
X89190000Y-139028984D01*
X89159959Y-138839315D01*
X89100616Y-138656678D01*
X89013434Y-138485577D01*
X88992201Y-138456352D01*
X88992200Y-138456351D01*
X88370000Y-139078552D01*
X88370000Y-139072339D01*
X88342741Y-138970606D01*
X88290080Y-138879394D01*
X88215606Y-138804920D01*
X88124394Y-138752259D01*
X88022661Y-138725000D01*
X88016447Y-138725000D01*
X88638646Y-138102798D01*
X88609415Y-138081561D01*
X88438321Y-137994383D01*
X88255684Y-137935040D01*
X88066015Y-137905000D01*
X87873985Y-137905000D01*
X87684315Y-137935040D01*
X87501678Y-137994383D01*
X87330578Y-138081564D01*
X87301352Y-138102798D01*
X87301351Y-138102798D01*
X87923554Y-138725000D01*
X87917339Y-138725000D01*
X87815606Y-138752259D01*
X87724394Y-138804920D01*
X87649920Y-138879394D01*
X87597259Y-138970606D01*
X87570000Y-139072339D01*
X87570000Y-139078553D01*
X86947798Y-138456351D01*
X86947798Y-138456352D01*
X86926564Y-138485578D01*
X86839383Y-138656678D01*
X86780040Y-138839315D01*
X86750000Y-139028984D01*
X80529823Y-139028984D01*
X80483241Y-138885621D01*
X80368870Y-138661155D01*
X80349952Y-138635117D01*
X80220798Y-138457350D01*
X80220794Y-138457345D01*
X80042656Y-138279207D01*
X80002973Y-138250376D01*
X80002971Y-138250373D01*
X79838848Y-138131132D01*
X79838847Y-138131131D01*
X79838845Y-138131130D01*
X79741566Y-138081564D01*
X79614383Y-138016760D01*
X79374785Y-137938910D01*
X79160687Y-137905000D01*
X79125962Y-137899500D01*
X78874038Y-137899500D01*
X78839313Y-137905000D01*
X78625214Y-137938910D01*
X78385616Y-138016760D01*
X78161151Y-138131132D01*
X77957350Y-138279201D01*
X77957345Y-138279205D01*
X77779205Y-138457345D01*
X77779201Y-138457350D01*
X77631132Y-138661151D01*
X77516760Y-138885616D01*
X77438910Y-139125214D01*
X77399500Y-139374038D01*
X75500500Y-139374038D01*
X75500500Y-135524986D01*
X92600001Y-135524986D01*
X92610494Y-135627697D01*
X92665641Y-135794119D01*
X92665643Y-135794124D01*
X92757684Y-135943345D01*
X92881654Y-136067315D01*
X93030875Y-136159356D01*
X93030880Y-136159358D01*
X93197302Y-136214505D01*
X93197309Y-136214506D01*
X93300019Y-136224999D01*
X93349999Y-136224998D01*
X93350000Y-136224998D01*
X93350000Y-135250000D01*
X92600001Y-135250000D01*
X92600001Y-135524986D01*
X75500500Y-135524986D01*
X75500500Y-134475013D01*
X92600000Y-134475013D01*
X92600000Y-134750000D01*
X93350000Y-134750000D01*
X93350000Y-133775000D01*
X93349999Y-133774999D01*
X93300029Y-133775000D01*
X93300011Y-133775001D01*
X93197302Y-133785494D01*
X93030880Y-133840641D01*
X93030875Y-133840643D01*
X92881654Y-133932684D01*
X92757684Y-134056654D01*
X92665643Y-134205875D01*
X92665641Y-134205880D01*
X92610494Y-134372302D01*
X92610493Y-134372309D01*
X92600000Y-134475013D01*
X75500500Y-134475013D01*
X75500500Y-121573713D01*
X84524500Y-121573713D01*
X84524500Y-121786287D01*
X84533169Y-121841021D01*
X84556733Y-121989801D01*
X84557754Y-121996243D01*
X84619246Y-122185496D01*
X84623444Y-122198414D01*
X84719951Y-122387820D01*
X84844890Y-122559786D01*
X84995213Y-122710109D01*
X85167179Y-122835048D01*
X85167181Y-122835049D01*
X85167184Y-122835051D01*
X85176493Y-122839794D01*
X85227290Y-122887766D01*
X85244087Y-122955587D01*
X85221552Y-123021722D01*
X85176502Y-123060762D01*
X85167443Y-123065378D01*
X84995540Y-123190272D01*
X84995535Y-123190276D01*
X84845276Y-123340535D01*
X84845272Y-123340540D01*
X84720379Y-123512442D01*
X84623904Y-123701782D01*
X84558242Y-123903870D01*
X84558242Y-123903873D01*
X84547769Y-123970000D01*
X85441988Y-123970000D01*
X85409075Y-124027007D01*
X85375000Y-124154174D01*
X85375000Y-124285826D01*
X85409075Y-124412993D01*
X85441988Y-124470000D01*
X84547769Y-124470000D01*
X84558242Y-124536126D01*
X84558242Y-124536129D01*
X84623904Y-124738217D01*
X84720379Y-124927557D01*
X84845272Y-125099459D01*
X84845276Y-125099464D01*
X84995535Y-125249723D01*
X84995540Y-125249727D01*
X85167444Y-125374622D01*
X85177048Y-125379516D01*
X85227844Y-125427491D01*
X85244638Y-125495312D01*
X85222100Y-125561447D01*
X85177048Y-125600484D01*
X85167444Y-125605377D01*
X84995540Y-125730272D01*
X84995535Y-125730276D01*
X84845276Y-125880535D01*
X84845272Y-125880540D01*
X84720379Y-126052442D01*
X84623904Y-126241782D01*
X84558242Y-126443870D01*
X84558242Y-126443873D01*
X84547769Y-126510000D01*
X85441988Y-126510000D01*
X85409075Y-126567007D01*
X85375000Y-126694174D01*
X85375000Y-126825826D01*
X85409075Y-126952993D01*
X85441988Y-127010000D01*
X84547769Y-127010000D01*
X84558242Y-127076126D01*
X84558242Y-127076129D01*
X84623904Y-127278217D01*
X84720379Y-127467557D01*
X84845272Y-127639459D01*
X84845276Y-127639464D01*
X84958946Y-127753134D01*
X84992431Y-127814457D01*
X84987447Y-127884149D01*
X84945575Y-127940082D01*
X84914598Y-127956997D01*
X84782671Y-128006202D01*
X84782664Y-128006206D01*
X84667455Y-128092452D01*
X84667452Y-128092455D01*
X84581206Y-128207664D01*
X84581202Y-128207671D01*
X84530908Y-128342517D01*
X84525029Y-128397203D01*
X84524501Y-128402123D01*
X84524500Y-128402135D01*
X84524500Y-130197870D01*
X84524501Y-130197876D01*
X84530908Y-130257483D01*
X84581202Y-130392328D01*
X84581206Y-130392335D01*
X84667452Y-130507544D01*
X84667455Y-130507547D01*
X84782664Y-130593793D01*
X84782671Y-130593797D01*
X84917517Y-130644091D01*
X84917516Y-130644091D01*
X84924444Y-130644835D01*
X84977127Y-130650500D01*
X86772872Y-130650499D01*
X86832483Y-130644091D01*
X86967331Y-130593796D01*
X87082546Y-130507546D01*
X87168796Y-130392331D01*
X87219091Y-130257483D01*
X87225500Y-130197873D01*
X87225500Y-130024500D01*
X87245185Y-129957461D01*
X87297989Y-129911706D01*
X87349500Y-129900500D01*
X88063132Y-129900500D01*
X88130171Y-129920185D01*
X88151346Y-129939383D01*
X88152181Y-129938549D01*
X88157288Y-129943656D01*
X88281344Y-130067712D01*
X88430666Y-130159814D01*
X88597203Y-130214999D01*
X88699991Y-130225500D01*
X89300008Y-130225499D01*
X89300016Y-130225498D01*
X89300019Y-130225498D01*
X89356302Y-130219748D01*
X89402797Y-130214999D01*
X89569334Y-130159814D01*
X89718656Y-130067712D01*
X89842712Y-129943656D01*
X89844752Y-129940347D01*
X89846745Y-129938555D01*
X89847193Y-129937989D01*
X89847289Y-129938065D01*
X89896694Y-129893623D01*
X89965656Y-129882395D01*
X90029740Y-129910234D01*
X90055829Y-129940339D01*
X90057681Y-129943341D01*
X90057683Y-129943344D01*
X90181654Y-130067315D01*
X90330875Y-130159356D01*
X90330880Y-130159358D01*
X90497302Y-130214505D01*
X90497309Y-130214506D01*
X90600019Y-130224999D01*
X91150000Y-130224999D01*
X91199972Y-130224999D01*
X91199986Y-130224998D01*
X91302697Y-130214505D01*
X91469119Y-130159358D01*
X91469124Y-130159356D01*
X91618345Y-130067315D01*
X91742315Y-129943345D01*
X91834356Y-129794124D01*
X91834358Y-129794119D01*
X91889505Y-129627697D01*
X91889506Y-129627690D01*
X91899999Y-129524986D01*
X91900000Y-129524973D01*
X91900000Y-129250000D01*
X91150000Y-129250000D01*
X91150000Y-130224999D01*
X90600019Y-130224999D01*
X90649999Y-130224998D01*
X90650000Y-130224998D01*
X90650000Y-128750000D01*
X91150000Y-128750000D01*
X91899999Y-128750000D01*
X91899999Y-128475028D01*
X91899998Y-128475013D01*
X91889505Y-128372302D01*
X91834358Y-128205880D01*
X91834356Y-128205875D01*
X91742315Y-128056654D01*
X91618345Y-127932684D01*
X91469124Y-127840643D01*
X91469119Y-127840641D01*
X91302697Y-127785494D01*
X91302690Y-127785493D01*
X91199986Y-127775000D01*
X91150000Y-127775000D01*
X91150000Y-128750000D01*
X90650000Y-128750000D01*
X90650000Y-127775000D01*
X90649999Y-127774999D01*
X90600029Y-127775000D01*
X90600011Y-127775001D01*
X90497302Y-127785494D01*
X90330880Y-127840641D01*
X90330875Y-127840643D01*
X90181654Y-127932684D01*
X90057683Y-128056655D01*
X90057679Y-128056660D01*
X90055826Y-128059665D01*
X90054018Y-128061290D01*
X90053202Y-128062323D01*
X90053025Y-128062183D01*
X90003874Y-128106385D01*
X89934911Y-128117601D01*
X89870831Y-128089752D01*
X89844753Y-128059653D01*
X89844737Y-128059628D01*
X89842712Y-128056344D01*
X89718656Y-127932288D01*
X89569334Y-127840186D01*
X89402797Y-127785001D01*
X89402795Y-127785000D01*
X89300010Y-127774500D01*
X88699998Y-127774500D01*
X88699980Y-127774501D01*
X88597203Y-127785000D01*
X88597200Y-127785001D01*
X88430668Y-127840185D01*
X88430663Y-127840187D01*
X88281342Y-127932289D01*
X88157289Y-128056342D01*
X88065187Y-128205663D01*
X88065185Y-128205668D01*
X88046127Y-128263181D01*
X88010001Y-128372203D01*
X88010001Y-128372204D01*
X88010000Y-128372204D01*
X87999500Y-128474983D01*
X87999500Y-128575500D01*
X87979815Y-128642539D01*
X87927011Y-128688294D01*
X87875500Y-128699500D01*
X87349499Y-128699500D01*
X87282460Y-128679815D01*
X87236705Y-128627011D01*
X87225499Y-128575500D01*
X87225499Y-128402129D01*
X87225498Y-128402123D01*
X87225497Y-128402116D01*
X87219091Y-128342517D01*
X87218005Y-128339606D01*
X87168797Y-128207671D01*
X87168793Y-128207664D01*
X87082547Y-128092455D01*
X87082544Y-128092452D01*
X86967335Y-128006206D01*
X86967328Y-128006202D01*
X86835401Y-127956997D01*
X86779467Y-127915126D01*
X86755050Y-127849662D01*
X86769902Y-127781389D01*
X86791053Y-127753133D01*
X86904728Y-127639458D01*
X87029620Y-127467557D01*
X87126095Y-127278217D01*
X87191757Y-127076129D01*
X87191757Y-127076126D01*
X87202231Y-127010000D01*
X86308012Y-127010000D01*
X86340925Y-126952993D01*
X86375000Y-126825826D01*
X86375000Y-126694174D01*
X86340925Y-126567007D01*
X86308012Y-126510000D01*
X87202231Y-126510000D01*
X87191757Y-126443873D01*
X87191757Y-126443870D01*
X87126095Y-126241782D01*
X87029620Y-126052442D01*
X86904727Y-125880540D01*
X86904723Y-125880535D01*
X86754464Y-125730276D01*
X86754459Y-125730272D01*
X86582558Y-125605379D01*
X86572954Y-125600486D01*
X86522157Y-125552512D01*
X86505361Y-125484692D01*
X86527897Y-125418556D01*
X86572954Y-125379514D01*
X86582558Y-125374620D01*
X86754459Y-125249727D01*
X86754464Y-125249723D01*
X86904723Y-125099464D01*
X86904727Y-125099459D01*
X87029620Y-124927557D01*
X87126095Y-124738217D01*
X87191757Y-124536129D01*
X87191757Y-124536126D01*
X87202231Y-124470000D01*
X86308012Y-124470000D01*
X86340925Y-124412993D01*
X86375000Y-124285826D01*
X86375000Y-124154174D01*
X86340925Y-124027007D01*
X86308012Y-123970000D01*
X87202231Y-123970000D01*
X87191757Y-123903873D01*
X87191757Y-123903870D01*
X87126095Y-123701782D01*
X87029620Y-123512442D01*
X86904727Y-123340540D01*
X86904723Y-123340535D01*
X86754464Y-123190276D01*
X86754459Y-123190272D01*
X86582555Y-123065377D01*
X86573500Y-123060763D01*
X86522706Y-123012788D01*
X86505912Y-122944966D01*
X86528451Y-122878832D01*
X86573508Y-122839793D01*
X86582816Y-122835051D01*
X86696344Y-122752569D01*
X86754786Y-122710109D01*
X86754788Y-122710106D01*
X86754792Y-122710104D01*
X86905104Y-122559792D01*
X86905106Y-122559788D01*
X86905109Y-122559786D01*
X87030048Y-122387820D01*
X87030047Y-122387820D01*
X87030051Y-122387816D01*
X87126557Y-122198412D01*
X87130532Y-122186177D01*
X87169971Y-122128504D01*
X87234331Y-122101308D01*
X87248462Y-122100500D01*
X87961415Y-122100500D01*
X88028454Y-122120185D01*
X88074209Y-122172989D01*
X88079118Y-122185489D01*
X88115186Y-122294334D01*
X88207288Y-122443656D01*
X88331344Y-122567712D01*
X88480666Y-122659814D01*
X88647203Y-122714999D01*
X88749991Y-122725500D01*
X89350008Y-122725499D01*
X89350016Y-122725498D01*
X89350019Y-122725498D01*
X89406302Y-122719748D01*
X89452797Y-122714999D01*
X89619334Y-122659814D01*
X89768656Y-122567712D01*
X89892712Y-122443656D01*
X89894752Y-122440347D01*
X89896745Y-122438555D01*
X89897193Y-122437989D01*
X89897289Y-122438065D01*
X89946694Y-122393623D01*
X90015656Y-122382395D01*
X90079740Y-122410234D01*
X90105829Y-122440339D01*
X90107681Y-122443341D01*
X90107683Y-122443344D01*
X90231654Y-122567315D01*
X90380875Y-122659356D01*
X90380880Y-122659358D01*
X90547302Y-122714505D01*
X90547309Y-122714506D01*
X90650019Y-122724999D01*
X91200000Y-122724999D01*
X91249972Y-122724999D01*
X91249986Y-122724998D01*
X91352697Y-122714505D01*
X91519119Y-122659358D01*
X91519124Y-122659356D01*
X91668345Y-122567315D01*
X91792315Y-122443345D01*
X91884356Y-122294124D01*
X91884358Y-122294119D01*
X91939505Y-122127697D01*
X91939506Y-122127690D01*
X91949999Y-122024986D01*
X91950000Y-122024973D01*
X91950000Y-121750000D01*
X91200000Y-121750000D01*
X91200000Y-122724999D01*
X90650019Y-122724999D01*
X90699999Y-122724998D01*
X90700000Y-122724998D01*
X90700000Y-121250000D01*
X91200000Y-121250000D01*
X91949999Y-121250000D01*
X91949999Y-120975028D01*
X91949998Y-120975013D01*
X91939505Y-120872302D01*
X91884358Y-120705880D01*
X91884356Y-120705875D01*
X91792315Y-120556654D01*
X91668345Y-120432684D01*
X91519124Y-120340643D01*
X91519119Y-120340641D01*
X91352697Y-120285494D01*
X91352690Y-120285493D01*
X91249986Y-120275000D01*
X91200000Y-120275000D01*
X91200000Y-121250000D01*
X90700000Y-121250000D01*
X90700000Y-120275000D01*
X90699999Y-120274999D01*
X90650029Y-120275000D01*
X90650011Y-120275001D01*
X90547302Y-120285494D01*
X90380880Y-120340641D01*
X90380875Y-120340643D01*
X90231654Y-120432684D01*
X90107683Y-120556655D01*
X90107679Y-120556660D01*
X90105826Y-120559665D01*
X90104018Y-120561290D01*
X90103202Y-120562323D01*
X90103025Y-120562183D01*
X90053874Y-120606385D01*
X89984911Y-120617601D01*
X89920831Y-120589752D01*
X89894753Y-120559653D01*
X89894737Y-120559628D01*
X89892712Y-120556344D01*
X89768656Y-120432288D01*
X89619334Y-120340186D01*
X89452797Y-120285001D01*
X89452795Y-120285000D01*
X89350010Y-120274500D01*
X88749998Y-120274500D01*
X88749980Y-120274501D01*
X88647203Y-120285000D01*
X88647200Y-120285001D01*
X88480668Y-120340185D01*
X88480663Y-120340187D01*
X88331342Y-120432289D01*
X88207289Y-120556342D01*
X88115187Y-120705663D01*
X88115185Y-120705668D01*
X88106555Y-120731713D01*
X88081029Y-120808747D01*
X88079121Y-120814504D01*
X88039348Y-120871949D01*
X87974833Y-120898772D01*
X87961415Y-120899500D01*
X87040425Y-120899500D01*
X86973386Y-120879815D01*
X86940107Y-120848385D01*
X86905107Y-120800212D01*
X86905102Y-120800206D01*
X86754786Y-120649890D01*
X86582820Y-120524951D01*
X86393414Y-120428444D01*
X86393413Y-120428443D01*
X86393412Y-120428443D01*
X86191243Y-120362754D01*
X86191241Y-120362753D01*
X86191240Y-120362753D01*
X85999609Y-120332402D01*
X85981287Y-120329500D01*
X85768713Y-120329500D01*
X85750391Y-120332402D01*
X85558760Y-120362753D01*
X85558757Y-120362754D01*
X85369881Y-120424124D01*
X85356585Y-120428444D01*
X85167179Y-120524951D01*
X84995213Y-120649890D01*
X84844890Y-120800213D01*
X84719951Y-120972179D01*
X84623444Y-121161585D01*
X84557753Y-121363760D01*
X84544776Y-121445694D01*
X84524500Y-121573713D01*
X75500500Y-121573713D01*
X75500500Y-111128713D01*
X84524500Y-111128713D01*
X84524500Y-111341287D01*
X84557754Y-111551243D01*
X84620709Y-111744999D01*
X84623444Y-111753414D01*
X84719951Y-111942820D01*
X84844890Y-112114786D01*
X84958818Y-112228714D01*
X84992303Y-112290037D01*
X84987319Y-112359729D01*
X84945447Y-112415662D01*
X84914471Y-112432577D01*
X84782912Y-112481646D01*
X84782906Y-112481649D01*
X84667812Y-112567809D01*
X84667809Y-112567812D01*
X84581649Y-112682906D01*
X84581645Y-112682913D01*
X84531403Y-112817620D01*
X84531401Y-112817627D01*
X84525000Y-112877155D01*
X84525000Y-113525000D01*
X85441988Y-113525000D01*
X85409075Y-113582007D01*
X85375000Y-113709174D01*
X85375000Y-113840826D01*
X85409075Y-113967993D01*
X85441988Y-114025000D01*
X84525000Y-114025000D01*
X84525000Y-114672844D01*
X84531401Y-114732372D01*
X84531403Y-114732379D01*
X84581645Y-114867086D01*
X84581649Y-114867093D01*
X84667809Y-114982187D01*
X84667812Y-114982190D01*
X84782906Y-115068350D01*
X84782913Y-115068354D01*
X84917620Y-115118596D01*
X84917627Y-115118598D01*
X84977155Y-115124999D01*
X84977172Y-115125000D01*
X85625000Y-115125000D01*
X85625000Y-114208012D01*
X85682007Y-114240925D01*
X85809174Y-114275000D01*
X85940826Y-114275000D01*
X86067993Y-114240925D01*
X86125000Y-114208012D01*
X86125000Y-115125000D01*
X86772828Y-115125000D01*
X86772844Y-115124999D01*
X86832372Y-115118598D01*
X86832379Y-115118596D01*
X86967086Y-115068354D01*
X86967093Y-115068350D01*
X87082187Y-114982190D01*
X87082190Y-114982187D01*
X87168350Y-114867093D01*
X87168354Y-114867086D01*
X87218596Y-114732379D01*
X87218598Y-114732372D01*
X87224999Y-114672844D01*
X87225000Y-114672827D01*
X87225000Y-114422486D01*
X91747501Y-114422486D01*
X91757994Y-114525197D01*
X91813141Y-114691619D01*
X91813143Y-114691624D01*
X91905184Y-114840845D01*
X92029154Y-114964815D01*
X92178375Y-115056856D01*
X92178380Y-115056858D01*
X92344802Y-115112005D01*
X92344809Y-115112006D01*
X92447519Y-115122499D01*
X92497499Y-115122498D01*
X92497500Y-115122498D01*
X92497500Y-114147500D01*
X91747501Y-114147500D01*
X91747501Y-114422486D01*
X87225000Y-114422486D01*
X87225000Y-114025000D01*
X86308012Y-114025000D01*
X86340925Y-113967993D01*
X86375000Y-113840826D01*
X86375000Y-113709174D01*
X86340925Y-113582007D01*
X86308012Y-113525000D01*
X87225000Y-113525000D01*
X87225000Y-113372513D01*
X91747500Y-113372513D01*
X91747500Y-113647500D01*
X92497500Y-113647500D01*
X92497500Y-112672500D01*
X92497499Y-112672499D01*
X92447529Y-112672500D01*
X92447511Y-112672501D01*
X92344802Y-112682994D01*
X92178380Y-112738141D01*
X92178375Y-112738143D01*
X92029154Y-112830184D01*
X91905184Y-112954154D01*
X91813143Y-113103375D01*
X91813141Y-113103380D01*
X91757994Y-113269802D01*
X91757993Y-113269809D01*
X91747500Y-113372513D01*
X87225000Y-113372513D01*
X87225000Y-112877172D01*
X87224999Y-112877155D01*
X87218598Y-112817627D01*
X87218596Y-112817620D01*
X87168354Y-112682913D01*
X87168350Y-112682906D01*
X87082190Y-112567812D01*
X87082187Y-112567809D01*
X86967093Y-112481649D01*
X86967088Y-112481646D01*
X86835528Y-112432577D01*
X86779595Y-112390705D01*
X86755178Y-112325241D01*
X86770030Y-112256968D01*
X86791175Y-112228720D01*
X86905104Y-112114792D01*
X87025475Y-111949114D01*
X87080804Y-111906449D01*
X87125793Y-111898000D01*
X91109996Y-111898000D01*
X91177035Y-111917685D01*
X91215535Y-111956904D01*
X91227031Y-111975543D01*
X91346955Y-112095467D01*
X91346959Y-112095470D01*
X91491294Y-112184498D01*
X91491297Y-112184499D01*
X91491303Y-112184503D01*
X91652292Y-112237849D01*
X91751655Y-112248000D01*
X92298344Y-112247999D01*
X92298352Y-112247998D01*
X92298355Y-112247998D01*
X92352760Y-112242440D01*
X92397708Y-112237849D01*
X92558697Y-112184503D01*
X92703044Y-112095468D01*
X92822968Y-111975544D01*
X92912003Y-111831197D01*
X92965349Y-111670208D01*
X92975500Y-111570845D01*
X92975499Y-110724156D01*
X92975074Y-110720000D01*
X92965349Y-110624792D01*
X92965348Y-110624789D01*
X92956426Y-110597864D01*
X92912003Y-110463803D01*
X92911999Y-110463797D01*
X92911998Y-110463794D01*
X92822970Y-110319459D01*
X92822967Y-110319455D01*
X92703044Y-110199532D01*
X92703040Y-110199529D01*
X92558705Y-110110501D01*
X92558699Y-110110498D01*
X92558697Y-110110497D01*
X92528528Y-110100500D01*
X92397709Y-110057151D01*
X92298346Y-110047000D01*
X91751662Y-110047000D01*
X91751644Y-110047001D01*
X91652292Y-110057150D01*
X91652289Y-110057151D01*
X91491305Y-110110496D01*
X91491294Y-110110501D01*
X91346959Y-110199529D01*
X91346955Y-110199532D01*
X91227031Y-110319456D01*
X91215535Y-110338096D01*
X91163588Y-110384821D01*
X91109996Y-110397000D01*
X86997962Y-110397000D01*
X86930923Y-110377315D01*
X86909010Y-110358191D01*
X86908549Y-110358653D01*
X86754786Y-110204890D01*
X86582820Y-110079951D01*
X86393414Y-109983444D01*
X86393413Y-109983443D01*
X86393412Y-109983443D01*
X86191243Y-109917754D01*
X86191241Y-109917753D01*
X86191240Y-109917753D01*
X86029957Y-109892208D01*
X85981287Y-109884500D01*
X85768713Y-109884500D01*
X85720042Y-109892208D01*
X85558760Y-109917753D01*
X85356585Y-109983444D01*
X85167179Y-110079951D01*
X84995213Y-110204890D01*
X84844890Y-110355213D01*
X84719951Y-110527179D01*
X84623444Y-110716585D01*
X84557753Y-110918760D01*
X84538075Y-111043002D01*
X84524500Y-111128713D01*
X75500500Y-111128713D01*
X75500500Y-108922486D01*
X91747501Y-108922486D01*
X91757994Y-109025197D01*
X91813141Y-109191619D01*
X91813143Y-109191624D01*
X91905184Y-109340845D01*
X92029154Y-109464815D01*
X92178375Y-109556856D01*
X92178380Y-109556858D01*
X92344802Y-109612005D01*
X92344809Y-109612006D01*
X92447519Y-109622499D01*
X92497499Y-109622498D01*
X92497500Y-109622498D01*
X92497500Y-108647500D01*
X91747501Y-108647500D01*
X91747501Y-108922486D01*
X75500500Y-108922486D01*
X75500500Y-107872513D01*
X91747500Y-107872513D01*
X91747500Y-108147500D01*
X92497500Y-108147500D01*
X92497500Y-107172500D01*
X92497499Y-107172499D01*
X92447529Y-107172500D01*
X92447511Y-107172501D01*
X92344802Y-107182994D01*
X92178380Y-107238141D01*
X92178375Y-107238143D01*
X92029154Y-107330184D01*
X91905184Y-107454154D01*
X91813143Y-107603375D01*
X91813141Y-107603380D01*
X91757994Y-107769802D01*
X91757993Y-107769809D01*
X91747500Y-107872513D01*
X75500500Y-107872513D01*
X75500500Y-101374038D01*
X77399500Y-101374038D01*
X77399500Y-101625961D01*
X77438910Y-101874785D01*
X77516760Y-102114383D01*
X77631132Y-102338848D01*
X77779201Y-102542649D01*
X77779205Y-102542654D01*
X77957345Y-102720794D01*
X77957350Y-102720798D01*
X78135117Y-102849952D01*
X78161155Y-102868870D01*
X78304184Y-102941747D01*
X78385616Y-102983239D01*
X78385618Y-102983239D01*
X78385621Y-102983241D01*
X78625215Y-103061090D01*
X78874038Y-103100500D01*
X78874039Y-103100500D01*
X79125961Y-103100500D01*
X79125962Y-103100500D01*
X79374785Y-103061090D01*
X79614379Y-102983241D01*
X79838845Y-102868870D01*
X80042656Y-102720793D01*
X80220793Y-102542656D01*
X80368870Y-102338845D01*
X80483241Y-102114379D01*
X80561090Y-101874785D01*
X80600500Y-101625962D01*
X80600500Y-101374038D01*
X140899500Y-101374038D01*
X140899500Y-101625961D01*
X140938910Y-101874785D01*
X141016760Y-102114383D01*
X141131132Y-102338848D01*
X141279201Y-102542649D01*
X141279205Y-102542654D01*
X141457345Y-102720794D01*
X141457350Y-102720798D01*
X141635117Y-102849952D01*
X141661155Y-102868870D01*
X141804184Y-102941747D01*
X141885616Y-102983239D01*
X141885618Y-102983239D01*
X141885621Y-102983241D01*
X142125215Y-103061090D01*
X142374038Y-103100500D01*
X142374039Y-103100500D01*
X142625961Y-103100500D01*
X142625962Y-103100500D01*
X142874785Y-103061090D01*
X143114379Y-102983241D01*
X143338845Y-102868870D01*
X143542656Y-102720793D01*
X143720793Y-102542656D01*
X143868870Y-102338845D01*
X143983241Y-102114379D01*
X144061090Y-101874785D01*
X144100500Y-101625962D01*
X144100500Y-101374038D01*
X144061090Y-101125215D01*
X143983241Y-100885621D01*
X143983239Y-100885618D01*
X143983239Y-100885616D01*
X143941747Y-100804184D01*
X143868870Y-100661155D01*
X143849952Y-100635117D01*
X143720798Y-100457350D01*
X143720794Y-100457345D01*
X143542654Y-100279205D01*
X143542649Y-100279201D01*
X143338848Y-100131132D01*
X143338847Y-100131131D01*
X143338845Y-100131130D01*
X143268747Y-100095413D01*
X143114383Y-100016760D01*
X142874785Y-99938910D01*
X142625962Y-99899500D01*
X142374038Y-99899500D01*
X142249626Y-99919205D01*
X142125214Y-99938910D01*
X141885616Y-100016760D01*
X141661151Y-100131132D01*
X141457350Y-100279201D01*
X141457345Y-100279205D01*
X141279205Y-100457345D01*
X141279201Y-100457350D01*
X141131132Y-100661151D01*
X141016760Y-100885616D01*
X140938910Y-101125214D01*
X140899500Y-101374038D01*
X80600500Y-101374038D01*
X80561090Y-101125215D01*
X80483241Y-100885621D01*
X80483239Y-100885618D01*
X80483239Y-100885616D01*
X80441747Y-100804184D01*
X80368870Y-100661155D01*
X80349952Y-100635117D01*
X80220798Y-100457350D01*
X80220794Y-100457345D01*
X80042654Y-100279205D01*
X80042649Y-100279201D01*
X79838848Y-100131132D01*
X79838847Y-100131131D01*
X79838845Y-100131130D01*
X79768747Y-100095413D01*
X79614383Y-100016760D01*
X79374785Y-99938910D01*
X79125962Y-99899500D01*
X78874038Y-99899500D01*
X78749626Y-99919205D01*
X78625214Y-99938910D01*
X78385616Y-100016760D01*
X78161151Y-100131132D01*
X77957350Y-100279201D01*
X77957345Y-100279205D01*
X77779205Y-100457345D01*
X77779201Y-100457350D01*
X77631132Y-100661151D01*
X77516760Y-100885616D01*
X77438910Y-101125214D01*
X77399500Y-101374038D01*
X75500500Y-101374038D01*
X75500500Y-97624500D01*
X75520185Y-97557461D01*
X75572989Y-97511706D01*
X75624500Y-97500500D01*
X145875500Y-97500500D01*
X145942539Y-97520185D01*
G37*
%TD.AperFunction*%
%TD*%
M02*
