%TF.GenerationSoftware,KiCad,Pcbnew,8.0.8*%
%TF.CreationDate,2025-01-26T19:39:00-06:00*%
%TF.ProjectId,peak-read-amp,7065616b-2d72-4656-9164-2d616d702e6b,rev?*%
%TF.SameCoordinates,Original*%
%TF.FileFunction,Legend,Top*%
%TF.FilePolarity,Positive*%
%FSLAX46Y46*%
G04 Gerber Fmt 4.6, Leading zero omitted, Abs format (unit mm)*
G04 Created by KiCad (PCBNEW 8.0.8) date 2025-01-26 19:39:00*
%MOMM*%
%LPD*%
G01*
G04 APERTURE LIST*
%ADD10C,0.150000*%
%ADD11C,0.120000*%
G04 APERTURE END LIST*
D10*
X88380180Y-123586779D02*
X89380180Y-123586779D01*
X89046847Y-124062969D02*
X88380180Y-124062969D01*
X88951609Y-124062969D02*
X88999228Y-124110588D01*
X88999228Y-124110588D02*
X89046847Y-124205826D01*
X89046847Y-124205826D02*
X89046847Y-124348683D01*
X89046847Y-124348683D02*
X88999228Y-124443921D01*
X88999228Y-124443921D02*
X88903990Y-124491540D01*
X88903990Y-124491540D02*
X88380180Y-124491540D01*
X89046847Y-124967731D02*
X88046847Y-124967731D01*
X88999228Y-124967731D02*
X89046847Y-125062969D01*
X89046847Y-125062969D02*
X89046847Y-125253445D01*
X89046847Y-125253445D02*
X88999228Y-125348683D01*
X88999228Y-125348683D02*
X88951609Y-125396302D01*
X88951609Y-125396302D02*
X88856371Y-125443921D01*
X88856371Y-125443921D02*
X88570657Y-125443921D01*
X88570657Y-125443921D02*
X88475419Y-125396302D01*
X88475419Y-125396302D02*
X88427800Y-125348683D01*
X88427800Y-125348683D02*
X88380180Y-125253445D01*
X88380180Y-125253445D02*
X88380180Y-125062969D01*
X88380180Y-125062969D02*
X88427800Y-124967731D01*
X89046847Y-126301064D02*
X88380180Y-126301064D01*
X89046847Y-125872493D02*
X88523038Y-125872493D01*
X88523038Y-125872493D02*
X88427800Y-125920112D01*
X88427800Y-125920112D02*
X88380180Y-126015350D01*
X88380180Y-126015350D02*
X88380180Y-126158207D01*
X88380180Y-126158207D02*
X88427800Y-126253445D01*
X88427800Y-126253445D02*
X88475419Y-126301064D01*
X89046847Y-126634398D02*
X89046847Y-127015350D01*
X89380180Y-126777255D02*
X88523038Y-126777255D01*
X88523038Y-126777255D02*
X88427800Y-126824874D01*
X88427800Y-126824874D02*
X88380180Y-126920112D01*
X88380180Y-126920112D02*
X88380180Y-127015350D01*
X81170112Y-131846009D02*
X80836779Y-131846009D01*
X80836779Y-132369819D02*
X80836779Y-131369819D01*
X80836779Y-131369819D02*
X81312969Y-131369819D01*
X81598684Y-131369819D02*
X81836779Y-132369819D01*
X81836779Y-132369819D02*
X82027255Y-131655533D01*
X82027255Y-131655533D02*
X82217731Y-132369819D01*
X82217731Y-132369819D02*
X82455827Y-131369819D01*
X82836779Y-132369819D02*
X82836779Y-131369819D01*
X82836779Y-131369819D02*
X83074874Y-131369819D01*
X83074874Y-131369819D02*
X83217731Y-131417438D01*
X83217731Y-131417438D02*
X83312969Y-131512676D01*
X83312969Y-131512676D02*
X83360588Y-131607914D01*
X83360588Y-131607914D02*
X83408207Y-131798390D01*
X83408207Y-131798390D02*
X83408207Y-131941247D01*
X83408207Y-131941247D02*
X83360588Y-132131723D01*
X83360588Y-132131723D02*
X83312969Y-132226961D01*
X83312969Y-132226961D02*
X83217731Y-132322200D01*
X83217731Y-132322200D02*
X83074874Y-132369819D01*
X83074874Y-132369819D02*
X82836779Y-132369819D01*
X84598684Y-132369819D02*
X84598684Y-131369819D01*
X84598684Y-131369819D02*
X84979636Y-131369819D01*
X84979636Y-131369819D02*
X85074874Y-131417438D01*
X85074874Y-131417438D02*
X85122493Y-131465057D01*
X85122493Y-131465057D02*
X85170112Y-131560295D01*
X85170112Y-131560295D02*
X85170112Y-131703152D01*
X85170112Y-131703152D02*
X85122493Y-131798390D01*
X85122493Y-131798390D02*
X85074874Y-131846009D01*
X85074874Y-131846009D02*
X84979636Y-131893628D01*
X84979636Y-131893628D02*
X84598684Y-131893628D01*
X85741541Y-132369819D02*
X85646303Y-132322200D01*
X85646303Y-132322200D02*
X85598684Y-132274580D01*
X85598684Y-132274580D02*
X85551065Y-132179342D01*
X85551065Y-132179342D02*
X85551065Y-131893628D01*
X85551065Y-131893628D02*
X85598684Y-131798390D01*
X85598684Y-131798390D02*
X85646303Y-131750771D01*
X85646303Y-131750771D02*
X85741541Y-131703152D01*
X85741541Y-131703152D02*
X85884398Y-131703152D01*
X85884398Y-131703152D02*
X85979636Y-131750771D01*
X85979636Y-131750771D02*
X86027255Y-131798390D01*
X86027255Y-131798390D02*
X86074874Y-131893628D01*
X86074874Y-131893628D02*
X86074874Y-132179342D01*
X86074874Y-132179342D02*
X86027255Y-132274580D01*
X86027255Y-132274580D02*
X85979636Y-132322200D01*
X85979636Y-132322200D02*
X85884398Y-132369819D01*
X85884398Y-132369819D02*
X85741541Y-132369819D01*
X86408208Y-131703152D02*
X86598684Y-132369819D01*
X86598684Y-132369819D02*
X86789160Y-131893628D01*
X86789160Y-131893628D02*
X86979636Y-132369819D01*
X86979636Y-132369819D02*
X87170112Y-131703152D01*
X87932017Y-132322200D02*
X87836779Y-132369819D01*
X87836779Y-132369819D02*
X87646303Y-132369819D01*
X87646303Y-132369819D02*
X87551065Y-132322200D01*
X87551065Y-132322200D02*
X87503446Y-132226961D01*
X87503446Y-132226961D02*
X87503446Y-131846009D01*
X87503446Y-131846009D02*
X87551065Y-131750771D01*
X87551065Y-131750771D02*
X87646303Y-131703152D01*
X87646303Y-131703152D02*
X87836779Y-131703152D01*
X87836779Y-131703152D02*
X87932017Y-131750771D01*
X87932017Y-131750771D02*
X87979636Y-131846009D01*
X87979636Y-131846009D02*
X87979636Y-131941247D01*
X87979636Y-131941247D02*
X87503446Y-132036485D01*
X88408208Y-132369819D02*
X88408208Y-131703152D01*
X88408208Y-131893628D02*
X88455827Y-131798390D01*
X88455827Y-131798390D02*
X88503446Y-131750771D01*
X88503446Y-131750771D02*
X88598684Y-131703152D01*
X88598684Y-131703152D02*
X88693922Y-131703152D01*
X90955826Y-106558628D02*
X90955826Y-105058628D01*
X90955826Y-105058628D02*
X91455826Y-106130057D01*
X91455826Y-106130057D02*
X91955826Y-105058628D01*
X91955826Y-105058628D02*
X91955826Y-106558628D01*
X93170112Y-105772914D02*
X92670112Y-105772914D01*
X92670112Y-106558628D02*
X92670112Y-105058628D01*
X92670112Y-105058628D02*
X93384398Y-105058628D01*
X94384398Y-105058628D02*
X94384398Y-106130057D01*
X94384398Y-106130057D02*
X94312969Y-106344342D01*
X94312969Y-106344342D02*
X94170112Y-106487200D01*
X94170112Y-106487200D02*
X93955826Y-106558628D01*
X93955826Y-106558628D02*
X93812969Y-106558628D01*
X96241540Y-106558628D02*
X96241540Y-105058628D01*
X96241540Y-105058628D02*
X96812969Y-105058628D01*
X96812969Y-105058628D02*
X96955826Y-105130057D01*
X96955826Y-105130057D02*
X97027255Y-105201485D01*
X97027255Y-105201485D02*
X97098683Y-105344342D01*
X97098683Y-105344342D02*
X97098683Y-105558628D01*
X97098683Y-105558628D02*
X97027255Y-105701485D01*
X97027255Y-105701485D02*
X96955826Y-105772914D01*
X96955826Y-105772914D02*
X96812969Y-105844342D01*
X96812969Y-105844342D02*
X96241540Y-105844342D01*
X98312969Y-106487200D02*
X98170112Y-106558628D01*
X98170112Y-106558628D02*
X97884398Y-106558628D01*
X97884398Y-106558628D02*
X97741540Y-106487200D01*
X97741540Y-106487200D02*
X97670112Y-106344342D01*
X97670112Y-106344342D02*
X97670112Y-105772914D01*
X97670112Y-105772914D02*
X97741540Y-105630057D01*
X97741540Y-105630057D02*
X97884398Y-105558628D01*
X97884398Y-105558628D02*
X98170112Y-105558628D01*
X98170112Y-105558628D02*
X98312969Y-105630057D01*
X98312969Y-105630057D02*
X98384398Y-105772914D01*
X98384398Y-105772914D02*
X98384398Y-105915771D01*
X98384398Y-105915771D02*
X97670112Y-106058628D01*
X99670112Y-106558628D02*
X99670112Y-105772914D01*
X99670112Y-105772914D02*
X99598683Y-105630057D01*
X99598683Y-105630057D02*
X99455826Y-105558628D01*
X99455826Y-105558628D02*
X99170112Y-105558628D01*
X99170112Y-105558628D02*
X99027254Y-105630057D01*
X99670112Y-106487200D02*
X99527254Y-106558628D01*
X99527254Y-106558628D02*
X99170112Y-106558628D01*
X99170112Y-106558628D02*
X99027254Y-106487200D01*
X99027254Y-106487200D02*
X98955826Y-106344342D01*
X98955826Y-106344342D02*
X98955826Y-106201485D01*
X98955826Y-106201485D02*
X99027254Y-106058628D01*
X99027254Y-106058628D02*
X99170112Y-105987200D01*
X99170112Y-105987200D02*
X99527254Y-105987200D01*
X99527254Y-105987200D02*
X99670112Y-105915771D01*
X100384397Y-106558628D02*
X100384397Y-105058628D01*
X100527255Y-105987200D02*
X100955826Y-106558628D01*
X100955826Y-105558628D02*
X100384397Y-106130057D01*
X103598683Y-106558628D02*
X103098683Y-105844342D01*
X102741540Y-106558628D02*
X102741540Y-105058628D01*
X102741540Y-105058628D02*
X103312969Y-105058628D01*
X103312969Y-105058628D02*
X103455826Y-105130057D01*
X103455826Y-105130057D02*
X103527255Y-105201485D01*
X103527255Y-105201485D02*
X103598683Y-105344342D01*
X103598683Y-105344342D02*
X103598683Y-105558628D01*
X103598683Y-105558628D02*
X103527255Y-105701485D01*
X103527255Y-105701485D02*
X103455826Y-105772914D01*
X103455826Y-105772914D02*
X103312969Y-105844342D01*
X103312969Y-105844342D02*
X102741540Y-105844342D01*
X104812969Y-106487200D02*
X104670112Y-106558628D01*
X104670112Y-106558628D02*
X104384398Y-106558628D01*
X104384398Y-106558628D02*
X104241540Y-106487200D01*
X104241540Y-106487200D02*
X104170112Y-106344342D01*
X104170112Y-106344342D02*
X104170112Y-105772914D01*
X104170112Y-105772914D02*
X104241540Y-105630057D01*
X104241540Y-105630057D02*
X104384398Y-105558628D01*
X104384398Y-105558628D02*
X104670112Y-105558628D01*
X104670112Y-105558628D02*
X104812969Y-105630057D01*
X104812969Y-105630057D02*
X104884398Y-105772914D01*
X104884398Y-105772914D02*
X104884398Y-105915771D01*
X104884398Y-105915771D02*
X104170112Y-106058628D01*
X106170112Y-106558628D02*
X106170112Y-105772914D01*
X106170112Y-105772914D02*
X106098683Y-105630057D01*
X106098683Y-105630057D02*
X105955826Y-105558628D01*
X105955826Y-105558628D02*
X105670112Y-105558628D01*
X105670112Y-105558628D02*
X105527254Y-105630057D01*
X106170112Y-106487200D02*
X106027254Y-106558628D01*
X106027254Y-106558628D02*
X105670112Y-106558628D01*
X105670112Y-106558628D02*
X105527254Y-106487200D01*
X105527254Y-106487200D02*
X105455826Y-106344342D01*
X105455826Y-106344342D02*
X105455826Y-106201485D01*
X105455826Y-106201485D02*
X105527254Y-106058628D01*
X105527254Y-106058628D02*
X105670112Y-105987200D01*
X105670112Y-105987200D02*
X106027254Y-105987200D01*
X106027254Y-105987200D02*
X106170112Y-105915771D01*
X107527255Y-106558628D02*
X107527255Y-105058628D01*
X107527255Y-106487200D02*
X107384397Y-106558628D01*
X107384397Y-106558628D02*
X107098683Y-106558628D01*
X107098683Y-106558628D02*
X106955826Y-106487200D01*
X106955826Y-106487200D02*
X106884397Y-106415771D01*
X106884397Y-106415771D02*
X106812969Y-106272914D01*
X106812969Y-106272914D02*
X106812969Y-105844342D01*
X106812969Y-105844342D02*
X106884397Y-105701485D01*
X106884397Y-105701485D02*
X106955826Y-105630057D01*
X106955826Y-105630057D02*
X107098683Y-105558628D01*
X107098683Y-105558628D02*
X107384397Y-105558628D01*
X107384397Y-105558628D02*
X107527255Y-105630057D01*
X108241540Y-106558628D02*
X108241540Y-105558628D01*
X108241540Y-105058628D02*
X108170112Y-105130057D01*
X108170112Y-105130057D02*
X108241540Y-105201485D01*
X108241540Y-105201485D02*
X108312969Y-105130057D01*
X108312969Y-105130057D02*
X108241540Y-105058628D01*
X108241540Y-105058628D02*
X108241540Y-105201485D01*
X108955826Y-105558628D02*
X108955826Y-106558628D01*
X108955826Y-105701485D02*
X109027255Y-105630057D01*
X109027255Y-105630057D02*
X109170112Y-105558628D01*
X109170112Y-105558628D02*
X109384398Y-105558628D01*
X109384398Y-105558628D02*
X109527255Y-105630057D01*
X109527255Y-105630057D02*
X109598684Y-105772914D01*
X109598684Y-105772914D02*
X109598684Y-106558628D01*
X110955827Y-105558628D02*
X110955827Y-106772914D01*
X110955827Y-106772914D02*
X110884398Y-106915771D01*
X110884398Y-106915771D02*
X110812969Y-106987200D01*
X110812969Y-106987200D02*
X110670112Y-107058628D01*
X110670112Y-107058628D02*
X110455827Y-107058628D01*
X110455827Y-107058628D02*
X110312969Y-106987200D01*
X110955827Y-106487200D02*
X110812969Y-106558628D01*
X110812969Y-106558628D02*
X110527255Y-106558628D01*
X110527255Y-106558628D02*
X110384398Y-106487200D01*
X110384398Y-106487200D02*
X110312969Y-106415771D01*
X110312969Y-106415771D02*
X110241541Y-106272914D01*
X110241541Y-106272914D02*
X110241541Y-105844342D01*
X110241541Y-105844342D02*
X110312969Y-105701485D01*
X110312969Y-105701485D02*
X110384398Y-105630057D01*
X110384398Y-105630057D02*
X110527255Y-105558628D01*
X110527255Y-105558628D02*
X110812969Y-105558628D01*
X110812969Y-105558628D02*
X110955827Y-105630057D01*
X112741541Y-106130057D02*
X113455827Y-106130057D01*
X112598684Y-106558628D02*
X113098684Y-105058628D01*
X113098684Y-105058628D02*
X113598684Y-106558628D01*
X114098683Y-106558628D02*
X114098683Y-105558628D01*
X114098683Y-105701485D02*
X114170112Y-105630057D01*
X114170112Y-105630057D02*
X114312969Y-105558628D01*
X114312969Y-105558628D02*
X114527255Y-105558628D01*
X114527255Y-105558628D02*
X114670112Y-105630057D01*
X114670112Y-105630057D02*
X114741541Y-105772914D01*
X114741541Y-105772914D02*
X114741541Y-106558628D01*
X114741541Y-105772914D02*
X114812969Y-105630057D01*
X114812969Y-105630057D02*
X114955826Y-105558628D01*
X114955826Y-105558628D02*
X115170112Y-105558628D01*
X115170112Y-105558628D02*
X115312969Y-105630057D01*
X115312969Y-105630057D02*
X115384398Y-105772914D01*
X115384398Y-105772914D02*
X115384398Y-106558628D01*
X116098683Y-105558628D02*
X116098683Y-107058628D01*
X116098683Y-105630057D02*
X116241541Y-105558628D01*
X116241541Y-105558628D02*
X116527255Y-105558628D01*
X116527255Y-105558628D02*
X116670112Y-105630057D01*
X116670112Y-105630057D02*
X116741541Y-105701485D01*
X116741541Y-105701485D02*
X116812969Y-105844342D01*
X116812969Y-105844342D02*
X116812969Y-106272914D01*
X116812969Y-106272914D02*
X116741541Y-106415771D01*
X116741541Y-106415771D02*
X116670112Y-106487200D01*
X116670112Y-106487200D02*
X116527255Y-106558628D01*
X116527255Y-106558628D02*
X116241541Y-106558628D01*
X116241541Y-106558628D02*
X116098683Y-106487200D01*
X83086779Y-105988866D02*
X83848684Y-105988866D01*
X83467731Y-106369819D02*
X83467731Y-105607914D01*
X84848683Y-106369819D02*
X84277255Y-106369819D01*
X84562969Y-106369819D02*
X84562969Y-105369819D01*
X84562969Y-105369819D02*
X84467731Y-105512676D01*
X84467731Y-105512676D02*
X84372493Y-105607914D01*
X84372493Y-105607914D02*
X84277255Y-105655533D01*
X85229636Y-105465057D02*
X85277255Y-105417438D01*
X85277255Y-105417438D02*
X85372493Y-105369819D01*
X85372493Y-105369819D02*
X85610588Y-105369819D01*
X85610588Y-105369819D02*
X85705826Y-105417438D01*
X85705826Y-105417438D02*
X85753445Y-105465057D01*
X85753445Y-105465057D02*
X85801064Y-105560295D01*
X85801064Y-105560295D02*
X85801064Y-105655533D01*
X85801064Y-105655533D02*
X85753445Y-105798390D01*
X85753445Y-105798390D02*
X85182017Y-106369819D01*
X85182017Y-106369819D02*
X85801064Y-106369819D01*
X86086779Y-105369819D02*
X86420112Y-106369819D01*
X86420112Y-106369819D02*
X86753445Y-105369819D01*
X130920112Y-118726009D02*
X130586779Y-118726009D01*
X130586779Y-119249819D02*
X130586779Y-118249819D01*
X130586779Y-118249819D02*
X131062969Y-118249819D01*
X131348684Y-118249819D02*
X131586779Y-119249819D01*
X131586779Y-119249819D02*
X131777255Y-118535533D01*
X131777255Y-118535533D02*
X131967731Y-119249819D01*
X131967731Y-119249819D02*
X132205827Y-118249819D01*
X132586779Y-119249819D02*
X132586779Y-118249819D01*
X132586779Y-118249819D02*
X132824874Y-118249819D01*
X132824874Y-118249819D02*
X132967731Y-118297438D01*
X132967731Y-118297438D02*
X133062969Y-118392676D01*
X133062969Y-118392676D02*
X133110588Y-118487914D01*
X133110588Y-118487914D02*
X133158207Y-118678390D01*
X133158207Y-118678390D02*
X133158207Y-118821247D01*
X133158207Y-118821247D02*
X133110588Y-119011723D01*
X133110588Y-119011723D02*
X133062969Y-119106961D01*
X133062969Y-119106961D02*
X132967731Y-119202200D01*
X132967731Y-119202200D02*
X132824874Y-119249819D01*
X132824874Y-119249819D02*
X132586779Y-119249819D01*
X134348684Y-119249819D02*
X134348684Y-118249819D01*
X134348684Y-118249819D02*
X134729636Y-118249819D01*
X134729636Y-118249819D02*
X134824874Y-118297438D01*
X134824874Y-118297438D02*
X134872493Y-118345057D01*
X134872493Y-118345057D02*
X134920112Y-118440295D01*
X134920112Y-118440295D02*
X134920112Y-118583152D01*
X134920112Y-118583152D02*
X134872493Y-118678390D01*
X134872493Y-118678390D02*
X134824874Y-118726009D01*
X134824874Y-118726009D02*
X134729636Y-118773628D01*
X134729636Y-118773628D02*
X134348684Y-118773628D01*
X135491541Y-119249819D02*
X135396303Y-119202200D01*
X135396303Y-119202200D02*
X135348684Y-119154580D01*
X135348684Y-119154580D02*
X135301065Y-119059342D01*
X135301065Y-119059342D02*
X135301065Y-118773628D01*
X135301065Y-118773628D02*
X135348684Y-118678390D01*
X135348684Y-118678390D02*
X135396303Y-118630771D01*
X135396303Y-118630771D02*
X135491541Y-118583152D01*
X135491541Y-118583152D02*
X135634398Y-118583152D01*
X135634398Y-118583152D02*
X135729636Y-118630771D01*
X135729636Y-118630771D02*
X135777255Y-118678390D01*
X135777255Y-118678390D02*
X135824874Y-118773628D01*
X135824874Y-118773628D02*
X135824874Y-119059342D01*
X135824874Y-119059342D02*
X135777255Y-119154580D01*
X135777255Y-119154580D02*
X135729636Y-119202200D01*
X135729636Y-119202200D02*
X135634398Y-119249819D01*
X135634398Y-119249819D02*
X135491541Y-119249819D01*
X136158208Y-118583152D02*
X136348684Y-119249819D01*
X136348684Y-119249819D02*
X136539160Y-118773628D01*
X136539160Y-118773628D02*
X136729636Y-119249819D01*
X136729636Y-119249819D02*
X136920112Y-118583152D01*
X137682017Y-119202200D02*
X137586779Y-119249819D01*
X137586779Y-119249819D02*
X137396303Y-119249819D01*
X137396303Y-119249819D02*
X137301065Y-119202200D01*
X137301065Y-119202200D02*
X137253446Y-119106961D01*
X137253446Y-119106961D02*
X137253446Y-118726009D01*
X137253446Y-118726009D02*
X137301065Y-118630771D01*
X137301065Y-118630771D02*
X137396303Y-118583152D01*
X137396303Y-118583152D02*
X137586779Y-118583152D01*
X137586779Y-118583152D02*
X137682017Y-118630771D01*
X137682017Y-118630771D02*
X137729636Y-118726009D01*
X137729636Y-118726009D02*
X137729636Y-118821247D01*
X137729636Y-118821247D02*
X137253446Y-118916485D01*
X138158208Y-119249819D02*
X138158208Y-118583152D01*
X138158208Y-118773628D02*
X138205827Y-118678390D01*
X138205827Y-118678390D02*
X138253446Y-118630771D01*
X138253446Y-118630771D02*
X138348684Y-118583152D01*
X138348684Y-118583152D02*
X138443922Y-118583152D01*
X130119819Y-114722744D02*
X130119819Y-114532268D01*
X130119819Y-114532268D02*
X130167438Y-114437030D01*
X130167438Y-114437030D02*
X130262676Y-114341792D01*
X130262676Y-114341792D02*
X130453152Y-114294173D01*
X130453152Y-114294173D02*
X130786485Y-114294173D01*
X130786485Y-114294173D02*
X130976961Y-114341792D01*
X130976961Y-114341792D02*
X131072200Y-114437030D01*
X131072200Y-114437030D02*
X131119819Y-114532268D01*
X131119819Y-114532268D02*
X131119819Y-114722744D01*
X131119819Y-114722744D02*
X131072200Y-114817982D01*
X131072200Y-114817982D02*
X130976961Y-114913220D01*
X130976961Y-114913220D02*
X130786485Y-114960839D01*
X130786485Y-114960839D02*
X130453152Y-114960839D01*
X130453152Y-114960839D02*
X130262676Y-114913220D01*
X130262676Y-114913220D02*
X130167438Y-114817982D01*
X130167438Y-114817982D02*
X130119819Y-114722744D01*
X130453152Y-113437030D02*
X131119819Y-113437030D01*
X130453152Y-113865601D02*
X130976961Y-113865601D01*
X130976961Y-113865601D02*
X131072200Y-113817982D01*
X131072200Y-113817982D02*
X131119819Y-113722744D01*
X131119819Y-113722744D02*
X131119819Y-113579887D01*
X131119819Y-113579887D02*
X131072200Y-113484649D01*
X131072200Y-113484649D02*
X131024580Y-113437030D01*
X130453152Y-113103696D02*
X130453152Y-112722744D01*
X130119819Y-112960839D02*
X130976961Y-112960839D01*
X130976961Y-112960839D02*
X131072200Y-112913220D01*
X131072200Y-112913220D02*
X131119819Y-112817982D01*
X131119819Y-112817982D02*
X131119819Y-112722744D01*
X130453152Y-112389410D02*
X131453152Y-112389410D01*
X130500771Y-112389410D02*
X130453152Y-112294172D01*
X130453152Y-112294172D02*
X130453152Y-112103696D01*
X130453152Y-112103696D02*
X130500771Y-112008458D01*
X130500771Y-112008458D02*
X130548390Y-111960839D01*
X130548390Y-111960839D02*
X130643628Y-111913220D01*
X130643628Y-111913220D02*
X130929342Y-111913220D01*
X130929342Y-111913220D02*
X131024580Y-111960839D01*
X131024580Y-111960839D02*
X131072200Y-112008458D01*
X131072200Y-112008458D02*
X131119819Y-112103696D01*
X131119819Y-112103696D02*
X131119819Y-112294172D01*
X131119819Y-112294172D02*
X131072200Y-112389410D01*
X130453152Y-111056077D02*
X131119819Y-111056077D01*
X130453152Y-111484648D02*
X130976961Y-111484648D01*
X130976961Y-111484648D02*
X131072200Y-111437029D01*
X131072200Y-111437029D02*
X131119819Y-111341791D01*
X131119819Y-111341791D02*
X131119819Y-111198934D01*
X131119819Y-111198934D02*
X131072200Y-111103696D01*
X131072200Y-111103696D02*
X131024580Y-111056077D01*
X130453152Y-110722743D02*
X130453152Y-110341791D01*
X130119819Y-110579886D02*
X130976961Y-110579886D01*
X130976961Y-110579886D02*
X131072200Y-110532267D01*
X131072200Y-110532267D02*
X131119819Y-110437029D01*
X131119819Y-110437029D02*
X131119819Y-110341791D01*
X81598683Y-119119819D02*
X81265350Y-118643628D01*
X81027255Y-119119819D02*
X81027255Y-118119819D01*
X81027255Y-118119819D02*
X81408207Y-118119819D01*
X81408207Y-118119819D02*
X81503445Y-118167438D01*
X81503445Y-118167438D02*
X81551064Y-118215057D01*
X81551064Y-118215057D02*
X81598683Y-118310295D01*
X81598683Y-118310295D02*
X81598683Y-118453152D01*
X81598683Y-118453152D02*
X81551064Y-118548390D01*
X81551064Y-118548390D02*
X81503445Y-118596009D01*
X81503445Y-118596009D02*
X81408207Y-118643628D01*
X81408207Y-118643628D02*
X81027255Y-118643628D01*
X82027255Y-118596009D02*
X82360588Y-118596009D01*
X82503445Y-119119819D02*
X82027255Y-119119819D01*
X82027255Y-119119819D02*
X82027255Y-118119819D01*
X82027255Y-118119819D02*
X82503445Y-118119819D01*
X83265350Y-118596009D02*
X82932017Y-118596009D01*
X82932017Y-119119819D02*
X82932017Y-118119819D01*
X82932017Y-118119819D02*
X83408207Y-118119819D01*
X84551065Y-119119819D02*
X84551065Y-118119819D01*
X84551065Y-118119819D02*
X84932017Y-118119819D01*
X84932017Y-118119819D02*
X85027255Y-118167438D01*
X85027255Y-118167438D02*
X85074874Y-118215057D01*
X85074874Y-118215057D02*
X85122493Y-118310295D01*
X85122493Y-118310295D02*
X85122493Y-118453152D01*
X85122493Y-118453152D02*
X85074874Y-118548390D01*
X85074874Y-118548390D02*
X85027255Y-118596009D01*
X85027255Y-118596009D02*
X84932017Y-118643628D01*
X84932017Y-118643628D02*
X84551065Y-118643628D01*
X85693922Y-119119819D02*
X85598684Y-119072200D01*
X85598684Y-119072200D02*
X85551065Y-119024580D01*
X85551065Y-119024580D02*
X85503446Y-118929342D01*
X85503446Y-118929342D02*
X85503446Y-118643628D01*
X85503446Y-118643628D02*
X85551065Y-118548390D01*
X85551065Y-118548390D02*
X85598684Y-118500771D01*
X85598684Y-118500771D02*
X85693922Y-118453152D01*
X85693922Y-118453152D02*
X85836779Y-118453152D01*
X85836779Y-118453152D02*
X85932017Y-118500771D01*
X85932017Y-118500771D02*
X85979636Y-118548390D01*
X85979636Y-118548390D02*
X86027255Y-118643628D01*
X86027255Y-118643628D02*
X86027255Y-118929342D01*
X86027255Y-118929342D02*
X85979636Y-119024580D01*
X85979636Y-119024580D02*
X85932017Y-119072200D01*
X85932017Y-119072200D02*
X85836779Y-119119819D01*
X85836779Y-119119819D02*
X85693922Y-119119819D01*
X86360589Y-118453152D02*
X86551065Y-119119819D01*
X86551065Y-119119819D02*
X86741541Y-118643628D01*
X86741541Y-118643628D02*
X86932017Y-119119819D01*
X86932017Y-119119819D02*
X87122493Y-118453152D01*
X87884398Y-119072200D02*
X87789160Y-119119819D01*
X87789160Y-119119819D02*
X87598684Y-119119819D01*
X87598684Y-119119819D02*
X87503446Y-119072200D01*
X87503446Y-119072200D02*
X87455827Y-118976961D01*
X87455827Y-118976961D02*
X87455827Y-118596009D01*
X87455827Y-118596009D02*
X87503446Y-118500771D01*
X87503446Y-118500771D02*
X87598684Y-118453152D01*
X87598684Y-118453152D02*
X87789160Y-118453152D01*
X87789160Y-118453152D02*
X87884398Y-118500771D01*
X87884398Y-118500771D02*
X87932017Y-118596009D01*
X87932017Y-118596009D02*
X87932017Y-118691247D01*
X87932017Y-118691247D02*
X87455827Y-118786485D01*
X88360589Y-119119819D02*
X88360589Y-118453152D01*
X88360589Y-118643628D02*
X88408208Y-118548390D01*
X88408208Y-118548390D02*
X88455827Y-118500771D01*
X88455827Y-118500771D02*
X88551065Y-118453152D01*
X88551065Y-118453152D02*
X88646303Y-118453152D01*
X131408207Y-106369819D02*
X131074874Y-105893628D01*
X130836779Y-106369819D02*
X130836779Y-105369819D01*
X130836779Y-105369819D02*
X131217731Y-105369819D01*
X131217731Y-105369819D02*
X131312969Y-105417438D01*
X131312969Y-105417438D02*
X131360588Y-105465057D01*
X131360588Y-105465057D02*
X131408207Y-105560295D01*
X131408207Y-105560295D02*
X131408207Y-105703152D01*
X131408207Y-105703152D02*
X131360588Y-105798390D01*
X131360588Y-105798390D02*
X131312969Y-105846009D01*
X131312969Y-105846009D02*
X131217731Y-105893628D01*
X131217731Y-105893628D02*
X130836779Y-105893628D01*
X131836779Y-105846009D02*
X132170112Y-105846009D01*
X132312969Y-106369819D02*
X131836779Y-106369819D01*
X131836779Y-106369819D02*
X131836779Y-105369819D01*
X131836779Y-105369819D02*
X132312969Y-105369819D01*
X133074874Y-105846009D02*
X132741541Y-105846009D01*
X132741541Y-106369819D02*
X132741541Y-105369819D01*
X132741541Y-105369819D02*
X133217731Y-105369819D01*
X134360589Y-106369819D02*
X134360589Y-105369819D01*
X134360589Y-105369819D02*
X134741541Y-105369819D01*
X134741541Y-105369819D02*
X134836779Y-105417438D01*
X134836779Y-105417438D02*
X134884398Y-105465057D01*
X134884398Y-105465057D02*
X134932017Y-105560295D01*
X134932017Y-105560295D02*
X134932017Y-105703152D01*
X134932017Y-105703152D02*
X134884398Y-105798390D01*
X134884398Y-105798390D02*
X134836779Y-105846009D01*
X134836779Y-105846009D02*
X134741541Y-105893628D01*
X134741541Y-105893628D02*
X134360589Y-105893628D01*
X135503446Y-106369819D02*
X135408208Y-106322200D01*
X135408208Y-106322200D02*
X135360589Y-106274580D01*
X135360589Y-106274580D02*
X135312970Y-106179342D01*
X135312970Y-106179342D02*
X135312970Y-105893628D01*
X135312970Y-105893628D02*
X135360589Y-105798390D01*
X135360589Y-105798390D02*
X135408208Y-105750771D01*
X135408208Y-105750771D02*
X135503446Y-105703152D01*
X135503446Y-105703152D02*
X135646303Y-105703152D01*
X135646303Y-105703152D02*
X135741541Y-105750771D01*
X135741541Y-105750771D02*
X135789160Y-105798390D01*
X135789160Y-105798390D02*
X135836779Y-105893628D01*
X135836779Y-105893628D02*
X135836779Y-106179342D01*
X135836779Y-106179342D02*
X135789160Y-106274580D01*
X135789160Y-106274580D02*
X135741541Y-106322200D01*
X135741541Y-106322200D02*
X135646303Y-106369819D01*
X135646303Y-106369819D02*
X135503446Y-106369819D01*
X136170113Y-105703152D02*
X136360589Y-106369819D01*
X136360589Y-106369819D02*
X136551065Y-105893628D01*
X136551065Y-105893628D02*
X136741541Y-106369819D01*
X136741541Y-106369819D02*
X136932017Y-105703152D01*
X137693922Y-106322200D02*
X137598684Y-106369819D01*
X137598684Y-106369819D02*
X137408208Y-106369819D01*
X137408208Y-106369819D02*
X137312970Y-106322200D01*
X137312970Y-106322200D02*
X137265351Y-106226961D01*
X137265351Y-106226961D02*
X137265351Y-105846009D01*
X137265351Y-105846009D02*
X137312970Y-105750771D01*
X137312970Y-105750771D02*
X137408208Y-105703152D01*
X137408208Y-105703152D02*
X137598684Y-105703152D01*
X137598684Y-105703152D02*
X137693922Y-105750771D01*
X137693922Y-105750771D02*
X137741541Y-105846009D01*
X137741541Y-105846009D02*
X137741541Y-105941247D01*
X137741541Y-105941247D02*
X137265351Y-106036485D01*
X138170113Y-106369819D02*
X138170113Y-105703152D01*
X138170113Y-105893628D02*
X138217732Y-105798390D01*
X138217732Y-105798390D02*
X138265351Y-105750771D01*
X138265351Y-105750771D02*
X138360589Y-105703152D01*
X138360589Y-105703152D02*
X138455827Y-105703152D01*
X112583333Y-129804819D02*
X112250000Y-129328628D01*
X112011905Y-129804819D02*
X112011905Y-128804819D01*
X112011905Y-128804819D02*
X112392857Y-128804819D01*
X112392857Y-128804819D02*
X112488095Y-128852438D01*
X112488095Y-128852438D02*
X112535714Y-128900057D01*
X112535714Y-128900057D02*
X112583333Y-128995295D01*
X112583333Y-128995295D02*
X112583333Y-129138152D01*
X112583333Y-129138152D02*
X112535714Y-129233390D01*
X112535714Y-129233390D02*
X112488095Y-129281009D01*
X112488095Y-129281009D02*
X112392857Y-129328628D01*
X112392857Y-129328628D02*
X112011905Y-129328628D01*
X113154762Y-129233390D02*
X113059524Y-129185771D01*
X113059524Y-129185771D02*
X113011905Y-129138152D01*
X113011905Y-129138152D02*
X112964286Y-129042914D01*
X112964286Y-129042914D02*
X112964286Y-128995295D01*
X112964286Y-128995295D02*
X113011905Y-128900057D01*
X113011905Y-128900057D02*
X113059524Y-128852438D01*
X113059524Y-128852438D02*
X113154762Y-128804819D01*
X113154762Y-128804819D02*
X113345238Y-128804819D01*
X113345238Y-128804819D02*
X113440476Y-128852438D01*
X113440476Y-128852438D02*
X113488095Y-128900057D01*
X113488095Y-128900057D02*
X113535714Y-128995295D01*
X113535714Y-128995295D02*
X113535714Y-129042914D01*
X113535714Y-129042914D02*
X113488095Y-129138152D01*
X113488095Y-129138152D02*
X113440476Y-129185771D01*
X113440476Y-129185771D02*
X113345238Y-129233390D01*
X113345238Y-129233390D02*
X113154762Y-129233390D01*
X113154762Y-129233390D02*
X113059524Y-129281009D01*
X113059524Y-129281009D02*
X113011905Y-129328628D01*
X113011905Y-129328628D02*
X112964286Y-129423866D01*
X112964286Y-129423866D02*
X112964286Y-129614342D01*
X112964286Y-129614342D02*
X113011905Y-129709580D01*
X113011905Y-129709580D02*
X113059524Y-129757200D01*
X113059524Y-129757200D02*
X113154762Y-129804819D01*
X113154762Y-129804819D02*
X113345238Y-129804819D01*
X113345238Y-129804819D02*
X113440476Y-129757200D01*
X113440476Y-129757200D02*
X113488095Y-129709580D01*
X113488095Y-129709580D02*
X113535714Y-129614342D01*
X113535714Y-129614342D02*
X113535714Y-129423866D01*
X113535714Y-129423866D02*
X113488095Y-129328628D01*
X113488095Y-129328628D02*
X113440476Y-129281009D01*
X113440476Y-129281009D02*
X113345238Y-129233390D01*
X136833333Y-123204819D02*
X136500000Y-122728628D01*
X136261905Y-123204819D02*
X136261905Y-122204819D01*
X136261905Y-122204819D02*
X136642857Y-122204819D01*
X136642857Y-122204819D02*
X136738095Y-122252438D01*
X136738095Y-122252438D02*
X136785714Y-122300057D01*
X136785714Y-122300057D02*
X136833333Y-122395295D01*
X136833333Y-122395295D02*
X136833333Y-122538152D01*
X136833333Y-122538152D02*
X136785714Y-122633390D01*
X136785714Y-122633390D02*
X136738095Y-122681009D01*
X136738095Y-122681009D02*
X136642857Y-122728628D01*
X136642857Y-122728628D02*
X136261905Y-122728628D01*
X137738095Y-122204819D02*
X137261905Y-122204819D01*
X137261905Y-122204819D02*
X137214286Y-122681009D01*
X137214286Y-122681009D02*
X137261905Y-122633390D01*
X137261905Y-122633390D02*
X137357143Y-122585771D01*
X137357143Y-122585771D02*
X137595238Y-122585771D01*
X137595238Y-122585771D02*
X137690476Y-122633390D01*
X137690476Y-122633390D02*
X137738095Y-122681009D01*
X137738095Y-122681009D02*
X137785714Y-122776247D01*
X137785714Y-122776247D02*
X137785714Y-123014342D01*
X137785714Y-123014342D02*
X137738095Y-123109580D01*
X137738095Y-123109580D02*
X137690476Y-123157200D01*
X137690476Y-123157200D02*
X137595238Y-123204819D01*
X137595238Y-123204819D02*
X137357143Y-123204819D01*
X137357143Y-123204819D02*
X137261905Y-123157200D01*
X137261905Y-123157200D02*
X137214286Y-123109580D01*
X112333333Y-114359580D02*
X112285714Y-114407200D01*
X112285714Y-114407200D02*
X112142857Y-114454819D01*
X112142857Y-114454819D02*
X112047619Y-114454819D01*
X112047619Y-114454819D02*
X111904762Y-114407200D01*
X111904762Y-114407200D02*
X111809524Y-114311961D01*
X111809524Y-114311961D02*
X111761905Y-114216723D01*
X111761905Y-114216723D02*
X111714286Y-114026247D01*
X111714286Y-114026247D02*
X111714286Y-113883390D01*
X111714286Y-113883390D02*
X111761905Y-113692914D01*
X111761905Y-113692914D02*
X111809524Y-113597676D01*
X111809524Y-113597676D02*
X111904762Y-113502438D01*
X111904762Y-113502438D02*
X112047619Y-113454819D01*
X112047619Y-113454819D02*
X112142857Y-113454819D01*
X112142857Y-113454819D02*
X112285714Y-113502438D01*
X112285714Y-113502438D02*
X112333333Y-113550057D01*
X112714286Y-113550057D02*
X112761905Y-113502438D01*
X112761905Y-113502438D02*
X112857143Y-113454819D01*
X112857143Y-113454819D02*
X113095238Y-113454819D01*
X113095238Y-113454819D02*
X113190476Y-113502438D01*
X113190476Y-113502438D02*
X113238095Y-113550057D01*
X113238095Y-113550057D02*
X113285714Y-113645295D01*
X113285714Y-113645295D02*
X113285714Y-113740533D01*
X113285714Y-113740533D02*
X113238095Y-113883390D01*
X113238095Y-113883390D02*
X112666667Y-114454819D01*
X112666667Y-114454819D02*
X113285714Y-114454819D01*
X118484819Y-142345238D02*
X118008628Y-142678571D01*
X118484819Y-142916666D02*
X117484819Y-142916666D01*
X117484819Y-142916666D02*
X117484819Y-142535714D01*
X117484819Y-142535714D02*
X117532438Y-142440476D01*
X117532438Y-142440476D02*
X117580057Y-142392857D01*
X117580057Y-142392857D02*
X117675295Y-142345238D01*
X117675295Y-142345238D02*
X117818152Y-142345238D01*
X117818152Y-142345238D02*
X117913390Y-142392857D01*
X117913390Y-142392857D02*
X117961009Y-142440476D01*
X117961009Y-142440476D02*
X118008628Y-142535714D01*
X118008628Y-142535714D02*
X118008628Y-142916666D01*
X117484819Y-142059523D02*
X118484819Y-141726190D01*
X118484819Y-141726190D02*
X117484819Y-141392857D01*
X118484819Y-140535714D02*
X118484819Y-141107142D01*
X118484819Y-140821428D02*
X117484819Y-140821428D01*
X117484819Y-140821428D02*
X117627676Y-140916666D01*
X117627676Y-140916666D02*
X117722914Y-141011904D01*
X117722914Y-141011904D02*
X117770533Y-141107142D01*
X119549999Y-136766009D02*
X119216666Y-136766009D01*
X119216666Y-137289819D02*
X119216666Y-136289819D01*
X119216666Y-136289819D02*
X119692856Y-136289819D01*
X119978571Y-136289819D02*
X120216666Y-137289819D01*
X120216666Y-137289819D02*
X120407142Y-136575533D01*
X120407142Y-136575533D02*
X120597618Y-137289819D01*
X120597618Y-137289819D02*
X120835714Y-136289819D01*
X121216666Y-137289819D02*
X121216666Y-136289819D01*
X121216666Y-136289819D02*
X121454761Y-136289819D01*
X121454761Y-136289819D02*
X121597618Y-136337438D01*
X121597618Y-136337438D02*
X121692856Y-136432676D01*
X121692856Y-136432676D02*
X121740475Y-136527914D01*
X121740475Y-136527914D02*
X121788094Y-136718390D01*
X121788094Y-136718390D02*
X121788094Y-136861247D01*
X121788094Y-136861247D02*
X121740475Y-137051723D01*
X121740475Y-137051723D02*
X121692856Y-137146961D01*
X121692856Y-137146961D02*
X121597618Y-137242200D01*
X121597618Y-137242200D02*
X121454761Y-137289819D01*
X121454761Y-137289819D02*
X121216666Y-137289819D01*
X122978571Y-137289819D02*
X122978571Y-136289819D01*
X122978571Y-136289819D02*
X123216666Y-136289819D01*
X123216666Y-136289819D02*
X123359523Y-136337438D01*
X123359523Y-136337438D02*
X123454761Y-136432676D01*
X123454761Y-136432676D02*
X123502380Y-136527914D01*
X123502380Y-136527914D02*
X123549999Y-136718390D01*
X123549999Y-136718390D02*
X123549999Y-136861247D01*
X123549999Y-136861247D02*
X123502380Y-137051723D01*
X123502380Y-137051723D02*
X123454761Y-137146961D01*
X123454761Y-137146961D02*
X123359523Y-137242200D01*
X123359523Y-137242200D02*
X123216666Y-137289819D01*
X123216666Y-137289819D02*
X122978571Y-137289819D01*
X124359523Y-137242200D02*
X124264285Y-137289819D01*
X124264285Y-137289819D02*
X124073809Y-137289819D01*
X124073809Y-137289819D02*
X123978571Y-137242200D01*
X123978571Y-137242200D02*
X123930952Y-137146961D01*
X123930952Y-137146961D02*
X123930952Y-136766009D01*
X123930952Y-136766009D02*
X123978571Y-136670771D01*
X123978571Y-136670771D02*
X124073809Y-136623152D01*
X124073809Y-136623152D02*
X124264285Y-136623152D01*
X124264285Y-136623152D02*
X124359523Y-136670771D01*
X124359523Y-136670771D02*
X124407142Y-136766009D01*
X124407142Y-136766009D02*
X124407142Y-136861247D01*
X124407142Y-136861247D02*
X123930952Y-136956485D01*
X125264285Y-137242200D02*
X125169047Y-137289819D01*
X125169047Y-137289819D02*
X124978571Y-137289819D01*
X124978571Y-137289819D02*
X124883333Y-137242200D01*
X124883333Y-137242200D02*
X124835714Y-137194580D01*
X124835714Y-137194580D02*
X124788095Y-137099342D01*
X124788095Y-137099342D02*
X124788095Y-136813628D01*
X124788095Y-136813628D02*
X124835714Y-136718390D01*
X124835714Y-136718390D02*
X124883333Y-136670771D01*
X124883333Y-136670771D02*
X124978571Y-136623152D01*
X124978571Y-136623152D02*
X125169047Y-136623152D01*
X125169047Y-136623152D02*
X125264285Y-136670771D01*
X126121428Y-137289819D02*
X126121428Y-136766009D01*
X126121428Y-136766009D02*
X126073809Y-136670771D01*
X126073809Y-136670771D02*
X125978571Y-136623152D01*
X125978571Y-136623152D02*
X125788095Y-136623152D01*
X125788095Y-136623152D02*
X125692857Y-136670771D01*
X126121428Y-137242200D02*
X126026190Y-137289819D01*
X126026190Y-137289819D02*
X125788095Y-137289819D01*
X125788095Y-137289819D02*
X125692857Y-137242200D01*
X125692857Y-137242200D02*
X125645238Y-137146961D01*
X125645238Y-137146961D02*
X125645238Y-137051723D01*
X125645238Y-137051723D02*
X125692857Y-136956485D01*
X125692857Y-136956485D02*
X125788095Y-136908866D01*
X125788095Y-136908866D02*
X126026190Y-136908866D01*
X126026190Y-136908866D02*
X126121428Y-136861247D01*
X126502381Y-136623152D02*
X126740476Y-137289819D01*
X126978571Y-136623152D02*
X126740476Y-137289819D01*
X126740476Y-137289819D02*
X126645238Y-137527914D01*
X126645238Y-137527914D02*
X126597619Y-137575533D01*
X126597619Y-137575533D02*
X126502381Y-137623152D01*
X138204819Y-142345238D02*
X137728628Y-142678571D01*
X138204819Y-142916666D02*
X137204819Y-142916666D01*
X137204819Y-142916666D02*
X137204819Y-142535714D01*
X137204819Y-142535714D02*
X137252438Y-142440476D01*
X137252438Y-142440476D02*
X137300057Y-142392857D01*
X137300057Y-142392857D02*
X137395295Y-142345238D01*
X137395295Y-142345238D02*
X137538152Y-142345238D01*
X137538152Y-142345238D02*
X137633390Y-142392857D01*
X137633390Y-142392857D02*
X137681009Y-142440476D01*
X137681009Y-142440476D02*
X137728628Y-142535714D01*
X137728628Y-142535714D02*
X137728628Y-142916666D01*
X137204819Y-142059523D02*
X138204819Y-141726190D01*
X138204819Y-141726190D02*
X137204819Y-141392857D01*
X137300057Y-141107142D02*
X137252438Y-141059523D01*
X137252438Y-141059523D02*
X137204819Y-140964285D01*
X137204819Y-140964285D02*
X137204819Y-140726190D01*
X137204819Y-140726190D02*
X137252438Y-140630952D01*
X137252438Y-140630952D02*
X137300057Y-140583333D01*
X137300057Y-140583333D02*
X137395295Y-140535714D01*
X137395295Y-140535714D02*
X137490533Y-140535714D01*
X137490533Y-140535714D02*
X137633390Y-140583333D01*
X137633390Y-140583333D02*
X138204819Y-141154761D01*
X138204819Y-141154761D02*
X138204819Y-140535714D01*
X129778095Y-136766009D02*
X129444762Y-136766009D01*
X129444762Y-137289819D02*
X129444762Y-136289819D01*
X129444762Y-136289819D02*
X129920952Y-136289819D01*
X130206667Y-136289819D02*
X130444762Y-137289819D01*
X130444762Y-137289819D02*
X130635238Y-136575533D01*
X130635238Y-136575533D02*
X130825714Y-137289819D01*
X130825714Y-137289819D02*
X131063810Y-136289819D01*
X131444762Y-137289819D02*
X131444762Y-136289819D01*
X131444762Y-136289819D02*
X131682857Y-136289819D01*
X131682857Y-136289819D02*
X131825714Y-136337438D01*
X131825714Y-136337438D02*
X131920952Y-136432676D01*
X131920952Y-136432676D02*
X131968571Y-136527914D01*
X131968571Y-136527914D02*
X132016190Y-136718390D01*
X132016190Y-136718390D02*
X132016190Y-136861247D01*
X132016190Y-136861247D02*
X131968571Y-137051723D01*
X131968571Y-137051723D02*
X131920952Y-137146961D01*
X131920952Y-137146961D02*
X131825714Y-137242200D01*
X131825714Y-137242200D02*
X131682857Y-137289819D01*
X131682857Y-137289819D02*
X131444762Y-137289819D01*
X133778095Y-137194580D02*
X133730476Y-137242200D01*
X133730476Y-137242200D02*
X133587619Y-137289819D01*
X133587619Y-137289819D02*
X133492381Y-137289819D01*
X133492381Y-137289819D02*
X133349524Y-137242200D01*
X133349524Y-137242200D02*
X133254286Y-137146961D01*
X133254286Y-137146961D02*
X133206667Y-137051723D01*
X133206667Y-137051723D02*
X133159048Y-136861247D01*
X133159048Y-136861247D02*
X133159048Y-136718390D01*
X133159048Y-136718390D02*
X133206667Y-136527914D01*
X133206667Y-136527914D02*
X133254286Y-136432676D01*
X133254286Y-136432676D02*
X133349524Y-136337438D01*
X133349524Y-136337438D02*
X133492381Y-136289819D01*
X133492381Y-136289819D02*
X133587619Y-136289819D01*
X133587619Y-136289819D02*
X133730476Y-136337438D01*
X133730476Y-136337438D02*
X133778095Y-136385057D01*
X134635238Y-137289819D02*
X134635238Y-136766009D01*
X134635238Y-136766009D02*
X134587619Y-136670771D01*
X134587619Y-136670771D02*
X134492381Y-136623152D01*
X134492381Y-136623152D02*
X134301905Y-136623152D01*
X134301905Y-136623152D02*
X134206667Y-136670771D01*
X134635238Y-137242200D02*
X134540000Y-137289819D01*
X134540000Y-137289819D02*
X134301905Y-137289819D01*
X134301905Y-137289819D02*
X134206667Y-137242200D01*
X134206667Y-137242200D02*
X134159048Y-137146961D01*
X134159048Y-137146961D02*
X134159048Y-137051723D01*
X134159048Y-137051723D02*
X134206667Y-136956485D01*
X134206667Y-136956485D02*
X134301905Y-136908866D01*
X134301905Y-136908866D02*
X134540000Y-136908866D01*
X134540000Y-136908866D02*
X134635238Y-136861247D01*
X135254286Y-137289819D02*
X135159048Y-137242200D01*
X135159048Y-137242200D02*
X135111429Y-137146961D01*
X135111429Y-137146961D02*
X135111429Y-136289819D01*
X135635239Y-137194580D02*
X135682858Y-137242200D01*
X135682858Y-137242200D02*
X135635239Y-137289819D01*
X135635239Y-137289819D02*
X135587620Y-137242200D01*
X135587620Y-137242200D02*
X135635239Y-137194580D01*
X135635239Y-137194580D02*
X135635239Y-137289819D01*
X90033333Y-114507080D02*
X89985714Y-114554700D01*
X89985714Y-114554700D02*
X89842857Y-114602319D01*
X89842857Y-114602319D02*
X89747619Y-114602319D01*
X89747619Y-114602319D02*
X89604762Y-114554700D01*
X89604762Y-114554700D02*
X89509524Y-114459461D01*
X89509524Y-114459461D02*
X89461905Y-114364223D01*
X89461905Y-114364223D02*
X89414286Y-114173747D01*
X89414286Y-114173747D02*
X89414286Y-114030890D01*
X89414286Y-114030890D02*
X89461905Y-113840414D01*
X89461905Y-113840414D02*
X89509524Y-113745176D01*
X89509524Y-113745176D02*
X89604762Y-113649938D01*
X89604762Y-113649938D02*
X89747619Y-113602319D01*
X89747619Y-113602319D02*
X89842857Y-113602319D01*
X89842857Y-113602319D02*
X89985714Y-113649938D01*
X89985714Y-113649938D02*
X90033333Y-113697557D01*
X90366667Y-113602319D02*
X90985714Y-113602319D01*
X90985714Y-113602319D02*
X90652381Y-113983271D01*
X90652381Y-113983271D02*
X90795238Y-113983271D01*
X90795238Y-113983271D02*
X90890476Y-114030890D01*
X90890476Y-114030890D02*
X90938095Y-114078509D01*
X90938095Y-114078509D02*
X90985714Y-114173747D01*
X90985714Y-114173747D02*
X90985714Y-114411842D01*
X90985714Y-114411842D02*
X90938095Y-114507080D01*
X90938095Y-114507080D02*
X90890476Y-114554700D01*
X90890476Y-114554700D02*
X90795238Y-114602319D01*
X90795238Y-114602319D02*
X90509524Y-114602319D01*
X90509524Y-114602319D02*
X90414286Y-114554700D01*
X90414286Y-114554700D02*
X90366667Y-114507080D01*
X96011905Y-127454819D02*
X96011905Y-126454819D01*
X96011905Y-126454819D02*
X96250000Y-126454819D01*
X96250000Y-126454819D02*
X96392857Y-126502438D01*
X96392857Y-126502438D02*
X96488095Y-126597676D01*
X96488095Y-126597676D02*
X96535714Y-126692914D01*
X96535714Y-126692914D02*
X96583333Y-126883390D01*
X96583333Y-126883390D02*
X96583333Y-127026247D01*
X96583333Y-127026247D02*
X96535714Y-127216723D01*
X96535714Y-127216723D02*
X96488095Y-127311961D01*
X96488095Y-127311961D02*
X96392857Y-127407200D01*
X96392857Y-127407200D02*
X96250000Y-127454819D01*
X96250000Y-127454819D02*
X96011905Y-127454819D01*
X97440476Y-126788152D02*
X97440476Y-127454819D01*
X97202381Y-126407200D02*
X96964286Y-127121485D01*
X96964286Y-127121485D02*
X97583333Y-127121485D01*
X86454819Y-142345238D02*
X85978628Y-142678571D01*
X86454819Y-142916666D02*
X85454819Y-142916666D01*
X85454819Y-142916666D02*
X85454819Y-142535714D01*
X85454819Y-142535714D02*
X85502438Y-142440476D01*
X85502438Y-142440476D02*
X85550057Y-142392857D01*
X85550057Y-142392857D02*
X85645295Y-142345238D01*
X85645295Y-142345238D02*
X85788152Y-142345238D01*
X85788152Y-142345238D02*
X85883390Y-142392857D01*
X85883390Y-142392857D02*
X85931009Y-142440476D01*
X85931009Y-142440476D02*
X85978628Y-142535714D01*
X85978628Y-142535714D02*
X85978628Y-142916666D01*
X85454819Y-142059523D02*
X86454819Y-141726190D01*
X86454819Y-141726190D02*
X85454819Y-141392857D01*
X85454819Y-141154761D02*
X85454819Y-140535714D01*
X85454819Y-140535714D02*
X85835771Y-140869047D01*
X85835771Y-140869047D02*
X85835771Y-140726190D01*
X85835771Y-140726190D02*
X85883390Y-140630952D01*
X85883390Y-140630952D02*
X85931009Y-140583333D01*
X85931009Y-140583333D02*
X86026247Y-140535714D01*
X86026247Y-140535714D02*
X86264342Y-140535714D01*
X86264342Y-140535714D02*
X86359580Y-140583333D01*
X86359580Y-140583333D02*
X86407200Y-140630952D01*
X86407200Y-140630952D02*
X86454819Y-140726190D01*
X86454819Y-140726190D02*
X86454819Y-141011904D01*
X86454819Y-141011904D02*
X86407200Y-141107142D01*
X86407200Y-141107142D02*
X86359580Y-141154761D01*
X88117142Y-137289819D02*
X87783809Y-136813628D01*
X87545714Y-137289819D02*
X87545714Y-136289819D01*
X87545714Y-136289819D02*
X87926666Y-136289819D01*
X87926666Y-136289819D02*
X88021904Y-136337438D01*
X88021904Y-136337438D02*
X88069523Y-136385057D01*
X88069523Y-136385057D02*
X88117142Y-136480295D01*
X88117142Y-136480295D02*
X88117142Y-136623152D01*
X88117142Y-136623152D02*
X88069523Y-136718390D01*
X88069523Y-136718390D02*
X88021904Y-136766009D01*
X88021904Y-136766009D02*
X87926666Y-136813628D01*
X87926666Y-136813628D02*
X87545714Y-136813628D01*
X88545714Y-136766009D02*
X88879047Y-136766009D01*
X89021904Y-137289819D02*
X88545714Y-137289819D01*
X88545714Y-137289819D02*
X88545714Y-136289819D01*
X88545714Y-136289819D02*
X89021904Y-136289819D01*
X89783809Y-136766009D02*
X89450476Y-136766009D01*
X89450476Y-137289819D02*
X89450476Y-136289819D01*
X89450476Y-136289819D02*
X89926666Y-136289819D01*
X91069524Y-137289819D02*
X91069524Y-136289819D01*
X91069524Y-136289819D02*
X91307619Y-136289819D01*
X91307619Y-136289819D02*
X91450476Y-136337438D01*
X91450476Y-136337438D02*
X91545714Y-136432676D01*
X91545714Y-136432676D02*
X91593333Y-136527914D01*
X91593333Y-136527914D02*
X91640952Y-136718390D01*
X91640952Y-136718390D02*
X91640952Y-136861247D01*
X91640952Y-136861247D02*
X91593333Y-137051723D01*
X91593333Y-137051723D02*
X91545714Y-137146961D01*
X91545714Y-137146961D02*
X91450476Y-137242200D01*
X91450476Y-137242200D02*
X91307619Y-137289819D01*
X91307619Y-137289819D02*
X91069524Y-137289819D01*
X92450476Y-137242200D02*
X92355238Y-137289819D01*
X92355238Y-137289819D02*
X92164762Y-137289819D01*
X92164762Y-137289819D02*
X92069524Y-137242200D01*
X92069524Y-137242200D02*
X92021905Y-137146961D01*
X92021905Y-137146961D02*
X92021905Y-136766009D01*
X92021905Y-136766009D02*
X92069524Y-136670771D01*
X92069524Y-136670771D02*
X92164762Y-136623152D01*
X92164762Y-136623152D02*
X92355238Y-136623152D01*
X92355238Y-136623152D02*
X92450476Y-136670771D01*
X92450476Y-136670771D02*
X92498095Y-136766009D01*
X92498095Y-136766009D02*
X92498095Y-136861247D01*
X92498095Y-136861247D02*
X92021905Y-136956485D01*
X93355238Y-137242200D02*
X93260000Y-137289819D01*
X93260000Y-137289819D02*
X93069524Y-137289819D01*
X93069524Y-137289819D02*
X92974286Y-137242200D01*
X92974286Y-137242200D02*
X92926667Y-137194580D01*
X92926667Y-137194580D02*
X92879048Y-137099342D01*
X92879048Y-137099342D02*
X92879048Y-136813628D01*
X92879048Y-136813628D02*
X92926667Y-136718390D01*
X92926667Y-136718390D02*
X92974286Y-136670771D01*
X92974286Y-136670771D02*
X93069524Y-136623152D01*
X93069524Y-136623152D02*
X93260000Y-136623152D01*
X93260000Y-136623152D02*
X93355238Y-136670771D01*
X94212381Y-137289819D02*
X94212381Y-136766009D01*
X94212381Y-136766009D02*
X94164762Y-136670771D01*
X94164762Y-136670771D02*
X94069524Y-136623152D01*
X94069524Y-136623152D02*
X93879048Y-136623152D01*
X93879048Y-136623152D02*
X93783810Y-136670771D01*
X94212381Y-137242200D02*
X94117143Y-137289819D01*
X94117143Y-137289819D02*
X93879048Y-137289819D01*
X93879048Y-137289819D02*
X93783810Y-137242200D01*
X93783810Y-137242200D02*
X93736191Y-137146961D01*
X93736191Y-137146961D02*
X93736191Y-137051723D01*
X93736191Y-137051723D02*
X93783810Y-136956485D01*
X93783810Y-136956485D02*
X93879048Y-136908866D01*
X93879048Y-136908866D02*
X94117143Y-136908866D01*
X94117143Y-136908866D02*
X94212381Y-136861247D01*
X94593334Y-136623152D02*
X94831429Y-137289819D01*
X95069524Y-136623152D02*
X94831429Y-137289819D01*
X94831429Y-137289819D02*
X94736191Y-137527914D01*
X94736191Y-137527914D02*
X94688572Y-137575533D01*
X94688572Y-137575533D02*
X94593334Y-137623152D01*
X112857142Y-123304819D02*
X112523809Y-122828628D01*
X112285714Y-123304819D02*
X112285714Y-122304819D01*
X112285714Y-122304819D02*
X112666666Y-122304819D01*
X112666666Y-122304819D02*
X112761904Y-122352438D01*
X112761904Y-122352438D02*
X112809523Y-122400057D01*
X112809523Y-122400057D02*
X112857142Y-122495295D01*
X112857142Y-122495295D02*
X112857142Y-122638152D01*
X112857142Y-122638152D02*
X112809523Y-122733390D01*
X112809523Y-122733390D02*
X112761904Y-122781009D01*
X112761904Y-122781009D02*
X112666666Y-122828628D01*
X112666666Y-122828628D02*
X112285714Y-122828628D01*
X113809523Y-123304819D02*
X113238095Y-123304819D01*
X113523809Y-123304819D02*
X113523809Y-122304819D01*
X113523809Y-122304819D02*
X113428571Y-122447676D01*
X113428571Y-122447676D02*
X113333333Y-122542914D01*
X113333333Y-122542914D02*
X113238095Y-122590533D01*
X114761904Y-123304819D02*
X114190476Y-123304819D01*
X114476190Y-123304819D02*
X114476190Y-122304819D01*
X114476190Y-122304819D02*
X114380952Y-122447676D01*
X114380952Y-122447676D02*
X114285714Y-122542914D01*
X114285714Y-122542914D02*
X114190476Y-122590533D01*
X136833333Y-129704819D02*
X136500000Y-129228628D01*
X136261905Y-129704819D02*
X136261905Y-128704819D01*
X136261905Y-128704819D02*
X136642857Y-128704819D01*
X136642857Y-128704819D02*
X136738095Y-128752438D01*
X136738095Y-128752438D02*
X136785714Y-128800057D01*
X136785714Y-128800057D02*
X136833333Y-128895295D01*
X136833333Y-128895295D02*
X136833333Y-129038152D01*
X136833333Y-129038152D02*
X136785714Y-129133390D01*
X136785714Y-129133390D02*
X136738095Y-129181009D01*
X136738095Y-129181009D02*
X136642857Y-129228628D01*
X136642857Y-129228628D02*
X136261905Y-129228628D01*
X137214286Y-128800057D02*
X137261905Y-128752438D01*
X137261905Y-128752438D02*
X137357143Y-128704819D01*
X137357143Y-128704819D02*
X137595238Y-128704819D01*
X137595238Y-128704819D02*
X137690476Y-128752438D01*
X137690476Y-128752438D02*
X137738095Y-128800057D01*
X137738095Y-128800057D02*
X137785714Y-128895295D01*
X137785714Y-128895295D02*
X137785714Y-128990533D01*
X137785714Y-128990533D02*
X137738095Y-129133390D01*
X137738095Y-129133390D02*
X137166667Y-129704819D01*
X137166667Y-129704819D02*
X137785714Y-129704819D01*
X98261905Y-135454819D02*
X98261905Y-134454819D01*
X98261905Y-134454819D02*
X98500000Y-134454819D01*
X98500000Y-134454819D02*
X98642857Y-134502438D01*
X98642857Y-134502438D02*
X98738095Y-134597676D01*
X98738095Y-134597676D02*
X98785714Y-134692914D01*
X98785714Y-134692914D02*
X98833333Y-134883390D01*
X98833333Y-134883390D02*
X98833333Y-135026247D01*
X98833333Y-135026247D02*
X98785714Y-135216723D01*
X98785714Y-135216723D02*
X98738095Y-135311961D01*
X98738095Y-135311961D02*
X98642857Y-135407200D01*
X98642857Y-135407200D02*
X98500000Y-135454819D01*
X98500000Y-135454819D02*
X98261905Y-135454819D01*
X99690476Y-134454819D02*
X99500000Y-134454819D01*
X99500000Y-134454819D02*
X99404762Y-134502438D01*
X99404762Y-134502438D02*
X99357143Y-134550057D01*
X99357143Y-134550057D02*
X99261905Y-134692914D01*
X99261905Y-134692914D02*
X99214286Y-134883390D01*
X99214286Y-134883390D02*
X99214286Y-135264342D01*
X99214286Y-135264342D02*
X99261905Y-135359580D01*
X99261905Y-135359580D02*
X99309524Y-135407200D01*
X99309524Y-135407200D02*
X99404762Y-135454819D01*
X99404762Y-135454819D02*
X99595238Y-135454819D01*
X99595238Y-135454819D02*
X99690476Y-135407200D01*
X99690476Y-135407200D02*
X99738095Y-135359580D01*
X99738095Y-135359580D02*
X99785714Y-135264342D01*
X99785714Y-135264342D02*
X99785714Y-135026247D01*
X99785714Y-135026247D02*
X99738095Y-134931009D01*
X99738095Y-134931009D02*
X99690476Y-134883390D01*
X99690476Y-134883390D02*
X99595238Y-134835771D01*
X99595238Y-134835771D02*
X99404762Y-134835771D01*
X99404762Y-134835771D02*
X99309524Y-134883390D01*
X99309524Y-134883390D02*
X99261905Y-134931009D01*
X99261905Y-134931009D02*
X99214286Y-135026247D01*
X90458333Y-131109580D02*
X90410714Y-131157200D01*
X90410714Y-131157200D02*
X90267857Y-131204819D01*
X90267857Y-131204819D02*
X90172619Y-131204819D01*
X90172619Y-131204819D02*
X90029762Y-131157200D01*
X90029762Y-131157200D02*
X89934524Y-131061961D01*
X89934524Y-131061961D02*
X89886905Y-130966723D01*
X89886905Y-130966723D02*
X89839286Y-130776247D01*
X89839286Y-130776247D02*
X89839286Y-130633390D01*
X89839286Y-130633390D02*
X89886905Y-130442914D01*
X89886905Y-130442914D02*
X89934524Y-130347676D01*
X89934524Y-130347676D02*
X90029762Y-130252438D01*
X90029762Y-130252438D02*
X90172619Y-130204819D01*
X90172619Y-130204819D02*
X90267857Y-130204819D01*
X90267857Y-130204819D02*
X90410714Y-130252438D01*
X90410714Y-130252438D02*
X90458333Y-130300057D01*
X91315476Y-130538152D02*
X91315476Y-131204819D01*
X91077381Y-130157200D02*
X90839286Y-130871485D01*
X90839286Y-130871485D02*
X91458333Y-130871485D01*
X106454819Y-142345238D02*
X105978628Y-142678571D01*
X106454819Y-142916666D02*
X105454819Y-142916666D01*
X105454819Y-142916666D02*
X105454819Y-142535714D01*
X105454819Y-142535714D02*
X105502438Y-142440476D01*
X105502438Y-142440476D02*
X105550057Y-142392857D01*
X105550057Y-142392857D02*
X105645295Y-142345238D01*
X105645295Y-142345238D02*
X105788152Y-142345238D01*
X105788152Y-142345238D02*
X105883390Y-142392857D01*
X105883390Y-142392857D02*
X105931009Y-142440476D01*
X105931009Y-142440476D02*
X105978628Y-142535714D01*
X105978628Y-142535714D02*
X105978628Y-142916666D01*
X105454819Y-142059523D02*
X106454819Y-141726190D01*
X106454819Y-141726190D02*
X105454819Y-141392857D01*
X105788152Y-140630952D02*
X106454819Y-140630952D01*
X105407200Y-140869047D02*
X106121485Y-141107142D01*
X106121485Y-141107142D02*
X106121485Y-140488095D01*
X98355237Y-137289819D02*
X98021904Y-136813628D01*
X97783809Y-137289819D02*
X97783809Y-136289819D01*
X97783809Y-136289819D02*
X98164761Y-136289819D01*
X98164761Y-136289819D02*
X98259999Y-136337438D01*
X98259999Y-136337438D02*
X98307618Y-136385057D01*
X98307618Y-136385057D02*
X98355237Y-136480295D01*
X98355237Y-136480295D02*
X98355237Y-136623152D01*
X98355237Y-136623152D02*
X98307618Y-136718390D01*
X98307618Y-136718390D02*
X98259999Y-136766009D01*
X98259999Y-136766009D02*
X98164761Y-136813628D01*
X98164761Y-136813628D02*
X97783809Y-136813628D01*
X98783809Y-136766009D02*
X99117142Y-136766009D01*
X99259999Y-137289819D02*
X98783809Y-137289819D01*
X98783809Y-137289819D02*
X98783809Y-136289819D01*
X98783809Y-136289819D02*
X99259999Y-136289819D01*
X100021904Y-136766009D02*
X99688571Y-136766009D01*
X99688571Y-137289819D02*
X99688571Y-136289819D01*
X99688571Y-136289819D02*
X100164761Y-136289819D01*
X101879047Y-137194580D02*
X101831428Y-137242200D01*
X101831428Y-137242200D02*
X101688571Y-137289819D01*
X101688571Y-137289819D02*
X101593333Y-137289819D01*
X101593333Y-137289819D02*
X101450476Y-137242200D01*
X101450476Y-137242200D02*
X101355238Y-137146961D01*
X101355238Y-137146961D02*
X101307619Y-137051723D01*
X101307619Y-137051723D02*
X101260000Y-136861247D01*
X101260000Y-136861247D02*
X101260000Y-136718390D01*
X101260000Y-136718390D02*
X101307619Y-136527914D01*
X101307619Y-136527914D02*
X101355238Y-136432676D01*
X101355238Y-136432676D02*
X101450476Y-136337438D01*
X101450476Y-136337438D02*
X101593333Y-136289819D01*
X101593333Y-136289819D02*
X101688571Y-136289819D01*
X101688571Y-136289819D02*
X101831428Y-136337438D01*
X101831428Y-136337438D02*
X101879047Y-136385057D01*
X102736190Y-137289819D02*
X102736190Y-136766009D01*
X102736190Y-136766009D02*
X102688571Y-136670771D01*
X102688571Y-136670771D02*
X102593333Y-136623152D01*
X102593333Y-136623152D02*
X102402857Y-136623152D01*
X102402857Y-136623152D02*
X102307619Y-136670771D01*
X102736190Y-137242200D02*
X102640952Y-137289819D01*
X102640952Y-137289819D02*
X102402857Y-137289819D01*
X102402857Y-137289819D02*
X102307619Y-137242200D01*
X102307619Y-137242200D02*
X102260000Y-137146961D01*
X102260000Y-137146961D02*
X102260000Y-137051723D01*
X102260000Y-137051723D02*
X102307619Y-136956485D01*
X102307619Y-136956485D02*
X102402857Y-136908866D01*
X102402857Y-136908866D02*
X102640952Y-136908866D01*
X102640952Y-136908866D02*
X102736190Y-136861247D01*
X103355238Y-137289819D02*
X103260000Y-137242200D01*
X103260000Y-137242200D02*
X103212381Y-137146961D01*
X103212381Y-137146961D02*
X103212381Y-136289819D01*
X103736191Y-137194580D02*
X103783810Y-137242200D01*
X103783810Y-137242200D02*
X103736191Y-137289819D01*
X103736191Y-137289819D02*
X103688572Y-137242200D01*
X103688572Y-137242200D02*
X103736191Y-137194580D01*
X103736191Y-137194580D02*
X103736191Y-137289819D01*
X103083333Y-116529580D02*
X103035714Y-116577200D01*
X103035714Y-116577200D02*
X102892857Y-116624819D01*
X102892857Y-116624819D02*
X102797619Y-116624819D01*
X102797619Y-116624819D02*
X102654762Y-116577200D01*
X102654762Y-116577200D02*
X102559524Y-116481961D01*
X102559524Y-116481961D02*
X102511905Y-116386723D01*
X102511905Y-116386723D02*
X102464286Y-116196247D01*
X102464286Y-116196247D02*
X102464286Y-116053390D01*
X102464286Y-116053390D02*
X102511905Y-115862914D01*
X102511905Y-115862914D02*
X102559524Y-115767676D01*
X102559524Y-115767676D02*
X102654762Y-115672438D01*
X102654762Y-115672438D02*
X102797619Y-115624819D01*
X102797619Y-115624819D02*
X102892857Y-115624819D01*
X102892857Y-115624819D02*
X103035714Y-115672438D01*
X103035714Y-115672438D02*
X103083333Y-115720057D01*
X103654762Y-116053390D02*
X103559524Y-116005771D01*
X103559524Y-116005771D02*
X103511905Y-115958152D01*
X103511905Y-115958152D02*
X103464286Y-115862914D01*
X103464286Y-115862914D02*
X103464286Y-115815295D01*
X103464286Y-115815295D02*
X103511905Y-115720057D01*
X103511905Y-115720057D02*
X103559524Y-115672438D01*
X103559524Y-115672438D02*
X103654762Y-115624819D01*
X103654762Y-115624819D02*
X103845238Y-115624819D01*
X103845238Y-115624819D02*
X103940476Y-115672438D01*
X103940476Y-115672438D02*
X103988095Y-115720057D01*
X103988095Y-115720057D02*
X104035714Y-115815295D01*
X104035714Y-115815295D02*
X104035714Y-115862914D01*
X104035714Y-115862914D02*
X103988095Y-115958152D01*
X103988095Y-115958152D02*
X103940476Y-116005771D01*
X103940476Y-116005771D02*
X103845238Y-116053390D01*
X103845238Y-116053390D02*
X103654762Y-116053390D01*
X103654762Y-116053390D02*
X103559524Y-116101009D01*
X103559524Y-116101009D02*
X103511905Y-116148628D01*
X103511905Y-116148628D02*
X103464286Y-116243866D01*
X103464286Y-116243866D02*
X103464286Y-116434342D01*
X103464286Y-116434342D02*
X103511905Y-116529580D01*
X103511905Y-116529580D02*
X103559524Y-116577200D01*
X103559524Y-116577200D02*
X103654762Y-116624819D01*
X103654762Y-116624819D02*
X103845238Y-116624819D01*
X103845238Y-116624819D02*
X103940476Y-116577200D01*
X103940476Y-116577200D02*
X103988095Y-116529580D01*
X103988095Y-116529580D02*
X104035714Y-116434342D01*
X104035714Y-116434342D02*
X104035714Y-116243866D01*
X104035714Y-116243866D02*
X103988095Y-116148628D01*
X103988095Y-116148628D02*
X103940476Y-116101009D01*
X103940476Y-116101009D02*
X103845238Y-116053390D01*
X112607142Y-126304819D02*
X112273809Y-125828628D01*
X112035714Y-126304819D02*
X112035714Y-125304819D01*
X112035714Y-125304819D02*
X112416666Y-125304819D01*
X112416666Y-125304819D02*
X112511904Y-125352438D01*
X112511904Y-125352438D02*
X112559523Y-125400057D01*
X112559523Y-125400057D02*
X112607142Y-125495295D01*
X112607142Y-125495295D02*
X112607142Y-125638152D01*
X112607142Y-125638152D02*
X112559523Y-125733390D01*
X112559523Y-125733390D02*
X112511904Y-125781009D01*
X112511904Y-125781009D02*
X112416666Y-125828628D01*
X112416666Y-125828628D02*
X112035714Y-125828628D01*
X113559523Y-126304819D02*
X112988095Y-126304819D01*
X113273809Y-126304819D02*
X113273809Y-125304819D01*
X113273809Y-125304819D02*
X113178571Y-125447676D01*
X113178571Y-125447676D02*
X113083333Y-125542914D01*
X113083333Y-125542914D02*
X112988095Y-125590533D01*
X113940476Y-125400057D02*
X113988095Y-125352438D01*
X113988095Y-125352438D02*
X114083333Y-125304819D01*
X114083333Y-125304819D02*
X114321428Y-125304819D01*
X114321428Y-125304819D02*
X114416666Y-125352438D01*
X114416666Y-125352438D02*
X114464285Y-125400057D01*
X114464285Y-125400057D02*
X114511904Y-125495295D01*
X114511904Y-125495295D02*
X114511904Y-125590533D01*
X114511904Y-125590533D02*
X114464285Y-125733390D01*
X114464285Y-125733390D02*
X113892857Y-126304819D01*
X113892857Y-126304819D02*
X114511904Y-126304819D01*
X136833333Y-132579819D02*
X136500000Y-132103628D01*
X136261905Y-132579819D02*
X136261905Y-131579819D01*
X136261905Y-131579819D02*
X136642857Y-131579819D01*
X136642857Y-131579819D02*
X136738095Y-131627438D01*
X136738095Y-131627438D02*
X136785714Y-131675057D01*
X136785714Y-131675057D02*
X136833333Y-131770295D01*
X136833333Y-131770295D02*
X136833333Y-131913152D01*
X136833333Y-131913152D02*
X136785714Y-132008390D01*
X136785714Y-132008390D02*
X136738095Y-132056009D01*
X136738095Y-132056009D02*
X136642857Y-132103628D01*
X136642857Y-132103628D02*
X136261905Y-132103628D01*
X137166667Y-131579819D02*
X137785714Y-131579819D01*
X137785714Y-131579819D02*
X137452381Y-131960771D01*
X137452381Y-131960771D02*
X137595238Y-131960771D01*
X137595238Y-131960771D02*
X137690476Y-132008390D01*
X137690476Y-132008390D02*
X137738095Y-132056009D01*
X137738095Y-132056009D02*
X137785714Y-132151247D01*
X137785714Y-132151247D02*
X137785714Y-132389342D01*
X137785714Y-132389342D02*
X137738095Y-132484580D01*
X137738095Y-132484580D02*
X137690476Y-132532200D01*
X137690476Y-132532200D02*
X137595238Y-132579819D01*
X137595238Y-132579819D02*
X137309524Y-132579819D01*
X137309524Y-132579819D02*
X137214286Y-132532200D01*
X137214286Y-132532200D02*
X137166667Y-132484580D01*
X122618333Y-119989580D02*
X122570714Y-120037200D01*
X122570714Y-120037200D02*
X122427857Y-120084819D01*
X122427857Y-120084819D02*
X122332619Y-120084819D01*
X122332619Y-120084819D02*
X122189762Y-120037200D01*
X122189762Y-120037200D02*
X122094524Y-119941961D01*
X122094524Y-119941961D02*
X122046905Y-119846723D01*
X122046905Y-119846723D02*
X121999286Y-119656247D01*
X121999286Y-119656247D02*
X121999286Y-119513390D01*
X121999286Y-119513390D02*
X122046905Y-119322914D01*
X122046905Y-119322914D02*
X122094524Y-119227676D01*
X122094524Y-119227676D02*
X122189762Y-119132438D01*
X122189762Y-119132438D02*
X122332619Y-119084819D01*
X122332619Y-119084819D02*
X122427857Y-119084819D01*
X122427857Y-119084819D02*
X122570714Y-119132438D01*
X122570714Y-119132438D02*
X122618333Y-119180057D01*
X123094524Y-120084819D02*
X123285000Y-120084819D01*
X123285000Y-120084819D02*
X123380238Y-120037200D01*
X123380238Y-120037200D02*
X123427857Y-119989580D01*
X123427857Y-119989580D02*
X123523095Y-119846723D01*
X123523095Y-119846723D02*
X123570714Y-119656247D01*
X123570714Y-119656247D02*
X123570714Y-119275295D01*
X123570714Y-119275295D02*
X123523095Y-119180057D01*
X123523095Y-119180057D02*
X123475476Y-119132438D01*
X123475476Y-119132438D02*
X123380238Y-119084819D01*
X123380238Y-119084819D02*
X123189762Y-119084819D01*
X123189762Y-119084819D02*
X123094524Y-119132438D01*
X123094524Y-119132438D02*
X123046905Y-119180057D01*
X123046905Y-119180057D02*
X122999286Y-119275295D01*
X122999286Y-119275295D02*
X122999286Y-119513390D01*
X122999286Y-119513390D02*
X123046905Y-119608628D01*
X123046905Y-119608628D02*
X123094524Y-119656247D01*
X123094524Y-119656247D02*
X123189762Y-119703866D01*
X123189762Y-119703866D02*
X123380238Y-119703866D01*
X123380238Y-119703866D02*
X123475476Y-119656247D01*
X123475476Y-119656247D02*
X123523095Y-119608628D01*
X123523095Y-119608628D02*
X123570714Y-119513390D01*
X124357142Y-117109580D02*
X124309523Y-117157200D01*
X124309523Y-117157200D02*
X124166666Y-117204819D01*
X124166666Y-117204819D02*
X124071428Y-117204819D01*
X124071428Y-117204819D02*
X123928571Y-117157200D01*
X123928571Y-117157200D02*
X123833333Y-117061961D01*
X123833333Y-117061961D02*
X123785714Y-116966723D01*
X123785714Y-116966723D02*
X123738095Y-116776247D01*
X123738095Y-116776247D02*
X123738095Y-116633390D01*
X123738095Y-116633390D02*
X123785714Y-116442914D01*
X123785714Y-116442914D02*
X123833333Y-116347676D01*
X123833333Y-116347676D02*
X123928571Y-116252438D01*
X123928571Y-116252438D02*
X124071428Y-116204819D01*
X124071428Y-116204819D02*
X124166666Y-116204819D01*
X124166666Y-116204819D02*
X124309523Y-116252438D01*
X124309523Y-116252438D02*
X124357142Y-116300057D01*
X125309523Y-117204819D02*
X124738095Y-117204819D01*
X125023809Y-117204819D02*
X125023809Y-116204819D01*
X125023809Y-116204819D02*
X124928571Y-116347676D01*
X124928571Y-116347676D02*
X124833333Y-116442914D01*
X124833333Y-116442914D02*
X124738095Y-116490533D01*
X125928571Y-116204819D02*
X126023809Y-116204819D01*
X126023809Y-116204819D02*
X126119047Y-116252438D01*
X126119047Y-116252438D02*
X126166666Y-116300057D01*
X126166666Y-116300057D02*
X126214285Y-116395295D01*
X126214285Y-116395295D02*
X126261904Y-116585771D01*
X126261904Y-116585771D02*
X126261904Y-116823866D01*
X126261904Y-116823866D02*
X126214285Y-117014342D01*
X126214285Y-117014342D02*
X126166666Y-117109580D01*
X126166666Y-117109580D02*
X126119047Y-117157200D01*
X126119047Y-117157200D02*
X126023809Y-117204819D01*
X126023809Y-117204819D02*
X125928571Y-117204819D01*
X125928571Y-117204819D02*
X125833333Y-117157200D01*
X125833333Y-117157200D02*
X125785714Y-117109580D01*
X125785714Y-117109580D02*
X125738095Y-117014342D01*
X125738095Y-117014342D02*
X125690476Y-116823866D01*
X125690476Y-116823866D02*
X125690476Y-116585771D01*
X125690476Y-116585771D02*
X125738095Y-116395295D01*
X125738095Y-116395295D02*
X125785714Y-116300057D01*
X125785714Y-116300057D02*
X125833333Y-116252438D01*
X125833333Y-116252438D02*
X125928571Y-116204819D01*
X90458333Y-120179580D02*
X90410714Y-120227200D01*
X90410714Y-120227200D02*
X90267857Y-120274819D01*
X90267857Y-120274819D02*
X90172619Y-120274819D01*
X90172619Y-120274819D02*
X90029762Y-120227200D01*
X90029762Y-120227200D02*
X89934524Y-120131961D01*
X89934524Y-120131961D02*
X89886905Y-120036723D01*
X89886905Y-120036723D02*
X89839286Y-119846247D01*
X89839286Y-119846247D02*
X89839286Y-119703390D01*
X89839286Y-119703390D02*
X89886905Y-119512914D01*
X89886905Y-119512914D02*
X89934524Y-119417676D01*
X89934524Y-119417676D02*
X90029762Y-119322438D01*
X90029762Y-119322438D02*
X90172619Y-119274819D01*
X90172619Y-119274819D02*
X90267857Y-119274819D01*
X90267857Y-119274819D02*
X90410714Y-119322438D01*
X90410714Y-119322438D02*
X90458333Y-119370057D01*
X91363095Y-119274819D02*
X90886905Y-119274819D01*
X90886905Y-119274819D02*
X90839286Y-119751009D01*
X90839286Y-119751009D02*
X90886905Y-119703390D01*
X90886905Y-119703390D02*
X90982143Y-119655771D01*
X90982143Y-119655771D02*
X91220238Y-119655771D01*
X91220238Y-119655771D02*
X91315476Y-119703390D01*
X91315476Y-119703390D02*
X91363095Y-119751009D01*
X91363095Y-119751009D02*
X91410714Y-119846247D01*
X91410714Y-119846247D02*
X91410714Y-120084342D01*
X91410714Y-120084342D02*
X91363095Y-120179580D01*
X91363095Y-120179580D02*
X91315476Y-120227200D01*
X91315476Y-120227200D02*
X91220238Y-120274819D01*
X91220238Y-120274819D02*
X90982143Y-120274819D01*
X90982143Y-120274819D02*
X90886905Y-120227200D01*
X90886905Y-120227200D02*
X90839286Y-120179580D01*
X81833333Y-140859580D02*
X81785714Y-140907200D01*
X81785714Y-140907200D02*
X81642857Y-140954819D01*
X81642857Y-140954819D02*
X81547619Y-140954819D01*
X81547619Y-140954819D02*
X81404762Y-140907200D01*
X81404762Y-140907200D02*
X81309524Y-140811961D01*
X81309524Y-140811961D02*
X81261905Y-140716723D01*
X81261905Y-140716723D02*
X81214286Y-140526247D01*
X81214286Y-140526247D02*
X81214286Y-140383390D01*
X81214286Y-140383390D02*
X81261905Y-140192914D01*
X81261905Y-140192914D02*
X81309524Y-140097676D01*
X81309524Y-140097676D02*
X81404762Y-140002438D01*
X81404762Y-140002438D02*
X81547619Y-139954819D01*
X81547619Y-139954819D02*
X81642857Y-139954819D01*
X81642857Y-139954819D02*
X81785714Y-140002438D01*
X81785714Y-140002438D02*
X81833333Y-140050057D01*
X82166667Y-139954819D02*
X82833333Y-139954819D01*
X82833333Y-139954819D02*
X82404762Y-140954819D01*
X115261905Y-129254819D02*
X115261905Y-128254819D01*
X115261905Y-128254819D02*
X115500000Y-128254819D01*
X115500000Y-128254819D02*
X115642857Y-128302438D01*
X115642857Y-128302438D02*
X115738095Y-128397676D01*
X115738095Y-128397676D02*
X115785714Y-128492914D01*
X115785714Y-128492914D02*
X115833333Y-128683390D01*
X115833333Y-128683390D02*
X115833333Y-128826247D01*
X115833333Y-128826247D02*
X115785714Y-129016723D01*
X115785714Y-129016723D02*
X115738095Y-129111961D01*
X115738095Y-129111961D02*
X115642857Y-129207200D01*
X115642857Y-129207200D02*
X115500000Y-129254819D01*
X115500000Y-129254819D02*
X115261905Y-129254819D01*
X116785714Y-129254819D02*
X116214286Y-129254819D01*
X116500000Y-129254819D02*
X116500000Y-128254819D01*
X116500000Y-128254819D02*
X116404762Y-128397676D01*
X116404762Y-128397676D02*
X116309524Y-128492914D01*
X116309524Y-128492914D02*
X116214286Y-128540533D01*
X88329819Y-110098333D02*
X89044104Y-110098333D01*
X89044104Y-110098333D02*
X89186961Y-110145952D01*
X89186961Y-110145952D02*
X89282200Y-110241190D01*
X89282200Y-110241190D02*
X89329819Y-110384047D01*
X89329819Y-110384047D02*
X89329819Y-110479285D01*
X89329819Y-109098333D02*
X89329819Y-109669761D01*
X89329819Y-109384047D02*
X88329819Y-109384047D01*
X88329819Y-109384047D02*
X88472676Y-109479285D01*
X88472676Y-109479285D02*
X88567914Y-109574523D01*
X88567914Y-109574523D02*
X88615533Y-109669761D01*
X110833333Y-142109580D02*
X110785714Y-142157200D01*
X110785714Y-142157200D02*
X110642857Y-142204819D01*
X110642857Y-142204819D02*
X110547619Y-142204819D01*
X110547619Y-142204819D02*
X110404762Y-142157200D01*
X110404762Y-142157200D02*
X110309524Y-142061961D01*
X110309524Y-142061961D02*
X110261905Y-141966723D01*
X110261905Y-141966723D02*
X110214286Y-141776247D01*
X110214286Y-141776247D02*
X110214286Y-141633390D01*
X110214286Y-141633390D02*
X110261905Y-141442914D01*
X110261905Y-141442914D02*
X110309524Y-141347676D01*
X110309524Y-141347676D02*
X110404762Y-141252438D01*
X110404762Y-141252438D02*
X110547619Y-141204819D01*
X110547619Y-141204819D02*
X110642857Y-141204819D01*
X110642857Y-141204819D02*
X110785714Y-141252438D01*
X110785714Y-141252438D02*
X110833333Y-141300057D01*
X111690476Y-141204819D02*
X111500000Y-141204819D01*
X111500000Y-141204819D02*
X111404762Y-141252438D01*
X111404762Y-141252438D02*
X111357143Y-141300057D01*
X111357143Y-141300057D02*
X111261905Y-141442914D01*
X111261905Y-141442914D02*
X111214286Y-141633390D01*
X111214286Y-141633390D02*
X111214286Y-142014342D01*
X111214286Y-142014342D02*
X111261905Y-142109580D01*
X111261905Y-142109580D02*
X111309524Y-142157200D01*
X111309524Y-142157200D02*
X111404762Y-142204819D01*
X111404762Y-142204819D02*
X111595238Y-142204819D01*
X111595238Y-142204819D02*
X111690476Y-142157200D01*
X111690476Y-142157200D02*
X111738095Y-142109580D01*
X111738095Y-142109580D02*
X111785714Y-142014342D01*
X111785714Y-142014342D02*
X111785714Y-141776247D01*
X111785714Y-141776247D02*
X111738095Y-141681009D01*
X111738095Y-141681009D02*
X111690476Y-141633390D01*
X111690476Y-141633390D02*
X111595238Y-141585771D01*
X111595238Y-141585771D02*
X111404762Y-141585771D01*
X111404762Y-141585771D02*
X111309524Y-141633390D01*
X111309524Y-141633390D02*
X111261905Y-141681009D01*
X111261905Y-141681009D02*
X111214286Y-141776247D01*
X126473095Y-119114819D02*
X126473095Y-119924342D01*
X126473095Y-119924342D02*
X126520714Y-120019580D01*
X126520714Y-120019580D02*
X126568333Y-120067200D01*
X126568333Y-120067200D02*
X126663571Y-120114819D01*
X126663571Y-120114819D02*
X126854047Y-120114819D01*
X126854047Y-120114819D02*
X126949285Y-120067200D01*
X126949285Y-120067200D02*
X126996904Y-120019580D01*
X126996904Y-120019580D02*
X127044523Y-119924342D01*
X127044523Y-119924342D02*
X127044523Y-119114819D01*
X127473095Y-119210057D02*
X127520714Y-119162438D01*
X127520714Y-119162438D02*
X127615952Y-119114819D01*
X127615952Y-119114819D02*
X127854047Y-119114819D01*
X127854047Y-119114819D02*
X127949285Y-119162438D01*
X127949285Y-119162438D02*
X127996904Y-119210057D01*
X127996904Y-119210057D02*
X128044523Y-119305295D01*
X128044523Y-119305295D02*
X128044523Y-119400533D01*
X128044523Y-119400533D02*
X127996904Y-119543390D01*
X127996904Y-119543390D02*
X127425476Y-120114819D01*
X127425476Y-120114819D02*
X128044523Y-120114819D01*
X98261905Y-132554819D02*
X98261905Y-131554819D01*
X98261905Y-131554819D02*
X98500000Y-131554819D01*
X98500000Y-131554819D02*
X98642857Y-131602438D01*
X98642857Y-131602438D02*
X98738095Y-131697676D01*
X98738095Y-131697676D02*
X98785714Y-131792914D01*
X98785714Y-131792914D02*
X98833333Y-131983390D01*
X98833333Y-131983390D02*
X98833333Y-132126247D01*
X98833333Y-132126247D02*
X98785714Y-132316723D01*
X98785714Y-132316723D02*
X98738095Y-132411961D01*
X98738095Y-132411961D02*
X98642857Y-132507200D01*
X98642857Y-132507200D02*
X98500000Y-132554819D01*
X98500000Y-132554819D02*
X98261905Y-132554819D01*
X99738095Y-131554819D02*
X99261905Y-131554819D01*
X99261905Y-131554819D02*
X99214286Y-132031009D01*
X99214286Y-132031009D02*
X99261905Y-131983390D01*
X99261905Y-131983390D02*
X99357143Y-131935771D01*
X99357143Y-131935771D02*
X99595238Y-131935771D01*
X99595238Y-131935771D02*
X99690476Y-131983390D01*
X99690476Y-131983390D02*
X99738095Y-132031009D01*
X99738095Y-132031009D02*
X99785714Y-132126247D01*
X99785714Y-132126247D02*
X99785714Y-132364342D01*
X99785714Y-132364342D02*
X99738095Y-132459580D01*
X99738095Y-132459580D02*
X99690476Y-132507200D01*
X99690476Y-132507200D02*
X99595238Y-132554819D01*
X99595238Y-132554819D02*
X99357143Y-132554819D01*
X99357143Y-132554819D02*
X99261905Y-132507200D01*
X99261905Y-132507200D02*
X99214286Y-132459580D01*
X136833333Y-126329819D02*
X136500000Y-125853628D01*
X136261905Y-126329819D02*
X136261905Y-125329819D01*
X136261905Y-125329819D02*
X136642857Y-125329819D01*
X136642857Y-125329819D02*
X136738095Y-125377438D01*
X136738095Y-125377438D02*
X136785714Y-125425057D01*
X136785714Y-125425057D02*
X136833333Y-125520295D01*
X136833333Y-125520295D02*
X136833333Y-125663152D01*
X136833333Y-125663152D02*
X136785714Y-125758390D01*
X136785714Y-125758390D02*
X136738095Y-125806009D01*
X136738095Y-125806009D02*
X136642857Y-125853628D01*
X136642857Y-125853628D02*
X136261905Y-125853628D01*
X137690476Y-125329819D02*
X137500000Y-125329819D01*
X137500000Y-125329819D02*
X137404762Y-125377438D01*
X137404762Y-125377438D02*
X137357143Y-125425057D01*
X137357143Y-125425057D02*
X137261905Y-125567914D01*
X137261905Y-125567914D02*
X137214286Y-125758390D01*
X137214286Y-125758390D02*
X137214286Y-126139342D01*
X137214286Y-126139342D02*
X137261905Y-126234580D01*
X137261905Y-126234580D02*
X137309524Y-126282200D01*
X137309524Y-126282200D02*
X137404762Y-126329819D01*
X137404762Y-126329819D02*
X137595238Y-126329819D01*
X137595238Y-126329819D02*
X137690476Y-126282200D01*
X137690476Y-126282200D02*
X137738095Y-126234580D01*
X137738095Y-126234580D02*
X137785714Y-126139342D01*
X137785714Y-126139342D02*
X137785714Y-125901247D01*
X137785714Y-125901247D02*
X137738095Y-125806009D01*
X137738095Y-125806009D02*
X137690476Y-125758390D01*
X137690476Y-125758390D02*
X137595238Y-125710771D01*
X137595238Y-125710771D02*
X137404762Y-125710771D01*
X137404762Y-125710771D02*
X137309524Y-125758390D01*
X137309524Y-125758390D02*
X137261905Y-125806009D01*
X137261905Y-125806009D02*
X137214286Y-125901247D01*
X127416666Y-112204819D02*
X127416666Y-112919104D01*
X127416666Y-112919104D02*
X127369047Y-113061961D01*
X127369047Y-113061961D02*
X127273809Y-113157200D01*
X127273809Y-113157200D02*
X127130952Y-113204819D01*
X127130952Y-113204819D02*
X127035714Y-113204819D01*
X127797619Y-112204819D02*
X128416666Y-112204819D01*
X128416666Y-112204819D02*
X128083333Y-112585771D01*
X128083333Y-112585771D02*
X128226190Y-112585771D01*
X128226190Y-112585771D02*
X128321428Y-112633390D01*
X128321428Y-112633390D02*
X128369047Y-112681009D01*
X128369047Y-112681009D02*
X128416666Y-112776247D01*
X128416666Y-112776247D02*
X128416666Y-113014342D01*
X128416666Y-113014342D02*
X128369047Y-113109580D01*
X128369047Y-113109580D02*
X128321428Y-113157200D01*
X128321428Y-113157200D02*
X128226190Y-113204819D01*
X128226190Y-113204819D02*
X127940476Y-113204819D01*
X127940476Y-113204819D02*
X127845238Y-113157200D01*
X127845238Y-113157200D02*
X127797619Y-113109580D01*
X115261905Y-132379819D02*
X115261905Y-131379819D01*
X115261905Y-131379819D02*
X115500000Y-131379819D01*
X115500000Y-131379819D02*
X115642857Y-131427438D01*
X115642857Y-131427438D02*
X115738095Y-131522676D01*
X115738095Y-131522676D02*
X115785714Y-131617914D01*
X115785714Y-131617914D02*
X115833333Y-131808390D01*
X115833333Y-131808390D02*
X115833333Y-131951247D01*
X115833333Y-131951247D02*
X115785714Y-132141723D01*
X115785714Y-132141723D02*
X115738095Y-132236961D01*
X115738095Y-132236961D02*
X115642857Y-132332200D01*
X115642857Y-132332200D02*
X115500000Y-132379819D01*
X115500000Y-132379819D02*
X115261905Y-132379819D01*
X116214286Y-131475057D02*
X116261905Y-131427438D01*
X116261905Y-131427438D02*
X116357143Y-131379819D01*
X116357143Y-131379819D02*
X116595238Y-131379819D01*
X116595238Y-131379819D02*
X116690476Y-131427438D01*
X116690476Y-131427438D02*
X116738095Y-131475057D01*
X116738095Y-131475057D02*
X116785714Y-131570295D01*
X116785714Y-131570295D02*
X116785714Y-131665533D01*
X116785714Y-131665533D02*
X116738095Y-131808390D01*
X116738095Y-131808390D02*
X116166667Y-132379819D01*
X116166667Y-132379819D02*
X116785714Y-132379819D01*
X115261905Y-135504819D02*
X115261905Y-134504819D01*
X115261905Y-134504819D02*
X115500000Y-134504819D01*
X115500000Y-134504819D02*
X115642857Y-134552438D01*
X115642857Y-134552438D02*
X115738095Y-134647676D01*
X115738095Y-134647676D02*
X115785714Y-134742914D01*
X115785714Y-134742914D02*
X115833333Y-134933390D01*
X115833333Y-134933390D02*
X115833333Y-135076247D01*
X115833333Y-135076247D02*
X115785714Y-135266723D01*
X115785714Y-135266723D02*
X115738095Y-135361961D01*
X115738095Y-135361961D02*
X115642857Y-135457200D01*
X115642857Y-135457200D02*
X115500000Y-135504819D01*
X115500000Y-135504819D02*
X115261905Y-135504819D01*
X116166667Y-134504819D02*
X116785714Y-134504819D01*
X116785714Y-134504819D02*
X116452381Y-134885771D01*
X116452381Y-134885771D02*
X116595238Y-134885771D01*
X116595238Y-134885771D02*
X116690476Y-134933390D01*
X116690476Y-134933390D02*
X116738095Y-134981009D01*
X116738095Y-134981009D02*
X116785714Y-135076247D01*
X116785714Y-135076247D02*
X116785714Y-135314342D01*
X116785714Y-135314342D02*
X116738095Y-135409580D01*
X116738095Y-135409580D02*
X116690476Y-135457200D01*
X116690476Y-135457200D02*
X116595238Y-135504819D01*
X116595238Y-135504819D02*
X116309524Y-135504819D01*
X116309524Y-135504819D02*
X116214286Y-135457200D01*
X116214286Y-135457200D02*
X116166667Y-135409580D01*
X90916666Y-124454819D02*
X90916666Y-125169104D01*
X90916666Y-125169104D02*
X90869047Y-125311961D01*
X90869047Y-125311961D02*
X90773809Y-125407200D01*
X90773809Y-125407200D02*
X90630952Y-125454819D01*
X90630952Y-125454819D02*
X90535714Y-125454819D01*
X91345238Y-124550057D02*
X91392857Y-124502438D01*
X91392857Y-124502438D02*
X91488095Y-124454819D01*
X91488095Y-124454819D02*
X91726190Y-124454819D01*
X91726190Y-124454819D02*
X91821428Y-124502438D01*
X91821428Y-124502438D02*
X91869047Y-124550057D01*
X91869047Y-124550057D02*
X91916666Y-124645295D01*
X91916666Y-124645295D02*
X91916666Y-124740533D01*
X91916666Y-124740533D02*
X91869047Y-124883390D01*
X91869047Y-124883390D02*
X91297619Y-125454819D01*
X91297619Y-125454819D02*
X91916666Y-125454819D01*
X112833333Y-135804819D02*
X112500000Y-135328628D01*
X112261905Y-135804819D02*
X112261905Y-134804819D01*
X112261905Y-134804819D02*
X112642857Y-134804819D01*
X112642857Y-134804819D02*
X112738095Y-134852438D01*
X112738095Y-134852438D02*
X112785714Y-134900057D01*
X112785714Y-134900057D02*
X112833333Y-134995295D01*
X112833333Y-134995295D02*
X112833333Y-135138152D01*
X112833333Y-135138152D02*
X112785714Y-135233390D01*
X112785714Y-135233390D02*
X112738095Y-135281009D01*
X112738095Y-135281009D02*
X112642857Y-135328628D01*
X112642857Y-135328628D02*
X112261905Y-135328628D01*
X113309524Y-135804819D02*
X113500000Y-135804819D01*
X113500000Y-135804819D02*
X113595238Y-135757200D01*
X113595238Y-135757200D02*
X113642857Y-135709580D01*
X113642857Y-135709580D02*
X113738095Y-135566723D01*
X113738095Y-135566723D02*
X113785714Y-135376247D01*
X113785714Y-135376247D02*
X113785714Y-134995295D01*
X113785714Y-134995295D02*
X113738095Y-134900057D01*
X113738095Y-134900057D02*
X113690476Y-134852438D01*
X113690476Y-134852438D02*
X113595238Y-134804819D01*
X113595238Y-134804819D02*
X113404762Y-134804819D01*
X113404762Y-134804819D02*
X113309524Y-134852438D01*
X113309524Y-134852438D02*
X113261905Y-134900057D01*
X113261905Y-134900057D02*
X113214286Y-134995295D01*
X113214286Y-134995295D02*
X113214286Y-135233390D01*
X113214286Y-135233390D02*
X113261905Y-135328628D01*
X113261905Y-135328628D02*
X113309524Y-135376247D01*
X113309524Y-135376247D02*
X113404762Y-135423866D01*
X113404762Y-135423866D02*
X113595238Y-135423866D01*
X113595238Y-135423866D02*
X113690476Y-135376247D01*
X113690476Y-135376247D02*
X113738095Y-135328628D01*
X113738095Y-135328628D02*
X113785714Y-135233390D01*
X130833333Y-135584819D02*
X130500000Y-135108628D01*
X130261905Y-135584819D02*
X130261905Y-134584819D01*
X130261905Y-134584819D02*
X130642857Y-134584819D01*
X130642857Y-134584819D02*
X130738095Y-134632438D01*
X130738095Y-134632438D02*
X130785714Y-134680057D01*
X130785714Y-134680057D02*
X130833333Y-134775295D01*
X130833333Y-134775295D02*
X130833333Y-134918152D01*
X130833333Y-134918152D02*
X130785714Y-135013390D01*
X130785714Y-135013390D02*
X130738095Y-135061009D01*
X130738095Y-135061009D02*
X130642857Y-135108628D01*
X130642857Y-135108628D02*
X130261905Y-135108628D01*
X131690476Y-134918152D02*
X131690476Y-135584819D01*
X131452381Y-134537200D02*
X131214286Y-135251485D01*
X131214286Y-135251485D02*
X131833333Y-135251485D01*
X127607142Y-107109580D02*
X127559523Y-107157200D01*
X127559523Y-107157200D02*
X127416666Y-107204819D01*
X127416666Y-107204819D02*
X127321428Y-107204819D01*
X127321428Y-107204819D02*
X127178571Y-107157200D01*
X127178571Y-107157200D02*
X127083333Y-107061961D01*
X127083333Y-107061961D02*
X127035714Y-106966723D01*
X127035714Y-106966723D02*
X126988095Y-106776247D01*
X126988095Y-106776247D02*
X126988095Y-106633390D01*
X126988095Y-106633390D02*
X127035714Y-106442914D01*
X127035714Y-106442914D02*
X127083333Y-106347676D01*
X127083333Y-106347676D02*
X127178571Y-106252438D01*
X127178571Y-106252438D02*
X127321428Y-106204819D01*
X127321428Y-106204819D02*
X127416666Y-106204819D01*
X127416666Y-106204819D02*
X127559523Y-106252438D01*
X127559523Y-106252438D02*
X127607142Y-106300057D01*
X128559523Y-107204819D02*
X127988095Y-107204819D01*
X128273809Y-107204819D02*
X128273809Y-106204819D01*
X128273809Y-106204819D02*
X128178571Y-106347676D01*
X128178571Y-106347676D02*
X128083333Y-106442914D01*
X128083333Y-106442914D02*
X127988095Y-106490533D01*
X129511904Y-107204819D02*
X128940476Y-107204819D01*
X129226190Y-107204819D02*
X129226190Y-106204819D01*
X129226190Y-106204819D02*
X129130952Y-106347676D01*
X129130952Y-106347676D02*
X129035714Y-106442914D01*
X129035714Y-106442914D02*
X128940476Y-106490533D01*
X112607142Y-132554819D02*
X112273809Y-132078628D01*
X112035714Y-132554819D02*
X112035714Y-131554819D01*
X112035714Y-131554819D02*
X112416666Y-131554819D01*
X112416666Y-131554819D02*
X112511904Y-131602438D01*
X112511904Y-131602438D02*
X112559523Y-131650057D01*
X112559523Y-131650057D02*
X112607142Y-131745295D01*
X112607142Y-131745295D02*
X112607142Y-131888152D01*
X112607142Y-131888152D02*
X112559523Y-131983390D01*
X112559523Y-131983390D02*
X112511904Y-132031009D01*
X112511904Y-132031009D02*
X112416666Y-132078628D01*
X112416666Y-132078628D02*
X112035714Y-132078628D01*
X113559523Y-132554819D02*
X112988095Y-132554819D01*
X113273809Y-132554819D02*
X113273809Y-131554819D01*
X113273809Y-131554819D02*
X113178571Y-131697676D01*
X113178571Y-131697676D02*
X113083333Y-131792914D01*
X113083333Y-131792914D02*
X112988095Y-131840533D01*
X114178571Y-131554819D02*
X114273809Y-131554819D01*
X114273809Y-131554819D02*
X114369047Y-131602438D01*
X114369047Y-131602438D02*
X114416666Y-131650057D01*
X114416666Y-131650057D02*
X114464285Y-131745295D01*
X114464285Y-131745295D02*
X114511904Y-131935771D01*
X114511904Y-131935771D02*
X114511904Y-132173866D01*
X114511904Y-132173866D02*
X114464285Y-132364342D01*
X114464285Y-132364342D02*
X114416666Y-132459580D01*
X114416666Y-132459580D02*
X114369047Y-132507200D01*
X114369047Y-132507200D02*
X114273809Y-132554819D01*
X114273809Y-132554819D02*
X114178571Y-132554819D01*
X114178571Y-132554819D02*
X114083333Y-132507200D01*
X114083333Y-132507200D02*
X114035714Y-132459580D01*
X114035714Y-132459580D02*
X113988095Y-132364342D01*
X113988095Y-132364342D02*
X113940476Y-132173866D01*
X113940476Y-132173866D02*
X113940476Y-131935771D01*
X113940476Y-131935771D02*
X113988095Y-131745295D01*
X113988095Y-131745295D02*
X114035714Y-131650057D01*
X114035714Y-131650057D02*
X114083333Y-131602438D01*
X114083333Y-131602438D02*
X114178571Y-131554819D01*
X105188095Y-114602319D02*
X105188095Y-115411842D01*
X105188095Y-115411842D02*
X105235714Y-115507080D01*
X105235714Y-115507080D02*
X105283333Y-115554700D01*
X105283333Y-115554700D02*
X105378571Y-115602319D01*
X105378571Y-115602319D02*
X105569047Y-115602319D01*
X105569047Y-115602319D02*
X105664285Y-115554700D01*
X105664285Y-115554700D02*
X105711904Y-115507080D01*
X105711904Y-115507080D02*
X105759523Y-115411842D01*
X105759523Y-115411842D02*
X105759523Y-114602319D01*
X106759523Y-115602319D02*
X106188095Y-115602319D01*
X106473809Y-115602319D02*
X106473809Y-114602319D01*
X106473809Y-114602319D02*
X106378571Y-114745176D01*
X106378571Y-114745176D02*
X106283333Y-114840414D01*
X106283333Y-114840414D02*
X106188095Y-114888033D01*
X90033333Y-108757080D02*
X89985714Y-108804700D01*
X89985714Y-108804700D02*
X89842857Y-108852319D01*
X89842857Y-108852319D02*
X89747619Y-108852319D01*
X89747619Y-108852319D02*
X89604762Y-108804700D01*
X89604762Y-108804700D02*
X89509524Y-108709461D01*
X89509524Y-108709461D02*
X89461905Y-108614223D01*
X89461905Y-108614223D02*
X89414286Y-108423747D01*
X89414286Y-108423747D02*
X89414286Y-108280890D01*
X89414286Y-108280890D02*
X89461905Y-108090414D01*
X89461905Y-108090414D02*
X89509524Y-107995176D01*
X89509524Y-107995176D02*
X89604762Y-107899938D01*
X89604762Y-107899938D02*
X89747619Y-107852319D01*
X89747619Y-107852319D02*
X89842857Y-107852319D01*
X89842857Y-107852319D02*
X89985714Y-107899938D01*
X89985714Y-107899938D02*
X90033333Y-107947557D01*
X90985714Y-108852319D02*
X90414286Y-108852319D01*
X90700000Y-108852319D02*
X90700000Y-107852319D01*
X90700000Y-107852319D02*
X90604762Y-107995176D01*
X90604762Y-107995176D02*
X90509524Y-108090414D01*
X90509524Y-108090414D02*
X90414286Y-108138033D01*
X95205833Y-121654819D02*
X94872500Y-121178628D01*
X94634405Y-121654819D02*
X94634405Y-120654819D01*
X94634405Y-120654819D02*
X95015357Y-120654819D01*
X95015357Y-120654819D02*
X95110595Y-120702438D01*
X95110595Y-120702438D02*
X95158214Y-120750057D01*
X95158214Y-120750057D02*
X95205833Y-120845295D01*
X95205833Y-120845295D02*
X95205833Y-120988152D01*
X95205833Y-120988152D02*
X95158214Y-121083390D01*
X95158214Y-121083390D02*
X95110595Y-121131009D01*
X95110595Y-121131009D02*
X95015357Y-121178628D01*
X95015357Y-121178628D02*
X94634405Y-121178628D01*
X95539167Y-120654819D02*
X96205833Y-120654819D01*
X96205833Y-120654819D02*
X95777262Y-121654819D01*
X116628333Y-123204819D02*
X116295000Y-122728628D01*
X116056905Y-123204819D02*
X116056905Y-122204819D01*
X116056905Y-122204819D02*
X116437857Y-122204819D01*
X116437857Y-122204819D02*
X116533095Y-122252438D01*
X116533095Y-122252438D02*
X116580714Y-122300057D01*
X116580714Y-122300057D02*
X116628333Y-122395295D01*
X116628333Y-122395295D02*
X116628333Y-122538152D01*
X116628333Y-122538152D02*
X116580714Y-122633390D01*
X116580714Y-122633390D02*
X116533095Y-122681009D01*
X116533095Y-122681009D02*
X116437857Y-122728628D01*
X116437857Y-122728628D02*
X116056905Y-122728628D01*
X117580714Y-123204819D02*
X117009286Y-123204819D01*
X117295000Y-123204819D02*
X117295000Y-122204819D01*
X117295000Y-122204819D02*
X117199762Y-122347676D01*
X117199762Y-122347676D02*
X117104524Y-122442914D01*
X117104524Y-122442914D02*
X117009286Y-122490533D01*
X102488095Y-119214819D02*
X102488095Y-120024342D01*
X102488095Y-120024342D02*
X102535714Y-120119580D01*
X102535714Y-120119580D02*
X102583333Y-120167200D01*
X102583333Y-120167200D02*
X102678571Y-120214819D01*
X102678571Y-120214819D02*
X102869047Y-120214819D01*
X102869047Y-120214819D02*
X102964285Y-120167200D01*
X102964285Y-120167200D02*
X103011904Y-120119580D01*
X103011904Y-120119580D02*
X103059523Y-120024342D01*
X103059523Y-120024342D02*
X103059523Y-119214819D01*
X103440476Y-119214819D02*
X104059523Y-119214819D01*
X104059523Y-119214819D02*
X103726190Y-119595771D01*
X103726190Y-119595771D02*
X103869047Y-119595771D01*
X103869047Y-119595771D02*
X103964285Y-119643390D01*
X103964285Y-119643390D02*
X104011904Y-119691009D01*
X104011904Y-119691009D02*
X104059523Y-119786247D01*
X104059523Y-119786247D02*
X104059523Y-120024342D01*
X104059523Y-120024342D02*
X104011904Y-120119580D01*
X104011904Y-120119580D02*
X103964285Y-120167200D01*
X103964285Y-120167200D02*
X103869047Y-120214819D01*
X103869047Y-120214819D02*
X103583333Y-120214819D01*
X103583333Y-120214819D02*
X103488095Y-120167200D01*
X103488095Y-120167200D02*
X103440476Y-120119580D01*
X89461905Y-111852319D02*
X89461905Y-110852319D01*
X89461905Y-110852319D02*
X89700000Y-110852319D01*
X89700000Y-110852319D02*
X89842857Y-110899938D01*
X89842857Y-110899938D02*
X89938095Y-110995176D01*
X89938095Y-110995176D02*
X89985714Y-111090414D01*
X89985714Y-111090414D02*
X90033333Y-111280890D01*
X90033333Y-111280890D02*
X90033333Y-111423747D01*
X90033333Y-111423747D02*
X89985714Y-111614223D01*
X89985714Y-111614223D02*
X89938095Y-111709461D01*
X89938095Y-111709461D02*
X89842857Y-111804700D01*
X89842857Y-111804700D02*
X89700000Y-111852319D01*
X89700000Y-111852319D02*
X89461905Y-111852319D01*
X90366667Y-110852319D02*
X91033333Y-110852319D01*
X91033333Y-110852319D02*
X90604762Y-111852319D01*
D11*
%TO.C,R8*%
X110022936Y-128365000D02*
X110477064Y-128365000D01*
X110022936Y-129835000D02*
X110477064Y-129835000D01*
%TO.C,R5*%
X133772936Y-122015000D02*
X134227064Y-122015000D01*
X133772936Y-123485000D02*
X134227064Y-123485000D01*
%TO.C,C2*%
X113152677Y-109125000D02*
X114152677Y-109125000D01*
X113652677Y-108625000D02*
X113652677Y-109625000D01*
X118632323Y-106920000D02*
X118632323Y-117080000D01*
X118672323Y-106920000D02*
X118672323Y-117080000D01*
X118712323Y-106920000D02*
X118712323Y-117080000D01*
X118752323Y-106921000D02*
X118752323Y-117079000D01*
X118792323Y-106922000D02*
X118792323Y-117078000D01*
X118832323Y-106923000D02*
X118832323Y-117077000D01*
X118872323Y-106925000D02*
X118872323Y-117075000D01*
X118912323Y-106927000D02*
X118912323Y-117073000D01*
X118952323Y-106930000D02*
X118952323Y-117070000D01*
X118992323Y-106932000D02*
X118992323Y-117068000D01*
X119032323Y-106935000D02*
X119032323Y-117065000D01*
X119072323Y-106938000D02*
X119072323Y-117062000D01*
X119112323Y-106942000D02*
X119112323Y-117058000D01*
X119152323Y-106946000D02*
X119152323Y-117054000D01*
X119192323Y-106950000D02*
X119192323Y-117050000D01*
X119232323Y-106955000D02*
X119232323Y-117045000D01*
X119272323Y-106960000D02*
X119272323Y-117040000D01*
X119312323Y-106965000D02*
X119312323Y-117035000D01*
X119353323Y-106970000D02*
X119353323Y-117030000D01*
X119393323Y-106976000D02*
X119393323Y-117024000D01*
X119433323Y-106982000D02*
X119433323Y-117018000D01*
X119473323Y-106989000D02*
X119473323Y-117011000D01*
X119513323Y-106996000D02*
X119513323Y-117004000D01*
X119553323Y-107003000D02*
X119553323Y-116997000D01*
X119593323Y-107010000D02*
X119593323Y-116990000D01*
X119633323Y-107018000D02*
X119633323Y-116982000D01*
X119673323Y-107026000D02*
X119673323Y-116974000D01*
X119713323Y-107035000D02*
X119713323Y-116965000D01*
X119753323Y-107044000D02*
X119753323Y-116956000D01*
X119793323Y-107053000D02*
X119793323Y-116947000D01*
X119833323Y-107062000D02*
X119833323Y-116938000D01*
X119873323Y-107072000D02*
X119873323Y-116928000D01*
X119913323Y-107082000D02*
X119913323Y-110759000D01*
X119913323Y-113241000D02*
X119913323Y-116918000D01*
X119953323Y-107093000D02*
X119953323Y-110759000D01*
X119953323Y-113241000D02*
X119953323Y-116907000D01*
X119993323Y-107103000D02*
X119993323Y-110759000D01*
X119993323Y-113241000D02*
X119993323Y-116897000D01*
X120033323Y-107115000D02*
X120033323Y-110759000D01*
X120033323Y-113241000D02*
X120033323Y-116885000D01*
X120073323Y-107126000D02*
X120073323Y-110759000D01*
X120073323Y-113241000D02*
X120073323Y-116874000D01*
X120113323Y-107138000D02*
X120113323Y-110759000D01*
X120113323Y-113241000D02*
X120113323Y-116862000D01*
X120153323Y-107150000D02*
X120153323Y-110759000D01*
X120153323Y-113241000D02*
X120153323Y-116850000D01*
X120193323Y-107163000D02*
X120193323Y-110759000D01*
X120193323Y-113241000D02*
X120193323Y-116837000D01*
X120233323Y-107176000D02*
X120233323Y-110759000D01*
X120233323Y-113241000D02*
X120233323Y-116824000D01*
X120273323Y-107189000D02*
X120273323Y-110759000D01*
X120273323Y-113241000D02*
X120273323Y-116811000D01*
X120313323Y-107203000D02*
X120313323Y-110759000D01*
X120313323Y-113241000D02*
X120313323Y-116797000D01*
X120353323Y-107217000D02*
X120353323Y-110759000D01*
X120353323Y-113241000D02*
X120353323Y-116783000D01*
X120393323Y-107232000D02*
X120393323Y-110759000D01*
X120393323Y-113241000D02*
X120393323Y-116768000D01*
X120433323Y-107246000D02*
X120433323Y-110759000D01*
X120433323Y-113241000D02*
X120433323Y-116754000D01*
X120473323Y-107262000D02*
X120473323Y-110759000D01*
X120473323Y-113241000D02*
X120473323Y-116738000D01*
X120513323Y-107277000D02*
X120513323Y-110759000D01*
X120513323Y-113241000D02*
X120513323Y-116723000D01*
X120553323Y-107293000D02*
X120553323Y-110759000D01*
X120553323Y-113241000D02*
X120553323Y-116707000D01*
X120593323Y-107310000D02*
X120593323Y-110759000D01*
X120593323Y-113241000D02*
X120593323Y-116690000D01*
X120633323Y-107326000D02*
X120633323Y-110759000D01*
X120633323Y-113241000D02*
X120633323Y-116674000D01*
X120673323Y-107343000D02*
X120673323Y-110759000D01*
X120673323Y-113241000D02*
X120673323Y-116657000D01*
X120713323Y-107361000D02*
X120713323Y-110759000D01*
X120713323Y-113241000D02*
X120713323Y-116639000D01*
X120753323Y-107379000D02*
X120753323Y-110759000D01*
X120753323Y-113241000D02*
X120753323Y-116621000D01*
X120793323Y-107397000D02*
X120793323Y-110759000D01*
X120793323Y-113241000D02*
X120793323Y-116603000D01*
X120833323Y-107416000D02*
X120833323Y-110759000D01*
X120833323Y-113241000D02*
X120833323Y-116584000D01*
X120873323Y-107436000D02*
X120873323Y-110759000D01*
X120873323Y-113241000D02*
X120873323Y-116564000D01*
X120913323Y-107455000D02*
X120913323Y-110759000D01*
X120913323Y-113241000D02*
X120913323Y-116545000D01*
X120953323Y-107475000D02*
X120953323Y-110759000D01*
X120953323Y-113241000D02*
X120953323Y-116525000D01*
X120993323Y-107496000D02*
X120993323Y-110759000D01*
X120993323Y-113241000D02*
X120993323Y-116504000D01*
X121033323Y-107517000D02*
X121033323Y-110759000D01*
X121033323Y-113241000D02*
X121033323Y-116483000D01*
X121073323Y-107538000D02*
X121073323Y-110759000D01*
X121073323Y-113241000D02*
X121073323Y-116462000D01*
X121113323Y-107560000D02*
X121113323Y-110759000D01*
X121113323Y-113241000D02*
X121113323Y-116440000D01*
X121153323Y-107583000D02*
X121153323Y-110759000D01*
X121153323Y-113241000D02*
X121153323Y-116417000D01*
X121193323Y-107605000D02*
X121193323Y-110759000D01*
X121193323Y-113241000D02*
X121193323Y-116395000D01*
X121233323Y-107629000D02*
X121233323Y-110759000D01*
X121233323Y-113241000D02*
X121233323Y-116371000D01*
X121273323Y-107653000D02*
X121273323Y-110759000D01*
X121273323Y-113241000D02*
X121273323Y-116347000D01*
X121313323Y-107677000D02*
X121313323Y-110759000D01*
X121313323Y-113241000D02*
X121313323Y-116323000D01*
X121353323Y-107702000D02*
X121353323Y-110759000D01*
X121353323Y-113241000D02*
X121353323Y-116298000D01*
X121393323Y-107727000D02*
X121393323Y-110759000D01*
X121393323Y-113241000D02*
X121393323Y-116273000D01*
X121433323Y-107753000D02*
X121433323Y-110759000D01*
X121433323Y-113241000D02*
X121433323Y-116247000D01*
X121473323Y-107779000D02*
X121473323Y-110759000D01*
X121473323Y-113241000D02*
X121473323Y-116221000D01*
X121513323Y-107806000D02*
X121513323Y-110759000D01*
X121513323Y-113241000D02*
X121513323Y-116194000D01*
X121553323Y-107834000D02*
X121553323Y-110759000D01*
X121553323Y-113241000D02*
X121553323Y-116166000D01*
X121593323Y-107862000D02*
X121593323Y-110759000D01*
X121593323Y-113241000D02*
X121593323Y-116138000D01*
X121633323Y-107890000D02*
X121633323Y-110759000D01*
X121633323Y-113241000D02*
X121633323Y-116110000D01*
X121673323Y-107920000D02*
X121673323Y-110759000D01*
X121673323Y-113241000D02*
X121673323Y-116080000D01*
X121713323Y-107950000D02*
X121713323Y-110759000D01*
X121713323Y-113241000D02*
X121713323Y-116050000D01*
X121753323Y-107980000D02*
X121753323Y-110759000D01*
X121753323Y-113241000D02*
X121753323Y-116020000D01*
X121793323Y-108011000D02*
X121793323Y-110759000D01*
X121793323Y-113241000D02*
X121793323Y-115989000D01*
X121833323Y-108043000D02*
X121833323Y-110759000D01*
X121833323Y-113241000D02*
X121833323Y-115957000D01*
X121873323Y-108075000D02*
X121873323Y-110759000D01*
X121873323Y-113241000D02*
X121873323Y-115925000D01*
X121913323Y-108108000D02*
X121913323Y-110759000D01*
X121913323Y-113241000D02*
X121913323Y-115892000D01*
X121953323Y-108142000D02*
X121953323Y-110759000D01*
X121953323Y-113241000D02*
X121953323Y-115858000D01*
X121993323Y-108176000D02*
X121993323Y-110759000D01*
X121993323Y-113241000D02*
X121993323Y-115824000D01*
X122033323Y-108211000D02*
X122033323Y-110759000D01*
X122033323Y-113241000D02*
X122033323Y-115789000D01*
X122073323Y-108247000D02*
X122073323Y-110759000D01*
X122073323Y-113241000D02*
X122073323Y-115753000D01*
X122113323Y-108284000D02*
X122113323Y-110759000D01*
X122113323Y-113241000D02*
X122113323Y-115716000D01*
X122153323Y-108321000D02*
X122153323Y-110759000D01*
X122153323Y-113241000D02*
X122153323Y-115679000D01*
X122193323Y-108360000D02*
X122193323Y-110759000D01*
X122193323Y-113241000D02*
X122193323Y-115640000D01*
X122233323Y-108399000D02*
X122233323Y-110759000D01*
X122233323Y-113241000D02*
X122233323Y-115601000D01*
X122273323Y-108439000D02*
X122273323Y-110759000D01*
X122273323Y-113241000D02*
X122273323Y-115561000D01*
X122313323Y-108480000D02*
X122313323Y-110759000D01*
X122313323Y-113241000D02*
X122313323Y-115520000D01*
X122353323Y-108522000D02*
X122353323Y-110759000D01*
X122353323Y-113241000D02*
X122353323Y-115478000D01*
X122393323Y-108564000D02*
X122393323Y-115436000D01*
X122433323Y-108608000D02*
X122433323Y-115392000D01*
X122473323Y-108653000D02*
X122473323Y-115347000D01*
X122513323Y-108699000D02*
X122513323Y-115301000D01*
X122553323Y-108746000D02*
X122553323Y-115254000D01*
X122593323Y-108794000D02*
X122593323Y-115206000D01*
X122633323Y-108844000D02*
X122633323Y-115156000D01*
X122673323Y-108894000D02*
X122673323Y-115106000D01*
X122713323Y-108946000D02*
X122713323Y-115054000D01*
X122753323Y-109000000D02*
X122753323Y-115000000D01*
X122793323Y-109055000D02*
X122793323Y-114945000D01*
X122833323Y-109111000D02*
X122833323Y-114889000D01*
X122873323Y-109170000D02*
X122873323Y-114830000D01*
X122913323Y-109230000D02*
X122913323Y-114770000D01*
X122953323Y-109291000D02*
X122953323Y-114709000D01*
X122993323Y-109355000D02*
X122993323Y-114645000D01*
X123033323Y-109421000D02*
X123033323Y-114579000D01*
X123073323Y-109490000D02*
X123073323Y-114510000D01*
X123113323Y-109561000D02*
X123113323Y-114439000D01*
X123153323Y-109635000D02*
X123153323Y-114365000D01*
X123193323Y-109711000D02*
X123193323Y-114289000D01*
X123233323Y-109791000D02*
X123233323Y-114209000D01*
X123273323Y-109875000D02*
X123273323Y-114125000D01*
X123313323Y-109963000D02*
X123313323Y-114037000D01*
X123353323Y-110056000D02*
X123353323Y-113944000D01*
X123393323Y-110154000D02*
X123393323Y-113846000D01*
X123433323Y-110258000D02*
X123433323Y-113742000D01*
X123473323Y-110370000D02*
X123473323Y-113630000D01*
X123513323Y-110490000D02*
X123513323Y-113510000D01*
X123553323Y-110622000D02*
X123553323Y-113378000D01*
X123593323Y-110770000D02*
X123593323Y-113230000D01*
X123633323Y-110938000D02*
X123633323Y-113062000D01*
X123673323Y-111138000D02*
X123673323Y-112862000D01*
X123713323Y-111401000D02*
X123713323Y-112599000D01*
X123752323Y-112000000D02*
G75*
G02*
X113512323Y-112000000I-5120000J0D01*
G01*
X113512323Y-112000000D02*
G75*
G02*
X123752323Y-112000000I5120000J0D01*
G01*
%TO.C,RV1*%
X118865000Y-138115000D02*
X118865000Y-144325000D01*
X119119000Y-144325000D02*
X119119000Y-146355000D01*
X126980000Y-144325000D02*
X119119000Y-144325000D01*
X126980000Y-144325000D02*
X126980000Y-146355000D01*
X126980000Y-146355000D02*
X119119000Y-146355000D01*
X127236000Y-138115000D02*
X118865000Y-138115000D01*
X127236000Y-138115000D02*
X127236000Y-144325000D01*
X127236000Y-144325000D02*
X118865000Y-144325000D01*
%TO.C,RV2*%
X128355000Y-138115000D02*
X128355000Y-144325000D01*
X128609000Y-144325000D02*
X128609000Y-146355000D01*
X136470000Y-144325000D02*
X128609000Y-144325000D01*
X136470000Y-144325000D02*
X136470000Y-146355000D01*
X136470000Y-146355000D02*
X128609000Y-146355000D01*
X136726000Y-138115000D02*
X128355000Y-138115000D01*
X136726000Y-138115000D02*
X136726000Y-144325000D01*
X136726000Y-144325000D02*
X128355000Y-144325000D01*
%TO.C,C3*%
X93958752Y-113162500D02*
X93436248Y-113162500D01*
X93958752Y-114632500D02*
X93436248Y-114632500D01*
%TO.C,D4*%
X93035000Y-127900000D02*
X93035000Y-129900000D01*
X93035000Y-127900000D02*
X97045000Y-127900000D01*
X93035000Y-129900000D02*
X97045000Y-129900000D01*
%TO.C,RV3*%
X87075000Y-138115000D02*
X87075000Y-144325000D01*
X87329000Y-144325000D02*
X87329000Y-146355000D01*
X95190000Y-144325000D02*
X87329000Y-144325000D01*
X95190000Y-144325000D02*
X95190000Y-146355000D01*
X95190000Y-146355000D02*
X87329000Y-146355000D01*
X95446000Y-138115000D02*
X87075000Y-138115000D01*
X95446000Y-138115000D02*
X95446000Y-144325000D01*
X95446000Y-144325000D02*
X87075000Y-144325000D01*
%TO.C,R11*%
X110022936Y-122115000D02*
X110477064Y-122115000D01*
X110022936Y-123585000D02*
X110477064Y-123585000D01*
%TO.C,R2*%
X133772936Y-128265000D02*
X134227064Y-128265000D01*
X133772936Y-129735000D02*
X134227064Y-129735000D01*
%TO.C,D6*%
X93035000Y-134150000D02*
X93035000Y-136150000D01*
X93035000Y-134150000D02*
X97045000Y-134150000D01*
X93035000Y-136150000D02*
X97045000Y-136150000D01*
%TO.C,C4*%
X90363748Y-128265000D02*
X90886252Y-128265000D01*
X90363748Y-129735000D02*
X90886252Y-129735000D01*
%TO.C,RV4*%
X96575000Y-138115000D02*
X96575000Y-144325000D01*
X96829000Y-144325000D02*
X96829000Y-146355000D01*
X104690000Y-144325000D02*
X96829000Y-144325000D01*
X104690000Y-144325000D02*
X104690000Y-146355000D01*
X104690000Y-146355000D02*
X96829000Y-146355000D01*
X104946000Y-138115000D02*
X96575000Y-138115000D01*
X104946000Y-138115000D02*
X104946000Y-144325000D01*
X104946000Y-144325000D02*
X96575000Y-144325000D01*
%TO.C,C8*%
X102988748Y-117115000D02*
X103511252Y-117115000D01*
X102988748Y-118585000D02*
X103511252Y-118585000D01*
%TO.C,R12*%
X110477064Y-125240000D02*
X110022936Y-125240000D01*
X110477064Y-126710000D02*
X110022936Y-126710000D01*
%TO.C,R3*%
X133772936Y-131390000D02*
X134227064Y-131390000D01*
X133772936Y-132860000D02*
X134227064Y-132860000D01*
%TO.C,C9*%
X119796252Y-118895000D02*
X119273748Y-118895000D01*
X119796252Y-120365000D02*
X119273748Y-120365000D01*
%TO.C,C10*%
X128761252Y-115845000D02*
X128238748Y-115845000D01*
X128761252Y-117315000D02*
X128238748Y-117315000D01*
%TO.C,C5*%
X90363748Y-120765000D02*
X90886252Y-120765000D01*
X90363748Y-122235000D02*
X90886252Y-122235000D01*
%TO.C,C7*%
X82210000Y-136794888D02*
X80670000Y-136794888D01*
X82210000Y-136834888D02*
X80670000Y-136834888D01*
X82210000Y-136874888D02*
X80671000Y-136874888D01*
X82210000Y-136914888D02*
X80672000Y-136914888D01*
X82210000Y-136954888D02*
X80674000Y-136954888D01*
X82210000Y-136994888D02*
X80677000Y-136994888D01*
X82210000Y-137034888D02*
X80681000Y-137034888D01*
X82210000Y-137074888D02*
X80685000Y-137074888D01*
X82210000Y-137114888D02*
X80689000Y-137114888D01*
X82210000Y-137154888D02*
X80694000Y-137154888D01*
X82210000Y-137194888D02*
X80700000Y-137194888D01*
X82210000Y-137234888D02*
X80707000Y-137234888D01*
X82210000Y-137274888D02*
X80714000Y-137274888D01*
X82210000Y-137314888D02*
X80722000Y-137314888D01*
X82210000Y-137354888D02*
X80730000Y-137354888D01*
X82210000Y-137394888D02*
X80739000Y-137394888D01*
X82210000Y-137434888D02*
X80749000Y-137434888D01*
X82210000Y-137474888D02*
X80759000Y-137474888D01*
X82210000Y-137515888D02*
X80770000Y-137515888D01*
X82210000Y-137555888D02*
X80782000Y-137555888D01*
X82210000Y-137595888D02*
X80795000Y-137595888D01*
X82210000Y-137635888D02*
X80808000Y-137635888D01*
X82210000Y-137675888D02*
X80822000Y-137675888D01*
X82210000Y-137715888D02*
X80836000Y-137715888D01*
X82210000Y-137755888D02*
X80852000Y-137755888D01*
X82210000Y-137795888D02*
X80868000Y-137795888D01*
X82210000Y-137835888D02*
X80885000Y-137835888D01*
X82210000Y-137875888D02*
X80902000Y-137875888D01*
X82210000Y-137915888D02*
X80921000Y-137915888D01*
X82210000Y-137955888D02*
X80940000Y-137955888D01*
X82210000Y-137995888D02*
X80960000Y-137995888D01*
X82210000Y-138035888D02*
X80982000Y-138035888D01*
X82210000Y-138075888D02*
X81003000Y-138075888D01*
X82210000Y-138115888D02*
X81026000Y-138115888D01*
X82210000Y-138155888D02*
X81050000Y-138155888D01*
X82210000Y-138195888D02*
X81075000Y-138195888D01*
X82210000Y-138235888D02*
X81101000Y-138235888D01*
X82210000Y-138275888D02*
X81128000Y-138275888D01*
X82210000Y-138315888D02*
X81155000Y-138315888D01*
X82210000Y-138355888D02*
X81185000Y-138355888D01*
X82210000Y-138395888D02*
X81215000Y-138395888D01*
X82210000Y-138435888D02*
X81246000Y-138435888D01*
X82210000Y-138475888D02*
X81279000Y-138475888D01*
X82210000Y-138515888D02*
X81313000Y-138515888D01*
X82210000Y-138555888D02*
X81349000Y-138555888D01*
X82210000Y-138595888D02*
X81386000Y-138595888D01*
X82210000Y-138635888D02*
X81424000Y-138635888D01*
X82210000Y-138675888D02*
X81465000Y-138675888D01*
X82210000Y-138715888D02*
X81507000Y-138715888D01*
X82210000Y-138755888D02*
X81551000Y-138755888D01*
X82210000Y-138795888D02*
X81597000Y-138795888D01*
X83534000Y-139395888D02*
X82966000Y-139395888D01*
X83768000Y-139355888D02*
X82732000Y-139355888D01*
X83927000Y-139315888D02*
X82573000Y-139315888D01*
X84055000Y-139275888D02*
X82445000Y-139275888D01*
X84165000Y-139235888D02*
X82335000Y-139235888D01*
X84261000Y-139195888D02*
X82239000Y-139195888D01*
X84348000Y-139155888D02*
X82152000Y-139155888D01*
X84428000Y-139115888D02*
X82072000Y-139115888D01*
X84501000Y-139075888D02*
X81999000Y-139075888D01*
X84569000Y-139035888D02*
X81931000Y-139035888D01*
X84633000Y-138995888D02*
X81867000Y-138995888D01*
X84693000Y-138955888D02*
X81807000Y-138955888D01*
X84725000Y-133990113D02*
X84725000Y-134490113D01*
X84750000Y-138915888D02*
X81750000Y-138915888D01*
X84804000Y-138875888D02*
X81696000Y-138875888D01*
X84855000Y-138835888D02*
X81645000Y-138835888D01*
X84903000Y-138795888D02*
X84290000Y-138795888D01*
X84949000Y-138755888D02*
X84290000Y-138755888D01*
X84975000Y-134240113D02*
X84475000Y-134240113D01*
X84993000Y-138715888D02*
X84290000Y-138715888D01*
X85035000Y-138675888D02*
X84290000Y-138675888D01*
X85076000Y-138635888D02*
X84290000Y-138635888D01*
X85114000Y-138595888D02*
X84290000Y-138595888D01*
X85151000Y-138555888D02*
X84290000Y-138555888D01*
X85187000Y-138515888D02*
X84290000Y-138515888D01*
X85221000Y-138475888D02*
X84290000Y-138475888D01*
X85254000Y-138435888D02*
X84290000Y-138435888D01*
X85285000Y-138395888D02*
X84290000Y-138395888D01*
X85315000Y-138355888D02*
X84290000Y-138355888D01*
X85345000Y-138315888D02*
X84290000Y-138315888D01*
X85372000Y-138275888D02*
X84290000Y-138275888D01*
X85399000Y-138235888D02*
X84290000Y-138235888D01*
X85425000Y-138195888D02*
X84290000Y-138195888D01*
X85450000Y-138155888D02*
X84290000Y-138155888D01*
X85474000Y-138115888D02*
X84290000Y-138115888D01*
X85497000Y-138075888D02*
X84290000Y-138075888D01*
X85518000Y-138035888D02*
X84290000Y-138035888D01*
X85540000Y-137995888D02*
X84290000Y-137995888D01*
X85560000Y-137955888D02*
X84290000Y-137955888D01*
X85579000Y-137915888D02*
X84290000Y-137915888D01*
X85598000Y-137875888D02*
X84290000Y-137875888D01*
X85615000Y-137835888D02*
X84290000Y-137835888D01*
X85632000Y-137795888D02*
X84290000Y-137795888D01*
X85648000Y-137755888D02*
X84290000Y-137755888D01*
X85664000Y-137715888D02*
X84290000Y-137715888D01*
X85678000Y-137675888D02*
X84290000Y-137675888D01*
X85692000Y-137635888D02*
X84290000Y-137635888D01*
X85705000Y-137595888D02*
X84290000Y-137595888D01*
X85718000Y-137555888D02*
X84290000Y-137555888D01*
X85730000Y-137515888D02*
X84290000Y-137515888D01*
X85741000Y-137474888D02*
X84290000Y-137474888D01*
X85751000Y-137434888D02*
X84290000Y-137434888D01*
X85761000Y-137394888D02*
X84290000Y-137394888D01*
X85770000Y-137354888D02*
X84290000Y-137354888D01*
X85778000Y-137314888D02*
X84290000Y-137314888D01*
X85786000Y-137274888D02*
X84290000Y-137274888D01*
X85793000Y-137234888D02*
X84290000Y-137234888D01*
X85800000Y-137194888D02*
X84290000Y-137194888D01*
X85806000Y-137154888D02*
X84290000Y-137154888D01*
X85811000Y-137114888D02*
X84290000Y-137114888D01*
X85815000Y-137074888D02*
X84290000Y-137074888D01*
X85819000Y-137034888D02*
X84290000Y-137034888D01*
X85823000Y-136994888D02*
X84290000Y-136994888D01*
X85826000Y-136954888D02*
X84290000Y-136954888D01*
X85828000Y-136914888D02*
X84290000Y-136914888D01*
X85829000Y-136874888D02*
X84290000Y-136874888D01*
X85830000Y-136794888D02*
X84290000Y-136794888D01*
X85830000Y-136834888D02*
X84290000Y-136834888D01*
X85870000Y-136794888D02*
G75*
G02*
X80630000Y-136794888I-2620000J0D01*
G01*
X80630000Y-136794888D02*
G75*
G02*
X85870000Y-136794888I2620000J0D01*
G01*
%TO.C,D1*%
X117185000Y-127800000D02*
X117185000Y-129800000D01*
X117185000Y-127800000D02*
X121195000Y-127800000D01*
X117185000Y-129800000D02*
X121195000Y-129800000D01*
%TO.C,J1*%
X76150000Y-108370000D02*
X82150000Y-108370000D01*
X76150000Y-109130000D02*
X76150000Y-108370000D01*
X76150000Y-110910000D02*
X82150000Y-110910000D01*
X76150000Y-111670000D02*
X76150000Y-110910000D01*
X82150000Y-107420000D02*
X82150000Y-112620000D01*
X82150000Y-109130000D02*
X76150000Y-109130000D01*
X82150000Y-111010000D02*
X76150000Y-111010000D01*
X82150000Y-111130000D02*
X76150000Y-111130000D01*
X82150000Y-111250000D02*
X76150000Y-111250000D01*
X82150000Y-111370000D02*
X76150000Y-111370000D01*
X82150000Y-111490000D02*
X76150000Y-111490000D01*
X82150000Y-111610000D02*
X76150000Y-111610000D01*
X82150000Y-111670000D02*
X76150000Y-111670000D01*
X82150000Y-112620000D02*
X84810000Y-112620000D01*
X84810000Y-107420000D02*
X82150000Y-107420000D01*
X84810000Y-110020000D02*
X82150000Y-110020000D01*
X84810000Y-112620000D02*
X84810000Y-107420000D01*
X85140000Y-110910000D02*
X84810000Y-110910000D01*
X85140000Y-111670000D02*
X84810000Y-111670000D01*
X85207071Y-108370000D02*
X84810000Y-108370000D01*
X85207071Y-109130000D02*
X84810000Y-109130000D01*
X87520000Y-111290000D02*
X87520000Y-112560000D01*
X87520000Y-112560000D02*
X86250000Y-112560000D01*
%TO.C,C6*%
X113210000Y-139294888D02*
X111670000Y-139294888D01*
X113210000Y-139334888D02*
X111670000Y-139334888D01*
X113210000Y-139374888D02*
X111671000Y-139374888D01*
X113210000Y-139414888D02*
X111672000Y-139414888D01*
X113210000Y-139454888D02*
X111674000Y-139454888D01*
X113210000Y-139494888D02*
X111677000Y-139494888D01*
X113210000Y-139534888D02*
X111681000Y-139534888D01*
X113210000Y-139574888D02*
X111685000Y-139574888D01*
X113210000Y-139614888D02*
X111689000Y-139614888D01*
X113210000Y-139654888D02*
X111694000Y-139654888D01*
X113210000Y-139694888D02*
X111700000Y-139694888D01*
X113210000Y-139734888D02*
X111707000Y-139734888D01*
X113210000Y-139774888D02*
X111714000Y-139774888D01*
X113210000Y-139814888D02*
X111722000Y-139814888D01*
X113210000Y-139854888D02*
X111730000Y-139854888D01*
X113210000Y-139894888D02*
X111739000Y-139894888D01*
X113210000Y-139934888D02*
X111749000Y-139934888D01*
X113210000Y-139974888D02*
X111759000Y-139974888D01*
X113210000Y-140015888D02*
X111770000Y-140015888D01*
X113210000Y-140055888D02*
X111782000Y-140055888D01*
X113210000Y-140095888D02*
X111795000Y-140095888D01*
X113210000Y-140135888D02*
X111808000Y-140135888D01*
X113210000Y-140175888D02*
X111822000Y-140175888D01*
X113210000Y-140215888D02*
X111836000Y-140215888D01*
X113210000Y-140255888D02*
X111852000Y-140255888D01*
X113210000Y-140295888D02*
X111868000Y-140295888D01*
X113210000Y-140335888D02*
X111885000Y-140335888D01*
X113210000Y-140375888D02*
X111902000Y-140375888D01*
X113210000Y-140415888D02*
X111921000Y-140415888D01*
X113210000Y-140455888D02*
X111940000Y-140455888D01*
X113210000Y-140495888D02*
X111960000Y-140495888D01*
X113210000Y-140535888D02*
X111982000Y-140535888D01*
X113210000Y-140575888D02*
X112003000Y-140575888D01*
X113210000Y-140615888D02*
X112026000Y-140615888D01*
X113210000Y-140655888D02*
X112050000Y-140655888D01*
X113210000Y-140695888D02*
X112075000Y-140695888D01*
X113210000Y-140735888D02*
X112101000Y-140735888D01*
X113210000Y-140775888D02*
X112128000Y-140775888D01*
X113210000Y-140815888D02*
X112155000Y-140815888D01*
X113210000Y-140855888D02*
X112185000Y-140855888D01*
X113210000Y-140895888D02*
X112215000Y-140895888D01*
X113210000Y-140935888D02*
X112246000Y-140935888D01*
X113210000Y-140975888D02*
X112279000Y-140975888D01*
X113210000Y-141015888D02*
X112313000Y-141015888D01*
X113210000Y-141055888D02*
X112349000Y-141055888D01*
X113210000Y-141095888D02*
X112386000Y-141095888D01*
X113210000Y-141135888D02*
X112424000Y-141135888D01*
X113210000Y-141175888D02*
X112465000Y-141175888D01*
X113210000Y-141215888D02*
X112507000Y-141215888D01*
X113210000Y-141255888D02*
X112551000Y-141255888D01*
X113210000Y-141295888D02*
X112597000Y-141295888D01*
X114534000Y-141895888D02*
X113966000Y-141895888D01*
X114768000Y-141855888D02*
X113732000Y-141855888D01*
X114927000Y-141815888D02*
X113573000Y-141815888D01*
X115055000Y-141775888D02*
X113445000Y-141775888D01*
X115165000Y-141735888D02*
X113335000Y-141735888D01*
X115261000Y-141695888D02*
X113239000Y-141695888D01*
X115348000Y-141655888D02*
X113152000Y-141655888D01*
X115428000Y-141615888D02*
X113072000Y-141615888D01*
X115501000Y-141575888D02*
X112999000Y-141575888D01*
X115569000Y-141535888D02*
X112931000Y-141535888D01*
X115633000Y-141495888D02*
X112867000Y-141495888D01*
X115693000Y-141455888D02*
X112807000Y-141455888D01*
X115725000Y-136490113D02*
X115725000Y-136990113D01*
X115750000Y-141415888D02*
X112750000Y-141415888D01*
X115804000Y-141375888D02*
X112696000Y-141375888D01*
X115855000Y-141335888D02*
X112645000Y-141335888D01*
X115903000Y-141295888D02*
X115290000Y-141295888D01*
X115949000Y-141255888D02*
X115290000Y-141255888D01*
X115975000Y-136740113D02*
X115475000Y-136740113D01*
X115993000Y-141215888D02*
X115290000Y-141215888D01*
X116035000Y-141175888D02*
X115290000Y-141175888D01*
X116076000Y-141135888D02*
X115290000Y-141135888D01*
X116114000Y-141095888D02*
X115290000Y-141095888D01*
X116151000Y-141055888D02*
X115290000Y-141055888D01*
X116187000Y-141015888D02*
X115290000Y-141015888D01*
X116221000Y-140975888D02*
X115290000Y-140975888D01*
X116254000Y-140935888D02*
X115290000Y-140935888D01*
X116285000Y-140895888D02*
X115290000Y-140895888D01*
X116315000Y-140855888D02*
X115290000Y-140855888D01*
X116345000Y-140815888D02*
X115290000Y-140815888D01*
X116372000Y-140775888D02*
X115290000Y-140775888D01*
X116399000Y-140735888D02*
X115290000Y-140735888D01*
X116425000Y-140695888D02*
X115290000Y-140695888D01*
X116450000Y-140655888D02*
X115290000Y-140655888D01*
X116474000Y-140615888D02*
X115290000Y-140615888D01*
X116497000Y-140575888D02*
X115290000Y-140575888D01*
X116518000Y-140535888D02*
X115290000Y-140535888D01*
X116540000Y-140495888D02*
X115290000Y-140495888D01*
X116560000Y-140455888D02*
X115290000Y-140455888D01*
X116579000Y-140415888D02*
X115290000Y-140415888D01*
X116598000Y-140375888D02*
X115290000Y-140375888D01*
X116615000Y-140335888D02*
X115290000Y-140335888D01*
X116632000Y-140295888D02*
X115290000Y-140295888D01*
X116648000Y-140255888D02*
X115290000Y-140255888D01*
X116664000Y-140215888D02*
X115290000Y-140215888D01*
X116678000Y-140175888D02*
X115290000Y-140175888D01*
X116692000Y-140135888D02*
X115290000Y-140135888D01*
X116705000Y-140095888D02*
X115290000Y-140095888D01*
X116718000Y-140055888D02*
X115290000Y-140055888D01*
X116730000Y-140015888D02*
X115290000Y-140015888D01*
X116741000Y-139974888D02*
X115290000Y-139974888D01*
X116751000Y-139934888D02*
X115290000Y-139934888D01*
X116761000Y-139894888D02*
X115290000Y-139894888D01*
X116770000Y-139854888D02*
X115290000Y-139854888D01*
X116778000Y-139814888D02*
X115290000Y-139814888D01*
X116786000Y-139774888D02*
X115290000Y-139774888D01*
X116793000Y-139734888D02*
X115290000Y-139734888D01*
X116800000Y-139694888D02*
X115290000Y-139694888D01*
X116806000Y-139654888D02*
X115290000Y-139654888D01*
X116811000Y-139614888D02*
X115290000Y-139614888D01*
X116815000Y-139574888D02*
X115290000Y-139574888D01*
X116819000Y-139534888D02*
X115290000Y-139534888D01*
X116823000Y-139494888D02*
X115290000Y-139494888D01*
X116826000Y-139454888D02*
X115290000Y-139454888D01*
X116828000Y-139414888D02*
X115290000Y-139414888D01*
X116829000Y-139374888D02*
X115290000Y-139374888D01*
X116830000Y-139294888D02*
X115290000Y-139294888D01*
X116830000Y-139334888D02*
X115290000Y-139334888D01*
X116870000Y-139294888D02*
G75*
G02*
X111630000Y-139294888I-2620000J0D01*
G01*
X111630000Y-139294888D02*
G75*
G02*
X116870000Y-139294888I2620000J0D01*
G01*
%TO.C,U2*%
X127235000Y-120505000D02*
X125285000Y-120505000D01*
X127235000Y-120505000D02*
X129185000Y-120505000D01*
X127235000Y-129375000D02*
X125285000Y-129375000D01*
X127235000Y-129375000D02*
X129185000Y-129375000D01*
X124535000Y-120570000D02*
X124295000Y-120240000D01*
X124775000Y-120240000D01*
X124535000Y-120570000D01*
G36*
X124535000Y-120570000D02*
G01*
X124295000Y-120240000D01*
X124775000Y-120240000D01*
X124535000Y-120570000D01*
G37*
%TO.C,D5*%
X97710000Y-131025000D02*
X93700000Y-131025000D01*
X97710000Y-133025000D02*
X93700000Y-133025000D01*
X97710000Y-133025000D02*
X97710000Y-131025000D01*
%TO.C,R6*%
X134227064Y-125140000D02*
X133772936Y-125140000D01*
X134227064Y-126610000D02*
X133772936Y-126610000D01*
%TO.C,J3*%
X131980000Y-107480000D02*
X133250000Y-107480000D01*
X131980000Y-108750000D02*
X131980000Y-107480000D01*
X134292929Y-110910000D02*
X134690000Y-110910000D01*
X134292929Y-111670000D02*
X134690000Y-111670000D01*
X134292929Y-113450000D02*
X134690000Y-113450000D01*
X134292929Y-114210000D02*
X134690000Y-114210000D01*
X134292929Y-115990000D02*
X134690000Y-115990000D01*
X134292929Y-116750000D02*
X134690000Y-116750000D01*
X134360000Y-108370000D02*
X134690000Y-108370000D01*
X134360000Y-109130000D02*
X134690000Y-109130000D01*
X134690000Y-107420000D02*
X134690000Y-117700000D01*
X134690000Y-110020000D02*
X137350000Y-110020000D01*
X134690000Y-112560000D02*
X137350000Y-112560000D01*
X134690000Y-115100000D02*
X137350000Y-115100000D01*
X134690000Y-117700000D02*
X137350000Y-117700000D01*
X137350000Y-107420000D02*
X134690000Y-107420000D01*
X137350000Y-108370000D02*
X143350000Y-108370000D01*
X137350000Y-108430000D02*
X143350000Y-108430000D01*
X137350000Y-108550000D02*
X143350000Y-108550000D01*
X137350000Y-108670000D02*
X143350000Y-108670000D01*
X137350000Y-108790000D02*
X143350000Y-108790000D01*
X137350000Y-108910000D02*
X143350000Y-108910000D01*
X137350000Y-109030000D02*
X143350000Y-109030000D01*
X137350000Y-110910000D02*
X143350000Y-110910000D01*
X137350000Y-113450000D02*
X143350000Y-113450000D01*
X137350000Y-115990000D02*
X143350000Y-115990000D01*
X137350000Y-117700000D02*
X137350000Y-107420000D01*
X143350000Y-108370000D02*
X143350000Y-109130000D01*
X143350000Y-109130000D02*
X137350000Y-109130000D01*
X143350000Y-110910000D02*
X143350000Y-111670000D01*
X143350000Y-111670000D02*
X137350000Y-111670000D01*
X143350000Y-113450000D02*
X143350000Y-114210000D01*
X143350000Y-114210000D02*
X137350000Y-114210000D01*
X143350000Y-115990000D02*
X143350000Y-116750000D01*
X143350000Y-116750000D02*
X137350000Y-116750000D01*
%TO.C,D2*%
X121860000Y-130925000D02*
X117850000Y-130925000D01*
X121860000Y-132925000D02*
X117850000Y-132925000D01*
X121860000Y-132925000D02*
X121860000Y-130925000D01*
%TO.C,D3*%
X117185000Y-134050000D02*
X117185000Y-136050000D01*
X117185000Y-134050000D02*
X121195000Y-134050000D01*
X117185000Y-136050000D02*
X121195000Y-136050000D01*
%TO.C,J2*%
X76150000Y-121040000D02*
X82150000Y-121040000D01*
X76150000Y-121800000D02*
X76150000Y-121040000D01*
X76150000Y-123580000D02*
X82150000Y-123580000D01*
X76150000Y-124340000D02*
X76150000Y-123580000D01*
X76150000Y-126120000D02*
X82150000Y-126120000D01*
X76150000Y-126880000D02*
X76150000Y-126120000D01*
X76150000Y-128660000D02*
X82150000Y-128660000D01*
X76150000Y-129420000D02*
X76150000Y-128660000D01*
X82150000Y-120090000D02*
X82150000Y-130370000D01*
X82150000Y-121800000D02*
X76150000Y-121800000D01*
X82150000Y-124340000D02*
X76150000Y-124340000D01*
X82150000Y-126880000D02*
X76150000Y-126880000D01*
X82150000Y-128760000D02*
X76150000Y-128760000D01*
X82150000Y-128880000D02*
X76150000Y-128880000D01*
X82150000Y-129000000D02*
X76150000Y-129000000D01*
X82150000Y-129120000D02*
X76150000Y-129120000D01*
X82150000Y-129240000D02*
X76150000Y-129240000D01*
X82150000Y-129360000D02*
X76150000Y-129360000D01*
X82150000Y-129420000D02*
X76150000Y-129420000D01*
X82150000Y-130370000D02*
X84810000Y-130370000D01*
X84810000Y-120090000D02*
X82150000Y-120090000D01*
X84810000Y-122690000D02*
X82150000Y-122690000D01*
X84810000Y-125230000D02*
X82150000Y-125230000D01*
X84810000Y-127770000D02*
X82150000Y-127770000D01*
X84810000Y-130370000D02*
X84810000Y-120090000D01*
X85140000Y-128660000D02*
X84810000Y-128660000D01*
X85140000Y-129420000D02*
X84810000Y-129420000D01*
X85207071Y-121040000D02*
X84810000Y-121040000D01*
X85207071Y-121800000D02*
X84810000Y-121800000D01*
X85207071Y-123580000D02*
X84810000Y-123580000D01*
X85207071Y-124340000D02*
X84810000Y-124340000D01*
X85207071Y-126120000D02*
X84810000Y-126120000D01*
X85207071Y-126880000D02*
X84810000Y-126880000D01*
X87520000Y-129040000D02*
X87520000Y-130310000D01*
X87520000Y-130310000D02*
X86250000Y-130310000D01*
%TO.C,R9*%
X110022936Y-134615000D02*
X110477064Y-134615000D01*
X110022936Y-136085000D02*
X110477064Y-136085000D01*
%TO.C,R4*%
X133772936Y-134515000D02*
X134227064Y-134515000D01*
X133772936Y-135985000D02*
X134227064Y-135985000D01*
%TO.C,C11*%
X128761252Y-107845000D02*
X128238748Y-107845000D01*
X128761252Y-109315000D02*
X128238748Y-109315000D01*
%TO.C,R10*%
X110022936Y-131490000D02*
X110477064Y-131490000D01*
X110022936Y-132960000D02*
X110477064Y-132960000D01*
%TO.C,U1*%
X101980000Y-107020000D02*
X101980000Y-107290000D01*
X101980000Y-113920000D02*
X101980000Y-113650000D01*
X108400000Y-107020000D02*
X101980000Y-107020000D01*
X108400000Y-113920000D02*
X101980000Y-113920000D01*
X100250000Y-107330000D02*
X99910000Y-106860000D01*
X100590000Y-106860000D01*
X100250000Y-107330000D01*
G36*
X100250000Y-107330000D02*
G01*
X99910000Y-106860000D01*
X100590000Y-106860000D01*
X100250000Y-107330000D01*
G37*
%TO.C,C1*%
X93958752Y-107662500D02*
X93436248Y-107662500D01*
X93958752Y-109132500D02*
X93436248Y-109132500D01*
%TO.C,R7*%
X95145436Y-122115000D02*
X95599564Y-122115000D01*
X95145436Y-123585000D02*
X95599564Y-123585000D01*
%TO.C,R1*%
X119295436Y-122015000D02*
X119749564Y-122015000D01*
X119295436Y-123485000D02*
X119749564Y-123485000D01*
%TO.C,U3*%
X103250000Y-120605000D02*
X101300000Y-120605000D01*
X103250000Y-120605000D02*
X105200000Y-120605000D01*
X103250000Y-129475000D02*
X101300000Y-129475000D01*
X103250000Y-129475000D02*
X105200000Y-129475000D01*
X100550000Y-120670000D02*
X100310000Y-120340000D01*
X100790000Y-120340000D01*
X100550000Y-120670000D01*
G36*
X100550000Y-120670000D02*
G01*
X100310000Y-120340000D01*
X100790000Y-120340000D01*
X100550000Y-120670000D01*
G37*
%TO.C,D7*%
X96035000Y-110147500D02*
X92025000Y-110147500D01*
X96035000Y-112147500D02*
X92025000Y-112147500D01*
X96035000Y-112147500D02*
X96035000Y-110147500D01*
%TD*%
M02*
