%TF.GenerationSoftware,KiCad,Pcbnew,8.0.8*%
%TF.CreationDate,2025-01-26T19:39:00-06:00*%
%TF.ProjectId,peak-read-amp,7065616b-2d72-4656-9164-2d616d702e6b,rev?*%
%TF.SameCoordinates,Original*%
%TF.FileFunction,Soldermask,Top*%
%TF.FilePolarity,Negative*%
%FSLAX46Y46*%
G04 Gerber Fmt 4.6, Leading zero omitted, Abs format (unit mm)*
G04 Created by KiCad (PCBNEW 8.0.8) date 2025-01-26 19:39:00*
%MOMM*%
%LPD*%
G01*
G04 APERTURE LIST*
G04 Aperture macros list*
%AMRoundRect*
0 Rectangle with rounded corners*
0 $1 Rounding radius*
0 $2 $3 $4 $5 $6 $7 $8 $9 X,Y pos of 4 corners*
0 Add a 4 corners polygon primitive as box body*
4,1,4,$2,$3,$4,$5,$6,$7,$8,$9,$2,$3,0*
0 Add four circle primitives for the rounded corners*
1,1,$1+$1,$2,$3*
1,1,$1+$1,$4,$5*
1,1,$1+$1,$6,$7*
1,1,$1+$1,$8,$9*
0 Add four rect primitives between the rounded corners*
20,1,$1+$1,$2,$3,$4,$5,0*
20,1,$1+$1,$4,$5,$6,$7,0*
20,1,$1+$1,$6,$7,$8,$9,0*
20,1,$1+$1,$8,$9,$2,$3,0*%
G04 Aperture macros list end*
%ADD10RoundRect,0.250000X-0.262500X-0.450000X0.262500X-0.450000X0.262500X0.450000X-0.262500X0.450000X0*%
%ADD11R,2.000000X2.000000*%
%ADD12C,2.000000*%
%ADD13C,1.440000*%
%ADD14RoundRect,0.250000X0.250000X0.475000X-0.250000X0.475000X-0.250000X-0.475000X0.250000X-0.475000X0*%
%ADD15RoundRect,0.225000X-0.225000X-0.375000X0.225000X-0.375000X0.225000X0.375000X-0.225000X0.375000X0*%
%ADD16RoundRect,0.250000X-0.250000X-0.475000X0.250000X-0.475000X0.250000X0.475000X-0.250000X0.475000X0*%
%ADD17RoundRect,0.250000X0.262500X0.450000X-0.262500X0.450000X-0.262500X-0.450000X0.262500X-0.450000X0*%
%ADD18R,1.600000X1.600000*%
%ADD19C,1.600000*%
%ADD20R,1.700000X1.700000*%
%ADD21O,1.700000X1.700000*%
%ADD22RoundRect,0.150000X-0.825000X-0.150000X0.825000X-0.150000X0.825000X0.150000X-0.825000X0.150000X0*%
%ADD23RoundRect,0.225000X0.225000X0.375000X-0.225000X0.375000X-0.225000X-0.375000X0.225000X-0.375000X0*%
%ADD24RoundRect,0.250000X-0.850000X-0.350000X0.850000X-0.350000X0.850000X0.350000X-0.850000X0.350000X0*%
%ADD25RoundRect,0.249997X-2.950003X-2.650003X2.950003X-2.650003X2.950003X2.650003X-2.950003X2.650003X0*%
G04 APERTURE END LIST*
D10*
%TO.C,R8*%
X109337500Y-129100000D03*
X111162500Y-129100000D03*
%TD*%
%TO.C,R5*%
X133087500Y-122750000D03*
X134912500Y-122750000D03*
%TD*%
D11*
%TO.C,C2*%
X116132323Y-112000000D03*
D12*
X121132323Y-112000000D03*
%TD*%
D13*
%TO.C,RV1*%
X125590000Y-139125000D03*
X123050000Y-141665000D03*
X120510000Y-139125000D03*
%TD*%
%TO.C,RV2*%
X135080000Y-139125000D03*
X132540000Y-141665000D03*
X130000000Y-139125000D03*
%TD*%
D14*
%TO.C,C3*%
X94647500Y-113897500D03*
X92747500Y-113897500D03*
%TD*%
D15*
%TO.C,D4*%
X93745000Y-128900000D03*
X97045000Y-128900000D03*
%TD*%
D13*
%TO.C,RV3*%
X93800000Y-139125000D03*
X91260000Y-141665000D03*
X88720000Y-139125000D03*
%TD*%
D10*
%TO.C,R11*%
X109337500Y-122850000D03*
X111162500Y-122850000D03*
%TD*%
%TO.C,R2*%
X133087500Y-129000000D03*
X134912500Y-129000000D03*
%TD*%
D15*
%TO.C,D6*%
X93745000Y-135150000D03*
X97045000Y-135150000D03*
%TD*%
D16*
%TO.C,C4*%
X89675000Y-129000000D03*
X91575000Y-129000000D03*
%TD*%
D13*
%TO.C,RV4*%
X103300000Y-139125000D03*
X100760000Y-141665000D03*
X98220000Y-139125000D03*
%TD*%
D16*
%TO.C,C8*%
X102300000Y-117850000D03*
X104200000Y-117850000D03*
%TD*%
D17*
%TO.C,R12*%
X111162500Y-125975000D03*
X109337500Y-125975000D03*
%TD*%
D10*
%TO.C,R3*%
X133087500Y-132125000D03*
X134912500Y-132125000D03*
%TD*%
D14*
%TO.C,C9*%
X120485000Y-119630000D03*
X118585000Y-119630000D03*
%TD*%
%TO.C,C10*%
X129450000Y-116580000D03*
X127550000Y-116580000D03*
%TD*%
D16*
%TO.C,C5*%
X89675000Y-121500000D03*
X91575000Y-121500000D03*
%TD*%
D18*
%TO.C,C7*%
X83250000Y-135794888D03*
D19*
X83250000Y-137794888D03*
%TD*%
D15*
%TO.C,D1*%
X117895000Y-128800000D03*
X121195000Y-128800000D03*
%TD*%
D20*
%TO.C,J1*%
X86250000Y-111290000D03*
D21*
X86250000Y-108750000D03*
%TD*%
D18*
%TO.C,C6*%
X114250000Y-138294888D03*
D19*
X114250000Y-140294888D03*
%TD*%
D22*
%TO.C,U2*%
X124760000Y-121130000D03*
X124760000Y-122400000D03*
X124760000Y-123670000D03*
X124760000Y-124940000D03*
X124760000Y-126210000D03*
X124760000Y-127480000D03*
X124760000Y-128750000D03*
X129710000Y-128750000D03*
X129710000Y-127480000D03*
X129710000Y-126210000D03*
X129710000Y-124940000D03*
X129710000Y-123670000D03*
X129710000Y-122400000D03*
X129710000Y-121130000D03*
%TD*%
D23*
%TO.C,D5*%
X97000000Y-132025000D03*
X93700000Y-132025000D03*
%TD*%
D17*
%TO.C,R6*%
X134912500Y-125875000D03*
X133087500Y-125875000D03*
%TD*%
D20*
%TO.C,J3*%
X133250000Y-108750000D03*
D21*
X133250000Y-111290000D03*
X133250000Y-113830000D03*
X133250000Y-116370000D03*
%TD*%
D23*
%TO.C,D2*%
X121150000Y-131925000D03*
X117850000Y-131925000D03*
%TD*%
D15*
%TO.C,D3*%
X117895000Y-135050000D03*
X121195000Y-135050000D03*
%TD*%
D20*
%TO.C,J2*%
X86250000Y-129040000D03*
D21*
X86250000Y-126500000D03*
X86250000Y-123960000D03*
X86250000Y-121420000D03*
%TD*%
D10*
%TO.C,R9*%
X109337500Y-135350000D03*
X111162500Y-135350000D03*
%TD*%
%TO.C,R4*%
X133087500Y-135250000D03*
X134912500Y-135250000D03*
%TD*%
D14*
%TO.C,C11*%
X129450000Y-108580000D03*
X127550000Y-108580000D03*
%TD*%
D10*
%TO.C,R10*%
X109337500Y-132225000D03*
X111162500Y-132225000D03*
%TD*%
D24*
%TO.C,U1*%
X100250000Y-108190000D03*
X100250000Y-110470000D03*
D25*
X106550000Y-110470000D03*
D24*
X100250000Y-112750000D03*
%TD*%
D14*
%TO.C,C1*%
X94647500Y-108397500D03*
X92747500Y-108397500D03*
%TD*%
D10*
%TO.C,R7*%
X94460000Y-122850000D03*
X96285000Y-122850000D03*
%TD*%
%TO.C,R1*%
X118610000Y-122750000D03*
X120435000Y-122750000D03*
%TD*%
D22*
%TO.C,U3*%
X100775000Y-121230000D03*
X100775000Y-122500000D03*
X100775000Y-123770000D03*
X100775000Y-125040000D03*
X100775000Y-126310000D03*
X100775000Y-127580000D03*
X100775000Y-128850000D03*
X105725000Y-128850000D03*
X105725000Y-127580000D03*
X105725000Y-126310000D03*
X105725000Y-125040000D03*
X105725000Y-123770000D03*
X105725000Y-122500000D03*
X105725000Y-121230000D03*
%TD*%
D23*
%TO.C,D7*%
X95325000Y-111147500D03*
X92025000Y-111147500D03*
%TD*%
M02*
