M48
; DRILL file {KiCad 8.0.8} date 2025-01-26T19:38:56-0600
; FORMAT={-:-/ absolute / metric / decimal}
; #@! TF.CreationDate,2025-01-26T19:38:56-06:00
; #@! TF.GenerationSoftware,Kicad,Pcbnew,8.0.8
; #@! TF.FileFunction,Plated,1,2,PTH
FMAT,2
METRIC
; #@! TA.AperFunction,Plated,PTH,ViaDrill
T1C0.300
; #@! TA.AperFunction,Plated,PTH,ComponentDrill
T2C0.800
; #@! TA.AperFunction,Plated,PTH,ComponentDrill
T3C1.000
%
G90
G05
T1
X82.25Y-116.25
X83.25Y-133.0
X89.5Y-105.0
X97.25Y-117.25
X97.7Y-110.397
X98.0Y-105.0
X98.5Y-122.5
X98.5Y-123.85
X103.25Y-131.75
X103.25Y-135.5
X107.25Y-117.5
X115.0Y-131.0
X116.25Y-105.0
X116.25Y-117.5
X122.25Y-117.5
X122.26Y-122.25
X122.34Y-123.67
X126.5Y-131.88
X126.5Y-134.63
X129.75Y-119.25
X137.25Y-106.25
X138.0Y-120.38
X138.0Y-131.0
T2
X83.25Y-135.795
X83.25Y-137.795
X88.72Y-139.125
X91.26Y-141.665
X93.8Y-139.125
X98.22Y-139.125
X100.76Y-141.665
X103.3Y-139.125
X114.25Y-138.295
X114.25Y-140.295
X120.51Y-139.125
X123.05Y-141.665
X125.59Y-139.125
X130.0Y-139.125
X132.54Y-141.665
X135.08Y-139.125
T3
X86.25Y-108.75
X86.25Y-111.29
X86.25Y-121.42
X86.25Y-123.96
X86.25Y-126.5
X86.25Y-129.04
X116.132Y-112.0
X121.132Y-112.0
X133.25Y-108.75
X133.25Y-111.29
X133.25Y-113.83
X133.25Y-116.37
M30
