%TF.GenerationSoftware,KiCad,Pcbnew,8.0.8*%
%TF.CreationDate,2025-01-26T19:39:00-06:00*%
%TF.ProjectId,peak-read-amp,7065616b-2d72-4656-9164-2d616d702e6b,rev?*%
%TF.SameCoordinates,Original*%
%TF.FileFunction,Copper,L2,Bot*%
%TF.FilePolarity,Positive*%
%FSLAX46Y46*%
G04 Gerber Fmt 4.6, Leading zero omitted, Abs format (unit mm)*
G04 Created by KiCad (PCBNEW 8.0.8) date 2025-01-26 19:39:00*
%MOMM*%
%LPD*%
G01*
G04 APERTURE LIST*
%TA.AperFunction,ComponentPad*%
%ADD10R,2.000000X2.000000*%
%TD*%
%TA.AperFunction,ComponentPad*%
%ADD11C,2.000000*%
%TD*%
%TA.AperFunction,ComponentPad*%
%ADD12C,1.440000*%
%TD*%
%TA.AperFunction,ComponentPad*%
%ADD13R,1.600000X1.600000*%
%TD*%
%TA.AperFunction,ComponentPad*%
%ADD14C,1.600000*%
%TD*%
%TA.AperFunction,ComponentPad*%
%ADD15R,1.700000X1.700000*%
%TD*%
%TA.AperFunction,ComponentPad*%
%ADD16O,1.700000X1.700000*%
%TD*%
%TA.AperFunction,ViaPad*%
%ADD17C,0.600000*%
%TD*%
%TA.AperFunction,Conductor*%
%ADD18C,0.200000*%
%TD*%
G04 APERTURE END LIST*
D10*
%TO.P,C2,1*%
%TO.N,+8V*%
X116132323Y-112000000D03*
D11*
%TO.P,C2,2*%
%TO.N,GND*%
X121132323Y-112000000D03*
%TD*%
D12*
%TO.P,RV1,1,1*%
%TO.N,Net-(R4-Pad2)*%
X125590000Y-139125000D03*
%TO.P,RV1,2,2*%
X123050000Y-141665000D03*
%TO.P,RV1,3,3*%
%TO.N,GND*%
X120510000Y-139125000D03*
%TD*%
%TO.P,RV2,1,1*%
%TO.N,Net-(R6-Pad1)*%
X135080000Y-139125000D03*
%TO.P,RV2,2,2*%
%TO.N,Net-(J3-Pin_4)*%
X132540000Y-141665000D03*
%TO.P,RV2,3,3*%
%TO.N,GND*%
X130000000Y-139125000D03*
%TD*%
%TO.P,RV3,1,1*%
%TO.N,Net-(R9-Pad2)*%
X93800000Y-139125000D03*
%TO.P,RV3,2,2*%
X91260000Y-141665000D03*
%TO.P,RV3,3,3*%
%TO.N,GND*%
X88720000Y-139125000D03*
%TD*%
%TO.P,RV4,1,1*%
%TO.N,Net-(R12-Pad1)*%
X103300000Y-139125000D03*
%TO.P,RV4,2,2*%
%TO.N,Net-(J3-Pin_1)*%
X100760000Y-141665000D03*
%TO.P,RV4,3,3*%
%TO.N,GND*%
X98220000Y-139125000D03*
%TD*%
D13*
%TO.P,C7,1*%
%TO.N,Net-(D6-K)*%
X83250000Y-135794888D03*
D14*
%TO.P,C7,2*%
%TO.N,GND*%
X83250000Y-137794888D03*
%TD*%
D15*
%TO.P,J1,1,Pin_1*%
%TO.N,GND*%
X86250000Y-111290000D03*
D16*
%TO.P,J1,2,Pin_2*%
%TO.N,Net-(D7-A)*%
X86250000Y-108750000D03*
%TD*%
D13*
%TO.P,C6,1*%
%TO.N,Net-(D3-K)*%
X114250000Y-138294888D03*
D14*
%TO.P,C6,2*%
%TO.N,GND*%
X114250000Y-140294888D03*
%TD*%
D15*
%TO.P,J3,1,Pin_1*%
%TO.N,Net-(J3-Pin_1)*%
X133250000Y-108750000D03*
D16*
%TO.P,J3,2,Pin_2*%
%TO.N,GND*%
X133250000Y-111290000D03*
%TO.P,J3,3,Pin_3*%
X133250000Y-113830000D03*
%TO.P,J3,4,Pin_4*%
%TO.N,Net-(J3-Pin_4)*%
X133250000Y-116370000D03*
%TD*%
D15*
%TO.P,J2,1,Pin_1*%
%TO.N,Net-(J2-Pin_1)*%
X86250000Y-129040000D03*
D16*
%TO.P,J2,2,Pin_2*%
%TO.N,GND*%
X86250000Y-126500000D03*
%TO.P,J2,3,Pin_3*%
X86250000Y-123960000D03*
%TO.P,J2,4,Pin_4*%
%TO.N,Net-(J2-Pin_4)*%
X86250000Y-121420000D03*
%TD*%
D17*
%TO.N,Net-(J2-Pin_1)*%
X122340000Y-123670000D03*
%TO.N,GND*%
X116250000Y-117500000D03*
X107250000Y-117500000D03*
X83250000Y-133000000D03*
X97250000Y-117250000D03*
X138000000Y-131000000D03*
X97700000Y-110397500D03*
X122260000Y-122250000D03*
X116250000Y-105000000D03*
X122250000Y-117500000D03*
X103250000Y-131750000D03*
X103250000Y-135500000D03*
X129750000Y-119250000D03*
X98500000Y-122500000D03*
X126500000Y-131880000D03*
X82250000Y-116250000D03*
X137250000Y-106250000D03*
X126500000Y-134630000D03*
X115000000Y-131000000D03*
X89500000Y-105000000D03*
X98000000Y-105000000D03*
X138000000Y-120380000D03*
%TO.N,Net-(J2-Pin_4)*%
X98500000Y-123850000D03*
%TD*%
D18*
%TO.N,Net-(J2-Pin_1)*%
X117000000Y-129040000D02*
X86250000Y-129040000D01*
X117000000Y-129010000D02*
X117000000Y-129040000D01*
X122340000Y-123670000D02*
X117000000Y-129010000D01*
%TO.N,Net-(J2-Pin_4)*%
X98500000Y-123850000D02*
X96850000Y-123850000D01*
X94420000Y-121420000D02*
X86250000Y-121420000D01*
X96850000Y-123850000D02*
X94420000Y-121420000D01*
%TO.N,Net-(J3-Pin_4)*%
X132540000Y-141665000D02*
X132500000Y-141625000D01*
X132500000Y-136445686D02*
X133250000Y-135695686D01*
X133250000Y-135695686D02*
X133250000Y-116370000D01*
X132500000Y-141625000D02*
X132500000Y-136445686D01*
%TO.N,Net-(J3-Pin_1)*%
X131750000Y-110250000D02*
X133250000Y-108750000D01*
X132850000Y-135530000D02*
X132850000Y-118100000D01*
X131750000Y-117000000D02*
X131750000Y-110250000D01*
X119870000Y-136380000D02*
X132000000Y-136380000D01*
X117750000Y-138500000D02*
X119870000Y-136380000D01*
X117750000Y-140500000D02*
X117750000Y-138500000D01*
X132850000Y-118100000D02*
X131750000Y-117000000D01*
X132000000Y-136380000D02*
X132850000Y-135530000D01*
X116000000Y-142250000D02*
X117750000Y-140500000D01*
X100760000Y-141665000D02*
X101345000Y-142250000D01*
X101345000Y-142250000D02*
X116000000Y-142250000D01*
%TD*%
%TA.AperFunction,Conductor*%
%TO.N,GND*%
G36*
X133500000Y-113396988D02*
G01*
X133442993Y-113364075D01*
X133315826Y-113330000D01*
X133184174Y-113330000D01*
X133057007Y-113364075D01*
X133000000Y-113396988D01*
X133000000Y-111723012D01*
X133057007Y-111755925D01*
X133184174Y-111790000D01*
X133315826Y-111790000D01*
X133442993Y-111755925D01*
X133500000Y-111723012D01*
X133500000Y-113396988D01*
G37*
%TD.AperFunction*%
%TA.AperFunction,Conductor*%
G36*
X86500000Y-126066988D02*
G01*
X86442993Y-126034075D01*
X86315826Y-126000000D01*
X86184174Y-126000000D01*
X86057007Y-126034075D01*
X86000000Y-126066988D01*
X86000000Y-124393012D01*
X86057007Y-124425925D01*
X86184174Y-124460000D01*
X86315826Y-124460000D01*
X86442993Y-124425925D01*
X86500000Y-124393012D01*
X86500000Y-126066988D01*
G37*
%TD.AperFunction*%
%TA.AperFunction,Conductor*%
G36*
X138942539Y-104520185D02*
G01*
X138988294Y-104572989D01*
X138999500Y-104624500D01*
X138999500Y-143375500D01*
X138979815Y-143442539D01*
X138927011Y-143488294D01*
X138875500Y-143499500D01*
X80124500Y-143499500D01*
X80057461Y-143479815D01*
X80011706Y-143427011D01*
X80000500Y-143375500D01*
X80000500Y-141664998D01*
X90034838Y-141664998D01*
X90034838Y-141665001D01*
X90053450Y-141877741D01*
X90053452Y-141877752D01*
X90108721Y-142084022D01*
X90108723Y-142084026D01*
X90108724Y-142084030D01*
X90151171Y-142175058D01*
X90198977Y-142277578D01*
X90321472Y-142452521D01*
X90472478Y-142603527D01*
X90472481Y-142603529D01*
X90647419Y-142726021D01*
X90647421Y-142726022D01*
X90647420Y-142726022D01*
X90711936Y-142756106D01*
X90840970Y-142816276D01*
X91047253Y-142871549D01*
X91199215Y-142884844D01*
X91259998Y-142890162D01*
X91260000Y-142890162D01*
X91260002Y-142890162D01*
X91313186Y-142885508D01*
X91472747Y-142871549D01*
X91679030Y-142816276D01*
X91872581Y-142726021D01*
X92047519Y-142603529D01*
X92198529Y-142452519D01*
X92321021Y-142277581D01*
X92411276Y-142084030D01*
X92466549Y-141877747D01*
X92485162Y-141665000D01*
X92485162Y-141664998D01*
X99534838Y-141664998D01*
X99534838Y-141665001D01*
X99553450Y-141877741D01*
X99553452Y-141877752D01*
X99608721Y-142084022D01*
X99608723Y-142084026D01*
X99608724Y-142084030D01*
X99651171Y-142175058D01*
X99698977Y-142277578D01*
X99821472Y-142452521D01*
X99972478Y-142603527D01*
X99972481Y-142603529D01*
X100147419Y-142726021D01*
X100147421Y-142726022D01*
X100147420Y-142726022D01*
X100211936Y-142756106D01*
X100340970Y-142816276D01*
X100547253Y-142871549D01*
X100699215Y-142884844D01*
X100759998Y-142890162D01*
X100760000Y-142890162D01*
X100760002Y-142890162D01*
X100813186Y-142885508D01*
X100972747Y-142871549D01*
X101126530Y-142830343D01*
X101190713Y-142830343D01*
X101265943Y-142850501D01*
X101265946Y-142850501D01*
X101431653Y-142850501D01*
X101431669Y-142850500D01*
X115913331Y-142850500D01*
X115913347Y-142850501D01*
X115920943Y-142850501D01*
X116079054Y-142850501D01*
X116079057Y-142850501D01*
X116231785Y-142809577D01*
X116281904Y-142780639D01*
X116368716Y-142730520D01*
X116480520Y-142618716D01*
X116480520Y-142618714D01*
X116490728Y-142608507D01*
X116490729Y-142608504D01*
X117434237Y-141664998D01*
X121824838Y-141664998D01*
X121824838Y-141665001D01*
X121843450Y-141877741D01*
X121843452Y-141877752D01*
X121898721Y-142084022D01*
X121898723Y-142084026D01*
X121898724Y-142084030D01*
X121941171Y-142175058D01*
X121988977Y-142277578D01*
X122111472Y-142452521D01*
X122262478Y-142603527D01*
X122262481Y-142603529D01*
X122437419Y-142726021D01*
X122437421Y-142726022D01*
X122437420Y-142726022D01*
X122501936Y-142756106D01*
X122630970Y-142816276D01*
X122837253Y-142871549D01*
X122989215Y-142884844D01*
X123049998Y-142890162D01*
X123050000Y-142890162D01*
X123050002Y-142890162D01*
X123103186Y-142885508D01*
X123262747Y-142871549D01*
X123469030Y-142816276D01*
X123662581Y-142726021D01*
X123837519Y-142603529D01*
X123988529Y-142452519D01*
X124111021Y-142277581D01*
X124201276Y-142084030D01*
X124256549Y-141877747D01*
X124275162Y-141665000D01*
X124256549Y-141452253D01*
X124201276Y-141245970D01*
X124111021Y-141052419D01*
X123988529Y-140877481D01*
X123988527Y-140877478D01*
X123837521Y-140726472D01*
X123662578Y-140603977D01*
X123662579Y-140603977D01*
X123526438Y-140540494D01*
X123469030Y-140513724D01*
X123469026Y-140513723D01*
X123469022Y-140513721D01*
X123262752Y-140458452D01*
X123262748Y-140458451D01*
X123262747Y-140458451D01*
X123262746Y-140458450D01*
X123262741Y-140458450D01*
X123050002Y-140439838D01*
X123049998Y-140439838D01*
X122837258Y-140458450D01*
X122837247Y-140458452D01*
X122630977Y-140513721D01*
X122630968Y-140513725D01*
X122437421Y-140603977D01*
X122262478Y-140726472D01*
X122111472Y-140877478D01*
X121988977Y-141052421D01*
X121898725Y-141245968D01*
X121898721Y-141245977D01*
X121843452Y-141452247D01*
X121843450Y-141452258D01*
X121824838Y-141664998D01*
X117434237Y-141664998D01*
X118230520Y-140868716D01*
X118309577Y-140731784D01*
X118350501Y-140579057D01*
X118350501Y-140420942D01*
X118350501Y-140413347D01*
X118350500Y-140413329D01*
X118350500Y-139124997D01*
X119285340Y-139124997D01*
X119285340Y-139125002D01*
X119303944Y-139337654D01*
X119303945Y-139337662D01*
X119359194Y-139543853D01*
X119359197Y-139543859D01*
X119449413Y-139737329D01*
X119488415Y-139793030D01*
X120110000Y-139171445D01*
X120110000Y-139177661D01*
X120137259Y-139279394D01*
X120189920Y-139370606D01*
X120264394Y-139445080D01*
X120355606Y-139497741D01*
X120457339Y-139525000D01*
X120463554Y-139525000D01*
X119841968Y-140146584D01*
X119897663Y-140185582D01*
X119897669Y-140185586D01*
X120091140Y-140275802D01*
X120091146Y-140275805D01*
X120297337Y-140331054D01*
X120297345Y-140331055D01*
X120509998Y-140349660D01*
X120510002Y-140349660D01*
X120722654Y-140331055D01*
X120722662Y-140331054D01*
X120928853Y-140275805D01*
X120928864Y-140275801D01*
X121122325Y-140185589D01*
X121178030Y-140146583D01*
X120556447Y-139525000D01*
X120562661Y-139525000D01*
X120664394Y-139497741D01*
X120755606Y-139445080D01*
X120830080Y-139370606D01*
X120882741Y-139279394D01*
X120910000Y-139177661D01*
X120910000Y-139171446D01*
X121531583Y-139793029D01*
X121570589Y-139737325D01*
X121660801Y-139543864D01*
X121660805Y-139543853D01*
X121716054Y-139337662D01*
X121716055Y-139337654D01*
X121734660Y-139125002D01*
X121734660Y-139124998D01*
X124364838Y-139124998D01*
X124364838Y-139125001D01*
X124383450Y-139337741D01*
X124383452Y-139337752D01*
X124438721Y-139544022D01*
X124438723Y-139544026D01*
X124438724Y-139544030D01*
X124462673Y-139595388D01*
X124528977Y-139737578D01*
X124651472Y-139912521D01*
X124802478Y-140063527D01*
X124837607Y-140088124D01*
X124977419Y-140186021D01*
X124977421Y-140186022D01*
X124977420Y-140186022D01*
X125041936Y-140216106D01*
X125170970Y-140276276D01*
X125377253Y-140331549D01*
X125529215Y-140344844D01*
X125589998Y-140350162D01*
X125590000Y-140350162D01*
X125590002Y-140350162D01*
X125643186Y-140345508D01*
X125802747Y-140331549D01*
X126009030Y-140276276D01*
X126202581Y-140186021D01*
X126377519Y-140063529D01*
X126528529Y-139912519D01*
X126651021Y-139737581D01*
X126741276Y-139544030D01*
X126796549Y-139337747D01*
X126815162Y-139125000D01*
X126815162Y-139124997D01*
X128775340Y-139124997D01*
X128775340Y-139125002D01*
X128793944Y-139337654D01*
X128793945Y-139337662D01*
X128849194Y-139543853D01*
X128849197Y-139543859D01*
X128939413Y-139737329D01*
X128978415Y-139793030D01*
X129600000Y-139171445D01*
X129600000Y-139177661D01*
X129627259Y-139279394D01*
X129679920Y-139370606D01*
X129754394Y-139445080D01*
X129845606Y-139497741D01*
X129947339Y-139525000D01*
X129953554Y-139525000D01*
X129331968Y-140146584D01*
X129387663Y-140185582D01*
X129387669Y-140185586D01*
X129581140Y-140275802D01*
X129581146Y-140275805D01*
X129787337Y-140331054D01*
X129787345Y-140331055D01*
X129999998Y-140349660D01*
X130000002Y-140349660D01*
X130212654Y-140331055D01*
X130212662Y-140331054D01*
X130418853Y-140275805D01*
X130418864Y-140275801D01*
X130612325Y-140185589D01*
X130668030Y-140146583D01*
X130046447Y-139525000D01*
X130052661Y-139525000D01*
X130154394Y-139497741D01*
X130245606Y-139445080D01*
X130320080Y-139370606D01*
X130372741Y-139279394D01*
X130400000Y-139177661D01*
X130400000Y-139171446D01*
X131021583Y-139793029D01*
X131060589Y-139737325D01*
X131150801Y-139543864D01*
X131150805Y-139543853D01*
X131206054Y-139337662D01*
X131206055Y-139337654D01*
X131224660Y-139125002D01*
X131224660Y-139124997D01*
X131206055Y-138912345D01*
X131206054Y-138912337D01*
X131150805Y-138706146D01*
X131150802Y-138706140D01*
X131060586Y-138512669D01*
X131060582Y-138512663D01*
X131021584Y-138456968D01*
X130400000Y-139078552D01*
X130400000Y-139072339D01*
X130372741Y-138970606D01*
X130320080Y-138879394D01*
X130245606Y-138804920D01*
X130154394Y-138752259D01*
X130052661Y-138725000D01*
X130046447Y-138725000D01*
X130668030Y-138103415D01*
X130612329Y-138064413D01*
X130418859Y-137974197D01*
X130418853Y-137974194D01*
X130212662Y-137918945D01*
X130212654Y-137918944D01*
X130000002Y-137900340D01*
X129999998Y-137900340D01*
X129787345Y-137918944D01*
X129787337Y-137918945D01*
X129581146Y-137974194D01*
X129581140Y-137974197D01*
X129387671Y-138064412D01*
X129387669Y-138064413D01*
X129331969Y-138103415D01*
X129331968Y-138103415D01*
X129953554Y-138725000D01*
X129947339Y-138725000D01*
X129845606Y-138752259D01*
X129754394Y-138804920D01*
X129679920Y-138879394D01*
X129627259Y-138970606D01*
X129600000Y-139072339D01*
X129600000Y-139078553D01*
X128978415Y-138456968D01*
X128978415Y-138456969D01*
X128939413Y-138512669D01*
X128939412Y-138512671D01*
X128849197Y-138706140D01*
X128849194Y-138706146D01*
X128793945Y-138912337D01*
X128793944Y-138912345D01*
X128775340Y-139124997D01*
X126815162Y-139124997D01*
X126796549Y-138912253D01*
X126741276Y-138705970D01*
X126651021Y-138512419D01*
X126528529Y-138337481D01*
X126528527Y-138337478D01*
X126377521Y-138186472D01*
X126202578Y-138063977D01*
X126202579Y-138063977D01*
X126073547Y-138003809D01*
X126009030Y-137973724D01*
X126009026Y-137973723D01*
X126009022Y-137973721D01*
X125802752Y-137918452D01*
X125802748Y-137918451D01*
X125802747Y-137918451D01*
X125802746Y-137918450D01*
X125802741Y-137918450D01*
X125590002Y-137899838D01*
X125589998Y-137899838D01*
X125377258Y-137918450D01*
X125377247Y-137918452D01*
X125170977Y-137973721D01*
X125170968Y-137973725D01*
X124977421Y-138063977D01*
X124802478Y-138186472D01*
X124651472Y-138337478D01*
X124528977Y-138512421D01*
X124438725Y-138705968D01*
X124438721Y-138705977D01*
X124383452Y-138912247D01*
X124383450Y-138912258D01*
X124364838Y-139124998D01*
X121734660Y-139124998D01*
X121734660Y-139124997D01*
X121716055Y-138912345D01*
X121716054Y-138912337D01*
X121660805Y-138706146D01*
X121660802Y-138706140D01*
X121570586Y-138512669D01*
X121570582Y-138512663D01*
X121531584Y-138456968D01*
X120910000Y-139078552D01*
X120910000Y-139072339D01*
X120882741Y-138970606D01*
X120830080Y-138879394D01*
X120755606Y-138804920D01*
X120664394Y-138752259D01*
X120562661Y-138725000D01*
X120556447Y-138725000D01*
X121178030Y-138103415D01*
X121122329Y-138064413D01*
X120928859Y-137974197D01*
X120928853Y-137974194D01*
X120722662Y-137918945D01*
X120722654Y-137918944D01*
X120510002Y-137900340D01*
X120509998Y-137900340D01*
X120297345Y-137918944D01*
X120297337Y-137918945D01*
X120091146Y-137974194D01*
X120091140Y-137974197D01*
X119897671Y-138064412D01*
X119897669Y-138064413D01*
X119841969Y-138103415D01*
X119841968Y-138103415D01*
X120463554Y-138725000D01*
X120457339Y-138725000D01*
X120355606Y-138752259D01*
X120264394Y-138804920D01*
X120189920Y-138879394D01*
X120137259Y-138970606D01*
X120110000Y-139072339D01*
X120110000Y-139078553D01*
X119488415Y-138456968D01*
X119488415Y-138456969D01*
X119449413Y-138512669D01*
X119449412Y-138512671D01*
X119359197Y-138706140D01*
X119359194Y-138706146D01*
X119303945Y-138912337D01*
X119303944Y-138912345D01*
X119285340Y-139124997D01*
X118350500Y-139124997D01*
X118350500Y-138800097D01*
X118370185Y-138733058D01*
X118386819Y-138712416D01*
X120082417Y-137016819D01*
X120143740Y-136983334D01*
X120170098Y-136980500D01*
X131775500Y-136980500D01*
X131842539Y-137000185D01*
X131888294Y-137052989D01*
X131899500Y-137104500D01*
X131899500Y-140558976D01*
X131879815Y-140626015D01*
X131846625Y-140660550D01*
X131752481Y-140726471D01*
X131601469Y-140877482D01*
X131478977Y-141052421D01*
X131388725Y-141245968D01*
X131388721Y-141245977D01*
X131333452Y-141452247D01*
X131333450Y-141452258D01*
X131314838Y-141664998D01*
X131314838Y-141665001D01*
X131333450Y-141877741D01*
X131333452Y-141877752D01*
X131388721Y-142084022D01*
X131388723Y-142084026D01*
X131388724Y-142084030D01*
X131431171Y-142175058D01*
X131478977Y-142277578D01*
X131601472Y-142452521D01*
X131752478Y-142603527D01*
X131752481Y-142603529D01*
X131927419Y-142726021D01*
X131927421Y-142726022D01*
X131927420Y-142726022D01*
X131991936Y-142756106D01*
X132120970Y-142816276D01*
X132327253Y-142871549D01*
X132479215Y-142884844D01*
X132539998Y-142890162D01*
X132540000Y-142890162D01*
X132540002Y-142890162D01*
X132593186Y-142885508D01*
X132752747Y-142871549D01*
X132959030Y-142816276D01*
X133152581Y-142726021D01*
X133327519Y-142603529D01*
X133478529Y-142452519D01*
X133601021Y-142277581D01*
X133691276Y-142084030D01*
X133746549Y-141877747D01*
X133765162Y-141665000D01*
X133746549Y-141452253D01*
X133691276Y-141245970D01*
X133601021Y-141052419D01*
X133478529Y-140877481D01*
X133478527Y-140877478D01*
X133327521Y-140726472D01*
X133153377Y-140604536D01*
X133109752Y-140549959D01*
X133100500Y-140502961D01*
X133100500Y-139124998D01*
X133854838Y-139124998D01*
X133854838Y-139125001D01*
X133873450Y-139337741D01*
X133873452Y-139337752D01*
X133928721Y-139544022D01*
X133928723Y-139544026D01*
X133928724Y-139544030D01*
X133952673Y-139595388D01*
X134018977Y-139737578D01*
X134141472Y-139912521D01*
X134292478Y-140063527D01*
X134327607Y-140088124D01*
X134467419Y-140186021D01*
X134467421Y-140186022D01*
X134467420Y-140186022D01*
X134531936Y-140216106D01*
X134660970Y-140276276D01*
X134867253Y-140331549D01*
X135019215Y-140344844D01*
X135079998Y-140350162D01*
X135080000Y-140350162D01*
X135080002Y-140350162D01*
X135133186Y-140345508D01*
X135292747Y-140331549D01*
X135499030Y-140276276D01*
X135692581Y-140186021D01*
X135867519Y-140063529D01*
X136018529Y-139912519D01*
X136141021Y-139737581D01*
X136231276Y-139544030D01*
X136286549Y-139337747D01*
X136305162Y-139125000D01*
X136286549Y-138912253D01*
X136231276Y-138705970D01*
X136141021Y-138512419D01*
X136018529Y-138337481D01*
X136018527Y-138337478D01*
X135867521Y-138186472D01*
X135692578Y-138063977D01*
X135692579Y-138063977D01*
X135563547Y-138003809D01*
X135499030Y-137973724D01*
X135499026Y-137973723D01*
X135499022Y-137973721D01*
X135292752Y-137918452D01*
X135292748Y-137918451D01*
X135292747Y-137918451D01*
X135292746Y-137918450D01*
X135292741Y-137918450D01*
X135080002Y-137899838D01*
X135079998Y-137899838D01*
X134867258Y-137918450D01*
X134867247Y-137918452D01*
X134660977Y-137973721D01*
X134660968Y-137973725D01*
X134467421Y-138063977D01*
X134292478Y-138186472D01*
X134141472Y-138337478D01*
X134018977Y-138512421D01*
X133928725Y-138705968D01*
X133928721Y-138705977D01*
X133873452Y-138912247D01*
X133873450Y-138912258D01*
X133854838Y-139124998D01*
X133100500Y-139124998D01*
X133100500Y-136745782D01*
X133120185Y-136678743D01*
X133136815Y-136658105D01*
X133618713Y-136176207D01*
X133618716Y-136176206D01*
X133730520Y-136064402D01*
X133780639Y-135977590D01*
X133809577Y-135927471D01*
X133850500Y-135774743D01*
X133850500Y-135616629D01*
X133850500Y-117659090D01*
X133870185Y-117592051D01*
X133922101Y-117546706D01*
X133927830Y-117544035D01*
X134121401Y-117408495D01*
X134288495Y-117241401D01*
X134424035Y-117047830D01*
X134523903Y-116833663D01*
X134585063Y-116605408D01*
X134605659Y-116370000D01*
X134585063Y-116134592D01*
X134523903Y-115906337D01*
X134424035Y-115692171D01*
X134288495Y-115498599D01*
X134288494Y-115498597D01*
X134121402Y-115331506D01*
X134121401Y-115331505D01*
X133935405Y-115201269D01*
X133891781Y-115146692D01*
X133884588Y-115077193D01*
X133916110Y-115014839D01*
X133935405Y-114998119D01*
X134121082Y-114868105D01*
X134288105Y-114701082D01*
X134423600Y-114507578D01*
X134523429Y-114293492D01*
X134523432Y-114293486D01*
X134580636Y-114080000D01*
X133683012Y-114080000D01*
X133715925Y-114022993D01*
X133750000Y-113895826D01*
X133750000Y-113764174D01*
X133715925Y-113637007D01*
X133683012Y-113580000D01*
X134580636Y-113580000D01*
X134580635Y-113579999D01*
X134523432Y-113366513D01*
X134523429Y-113366507D01*
X134423600Y-113152422D01*
X134423599Y-113152420D01*
X134288113Y-112958926D01*
X134288108Y-112958920D01*
X134121082Y-112791894D01*
X133934968Y-112661575D01*
X133891344Y-112606998D01*
X133884151Y-112537499D01*
X133915673Y-112475145D01*
X133934968Y-112458425D01*
X134121082Y-112328105D01*
X134288105Y-112161082D01*
X134423600Y-111967578D01*
X134523429Y-111753492D01*
X134523432Y-111753486D01*
X134580636Y-111540000D01*
X133683012Y-111540000D01*
X133715925Y-111482993D01*
X133750000Y-111355826D01*
X133750000Y-111224174D01*
X133715925Y-111097007D01*
X133683012Y-111040000D01*
X134580636Y-111040000D01*
X134580635Y-111039999D01*
X134523432Y-110826513D01*
X134523429Y-110826507D01*
X134423600Y-110612422D01*
X134423599Y-110612420D01*
X134288113Y-110418926D01*
X134288108Y-110418920D01*
X134166053Y-110296865D01*
X134132568Y-110235542D01*
X134137552Y-110165850D01*
X134179424Y-110109917D01*
X134210400Y-110093002D01*
X134342331Y-110043796D01*
X134457546Y-109957546D01*
X134543796Y-109842331D01*
X134594091Y-109707483D01*
X134600500Y-109647873D01*
X134600499Y-107852128D01*
X134594091Y-107792517D01*
X134543796Y-107657669D01*
X134543795Y-107657668D01*
X134543793Y-107657664D01*
X134457547Y-107542455D01*
X134457544Y-107542452D01*
X134342335Y-107456206D01*
X134342328Y-107456202D01*
X134207482Y-107405908D01*
X134207483Y-107405908D01*
X134147883Y-107399501D01*
X134147881Y-107399500D01*
X134147873Y-107399500D01*
X134147864Y-107399500D01*
X132352129Y-107399500D01*
X132352123Y-107399501D01*
X132292516Y-107405908D01*
X132157671Y-107456202D01*
X132157664Y-107456206D01*
X132042455Y-107542452D01*
X132042452Y-107542455D01*
X131956206Y-107657664D01*
X131956202Y-107657671D01*
X131905908Y-107792517D01*
X131899501Y-107852116D01*
X131899501Y-107852123D01*
X131899500Y-107852135D01*
X131899500Y-109199902D01*
X131879815Y-109266941D01*
X131863181Y-109287583D01*
X131269481Y-109881282D01*
X131269479Y-109881284D01*
X131255381Y-109905705D01*
X131244798Y-109924035D01*
X131190423Y-110018215D01*
X131149499Y-110170943D01*
X131149499Y-110170945D01*
X131149499Y-110339046D01*
X131149500Y-110339059D01*
X131149500Y-116913330D01*
X131149499Y-116913348D01*
X131149499Y-117079054D01*
X131149498Y-117079054D01*
X131149499Y-117079057D01*
X131190423Y-117231785D01*
X131195972Y-117241395D01*
X131195976Y-117241402D01*
X131195976Y-117241403D01*
X131269477Y-117368712D01*
X131269481Y-117368717D01*
X131388349Y-117487585D01*
X131388355Y-117487590D01*
X132213181Y-118312416D01*
X132246666Y-118373739D01*
X132249500Y-118400097D01*
X132249500Y-135229902D01*
X132229815Y-135296941D01*
X132213181Y-135317583D01*
X131787584Y-135743181D01*
X131726261Y-135776666D01*
X131699903Y-135779500D01*
X119956670Y-135779500D01*
X119956654Y-135779499D01*
X119949058Y-135779499D01*
X119790943Y-135779499D01*
X119714579Y-135799961D01*
X119638214Y-135820423D01*
X119638209Y-135820426D01*
X119501290Y-135899475D01*
X119501282Y-135899481D01*
X117269481Y-138131282D01*
X117269480Y-138131284D01*
X117237618Y-138186471D01*
X117190423Y-138268215D01*
X117149499Y-138420943D01*
X117149499Y-138420945D01*
X117149499Y-138589046D01*
X117149500Y-138589059D01*
X117149500Y-140199902D01*
X117129815Y-140266941D01*
X117113181Y-140287583D01*
X115787584Y-141613181D01*
X115726261Y-141646666D01*
X115699903Y-141649500D01*
X114975172Y-141649500D01*
X114908133Y-141629815D01*
X114862378Y-141577011D01*
X114852434Y-141507853D01*
X114881459Y-141444297D01*
X114904047Y-141423926D01*
X114975471Y-141373912D01*
X114296447Y-140694888D01*
X114302661Y-140694888D01*
X114404394Y-140667629D01*
X114495606Y-140614968D01*
X114570080Y-140540494D01*
X114622741Y-140449282D01*
X114650000Y-140347549D01*
X114650000Y-140341335D01*
X115329024Y-141020359D01*
X115380136Y-140947366D01*
X115476264Y-140741219D01*
X115476269Y-140741205D01*
X115535139Y-140521498D01*
X115535141Y-140521487D01*
X115554966Y-140294888D01*
X115554966Y-140294885D01*
X115535141Y-140068288D01*
X115535139Y-140068277D01*
X115476269Y-139848570D01*
X115476265Y-139848561D01*
X115380134Y-139642406D01*
X115380130Y-139642400D01*
X115371188Y-139629628D01*
X115348861Y-139563422D01*
X115365873Y-139495655D01*
X115398454Y-139459239D01*
X115407546Y-139452434D01*
X115493796Y-139337219D01*
X115544091Y-139202371D01*
X115550500Y-139142761D01*
X115550499Y-137447016D01*
X115544091Y-137387405D01*
X115529606Y-137348570D01*
X115493797Y-137252559D01*
X115493793Y-137252552D01*
X115407547Y-137137343D01*
X115407544Y-137137340D01*
X115292335Y-137051094D01*
X115292328Y-137051090D01*
X115157482Y-137000796D01*
X115157483Y-137000796D01*
X115097883Y-136994389D01*
X115097881Y-136994388D01*
X115097873Y-136994388D01*
X115097864Y-136994388D01*
X113402129Y-136994388D01*
X113402123Y-136994389D01*
X113342516Y-137000796D01*
X113207671Y-137051090D01*
X113207664Y-137051094D01*
X113092455Y-137137340D01*
X113092452Y-137137343D01*
X113006206Y-137252552D01*
X113006202Y-137252559D01*
X112955908Y-137387405D01*
X112949501Y-137447004D01*
X112949501Y-137447011D01*
X112949500Y-137447023D01*
X112949500Y-139142758D01*
X112949501Y-139142764D01*
X112955908Y-139202371D01*
X113006202Y-139337216D01*
X113006206Y-139337223D01*
X113092452Y-139452432D01*
X113092453Y-139452432D01*
X113092454Y-139452434D01*
X113101545Y-139459239D01*
X113143416Y-139515170D01*
X113148402Y-139584862D01*
X113128813Y-139629624D01*
X113119871Y-139642395D01*
X113119868Y-139642400D01*
X113023734Y-139848561D01*
X113023730Y-139848570D01*
X112964860Y-140068277D01*
X112964858Y-140068288D01*
X112945034Y-140294885D01*
X112945034Y-140294888D01*
X112964858Y-140521487D01*
X112964860Y-140521498D01*
X113023730Y-140741205D01*
X113023735Y-140741219D01*
X113119863Y-140947366D01*
X113170974Y-141020360D01*
X113850000Y-140341334D01*
X113850000Y-140347549D01*
X113877259Y-140449282D01*
X113929920Y-140540494D01*
X114004394Y-140614968D01*
X114095606Y-140667629D01*
X114197339Y-140694888D01*
X114203553Y-140694888D01*
X113524526Y-141373913D01*
X113595951Y-141423926D01*
X113639576Y-141478503D01*
X113646768Y-141548001D01*
X113615246Y-141610356D01*
X113555015Y-141645769D01*
X113524827Y-141649500D01*
X102097431Y-141649500D01*
X102030392Y-141629815D01*
X101984637Y-141577011D01*
X101973903Y-141536308D01*
X101971413Y-141507853D01*
X101966549Y-141452253D01*
X101911276Y-141245970D01*
X101821021Y-141052419D01*
X101698529Y-140877481D01*
X101698527Y-140877478D01*
X101547521Y-140726472D01*
X101372578Y-140603977D01*
X101372579Y-140603977D01*
X101236438Y-140540494D01*
X101179030Y-140513724D01*
X101179026Y-140513723D01*
X101179022Y-140513721D01*
X100972752Y-140458452D01*
X100972748Y-140458451D01*
X100972747Y-140458451D01*
X100972746Y-140458450D01*
X100972741Y-140458450D01*
X100760002Y-140439838D01*
X100759998Y-140439838D01*
X100547258Y-140458450D01*
X100547247Y-140458452D01*
X100340977Y-140513721D01*
X100340968Y-140513725D01*
X100147421Y-140603977D01*
X99972478Y-140726472D01*
X99821472Y-140877478D01*
X99698977Y-141052421D01*
X99608725Y-141245968D01*
X99608721Y-141245977D01*
X99553452Y-141452247D01*
X99553450Y-141452258D01*
X99534838Y-141664998D01*
X92485162Y-141664998D01*
X92466549Y-141452253D01*
X92411276Y-141245970D01*
X92321021Y-141052419D01*
X92198529Y-140877481D01*
X92198527Y-140877478D01*
X92047521Y-140726472D01*
X91872578Y-140603977D01*
X91872579Y-140603977D01*
X91736438Y-140540494D01*
X91679030Y-140513724D01*
X91679026Y-140513723D01*
X91679022Y-140513721D01*
X91472752Y-140458452D01*
X91472748Y-140458451D01*
X91472747Y-140458451D01*
X91472746Y-140458450D01*
X91472741Y-140458450D01*
X91260002Y-140439838D01*
X91259998Y-140439838D01*
X91047258Y-140458450D01*
X91047247Y-140458452D01*
X90840977Y-140513721D01*
X90840968Y-140513725D01*
X90647421Y-140603977D01*
X90472478Y-140726472D01*
X90321472Y-140877478D01*
X90198977Y-141052421D01*
X90108725Y-141245968D01*
X90108721Y-141245977D01*
X90053452Y-141452247D01*
X90053450Y-141452258D01*
X90034838Y-141664998D01*
X80000500Y-141664998D01*
X80000500Y-139124997D01*
X87495340Y-139124997D01*
X87495340Y-139125002D01*
X87513944Y-139337654D01*
X87513945Y-139337662D01*
X87569194Y-139543853D01*
X87569197Y-139543859D01*
X87659413Y-139737329D01*
X87698415Y-139793030D01*
X88320000Y-139171445D01*
X88320000Y-139177661D01*
X88347259Y-139279394D01*
X88399920Y-139370606D01*
X88474394Y-139445080D01*
X88565606Y-139497741D01*
X88667339Y-139525000D01*
X88673554Y-139525000D01*
X88051968Y-140146584D01*
X88107663Y-140185582D01*
X88107669Y-140185586D01*
X88301140Y-140275802D01*
X88301146Y-140275805D01*
X88507337Y-140331054D01*
X88507345Y-140331055D01*
X88719998Y-140349660D01*
X88720002Y-140349660D01*
X88932654Y-140331055D01*
X88932662Y-140331054D01*
X89138853Y-140275805D01*
X89138864Y-140275801D01*
X89332325Y-140185589D01*
X89388030Y-140146583D01*
X88766447Y-139525000D01*
X88772661Y-139525000D01*
X88874394Y-139497741D01*
X88965606Y-139445080D01*
X89040080Y-139370606D01*
X89092741Y-139279394D01*
X89120000Y-139177661D01*
X89120000Y-139171446D01*
X89741583Y-139793029D01*
X89780589Y-139737325D01*
X89870801Y-139543864D01*
X89870805Y-139543853D01*
X89926054Y-139337662D01*
X89926055Y-139337654D01*
X89944660Y-139125002D01*
X89944660Y-139124998D01*
X92574838Y-139124998D01*
X92574838Y-139125001D01*
X92593450Y-139337741D01*
X92593452Y-139337752D01*
X92648721Y-139544022D01*
X92648723Y-139544026D01*
X92648724Y-139544030D01*
X92672673Y-139595388D01*
X92738977Y-139737578D01*
X92861472Y-139912521D01*
X93012478Y-140063527D01*
X93047607Y-140088124D01*
X93187419Y-140186021D01*
X93187421Y-140186022D01*
X93187420Y-140186022D01*
X93251936Y-140216106D01*
X93380970Y-140276276D01*
X93587253Y-140331549D01*
X93739215Y-140344844D01*
X93799998Y-140350162D01*
X93800000Y-140350162D01*
X93800002Y-140350162D01*
X93853186Y-140345508D01*
X94012747Y-140331549D01*
X94219030Y-140276276D01*
X94412581Y-140186021D01*
X94587519Y-140063529D01*
X94738529Y-139912519D01*
X94861021Y-139737581D01*
X94951276Y-139544030D01*
X95006549Y-139337747D01*
X95025162Y-139125000D01*
X95025162Y-139124997D01*
X96995340Y-139124997D01*
X96995340Y-139125002D01*
X97013944Y-139337654D01*
X97013945Y-139337662D01*
X97069194Y-139543853D01*
X97069197Y-139543859D01*
X97159413Y-139737329D01*
X97198415Y-139793030D01*
X97820000Y-139171445D01*
X97820000Y-139177661D01*
X97847259Y-139279394D01*
X97899920Y-139370606D01*
X97974394Y-139445080D01*
X98065606Y-139497741D01*
X98167339Y-139525000D01*
X98173554Y-139525000D01*
X97551968Y-140146584D01*
X97607663Y-140185582D01*
X97607669Y-140185586D01*
X97801140Y-140275802D01*
X97801146Y-140275805D01*
X98007337Y-140331054D01*
X98007345Y-140331055D01*
X98219998Y-140349660D01*
X98220002Y-140349660D01*
X98432654Y-140331055D01*
X98432662Y-140331054D01*
X98638853Y-140275805D01*
X98638864Y-140275801D01*
X98832325Y-140185589D01*
X98888030Y-140146583D01*
X98266447Y-139525000D01*
X98272661Y-139525000D01*
X98374394Y-139497741D01*
X98465606Y-139445080D01*
X98540080Y-139370606D01*
X98592741Y-139279394D01*
X98620000Y-139177661D01*
X98620000Y-139171446D01*
X99241583Y-139793029D01*
X99280589Y-139737325D01*
X99370801Y-139543864D01*
X99370805Y-139543853D01*
X99426054Y-139337662D01*
X99426055Y-139337654D01*
X99444660Y-139125002D01*
X99444660Y-139124998D01*
X102074838Y-139124998D01*
X102074838Y-139125001D01*
X102093450Y-139337741D01*
X102093452Y-139337752D01*
X102148721Y-139544022D01*
X102148723Y-139544026D01*
X102148724Y-139544030D01*
X102172673Y-139595388D01*
X102238977Y-139737578D01*
X102361472Y-139912521D01*
X102512478Y-140063527D01*
X102547607Y-140088124D01*
X102687419Y-140186021D01*
X102687421Y-140186022D01*
X102687420Y-140186022D01*
X102751936Y-140216106D01*
X102880970Y-140276276D01*
X103087253Y-140331549D01*
X103239215Y-140344844D01*
X103299998Y-140350162D01*
X103300000Y-140350162D01*
X103300002Y-140350162D01*
X103353186Y-140345508D01*
X103512747Y-140331549D01*
X103719030Y-140276276D01*
X103912581Y-140186021D01*
X104087519Y-140063529D01*
X104238529Y-139912519D01*
X104361021Y-139737581D01*
X104451276Y-139544030D01*
X104506549Y-139337747D01*
X104525162Y-139125000D01*
X104506549Y-138912253D01*
X104451276Y-138705970D01*
X104361021Y-138512419D01*
X104238529Y-138337481D01*
X104238527Y-138337478D01*
X104087521Y-138186472D01*
X103912578Y-138063977D01*
X103912579Y-138063977D01*
X103783547Y-138003809D01*
X103719030Y-137973724D01*
X103719026Y-137973723D01*
X103719022Y-137973721D01*
X103512752Y-137918452D01*
X103512748Y-137918451D01*
X103512747Y-137918451D01*
X103512746Y-137918450D01*
X103512741Y-137918450D01*
X103300002Y-137899838D01*
X103299998Y-137899838D01*
X103087258Y-137918450D01*
X103087247Y-137918452D01*
X102880977Y-137973721D01*
X102880968Y-137973725D01*
X102687421Y-138063977D01*
X102512478Y-138186472D01*
X102361472Y-138337478D01*
X102238977Y-138512421D01*
X102148725Y-138705968D01*
X102148721Y-138705977D01*
X102093452Y-138912247D01*
X102093450Y-138912258D01*
X102074838Y-139124998D01*
X99444660Y-139124998D01*
X99444660Y-139124997D01*
X99426055Y-138912345D01*
X99426054Y-138912337D01*
X99370805Y-138706146D01*
X99370802Y-138706140D01*
X99280586Y-138512669D01*
X99280582Y-138512663D01*
X99241584Y-138456968D01*
X98620000Y-139078552D01*
X98620000Y-139072339D01*
X98592741Y-138970606D01*
X98540080Y-138879394D01*
X98465606Y-138804920D01*
X98374394Y-138752259D01*
X98272661Y-138725000D01*
X98266447Y-138725000D01*
X98888030Y-138103415D01*
X98832329Y-138064413D01*
X98638859Y-137974197D01*
X98638853Y-137974194D01*
X98432662Y-137918945D01*
X98432654Y-137918944D01*
X98220002Y-137900340D01*
X98219998Y-137900340D01*
X98007345Y-137918944D01*
X98007337Y-137918945D01*
X97801146Y-137974194D01*
X97801140Y-137974197D01*
X97607671Y-138064412D01*
X97607669Y-138064413D01*
X97551969Y-138103415D01*
X97551968Y-138103415D01*
X98173554Y-138725000D01*
X98167339Y-138725000D01*
X98065606Y-138752259D01*
X97974394Y-138804920D01*
X97899920Y-138879394D01*
X97847259Y-138970606D01*
X97820000Y-139072339D01*
X97820000Y-139078553D01*
X97198415Y-138456968D01*
X97198415Y-138456969D01*
X97159413Y-138512669D01*
X97159412Y-138512671D01*
X97069197Y-138706140D01*
X97069194Y-138706146D01*
X97013945Y-138912337D01*
X97013944Y-138912345D01*
X96995340Y-139124997D01*
X95025162Y-139124997D01*
X95006549Y-138912253D01*
X94951276Y-138705970D01*
X94861021Y-138512419D01*
X94738529Y-138337481D01*
X94738527Y-138337478D01*
X94587521Y-138186472D01*
X94412578Y-138063977D01*
X94412579Y-138063977D01*
X94283547Y-138003809D01*
X94219030Y-137973724D01*
X94219026Y-137973723D01*
X94219022Y-137973721D01*
X94012752Y-137918452D01*
X94012748Y-137918451D01*
X94012747Y-137918451D01*
X94012746Y-137918450D01*
X94012741Y-137918450D01*
X93800002Y-137899838D01*
X93799998Y-137899838D01*
X93587258Y-137918450D01*
X93587247Y-137918452D01*
X93380977Y-137973721D01*
X93380968Y-137973725D01*
X93187421Y-138063977D01*
X93012478Y-138186472D01*
X92861472Y-138337478D01*
X92738977Y-138512421D01*
X92648725Y-138705968D01*
X92648721Y-138705977D01*
X92593452Y-138912247D01*
X92593450Y-138912258D01*
X92574838Y-139124998D01*
X89944660Y-139124998D01*
X89944660Y-139124997D01*
X89926055Y-138912345D01*
X89926054Y-138912337D01*
X89870805Y-138706146D01*
X89870802Y-138706140D01*
X89780586Y-138512669D01*
X89780582Y-138512663D01*
X89741584Y-138456968D01*
X89120000Y-139078552D01*
X89120000Y-139072339D01*
X89092741Y-138970606D01*
X89040080Y-138879394D01*
X88965606Y-138804920D01*
X88874394Y-138752259D01*
X88772661Y-138725000D01*
X88766447Y-138725000D01*
X89388030Y-138103415D01*
X89332329Y-138064413D01*
X89138859Y-137974197D01*
X89138853Y-137974194D01*
X88932662Y-137918945D01*
X88932654Y-137918944D01*
X88720002Y-137900340D01*
X88719998Y-137900340D01*
X88507345Y-137918944D01*
X88507337Y-137918945D01*
X88301146Y-137974194D01*
X88301140Y-137974197D01*
X88107671Y-138064412D01*
X88107669Y-138064413D01*
X88051969Y-138103415D01*
X88051968Y-138103415D01*
X88673554Y-138725000D01*
X88667339Y-138725000D01*
X88565606Y-138752259D01*
X88474394Y-138804920D01*
X88399920Y-138879394D01*
X88347259Y-138970606D01*
X88320000Y-139072339D01*
X88320000Y-139078553D01*
X87698415Y-138456968D01*
X87698415Y-138456969D01*
X87659413Y-138512669D01*
X87659412Y-138512671D01*
X87569197Y-138706140D01*
X87569194Y-138706146D01*
X87513945Y-138912337D01*
X87513944Y-138912345D01*
X87495340Y-139124997D01*
X80000500Y-139124997D01*
X80000500Y-137794885D01*
X81945034Y-137794885D01*
X81945034Y-137794888D01*
X81964858Y-138021487D01*
X81964860Y-138021498D01*
X82023730Y-138241205D01*
X82023735Y-138241219D01*
X82119863Y-138447366D01*
X82170974Y-138520360D01*
X82850000Y-137841334D01*
X82850000Y-137847549D01*
X82877259Y-137949282D01*
X82929920Y-138040494D01*
X83004394Y-138114968D01*
X83095606Y-138167629D01*
X83197339Y-138194888D01*
X83203553Y-138194888D01*
X82524526Y-138873913D01*
X82597513Y-138925020D01*
X82597521Y-138925024D01*
X82803668Y-139021152D01*
X82803682Y-139021157D01*
X83023389Y-139080027D01*
X83023400Y-139080029D01*
X83249998Y-139099854D01*
X83250002Y-139099854D01*
X83476599Y-139080029D01*
X83476610Y-139080027D01*
X83696317Y-139021157D01*
X83696331Y-139021152D01*
X83902478Y-138925024D01*
X83975471Y-138873912D01*
X83296447Y-138194888D01*
X83302661Y-138194888D01*
X83404394Y-138167629D01*
X83495606Y-138114968D01*
X83570080Y-138040494D01*
X83622741Y-137949282D01*
X83650000Y-137847549D01*
X83650000Y-137841335D01*
X84329024Y-138520359D01*
X84380136Y-138447366D01*
X84476264Y-138241219D01*
X84476269Y-138241205D01*
X84535139Y-138021498D01*
X84535141Y-138021487D01*
X84554966Y-137794888D01*
X84554966Y-137794885D01*
X84535141Y-137568288D01*
X84535139Y-137568277D01*
X84476269Y-137348570D01*
X84476265Y-137348561D01*
X84380134Y-137142406D01*
X84380130Y-137142400D01*
X84371188Y-137129628D01*
X84348861Y-137063422D01*
X84365873Y-136995655D01*
X84398454Y-136959239D01*
X84407546Y-136952434D01*
X84493796Y-136837219D01*
X84544091Y-136702371D01*
X84550500Y-136642761D01*
X84550499Y-134947016D01*
X84544091Y-134887405D01*
X84493796Y-134752557D01*
X84493795Y-134752556D01*
X84493793Y-134752552D01*
X84407547Y-134637343D01*
X84407544Y-134637340D01*
X84292335Y-134551094D01*
X84292328Y-134551090D01*
X84157482Y-134500796D01*
X84157483Y-134500796D01*
X84097883Y-134494389D01*
X84097881Y-134494388D01*
X84097873Y-134494388D01*
X84097864Y-134494388D01*
X82402129Y-134494388D01*
X82402123Y-134494389D01*
X82342516Y-134500796D01*
X82207671Y-134551090D01*
X82207664Y-134551094D01*
X82092455Y-134637340D01*
X82092452Y-134637343D01*
X82006206Y-134752552D01*
X82006202Y-134752559D01*
X81955908Y-134887405D01*
X81949501Y-134947004D01*
X81949501Y-134947011D01*
X81949500Y-134947023D01*
X81949500Y-136642758D01*
X81949501Y-136642764D01*
X81955908Y-136702371D01*
X82006202Y-136837216D01*
X82006206Y-136837223D01*
X82092452Y-136952432D01*
X82092453Y-136952432D01*
X82092454Y-136952434D01*
X82101545Y-136959239D01*
X82143416Y-137015170D01*
X82148402Y-137084862D01*
X82128813Y-137129624D01*
X82119871Y-137142395D01*
X82119868Y-137142400D01*
X82023734Y-137348561D01*
X82023730Y-137348570D01*
X81964860Y-137568277D01*
X81964858Y-137568288D01*
X81945034Y-137794885D01*
X80000500Y-137794885D01*
X80000500Y-121419999D01*
X84894341Y-121419999D01*
X84894341Y-121420000D01*
X84914936Y-121655403D01*
X84914938Y-121655413D01*
X84976094Y-121883655D01*
X84976096Y-121883659D01*
X84976097Y-121883663D01*
X85048839Y-122039658D01*
X85075965Y-122097830D01*
X85075967Y-122097834D01*
X85211501Y-122291395D01*
X85211506Y-122291402D01*
X85378597Y-122458493D01*
X85378603Y-122458498D01*
X85564594Y-122588730D01*
X85608219Y-122643307D01*
X85615413Y-122712805D01*
X85583890Y-122775160D01*
X85564595Y-122791880D01*
X85378922Y-122921890D01*
X85378920Y-122921891D01*
X85211891Y-123088920D01*
X85211886Y-123088926D01*
X85076400Y-123282420D01*
X85076399Y-123282422D01*
X84976570Y-123496507D01*
X84976567Y-123496513D01*
X84919364Y-123709999D01*
X84919364Y-123710000D01*
X85816988Y-123710000D01*
X85784075Y-123767007D01*
X85750000Y-123894174D01*
X85750000Y-124025826D01*
X85784075Y-124152993D01*
X85816988Y-124210000D01*
X84919364Y-124210000D01*
X84976567Y-124423486D01*
X84976570Y-124423492D01*
X85076399Y-124637578D01*
X85211894Y-124831082D01*
X85378917Y-124998105D01*
X85565031Y-125128425D01*
X85608656Y-125183003D01*
X85615848Y-125252501D01*
X85584326Y-125314856D01*
X85565031Y-125331575D01*
X85378922Y-125461890D01*
X85378920Y-125461891D01*
X85211891Y-125628920D01*
X85211886Y-125628926D01*
X85076400Y-125822420D01*
X85076399Y-125822422D01*
X84976570Y-126036507D01*
X84976567Y-126036513D01*
X84919364Y-126249999D01*
X84919364Y-126250000D01*
X85816988Y-126250000D01*
X85784075Y-126307007D01*
X85750000Y-126434174D01*
X85750000Y-126565826D01*
X85784075Y-126692993D01*
X85816988Y-126750000D01*
X84919364Y-126750000D01*
X84976567Y-126963486D01*
X84976570Y-126963492D01*
X85076399Y-127177578D01*
X85211894Y-127371082D01*
X85333946Y-127493134D01*
X85367431Y-127554457D01*
X85362447Y-127624149D01*
X85320575Y-127680082D01*
X85289598Y-127696997D01*
X85157671Y-127746202D01*
X85157664Y-127746206D01*
X85042455Y-127832452D01*
X85042452Y-127832455D01*
X84956206Y-127947664D01*
X84956202Y-127947671D01*
X84905908Y-128082517D01*
X84899501Y-128142116D01*
X84899501Y-128142123D01*
X84899500Y-128142135D01*
X84899500Y-129937870D01*
X84899501Y-129937876D01*
X84905908Y-129997483D01*
X84956202Y-130132328D01*
X84956206Y-130132335D01*
X85042452Y-130247544D01*
X85042455Y-130247547D01*
X85157664Y-130333793D01*
X85157671Y-130333797D01*
X85292517Y-130384091D01*
X85292516Y-130384091D01*
X85299444Y-130384835D01*
X85352127Y-130390500D01*
X87147872Y-130390499D01*
X87207483Y-130384091D01*
X87342331Y-130333796D01*
X87457546Y-130247546D01*
X87543796Y-130132331D01*
X87594091Y-129997483D01*
X87600500Y-129937873D01*
X87600500Y-129764500D01*
X87620185Y-129697461D01*
X87672989Y-129651706D01*
X87724500Y-129640500D01*
X117079055Y-129640500D01*
X117079057Y-129640500D01*
X117231784Y-129599577D01*
X117368716Y-129520520D01*
X117480520Y-129408716D01*
X117513339Y-129351868D01*
X117533042Y-129326191D01*
X122358535Y-124500698D01*
X122419856Y-124467215D01*
X122432311Y-124465163D01*
X122519255Y-124455368D01*
X122689522Y-124395789D01*
X122842262Y-124299816D01*
X122969816Y-124172262D01*
X123065789Y-124019522D01*
X123125368Y-123849255D01*
X123141058Y-123710000D01*
X123145565Y-123670003D01*
X123145565Y-123669996D01*
X123125369Y-123490750D01*
X123125368Y-123490745D01*
X123114610Y-123460000D01*
X123065789Y-123320478D01*
X122969816Y-123167738D01*
X122842262Y-123040184D01*
X122689523Y-122944211D01*
X122519254Y-122884631D01*
X122519249Y-122884630D01*
X122340004Y-122864435D01*
X122339996Y-122864435D01*
X122160750Y-122884630D01*
X122160745Y-122884631D01*
X121990476Y-122944211D01*
X121837737Y-123040184D01*
X121710184Y-123167737D01*
X121614210Y-123320478D01*
X121554630Y-123490750D01*
X121544837Y-123577668D01*
X121517770Y-123642082D01*
X121509298Y-123651465D01*
X116757584Y-128403181D01*
X116696261Y-128436666D01*
X116669903Y-128439500D01*
X87724499Y-128439500D01*
X87657460Y-128419815D01*
X87611705Y-128367011D01*
X87600499Y-128315500D01*
X87600499Y-128142129D01*
X87600498Y-128142123D01*
X87600497Y-128142116D01*
X87594091Y-128082517D01*
X87543796Y-127947669D01*
X87543795Y-127947668D01*
X87543793Y-127947664D01*
X87457547Y-127832455D01*
X87457544Y-127832452D01*
X87342335Y-127746206D01*
X87342328Y-127746202D01*
X87210401Y-127696997D01*
X87154467Y-127655126D01*
X87130050Y-127589662D01*
X87144902Y-127521389D01*
X87166053Y-127493133D01*
X87288108Y-127371078D01*
X87423600Y-127177578D01*
X87523429Y-126963492D01*
X87523432Y-126963486D01*
X87580636Y-126750000D01*
X86683012Y-126750000D01*
X86715925Y-126692993D01*
X86750000Y-126565826D01*
X86750000Y-126434174D01*
X86715925Y-126307007D01*
X86683012Y-126250000D01*
X87580636Y-126250000D01*
X87580635Y-126249999D01*
X87523432Y-126036513D01*
X87523429Y-126036507D01*
X87423600Y-125822422D01*
X87423599Y-125822420D01*
X87288113Y-125628926D01*
X87288108Y-125628920D01*
X87121082Y-125461894D01*
X86934968Y-125331575D01*
X86891344Y-125276998D01*
X86884151Y-125207499D01*
X86915673Y-125145145D01*
X86934968Y-125128425D01*
X87121082Y-124998105D01*
X87288105Y-124831082D01*
X87423600Y-124637578D01*
X87523429Y-124423492D01*
X87523432Y-124423486D01*
X87580636Y-124210000D01*
X86683012Y-124210000D01*
X86715925Y-124152993D01*
X86750000Y-124025826D01*
X86750000Y-123894174D01*
X86715925Y-123767007D01*
X86683012Y-123710000D01*
X87580636Y-123710000D01*
X87580635Y-123709999D01*
X87523432Y-123496513D01*
X87523429Y-123496507D01*
X87423600Y-123282422D01*
X87423599Y-123282420D01*
X87288113Y-123088926D01*
X87288108Y-123088920D01*
X87121078Y-122921890D01*
X86935405Y-122791879D01*
X86891780Y-122737302D01*
X86884588Y-122667804D01*
X86916110Y-122605449D01*
X86935406Y-122588730D01*
X87121401Y-122458495D01*
X87288495Y-122291401D01*
X87424035Y-122097830D01*
X87426707Y-122092097D01*
X87472878Y-122039658D01*
X87539091Y-122020500D01*
X94119903Y-122020500D01*
X94186942Y-122040185D01*
X94207584Y-122056819D01*
X96365139Y-124214374D01*
X96365149Y-124214385D01*
X96369479Y-124218715D01*
X96369480Y-124218716D01*
X96481284Y-124330520D01*
X96532518Y-124360099D01*
X96568095Y-124380639D01*
X96568097Y-124380641D01*
X96594334Y-124395789D01*
X96618215Y-124409577D01*
X96770943Y-124450501D01*
X96770946Y-124450501D01*
X96936653Y-124450501D01*
X96936669Y-124450500D01*
X97917588Y-124450500D01*
X97984627Y-124470185D01*
X97994903Y-124477555D01*
X97997736Y-124479814D01*
X97997738Y-124479816D01*
X98150478Y-124575789D01*
X98320745Y-124635368D01*
X98320750Y-124635369D01*
X98499996Y-124655565D01*
X98500000Y-124655565D01*
X98500004Y-124655565D01*
X98679249Y-124635369D01*
X98679252Y-124635368D01*
X98679255Y-124635368D01*
X98849522Y-124575789D01*
X99002262Y-124479816D01*
X99129816Y-124352262D01*
X99225789Y-124199522D01*
X99285368Y-124029255D01*
X99285369Y-124029249D01*
X99305565Y-123850003D01*
X99305565Y-123849996D01*
X99285369Y-123670750D01*
X99285368Y-123670745D01*
X99225788Y-123500476D01*
X99129815Y-123347737D01*
X99002262Y-123220184D01*
X98849523Y-123124211D01*
X98679254Y-123064631D01*
X98679249Y-123064630D01*
X98500004Y-123044435D01*
X98499996Y-123044435D01*
X98320750Y-123064630D01*
X98320745Y-123064631D01*
X98150476Y-123124211D01*
X97997736Y-123220185D01*
X97994903Y-123222445D01*
X97992724Y-123223334D01*
X97991842Y-123223889D01*
X97991744Y-123223734D01*
X97930217Y-123248855D01*
X97917588Y-123249500D01*
X97150097Y-123249500D01*
X97083058Y-123229815D01*
X97062416Y-123213181D01*
X94907590Y-121058355D01*
X94907588Y-121058352D01*
X94788717Y-120939481D01*
X94788716Y-120939480D01*
X94701904Y-120889360D01*
X94701904Y-120889359D01*
X94701900Y-120889358D01*
X94651785Y-120860423D01*
X94499057Y-120819499D01*
X94340943Y-120819499D01*
X94333347Y-120819499D01*
X94333331Y-120819500D01*
X87539091Y-120819500D01*
X87472052Y-120799815D01*
X87426711Y-120747909D01*
X87424037Y-120742175D01*
X87424034Y-120742170D01*
X87424033Y-120742169D01*
X87288495Y-120548599D01*
X87288494Y-120548597D01*
X87121402Y-120381506D01*
X87121395Y-120381501D01*
X86927834Y-120245967D01*
X86927830Y-120245965D01*
X86927828Y-120245964D01*
X86713663Y-120146097D01*
X86713659Y-120146096D01*
X86713655Y-120146094D01*
X86485413Y-120084938D01*
X86485403Y-120084936D01*
X86250001Y-120064341D01*
X86249999Y-120064341D01*
X86014596Y-120084936D01*
X86014586Y-120084938D01*
X85786344Y-120146094D01*
X85786335Y-120146098D01*
X85572171Y-120245964D01*
X85572169Y-120245965D01*
X85378597Y-120381505D01*
X85211505Y-120548597D01*
X85075965Y-120742169D01*
X85075964Y-120742171D01*
X84976098Y-120956335D01*
X84976094Y-120956344D01*
X84914938Y-121184586D01*
X84914936Y-121184596D01*
X84894341Y-121419999D01*
X80000500Y-121419999D01*
X80000500Y-108749999D01*
X84894341Y-108749999D01*
X84894341Y-108750000D01*
X84914936Y-108985403D01*
X84914938Y-108985413D01*
X84976094Y-109213655D01*
X84976096Y-109213659D01*
X84976097Y-109213663D01*
X84993631Y-109251264D01*
X85075965Y-109427830D01*
X85075967Y-109427834D01*
X85184281Y-109582521D01*
X85211501Y-109621396D01*
X85211506Y-109621402D01*
X85333818Y-109743714D01*
X85367303Y-109805037D01*
X85362319Y-109874729D01*
X85320447Y-109930662D01*
X85289471Y-109947577D01*
X85157912Y-109996646D01*
X85157906Y-109996649D01*
X85042812Y-110082809D01*
X85042809Y-110082812D01*
X84956649Y-110197906D01*
X84956645Y-110197913D01*
X84906403Y-110332620D01*
X84906401Y-110332627D01*
X84900000Y-110392155D01*
X84900000Y-111040000D01*
X85816988Y-111040000D01*
X85784075Y-111097007D01*
X85750000Y-111224174D01*
X85750000Y-111355826D01*
X85784075Y-111482993D01*
X85816988Y-111540000D01*
X84900000Y-111540000D01*
X84900000Y-112187844D01*
X84906401Y-112247372D01*
X84906403Y-112247379D01*
X84956645Y-112382086D01*
X84956649Y-112382093D01*
X85042809Y-112497187D01*
X85042812Y-112497190D01*
X85157906Y-112583350D01*
X85157913Y-112583354D01*
X85292620Y-112633596D01*
X85292627Y-112633598D01*
X85352155Y-112639999D01*
X85352172Y-112640000D01*
X86000000Y-112640000D01*
X86000000Y-111723012D01*
X86057007Y-111755925D01*
X86184174Y-111790000D01*
X86315826Y-111790000D01*
X86442993Y-111755925D01*
X86500000Y-111723012D01*
X86500000Y-112640000D01*
X87147828Y-112640000D01*
X87147844Y-112639999D01*
X87207372Y-112633598D01*
X87207379Y-112633596D01*
X87342086Y-112583354D01*
X87342093Y-112583350D01*
X87457187Y-112497190D01*
X87457190Y-112497187D01*
X87543350Y-112382093D01*
X87543354Y-112382086D01*
X87593596Y-112247379D01*
X87593598Y-112247372D01*
X87599999Y-112187844D01*
X87600000Y-112187827D01*
X87600000Y-111540000D01*
X86683012Y-111540000D01*
X86715925Y-111482993D01*
X86750000Y-111355826D01*
X86750000Y-111224174D01*
X86715925Y-111097007D01*
X86683012Y-111040000D01*
X87600000Y-111040000D01*
X87600000Y-110952135D01*
X114631823Y-110952135D01*
X114631823Y-113047870D01*
X114631824Y-113047876D01*
X114638231Y-113107483D01*
X114688525Y-113242328D01*
X114688529Y-113242335D01*
X114774775Y-113357544D01*
X114774778Y-113357547D01*
X114889987Y-113443793D01*
X114889994Y-113443797D01*
X115024840Y-113494091D01*
X115024839Y-113494091D01*
X115031767Y-113494835D01*
X115084450Y-113500500D01*
X117180195Y-113500499D01*
X117239806Y-113494091D01*
X117374654Y-113443796D01*
X117489869Y-113357546D01*
X117576119Y-113242331D01*
X117626414Y-113107483D01*
X117632823Y-113047873D01*
X117632822Y-111999994D01*
X119627182Y-111999994D01*
X119627182Y-112000005D01*
X119647708Y-112247729D01*
X119647710Y-112247738D01*
X119708735Y-112488717D01*
X119808590Y-112716367D01*
X119908885Y-112869881D01*
X120649360Y-112129408D01*
X120666398Y-112192993D01*
X120732224Y-112307007D01*
X120825316Y-112400099D01*
X120939330Y-112465925D01*
X121002914Y-112482962D01*
X120262266Y-113223609D01*
X120309091Y-113260055D01*
X120309094Y-113260057D01*
X120527708Y-113378364D01*
X120527719Y-113378369D01*
X120762829Y-113459083D01*
X121008030Y-113500000D01*
X121256616Y-113500000D01*
X121501816Y-113459083D01*
X121736926Y-113378369D01*
X121736937Y-113378364D01*
X121955553Y-113260056D01*
X121955559Y-113260051D01*
X122002378Y-113223610D01*
X122002379Y-113223609D01*
X121261731Y-112482962D01*
X121325316Y-112465925D01*
X121439330Y-112400099D01*
X121532422Y-112307007D01*
X121598248Y-112192993D01*
X121615285Y-112129409D01*
X122355758Y-112869882D01*
X122456056Y-112716364D01*
X122555910Y-112488717D01*
X122616935Y-112247738D01*
X122616937Y-112247729D01*
X122637464Y-112000005D01*
X122637464Y-111999994D01*
X122616937Y-111752270D01*
X122616935Y-111752261D01*
X122555910Y-111511282D01*
X122456055Y-111283632D01*
X122355758Y-111130116D01*
X121615285Y-111870590D01*
X121598248Y-111807007D01*
X121532422Y-111692993D01*
X121439330Y-111599901D01*
X121325316Y-111534075D01*
X121261732Y-111517037D01*
X122002378Y-110776389D01*
X122002378Y-110776388D01*
X121955559Y-110739947D01*
X121955554Y-110739944D01*
X121736937Y-110621635D01*
X121736926Y-110621630D01*
X121501816Y-110540916D01*
X121256616Y-110500000D01*
X121008030Y-110500000D01*
X120762829Y-110540916D01*
X120527719Y-110621630D01*
X120527708Y-110621635D01*
X120309093Y-110739943D01*
X120262266Y-110776389D01*
X121002914Y-111517037D01*
X120939330Y-111534075D01*
X120825316Y-111599901D01*
X120732224Y-111692993D01*
X120666398Y-111807007D01*
X120649360Y-111870590D01*
X119908886Y-111130117D01*
X119808590Y-111283633D01*
X119808588Y-111283637D01*
X119708735Y-111511282D01*
X119647710Y-111752261D01*
X119647708Y-111752270D01*
X119627182Y-111999994D01*
X117632822Y-111999994D01*
X117632822Y-110952128D01*
X117626414Y-110892517D01*
X117625438Y-110889901D01*
X117576120Y-110757671D01*
X117576116Y-110757664D01*
X117489870Y-110642455D01*
X117489867Y-110642452D01*
X117374658Y-110556206D01*
X117374651Y-110556202D01*
X117239805Y-110505908D01*
X117239806Y-110505908D01*
X117180206Y-110499501D01*
X117180204Y-110499500D01*
X117180196Y-110499500D01*
X117180187Y-110499500D01*
X115084452Y-110499500D01*
X115084446Y-110499501D01*
X115024839Y-110505908D01*
X114889994Y-110556202D01*
X114889987Y-110556206D01*
X114774778Y-110642452D01*
X114774775Y-110642455D01*
X114688529Y-110757664D01*
X114688525Y-110757671D01*
X114638231Y-110892517D01*
X114631824Y-110952116D01*
X114631824Y-110952123D01*
X114631823Y-110952135D01*
X87600000Y-110952135D01*
X87600000Y-110392172D01*
X87599999Y-110392155D01*
X87593598Y-110332627D01*
X87593596Y-110332620D01*
X87543354Y-110197913D01*
X87543350Y-110197906D01*
X87457190Y-110082812D01*
X87457187Y-110082809D01*
X87342093Y-109996649D01*
X87342088Y-109996646D01*
X87210528Y-109947577D01*
X87154595Y-109905705D01*
X87130178Y-109840241D01*
X87145030Y-109771968D01*
X87166175Y-109743720D01*
X87288495Y-109621401D01*
X87424035Y-109427830D01*
X87523903Y-109213663D01*
X87585063Y-108985408D01*
X87605659Y-108750000D01*
X87585063Y-108514592D01*
X87523903Y-108286337D01*
X87424035Y-108072171D01*
X87288495Y-107878599D01*
X87288494Y-107878597D01*
X87121402Y-107711506D01*
X87121395Y-107711501D01*
X86927834Y-107575967D01*
X86927830Y-107575965D01*
X86927828Y-107575964D01*
X86713663Y-107476097D01*
X86713659Y-107476096D01*
X86713655Y-107476094D01*
X86485413Y-107414938D01*
X86485403Y-107414936D01*
X86250001Y-107394341D01*
X86249999Y-107394341D01*
X86014596Y-107414936D01*
X86014586Y-107414938D01*
X85786344Y-107476094D01*
X85786335Y-107476098D01*
X85572171Y-107575964D01*
X85572169Y-107575965D01*
X85378597Y-107711505D01*
X85211505Y-107878597D01*
X85075965Y-108072169D01*
X85075964Y-108072171D01*
X84976098Y-108286335D01*
X84976094Y-108286344D01*
X84914938Y-108514586D01*
X84914936Y-108514596D01*
X84894341Y-108749999D01*
X80000500Y-108749999D01*
X80000500Y-104624500D01*
X80020185Y-104557461D01*
X80072989Y-104511706D01*
X80124500Y-104500500D01*
X138875500Y-104500500D01*
X138942539Y-104520185D01*
G37*
%TD.AperFunction*%
%TD*%
M02*
